<svg width="75" height="75" viewBox="0 0 75 75" fill="none" xmlns="http://www.w3.org/2000/svg">
<g clip-path="url(#clip0_604_3487)">
<path d="M2.55916 10.2377C0.548828 14.2485 0.548828 19.499 0.548828 30V45C0.548828 55.501 0.548828 60.7515 2.55916 64.7623C4.3275 68.2904 7.14915 71.1587 10.6197 72.9564C14.5652 75 19.7301 75 30.06 75H37.122V46.5692H26.6598V34.5951H37.122V25.4689C37.122 15.087 43.2736 9.3524 52.6857 9.3524C57.1937 9.3524 61.9093 10.1615 61.9093 10.1615V20.3556H56.7134C51.5947 20.3556 49.9985 23.5487 49.9985 26.8246V34.5951H61.4264L59.5995 46.5692H49.9985V74.9874C56.9975 74.9314 61.0335 74.6255 64.256 72.9564C67.7265 71.1587 70.5482 68.2904 72.3165 64.7623C74.3268 60.7515 74.3268 55.501 74.3268 45V30C74.3268 19.499 74.3268 14.2485 72.3165 10.2377C70.5482 6.70964 67.7265 3.84125 64.256 2.04363C60.3105 0 55.1455 0 44.8156 0H30.06C19.7301 0 14.5652 0 10.6197 2.04363C7.14915 3.84125 4.3275 6.70964 2.55916 10.2377Z" fill="#806350"/>
</g>
<defs>
<clipPath id="clip0_604_3487">
<rect width="73.778" height="75" fill="white" transform="translate(0.548828)"/>
</clipPath>
</defs>
</svg>
