<?xml version="1.0" encoding="UTF-8"?><svg id="Layer_2" xmlns="http://www.w3.org/2000/svg" width="402.78" height="462.26" viewBox="0 0 402.78 462.26"><defs><style>.cls-1{fill:#d8b49c;}</style></defs><g id="Layer_2-2"><g id="Perler"><path class="cls-1" d="m105.06,354.57c1.26,1.36,2.27,2.94,3.16,4.56,1.7,3.24,3.35,6.78,3.06,10.52-1.16,9.37-8.4,16.58-15.31,22.39-4.25,3.7-7.27,8.56-9.75,13.56-1.75,3.31-3.07,6.85-3.93,10.48-.55,1.83-.27,3.92.53,5.61.76,1.73.76,3.48.59,5.34l-.37,5.58c-.23,1.98,1.04,3.81,2.22,5.2,1.09,1.49,2.24,2.97,3.12,4.55,2.11,3.3.79,6.99-1.15,10.05-2.4,4.67-6.81,9.23-12.34,9.28-1.83.01-3.19-1.32-4.63-2.33-2.18-1.68-4.57-3.08-6.03-5.43-.79-1.06-1.05-2.98-2.47-3.63-1.51-.55-2.89-.35-4.41-.41-.84.04-3.16-.03-3.96.15-2.54.59-4.53,2.62-6.12,4.43-.64.7-1.22,1.49-1.78,2.15-.52.62-1.02.93-1.77.69-2.37-1.11-4.12-3.45-5.84-5.43-1.96-2.14-4.58-3.62-7.28-4.57-1.26-.47-2.64-.72-3.72-1.41-.3-.21-.38-.4-.4-.65,0-.25.17-.95,0-1.53-.11-.56-.48-1.16-.91-1.5-.43-.35-.66-.52-.77-.8-.11-.26-.11-.52.03-.92.68-1.66,1.43-3.56,1.63-5.44.11-.99.07-2-.23-3-.52-1.86-2.21-2.9-1.86-4.88.54-1.76.6-3.75.57-5.58.06-1.93.35-3.76-.11-5.7-.35-1.87-2.31-2.87-2.14-4.9.24-2.69.03-5.64.49-8.28.46-2.55,1.16-8.98,4.95-7.47,3.39,1.47,6.86,3.23,10.69,3.46,4.05-.14,6.25-4.32,8.56-7.08,2.32-2.92,4.22-6.18,6.06-9.41,2.67-4.92,5.53-9.71,7.84-14.82,2.12-6.88,1.86-15.39,8.16-20.12,4.6-3.52,10.64-2.67,16.05-2.2,1.85.14,3.69.39,5.49.86,1.79.44,3.5,1.26,4.9,2.47.66.65,1.43,1.21,2.25,1.67,2.56,1.11,5.09,2.32,6.95,4.49h-.02Zm.05-.05c-1.85-2.17-4.4-3.43-6.95-4.53-.81-.46-1.56-1.01-2.22-1.66-1.41-1.23-3.14-2.06-4.94-2.51-1.8-.47-3.65-.74-5.51-.88-5.42-.49-11.56-1.36-16.2,2.18-6.36,4.71-6.19,13.3-8.31,20.18-2.32,5.06-5.2,9.87-7.88,14.75-1.85,3.22-3.74,6.44-6.06,9.34-4.46,5.7-5.98,8.68-13.61,5.59-1.75-.63-3.43-1.41-5.13-2.18-2.14-.89-3.59.49-4.31,2.44-1.78,4.33-1.61,9.17-1.87,13.77,0,.93.21,1.91.81,2.66,2.09,2.13,1.49,5.24,1.39,7.93-.05,1.39.07,2.8-.25,4.15-.44,1.32-.6,2.86.22,4.08,1.13,1.5,1.79,3.27,1.5,5.17-.21,1.86-.92,3.58-1.62,5.3-.41.96.1,1.93.93,2.46.8.61.79,1.59.66,2.5,0,.5.29.96.68,1.23,1.18.79,2.61,1.02,3.9,1.52,2.61.93,5.09,2.35,6.99,4.39,1.83,2.08,3.56,4.45,6.16,5.6,2.1.66,3.06-1.87,4.29-3.06,1.22-1.38,2.51-2.77,4.16-3.63,1.63-.98,3.58-.65,5.42-.76,1.36.05,2.83-.14,4.11.32,1.3.66,1.41,2.31,2.25,3.4,1.5,2.41,4.01,3.89,6.2,5.57,1.5,1.06,3,2.45,4.95,2.42,5.77-.04,10.33-4.76,12.8-9.59,2-3.15,3.34-7.11,1.12-10.52-.92-1.63-2.07-3.1-3.18-4.59-1.18-1.41-2.35-2.98-2.16-4.93l.35-5.57c.17-1.86.15-3.77-.64-5.5-.79-1.7-1.06-3.58-.54-5.4.85-3.62,2.14-7.13,3.86-10.42,2.45-4.99,5.42-9.83,9.64-13.52,6.92-5.86,14.16-13.14,15.29-22.56.28-3.77-1.39-7.32-3.11-10.58-.9-1.63-1.92-3.2-3.19-4.57h0Z"/><path class="cls-1" d="m83.36,404.76c.74-3.02,1.89-5.93,3.54-8.56,1.11-1.72,4.05-5.96,5.23-7.73,1.18-1.71,2.33-3.42,3.57-5.11.89-.92,1.55-3.01.66-4.35-.77-1.31-1.87-2.1-2.94-3.08-1.13-.96-2.54-1.96-4.19-1.58-1.34.43-2.56,1.37-3.72,2.03-.9.71-1.93.43-2.35-.55-.26-1.1.75-2.32.91-3.57.16-.78,0-1.76-.59-2.44-1.61-1.6-3.79-1.89-5.73-2.76-1.93-.7-3.87-1.54-5.96-1.8-1.44-.22-3.38.34-4.03,1.76l-1,1.78c-3.35,5.83-7.11,11.7-10.96,17.05,4.69-5.79,8.67-12.12,12.45-18.53,2-3.1,6.59-.47,9.26.38,3.21,1.42,7.61,1.73,5.2,6.34-.24.62-.47,1.33-.25,2.02.5,1.44,2.29,1.91,3.44.94,1.01-.59,2.42-1.62,3.52-1.97,1.35-.32,2.59.59,3.58,1.42.99.9,2.13,1.72,2.81,2.88.72,1.21.26,2.68-.61,3.69-1.2,1.69-2.34,3.44-3.49,5.16-3.22,4.98-7.59,10.66-8.34,16.57h-.01Z"/><path class="cls-1" d="m67.99,367.71c.45-5.23,3.6-11.17,9.49-11.06,8.58-.75,16.18.96,21.34,8.37,4.39,6.58,4.99,17.96-4.64,19.56,10-.87,9.7-13.49,5.21-19.94-5.14-7.65-13.24-9.53-21.95-8.58-6.07,0-9.48,6.35-9.44,11.65h0Z"/><path class="cls-1" d="m62.96,391.18c-1.99-2.52-5.44-7.8-8.99-4.66-3.69,3.25-5.46,5.75-2.14,10.22,1.58,1.9,3.53,3.39,5.75,4.46,1.52.56,3.15-.21,4.35-.95,4.89-2.69,4.47-5.24,1.03-9.07h0Zm-.06.05c3.24,3.79,3.79,6.21-1.16,8.66-1.19.64-2.6,1.28-3.94.76-2.02-1.08-3.95-2.56-5.37-4.35-3.18-4.06-1.39-6.35,1.83-9.48,3.27-3.12,6.7,2.1,8.65,4.41h0Z"/><path class="cls-1" d="m71.16,402.72c-3.76,2.26-2.82,7.48-.02,10.16,2.07,2.28,5.21,3.04,8.22,2.99,2.26.06,4.11-1.88,4.56-3.95,1.5-4.72,1.52-8.23-4.2-9.16-1.91-.28-3.82-.4-5.74-.46-.95.01-1.98-.07-2.83.42h0Zm.04.07c.84-.46,1.85-.36,2.79-.36,1.9.09,3.82.24,5.69.62,5.43,1.12,5.02,4.25,3.59,8.66-.49,1.84-1.94,3.45-3.94,3.46-2.81.07-5.85-.51-7.89-2.59-2.86-2.53-3.88-7.49-.23-9.8h0Z"/><path class="cls-1" d="m68.85,406.11c-1.58,1.54-3.09,3.16-4.71,4.59-.82.68-1.63,1.32-2.54,1.42-1.77.21-4.01-.93-4.69-2.61-.33-.69.13-1.79.41-2.8.61-2.07,1.85-4.13,2.61-6.02-1.56,2.26-2.92,4.72-3.68,7.38-.78,2.92,2.87,5.12,5.45,4.72,1.13-.17,2.04-.92,2.83-1.67,1.49-1.54,3.22-3.31,4.31-5.01h.01Z"/><path class="cls-1" d="m83.53,434.35c-1.23,3.61-2.95,7.32-5.37,10.22-3.08,3.11-7.02.95-9.74-1.62-1.49-1.24-2.89-3.05-4.81-3.65-3.1-.93-6.99-.35-9.17-3.04-.65-.9-1.99-1.32-3.04-1.36-.9-.06-1.62-.28-2.27-.89-.65-.63-1.49-1.47-2.22-1.99-4.25-3.24-8.29-6.77-12.26-10.34-2.72-2.58-6.16-5.08-5.87-9.2-.13-1.01-.39-2-.79-2.94-.69-1.41-1.51-2.4-.92-3.86.36-.86.76-1.97.53-2.95l-.34-1.46c-.5-1.6-.86-4.95-3.28-3.91l.03.07c.44-.17.96-.25,1.39-.04.43.21.67.68.85,1.11.48,1.3.79,2.87,1.07,4.24.34,1.52-.93,2.75-.84,4.25.02,1.03.76,1.81,1.09,2.71.9,1.81.56,3.82,1.05,5.73,1.04,2.79,3.53,4.68,5.59,6.71,1.42,1.34,2.9,2.62,4.37,3.9,2.92,2.6,5.96,5.07,8.99,7.5.71.64,1.35,1.47,2.33,1.79.94.4,1.97.18,2.86.56.96.27,1.36,1.3,2.2,1.86.79.61,1.77.9,2.71,1.12,2.32.67,4.96.4,7.06,1.67l1.14.92c2.22,1.84,4.29,4.21,7.18,4.95,3.17.8,5.76-1.22,7.07-3.99,1.37-2.51,2.88-5.38,3.42-8.07h0Z"/><path class="cls-1" d="m53.83,436.59c.94,2.55-1.07,4.52-3.4,4.69-1.25.07-3.06-.4-3.58-1.63-.72-2.21,1.5-4.32,3.86-4.13l.02-.07c-2.52-.67-5.41,1.84-4.51,4.44,1.07,2.44,4.68,2.62,6.64,1.18,1.47-.96,1.89-2.99,1.04-4.5l-.07.03h0Z"/><path class="cls-1" d="m42.19,429.15c1.08,1.59.69,4.2-1.16,4.89-1.66.42-4.06.35-5.41-.7-.71-.54-1.07-1.52-1.34-2.34-.68-2.44.48-3.15,2.63-3.96.87-.43,1.94-.32,2.9.1l.04-.06c-1.4-.98-3.1-.53-4.54.14-.48.2-.98.46-1.31.89-.67.88-.64,2.07-.38,3.07.31,1,.67,2.06,1.53,2.75,1.67,1.2,4.23,1.27,6.13.65,2.04-.81,2.45-4.15.91-5.42h0Z"/><path class="cls-1" d="m83.59,458c.34-1.12-.08-2.43-.83-3.28-1.88-2.05-3.64-5.1-6.7-5.46-2.67.28-5.66.65-8.35.82-2.18.26-4.62.09-6.67.38,4.45.38,8.94.24,13.37-.28,1.08-.2,2.23-.39,3.2.26,1.86,1.21,3.35,2.93,4.86,4.54.81.78,1.23,1.88,1.05,3h.07v.02Z"/><path class="cls-1" d="m52.25,450.57c-1.41-.76-3.14-1.34-4.46-2.14-.7-.48-.92-1.17-1.38-1.9-1.44-2.68-3.98-5.48-4.3-8.5.03-.22.13-.22.34-.32.89-.26,2.37.03,2.83.8.15,1.97.84,4.5,3.04,5.06.64.32,1.19,1.29,1.87,1.65.51.23.99.08,1.48.04.83-.09,1.63-.22,2.1.24.52.49.88,1.31.98,2.05.1.79,0,1.63-.25,2.42l.07.03c.77-1.71.66-4.97-1.67-5.27-.81-.1-1.7.25-2.47,0-.35-.19-.56-.6-.86-.87-.29-.3-.55-.64-.94-.85-.38-.2-.8-.28-1.11-.55-.65-.5-1-1.3-1.22-2.09-.31-.77-.09-1.8-.55-2.44-.83-1.12-4.04-1.74-4.35.05.33,3.37,2.94,6.04,4.61,8.83.46.69.82,1.5,1.57,1.95.72.46,1.56.63,2.32.97l2.33.91.03-.07h-.01Z"/><path class="cls-1" d="m77.92,415.19c-1.88,5.04-5.65,6.31-10.48,4.22-4.2-1.51-7.96-3.93-11.27-6.92-3.13-2.92-7.11-5.73-8.94-9.65-1.53-4.1.27-9.05,3.66-11.78-2.74,1.69-4.59,5.31-4.69,8.63-.27,5.97,5.71,9.62,9.48,13.37,4.23,3.69,9.26,6.76,14.86,7.74,3.52.71,6.79-2.47,7.38-5.61h0Z"/><path class="cls-1" d="m24.53,430.05c-.13-1.8.08-3.57,1.33-4.95,1.65-1.95,2.88-4.4,3.22-6.96.05-.65.09-1.29.02-1.93h-.07c-.25,2.5-1.27,4.84-2.62,6.94-.63,1.08-1.63,1.96-2,3.18-.33,1-.38,2.93.13,3.71h0Z"/><path class="cls-1" d="m41.74,438.63c-5.62-.82-11.1-2.38-15.87-5.53l-.05.06c4.23,3.85,10.38,5.81,15.92,5.48h0Z"/><path class="cls-1" d="m43.25,430.11c.29,2.5.34,4.22.13,6.73.62-.61.88-2.41.88-3.38-.04-.97-.37-2.76-1.01-3.35h0Z"/><path class="cls-1" d="m28.69,435.15c-.49,1.62-1.26,3.14-1.27,4.89,0,2.56,2.02,3.58,4.34,3.01.12-.02.03,0,0-.02-.07-.05,0,.04.05.28.27,1.7,2.29,2.25,3.75,2.36.47.17.6.88.52,1.37-.03.21-.14.61-.06,1.01.16.93,1.15,1.34,1.42,2.14.48,1.52,1.23,3.2,2.44,4.3l.06-.05c-.68-.85-1.23-1.81-1.57-2.85-.31-1.04-.52-2.2-1.38-2.95-.4-.39-.43-.96-.27-1.49.1-.55,0-1.14-.29-1.63-.29-.53-.95-.61-1.49-.66-.99-.18-2.24-.6-2.45-1.74-.06-.25-.13-.59-.43-.73-.31-.14-.59.02-.84.05-2.75.59-3.77-1.71-3.18-4.08l.71-3.2-.07-.02h.01Z"/><path class="cls-1" d="m83.57,410.79c-1.32-.19-4.51,0-4.19-1.9.16-.83.48-2.02-.29-2.8-1.14-1.08-2.53-.81-3.94-.92-.93,0-2.09.52-2.42,1.46-.08.16-.07.16-.14.21-1.13.16-2.35-1.02-3.34-1.59l-.05.05c.88.8,1.77,1.71,2.95,2.06.41.12.9-.03,1.08-.43.8-1.59,2.89-1,4.31-.83,2.51.5.57,2.53,1.44,3.92.52.69,1.42.83,2.19.91.8.06,1.61.02,2.41-.06v-.07h0Z"/><path class="cls-1" d="m62.3,399.64c-.97-1.44-2.09-2.86-2.8-4.42-.32-.76-.55-1.55-.18-1.87,1.32-1.09,1.69-2.96.4-4.32-1.54-1.69-3.1-.75-3.97,1.01-1.03,1.97-2.44-.55-3.21-1.5l-.07.03c.6,1,1.3,2.82,2.72,2.66,1.28-.38,1.45-2.5,2.93-2.41,1.23.29,2.06,1.91,1.48,3.07-.19.39-.53.68-.81,1.03-.62.76-.19,1.81.2,2.56.87,1.48,2.09,3.14,3.32,4.15h-.01Z"/><path class="cls-1" d="m101.89,342.69c-.7,1.95-3.7,1.47-3.38-.71.02-.04-.04-.08-.06-.04-1.13,1.88,1.28,3.53,2.86,2.29.46-.37.69-.97.66-1.54,0-.05-.07-.04-.07,0h0Z"/><path class="cls-1" d="m103.14,342.2c.87,5.26-6.24,5.92-6.23.7.02-.59.25-1.16.57-1.71.02-.04-.03-.08-.06-.04-.9.92-1.23,2.35-.8,3.58.72,2.65,4.59,3.45,6.17,1.13.76-1.05.88-2.48.41-3.67-.02-.04-.08-.02-.07.03h0v-.02Z"/><path class="cls-1" d="m103.99,339.6c.05.95-.28,1.94-1.23,2.19-1.77.5-3.84.21-4.99-1.34-.26-.35-.4-.7-.32-1.12.06-.44.41-.85.81-1.2.03-.03,0-.08-.04-.06-.48.23-.93.6-1.14,1.11-.54,1.65,1.29,3.09,2.73,3.43,1.45.26,3.66.19,4.26-1.43.17-.52.13-1.08-.02-1.6-.02-.05-.08-.02-.07.02h.01Z"/><path class="cls-1" d="m104.39,337.49c-.02.49-.02.98-.22,1.33-.63.99-2.32.48-3.28.23-.82-.24-1.66-.64-2.11-1.16-.5-.42-.16-1.38.39-2.19.04-.03-.02-.09-.05-.05-.51.49-1.06,1.09-1.07,1.85.13,2.17,5.76,3.77,6.5,1.42.11-.48.03-.98-.09-1.44-.01-.05-.08-.03-.07.02h0Z"/><path class="cls-1" d="m105.36,336.46c-.78,1.66-2.64,1.13-3.86.29-1.23-.66-2.31-1.39-1.62-2.79,1.34-2.5,6.51-.28,5.48,2.5h0Zm.07.03c1.12-3.17-4.63-5.93-6.23-2.85-.86,1.87.54,2.9,2.13,3.49,1.31.72,3.39,1.05,4.1-.64h0Z"/><path class="cls-1" d="m105.59,335.31c1.5-.86,1.54-2.87.07-3.8-1.45-.98-4.03-2.29-5.18-.25-.21.46-.31.91-.26,1.37,0,.04.06.04.07,0,.5-2.19,2.23-2.13,3.87-1.13,1.83.76,2.87,1.99,1.37,3.76-.03.03.02.08.06.05h0Z"/><path class="cls-1" d="m106.69,332.92c2.5-1.08.73-3.67-1.04-4.45-.94-.38-1.74-.56-2.81-.42-1.13.22-1.58,1.47-1.3,2.42,0,.05.07.05.07,0,.12-3.32,4.49-1.49,5.61.25.52.72.07,1.66-.58,2.14-.04.03,0,.09.05.06h0Z"/><path class="cls-1" d="m107.82,330.7c.78-.43,1.48-1.31.98-2.32-.54-.79-1.08-1.47-1.97-1.89-.78-.24-1.55-.1-2.34,0-.43.06-.97.16-1.26.55-.24.3-.5.97-.35,1.24.17-.32.29-.71.6-.94.27-.26.65-.25,1.02-.26.62.04,1.62-.1,2.18.17.32.15.59.42.86.67.54.47,1.18,1.03.82,1.81-.13.34-.34.65-.59.92-.03.03.02.08.05.05h0Z"/><path class="cls-1" d="m102.14,328.55c.44-5.41-.96-9.19-6.21-11.44-1.5-.59-2.82-1.31-4.46-1.58-1.67-.24-3.26.53-4.68,1.24-2.01,1.11-4.74,1.96-5.77,4.22-.95,2.13-1.67,4.25-2.91,6.18-.83,1.26-1.57,2.8-2.08,4.22-2.3,4.45-.48,10.4,4.11,12.55,3,1.19,6.18,1.43,9.32.98,3.11-.61,5.88-2.43,7.73-4.89-1.91,2.05-4.72,4.11-7.79,4.5-2.98.38-6.22.06-9-1.11-2.73-1.38-4.55-4.32-4.72-7.36-.03-4.71,3.52-8.41,5.09-12.65.56-1.4,1.02-2.94,2.3-3.86,1.25-.86,2.67-1.49,4.02-2.21,1.35-.67,2.78-1.43,4.32-1.24.76.08,1.48.35,2.2.62,2.14.8,4.36,1.61,5.95,3.32,1.1,1.06,1.93,2.42,2.21,3.92.29,1.5.27,3.05.31,4.58,0,.05.08.05.07,0h-.01Z"/><path class="cls-1" d="m86.26,317.12c2.7-7.72-1.41-9.78-7.35-13.3-2.5-1.43-4.34-3.55-6.74-5.17-1.85-1.02-4.39-1.17-5.99.47-.7.85-.84,1.72-1.4,2.55-.99,1.46-2.65,2.65-3.74,4.13-2.51,2.84-4.16,6.37-6.09,9.62l-1.46,2.42c-1.97,3.44-2.14,8.04.18,11.38.62.87,1.41,1.48,2.18,2.05,2.4,1.6,4.72,3.28,7.39,4.38,2.3.68,4.07,2.13,5.6,3.92,2.11,1.49,5.03.12,6.42-1.73.03-.04-.03-.09-.06-.05-.6.72-1.34,1.33-2.19,1.72-1.23.54-2.88.75-3.99-.15-.94-1.04-1.82-2.19-3.06-2.91-.79-.51-1.66-.91-2.55-1.22-2.58-1.11-4.89-2.84-7.2-4.43-3.21-2.12-4.24-6.45-3.17-10.02.39-1.87,1.59-3.37,2.53-5.01,1.96-3.22,3.54-6.67,6.03-9.53,1.1-1.54,2.71-2.61,3.77-4.22.53-.78.75-1.75,1.33-2.48,1.3-1.37,3.63-1.23,5.18-.36,2.35,1.55,4.31,3.68,6.8,5.05,1.64.94,3.3,1.82,4.81,2.96,1.51,1.06,3.05,2.4,3.31,4.33.31,1.92-.19,3.94-.52,5.58h0l-.02.02Z"/><path class="cls-1" d="m65.78,299.92c-1.55-1.33-3.07-2.71-4.65-4.03-1.7-1.35-3.94-2.99-6-1.19-4.4,4.41-8.26,9.22-11.54,14.53-.93,1.87-2.32,4-1.65,6.18,1.6,3.97,6.08,6.35,10.22,6.25-1.81-.26-4.04-.65-5.75-1.87-1.62-1.13-3.28-2.61-3.9-4.53-.54-2.01.81-3.96,1.68-5.69,3.26-5.14,7.15-9.99,11.31-14.42,1.73-1.65,3.86-.06,5.39,1.06,1.63,1.11,3.36,2.81,4.88,3.7h0Z"/><path class="cls-1" d="m54.32,295.48c-.02-5.88-3.51-13.39-9.35-15.46-4.59-1.81-10.05-.72-13.61,2.68-4.18,3.2-7.8,6.02-7.08,11.88.47,4.94,3.42,9.07,7.19,12.09,3.67,3.14,9.35,3.57,13.38.9-3.97,2.2-9.45,1.97-13.07-1.28-3.57-2.99-6.41-7.04-6.83-11.79-.67-5.58,2.94-8.16,6.85-11.26,3.42-3.31,8.5-4.33,12.97-2.69,3.09.9,5.11,3.48,6.75,6.1,1.76,2.56,2.5,6,2.8,8.81h0v.02Z"/><path class="cls-1" d="m42.57,279.42c.72-2.1,1.23-4.54-.63-6.23-.51-.67-.53-1.44-.9-2.21-.47-.88-1.61-1.14-2.48-1.2-2.27-.09-4.25,1.15-6.4,1.48-2.74.46-5.04,2.2-7.54,3.3-2.81,1.61-6.48,2.59-8.25,5.56-1.43,2.21,0,5.74,2.87,5.36,3.26-.07,6.53.28,9.72-.54.05-.01.03-.08-.01-.07-1.07.12-2.14.34-3.22.36-2.15-.01-4.32-.27-6.48-.24-1.8.2-2.93-1.35-2.82-3.04.65-3.87,5.55-4.99,8.51-6.71,1.97-.88,3.76-2.16,5.79-2.9,2.07-.55,4.18-1.11,6.21-1.82,1.02-.27,2.17-.3,3.13.16.98.56.8,1.96,1.55,2.75.81.84,1.41,1.53,1.37,2.79.02,1.08-.22,2.14-.5,3.18-.02.05.06.07.07.02h.01Z"/><path class="cls-1" d="m37.95,269.82c.76-.65,1.49-1.29,2.28-1.9.42-.31.82-.81.88-1.35.18-1.67-.84-3.23-2.25-4.05-3.96-1.66-8.33.92-11.54,3.06-.76.45-1.35.87-2.21.48-3.31-.99-6.02,1.71-8.54,3.37l-2.3,1.92c-.8.66-1.79,1.35-2.05,2.47-.18,1.14-.11,2-.01,3.13.33,1.94,2.68,4.16,4.56,2.78.04-.03,0-.09-.04-.06-.4.29-.9.42-1.38.34-2.03-.43-3.03-2.66-2.78-4.59.01-.49,0-1,.12-1.47.25-.98,1.17-1.53,1.93-2.14,1.55-1.23,3.09-2.48,4.77-3.54,1.59-1.02,3.53-2.19,5.47-1.5.96.48,2.03-.04,2.83-.59,2.98-2.06,7.23-4.61,10.92-3.23,1.27.68,2.25,2.11,2.16,3.58-.04.5-.35.9-.73,1.22-.75.65-1.46,1.34-2.18,2.03-.04.03.02.09.05.05h.04Z"/><path class="cls-1" d="m36.66,262.2c.76-.69.75-1.85.37-2.72-.44-1.38-.95-2.75-1.92-3.88-1.15-1.24-2.91-.63-4.34-.62-3.83-.14-7.62.49-11.21,1.91-1.73.88-3.33,1.71-5.03,2.51-1.52.85-4.1,1.51-4.91,3.23-.42,1.02-.47,2.05-.22,3.08.2.98.99,1.65,1.35,2.53.19.42.3.8.45,1.3.6,1.44,2.7,1.88,3.91,1.19-1.25.35-3.07.1-3.61-1.29-.11-.44-.21-.92-.39-1.35-.3-.91-1.08-1.56-1.24-2.49-.2-.9-.11-1.87.27-2.71.71-1.41,3.35-2.14,4.68-2.86,3.39-1.58,6.65-3.49,10.43-3.97,2.3-.58,4.64-.33,6.97-.63.9-.17,1.91-.19,2.6.5.92,1.04,1.52,2.35,2,3.65.16.43.35.88.33,1.34-.03.46-.23.9-.53,1.25-.04.04.03.08.06.05h0l-.02-.02Z"/><path class="cls-1" d="m35.3,255.91c2.22-.83.97-3.4.57-5-.13-.42-.1-.88-.47-1.44-.36-.47-.9-.73-1.41-.83-2.87-.37-5.6.58-8.3,1.31-6.15,1.95-12.46,3.95-17.6,7.97-1.38,1.39-1.95,3.68-1.05,5.44.43.85,1.36,1.51,2.33,1.39.05,0,.05-.07,0-.07-2.02.03-2.79-2.41-2.27-4.07.39-1.88,1.99-3,3.6-3.83,1.61-.86,3.25-1.66,4.88-2.49,5.09-1.97,10.27-3.94,15.63-5.03,1.79-.28,4.05-.64,4.29,1.76.32,1.29,1.26,2.57.73,3.92-.17.41-.53.73-.94.91-.05.02-.01.09.03.07h-.02Z"/><path class="cls-1" d="m34.33,248.85c2.64-3.54-4.9-3.27-6.8-3.36-4.65.21-9.21,1-13.65,2.4-2.67.83-5,2.7-6.42,5.12-.22.36-.34.89-.28,1.31.11,1.84,2.13,3.12,3.59,1.88-1.57.79-3.11-.09-3.2-1.89-.08-.78.49-1.4.95-1.98,1.41-1.81,3.39-3.1,5.57-3.78,5.83-1.6,11.97-2.93,18.04-2.35.74.14,1.53.22,2.17.62.63.46.46,1.47-.02,1.99-.04.04.03.08.06.05h-.01Z"/><path class="cls-1" d="m83.71,318.4c.2-.69.99-2.59-.18-2.72-1.46.44-2.4,2.11-3.4,3.15-2.15,2.72-3.94,6.08-5.49,9.18-1.07,2.13-2.35,4.47-1.91,6.98.19.66.36,1.86,1.28,1.97.49-.03.95-.57,1.06-.96-.35.31-.89,1.12-1.41.57-.95-1.5-.62-3.49.03-5.06.77-1.89,2.27-4.46,3.23-6.29,1.68-3.09,3.49-6.19,5.93-8.76,1.51-1.46.99,1.11.79,1.93-.01.05.06.06.07.02h0Z"/><path class="cls-1" d="m29.33,245.58c2.14-4.41,4.21-9.93,2.75-14.85-.28-.72-.82-1.32-1.29-1.91-1.47-1.64-2.73-3.56-4.55-4.85-4.76-2.86-10.52-.87-14.98,1.59-2.63,1.34-5.25,3.02-6.91,5.55-4.28,6.38-.73,16.45,6.66,18.07-5.66-1.76-8.93-8.05-7.73-13.75,1.01-6.07,7.14-8.87,12.22-11.04,1.34-.52,2.73-.93,4.16-1.06,2.81-.22,5.98.31,7.81,2.64l2.87,3.24c2.23,2.09,1.86,5.36,1.48,8.12-.33,2.82-1.57,5.83-2.49,8.25h0Z"/><path class="cls-1" d="m26.7,224.3c2.46-.93,5.27-3.41,4.2-6.32-.46-1.29-.77-2.51-.76-3.83.13-1.6-.25-3.33-2.27-3.52-6.4,0-13.95-.05-20.28.33-.29.02-1.19.1-1.47.11-1.56,0-4-.5-4.6,1.53-.63,2.11-.7,4.31.19,6.35.67,1.22,1.18,2.39,1.53,3.65.35,1,.18,2.08.75,3.05.52.68,1.39.9,2.18.71,2.19-1.02,4.7-.74,6.92-1.47-1.94.41-4.08.23-6.03.83-.63.21-1.29.5-1.93.24-1.47-.45-.98-2.32-1.41-3.48-.62-2.61-2.49-4.89-1.97-7.7.19-1.19.3-3.01,1.86-3.07,2.69.1,5.37-.14,8.07-.2,5.37-.24,10.77-.19,16.14-.31.65.05,1.31.38,1.59.99.29.6.22,1.29.25,1.97.01,1.36.39,2.69.87,3.94.54,1.26.19,2.71-.66,3.75-.83,1.06-1.99,1.81-3.19,2.38-.05.02,0,.09.03.07h0Z"/><path class="cls-1" d="m29.14,211.04c1.18-1.66,1.82-5.15-.62-6.01-1.28-.4-2.67-.13-3.91-.3-1.62-.2-3.33-.6-5.07-.74-5.17-.49-10.25-1.47-15.47-.92-.88.17-1.93.47-2.49,1.53-.19.54-.2.93-.26,1.37-.11,1.26-.28,2.61-.22,3.89.04.43.1.94.46,1.29.34.33.81.45,1.24.46.05,0,.05-.07,0-.07-2.15-.17-1.34-2.79-1.23-4.23.26-1.97.17-3.39,2.57-3.66,5.11-.39,10.23.64,15.32,1.03,2.55.22,5.08.86,7.66.63,3.28-.29,3.2,3.64,1.94,5.7-.03.04.04.08.07.04h.01Z"/><path class="cls-1" d="m28.49,205.04c1.34-.72,2.26-2.22,2.26-3.77l.02-.75-.07-.75c-.2-1.32-.21-2.56-.71-3.82-.48-.82-1.55-1.02-2.33-1.11-3.99-.32-7.95-.46-11.94-.24-2.94.2-6.07.62-8.83,1.66-2.9.89-5.48-1.83-5.77,3.06-.4,2.19.75,2.94,2.8,3.04.99-.05,1.94.11,2.84.56.04.02.08-.04.04-.07-1.9-1.32-6.08.15-5.23-3.48.14-.88.14-2.15,1.12-2.51.46-.14.96,0,1.44.08,2.5.64,4.8-.92,7.25-1.16,2.27-.29,5.06-.5,7.37-.56.74-.06,2.22-.07,2.96-.02,1.97.08,3.95.08,5.91.22.71.07,1.52.17,1.94.79.53,1.51.8,3.45.89,5.06.07,1.49-.71,2.92-1.98,3.71-.04.02,0,.09.04.06h-.02Z"/><path class="cls-1" d="m28.17,194.96c.81-1.56,1.36-3.37,1.08-5.15-.73-1.92-3.24-1.87-4.92-2.01-3.45-.12-6.91-.08-10.36.12-4.26.33-9.14-.47-12.73,2.46-1.05.94-1.77,2.75-.75,3.95,1.16.76,2.33,1.03,3.33,2.04.03.04.09-.02.05-.05-.84-1.02-2.11-1.5-3.15-2.2-.79-1.05-.08-2.61.83-3.36,3.59-2.65,8.29-1.8,12.46-2.09,3.43-.26,6.87-.3,10.31-.29,3.15.07,5.34.25,4.53,4.09-.13.85-.39,1.67-.74,2.45-.02.04.05.07.07.03h0Z"/><path class="cls-1" d="m27.57,188.41c2.34-.5,5.15-2.6,4.97-5.26-.5-2.5-4.69-3.12-6.81-3.31-3.01.08-5.83.86-8.83.44-3.9-.32-8.13-1.1-11.98.24-2.01.5-4.29,2.21-3.61,4.65.83,2.01,2.97,2.98,4.95,3.24-2.52-.61-6.41-2.94-3.78-6.03,6.01-4.18,13.65-.13,20.3-1.59,1.95-.39,3.93-.41,5.85.15,1.32.36,3.13.77,3.47,2.3.21,1.49-.93,2.8-1.97,3.74-.74.65-1.63,1.13-2.59,1.36-.05,0-.03.08.02.07h0Z"/><path class="cls-1" d="m31.89,181.85c4.1-.41,6.63-3.23,8.24-6.78,1.68-3.26,3.98-7.05,2.22-10.79-2.29-5.33-7.68-9.09-13.42-9.38-5.58-.55-11.08-.85-16.72-.33-4.04.23-6.81,4-8.18,7.43-3.13,6.78-2.61,17.06,6.58,17.94-3.61-.75-6.96-2.78-7.57-6.95-1.12-5.79,1.43-13.9,6.62-17.05,4.3-1.56,9.17-.76,13.68-.74,3.63.27,7.46.22,10.86,1.65,1.65.8,3.18,1.87,4.48,3.16,5.18,5.45,4.4,8.7,1.1,14.88-.82,1.63-1.58,3.37-2.95,4.62-1.49,1.42-3.27,1.85-4.93,2.34h0Z"/><path class="cls-1" d="m32.33,155.62c.36-1.5-.21-3.42-1.8-3.96-3.61-1.19-7.13-2.22-10.84-3-3.81-.61-7.42.53-11.22.85-1.95.07-2.76,1.97-2.72,3.64-.12,1.54.47,3.24,1.76,4.09.04.03.08-.03.04-.06-1.16-.95-1.62-2.53-1.41-3.99.09-1.06.32-2.31,1.33-2.85,1.75-.54,3.69-.29,5.49-.73,2.17-.42,4.43-.46,6.63-.23,1.49.2,4.98,1.19,6.5,1.52,1.43.38,2.9.68,4.3,1.14.71.22,1.3.73,1.58,1.42.3.67.35,1.43.28,2.16,0,.05.07.05.07,0h.01Z"/><path class="cls-1" d="m31.86,152.95c2.65.33,2.21-1.12,2.65-3.03,2.06-3.66-1.35-8.06-5.1-8.69-3.6-.67-7.22-1.23-10.87-1.5-1.57-.19-2.8-.84-4.44-1.27-2.21-.45-4.92-.1-6.21,1.93-2.92,4.29,1.04,9.48,5.84,8.51.05,0,.03-.08,0-.07-2.04.27-4.27-.57-5.44-2.28-1.18-1.7-1.17-4.14.08-5.8,1.23-1.79,3.62-2.03,5.59-1.61,1.49.41,2.93,1.13,4.49,1.33,3.63.31,7.25.77,10.83,1.41,3.54.54,6.7,4.53,4.93,7.98-.36,1.82.25,3.23-2.33,3.03-.05,0-.05.07,0,.07h-.02Z"/><path class="cls-1" d="m29.41,141.41c1.11-.08,2.24-.35,3.24-.91.97-.56,1.72-1.34,2.82-1.62.57-.2,1.26-.15,1.7-.71.25-.27.37-.71.36-1.02-.08-1.41-.01-2.65.35-4.05.2-.65.09-1.71-.68-2.08-.32-.17-.54-.25-.8-.37-1.21-.63-2.47-1.25-3.63-1.93-1.77-1.29-4.21-2.2-6.42-2.4-4.44-.58-9.13-.93-13.5.72-4.5,1.83-5.78,8.05-3.11,11.84-1.46-2.74-1.58-6.76.68-9.38,3.65-4.34,14.08-3.05,19.07-1.74,2.05.83,3.86,2.21,5.89,3.1.63.46,1.73.48,1.95,1.33.05.26,0,.54-.04.81-.23,1.09-.38,2.21-.3,3.33.02.54.18,1.15-.19,1.58-.33.45-.98.39-1.49.62-.53.19-1.03.45-1.48.79-1.25,1.12-2.77,1.89-4.45,2.04-.05,0-.04.08,0,.07h0l.03-.02Z"/><path class="cls-1" d="m36.94,130.96c1.5-2.56,2.98-5.33,3.4-8.34.12-.64.15-1.43-.22-2.02-.76-1.18-1.95-1.63-3.08-2.25-2.19-1.05-4.42-2.07-6.81-2.59-2.33-.58-4.82-.49-7.13-.89-2.3-.35-4.46-1.16-6.6-2.21-1.18-.52-2.27-1.2-3.68-1.13-3.05.32-2.87,4.2-3.37,6.45-.57,3.48-1.39,8.01,2.72,9.63-3.92-2.23-2.88-5.63-2.24-9.54.21-1.17.41-2.35.73-3.5.28-1.13.89-2.35,2.2-2.39,1.19-.04,2.27.62,3.34,1.1,2.13,1.07,4.4,1.95,6.77,2.33,2.36.4,4.78.26,7.11.82,2.35.46,4.52,1.5,6.71,2.45,1.03.52,2.24.98,2.9,1.97.57,1.05.06,2.36-.11,3.47-.45,2.3-1.86,4.69-2.65,6.64h0Z"/><path class="cls-1" d="m36.52,118.36c7.61-2.68,11.46-12.65,6.08-19.21-3.75-5.29-10.22-6.95-16.1-8.53-6.82-2.31-12.71,1.48-15.07,7.95-1.62,4.43-.46,9.52,2.29,13.18-2.28-3.6-3.58-8.7-1.83-13.01,2.36-6.08,7.99-9.71,14.43-7.43,4.3,1.32,8.95,2.24,12.59,5.02,8.72,6.65,7,17.44-2.38,22.03h0Z"/><path class="cls-1" d="m41.85,98.44c7.2,1.43,6.64-7.98,6.03-12.63-.39-2.04-2.57-3.06-4.06-4.04-2.07-1.27-4.23-2.36-6.34-3.55-1.09-.56-2.11-1.15-3.25-1.67-2.33-1.09-4.81-1.1-7.34-1.28-.8-.06-1.59.47-2,1-1.1,1.54-1.83,3.14-2.86,4.69-2.73,3.72-1.15,7.28,2.64,9.34.04.03.08-.03.04-.06-.97-.7-1.99-1.39-2.71-2.36-1.12-1.42-1.18-3.48-.53-5.12,1.29-2.02,2.55-4.1,3.9-6.08.37-.45.91-.81,1.51-.76,2.37.2,4.87.23,7.05,1.28,4.18,2.32,8.73,4.24,12.5,7.21.91.86.96,2.15,1.07,3.32.22,2.39.38,4.84-.22,7.18-.59,2.63-2.8,3.92-5.41,3.45-.05-.01-.06.07-.01.07h-.01Z"/><path class="cls-1" d="m232.5,32.07c.17-5.39-5.98-10.26-11.09-7.65-1.64.89-2.53,2.57-3.39,4.1-.82,1.54-1.35,3.36-1.24,5.16.05,6.07,6.01,9.76,11.19,6.44-7.77,3.66-13.05-4.48-9.3-11.25,1.54-3.39,4.07-5.43,7.9-4.17,1.59.49,3.08,1.41,4.08,2.76,1.23,1.54,1.44,3.04,1.84,4.62h.01Z"/><path class="cls-1" d="m221.13,24.97c3.2-5.53,1.78-16.48-6.39-9.97-2.58,2.68-3.47,6.4-4.95,9.66-.85,2.21-1.73,4.42-2.47,6.71-1.23,3.32-1.68,8.36,2.15,10.19,2.72.97,4.95-1.16,6.09-3.32.65-1,1.2-2.07,1.63-3.18.02-.05-.05-.07-.07-.03-1.03,2.07-2.22,4.3-4.1,5.68-4.02,2.29-6.46-2.11-5.91-5.7.57-3.51,2.12-6.77,3.38-10.07,1.42-3.2,2.27-6.86,4.7-9.47,3.52-3.03,6.8-2.53,7.09,2.58.41,2.33-.42,4.97-1.14,6.92h0Z"/><path class="cls-1" d="m212.06,19.99c1.9-8.73-7.54-12.58-12.97-5.8-1.57,1.71-1.76,4.22-2.35,6.31-.62,2.12-1.51,4.11-1.79,6.37-.9,4.56,3.02,9.83,7.83,9.42,2.56-.17,4.51-1.14,4.61-3.94,0-.05-.07-.05-.07,0-.24,2.7-2.1,3.5-4.56,3.55-3.34.23-6.2-2.64-7.03-5.7-.81-3.27.8-6.44,1.73-9.5.59-2.08.66-4.39,2.16-6.08,5.48-6.54,13.52-2.83,12.44,5.38h0Z"/><path class="cls-1" d="m198.13,16.3c.27-4.2-1.29-9.83-5.99-10.83-5.15-1.04-8.67,1.8-11.26,5.91l-1.24,1.79c-1.39,1.81-2.01,4.34-1.72,6.58.37,2.91.92,5.67.9,8.57-.09,1.43-.03,3.34.99,4.48,1.67,2.47,6.3,5.44,9.08,3.2,1.65-1.93,4.31-2.86,5.51-5.2.74-1.29,1.04-2.81.89-4.26,0-.05-.08-.04-.07,0,.16,2.17-.77,4.35-2.38,5.79-1.13.89-2.41,1.61-3.49,2.58-.58.45-.95,1.14-1.7,1.25-2.86.49-5.69-1.5-7.29-3.74-.98-1.18-.9-2.67-.84-4.11.05-2.91-.48-5.79-.83-8.65-.51-3.01,1.03-5.61,2.78-7.91,2.41-3.9,5.74-6.72,10.6-5.82,4.61.86,6,6.55,6.09,10.34h0l-.03.03Z"/><path class="cls-1" d="m179.43,14.18c1.07-2.51,0-5.1-1.32-7.26-1.2-2.43-4.47-3.82-7-2.71-2.28,1.44-3.76,3.74-4.88,6.12-1.18,2.27-1.06,5.01-1.66,7.44-1.12,3.15-.95,6.51.27,9.61,1.56,3.4,6.48,4.2,9.42,2.25.71-.59,1.59-1.86,2.21-2.56,1.8-1.94,2.54-4.61,1.69-7.15-.02-.05-.08-.03-.07.02.31,1.21.34,2.5.04,3.71-.45,1.78-2.08,3.19-3.18,4.59-2.17,3.03-8.02,2.2-9.49-1.13-1.14-2.96-1.25-6.2-.15-9.18.6-2.45.4-5.03,1.56-7.34,1.01-2.24,2.47-4.47,4.52-5.87,2.26-1.02,5.27.23,6.39,2.4.61,1.09,1.35,2.14,1.72,3.34.34,1.21.24,2.5-.13,3.7-.02.05.06.07.07.02h0Z"/><path class="cls-1" d="m165.47,15.01c-.13-2.42-.19-5.82-.27-8.2-.17-1.38-.07-3.04-1.03-4.16-1.47-1.72-3.75-2.04-5.84-2.46-2.16-.63-5.06.3-5.78,2.6-.87,2.75-.97,5.46-1.16,8.27-.18,3.22-.21,7.12-.14,10.32.32,3.67.14,8.15,5.15,8.02,6.5.51,7.5.48,7.76-6.4,0-.05-.07-.05-.07,0-.54,6.68-1.26,6.54-7.64,5.92-1.33-.1-2.83-.27-3.51-1.59-.93-1.74-.84-4.05-1.03-5.98-.04-3.17.02-7.04.23-10.23.16-2.7.26-5.49,1.06-8.08.65-2.05,3.13-2.73,5.04-2.21,1.96.36,4.17.59,5.58,2.17.49.48.61,1.18.74,1.84.35,2.02.38,4.07.53,6.11l.32,4.09c0,.05.08.04.07,0h0v-.03Z"/><path class="cls-1" d="m129.53,10.2c3-9.26,14.5-11.37,20.05-3.31,2.57,5.11.89,11.48.5,16.97-.29,2.03-.79,4.19-2.84,4.86-2.12.46-4.31,1.04-6.37,1.62-2,.48-4.4.88-5.85-.81-1.39-1.68-2.25-3.77-2.3-5.98,0-.05-.08-.05-.07,0,.04,2.7,1.18,6.41,3.95,7.41,1.44.43,2.96.17,4.39-.14,2.15-.55,4.28-1.06,6.45-1.5,2.31-.66,3.05-3.25,3.32-5.35.47-5.73,2.21-12.04-.58-17.42-3.18-5.09-10.64-6.81-15.64-3.42-2.38,1.56-4.49,4.5-5,7.07h-.01Z"/><path class="cls-1" d="m126.1,25.8c-.35,2.74.97,6.51,4.16,3.97l1.21-.89c2.09-1.26,2.1-3.88,1.3-5.89-2.65-6.47-2.67-13.52-3.87-20.32-.28-1.03-.86-2.48-2.12-2.55-1.05.03-2.39.12-3.13.9-.65,1.03-.31,2.06-.25,3.13l.35,2.96c0,.05.08.04.07,0-.04-1.01-.28-3.46-.23-4.45.02-.48.05-1.01.36-1.38.65-.63,1.91-.66,2.78-.67.49.03.87.4,1.1.83.71,1.32.74,2.85.9,4.31.29,2.88.6,6.02,1.07,8.86.33,1.96.74,3.91,1.34,5.8.62,2.27,2.38,4.76,1.05,7.05-.93,1.09-2.18,2.08-3.46,2.7-.99.38-1.89-.56-2.17-1.44-.29-.94-.44-1.93-.39-2.92,0-.05-.07-.05-.07,0h0Z"/><path class="cls-1" d="m125.13,31.92c.52-.58.63-1.38.75-2.1.32-2.22.43-4.48.37-6.72-.13-2.97.06-6.18-1.37-8.87-1.14-2.9-.06-5.95-1.52-8.88-.73-1.61-2.79-2.23-4.39-2.04-3.24-.07-6.68,2.16-7.12,5.55-.51,4.63,1.58,9.03,2.86,13.29l1.4,4.25c.86,1.98.45,4.87,2.67,6.04,1.94,1.07,4.72,1.13,6.35-.51h0Zm-.06-.05c-2.05,2-6.44,1.51-7.66-1.19-.48-1.4-.51-2.94-1.02-4.35l-1.28-4.3c-1.15-4.27-3.06-8.57-2.57-13.07.58-3.85,5.18-5.75,8.65-4.74,2.24.89,2.31,3.69,2.55,5.75.08,1.48.14,3.02.76,4.41.69,1.34,1.17,2.73,1.26,4.25.36,3.71.53,7.46.02,11.17-.11.72-.21,1.51-.71,2.07h0Z"/><path class="cls-1" d="m113.94,19.09c-1.61-3.71-3.56-7.63-6.81-10.22-3.77-2.89-8.53-2.26-11.47,1.44-1.13,1.22-2.82,1.92-3.75,3.32-3.15,4.6.04,10.27,2.78,14.23,2.82,3.78,6.75,9.16,12.1,7.93,1.69-.39,3.16-1.05,4.71-1.67,1.16-.48,2.38-1.27,2.98-2.46,1.29-3.51,1.05-7.55-.15-11.01.74,2.89,1.08,6.54.18,9.67-.27,1.67-1.69,2.78-3.2,3.35-2.91,1.12-6.39,2.72-9.29.77-2.76-1.76-4.9-4.31-6.73-6.99-2.52-3.79-5.72-9.05-2.81-13.44.43-.72,1.1-1.16,1.77-1.63,1.32-.97,2.43-2.2,3.6-3.32,3.35-2.73,8.27-1.3,10.85,1.81,2.19,2.36,3.87,5.6,5.25,8.22h0Z"/><path class="cls-1" d="m47.91,86.59c2.92.27,6.01-.97,7.58-3.54.82-1.2,1.58-2.4,2.35-3.63.83-1.25,1.6-2.93.95-4.45-.61-1.53-1.66-2.55-2.57-3.66-1.88-2.16-3.74-4.32-5.46-6.59-.82-1.04-1.84-2.62-2.99-3.33-2.4-1.73-5.3-2.63-8.1-3.37-1.44-.38-2.98-.89-4.53-.48-2.94.94-4.45,3.9-6.44,6.04-3.31,3.4-2.17,8.79.74,12.07-2.41-3.42-3.81-8.22-.36-11.76,1.91-1.98,3.51-4.83,6.22-5.72,1.4-.36,2.82.15,4.19.51,4.14,1.06,8.39,2.67,10.71,6.48,1.75,2.27,3.64,4.44,5.54,6.59.92,1.09,1.96,2.13,2.52,3.44.6,1.39-.1,2.8-.83,3.99-.73,1.23-1.48,2.46-2.25,3.66-.76,1.21-1.76,2.28-3.08,2.87-1.29.61-2.74.85-4.16.81-.05,0-.05.08,0,.07h-.03Z"/><path class="cls-1" d="m53.74,68.78c2.73,1.74,5.8,3.62,9.21,3.59,2.56.03,3.88-2.45,3.2-4.77-1.01-2.68-3.14-4.34-4.9-6.4-2.03-2.05-5.95-6.96-8.32-8.56-1.71-1.06-3.58-1.64-5.24-2.77-1.66-1.16-3.81-2.2-5.92-1.72-3.77,1.13-3.71,4.13-1.71,6.87,1.6,2.15,3.62,4.04,5.75,5.5-2.81-2.44-10.82-9.55-3.91-11.8,2.73-.53,4.9,1.52,7.14,2.71,2.43,1.08,4.67,2.34,6.36,4.46,2.65,2.91,5.38,5.75,8.03,8.66.84.99,1.75,1.99,2.17,3.23.35,1.18.18,2.76-.86,3.55-1.07.78-2.52.69-3.76.46-2.56-.4-5.14-1.99-7.23-3.01h-.01Z"/><path class="cls-1" d="m55.76,55.44c2.62,2.54,5.12,5.22,7.98,7.5,1.35,1.01,2.91,2.69,4.46,3.41,1.17.35,2.05-.44,2.88-1.03,2.16-1.79,3.97-3.87,5.68-6.09,2.54-3.04,1.7-5.34-1.07-7.82-3.54-3.43-10.2-9.75-13.87-13.17-1.35-1.24-2.53-2.56-3.98-3.81-.76-.66-1.87-1.23-2.93-1.03-1.11.13-1.82,1.01-2.5,1.74l-3.58,4.15c-1.18,1.39-2.44,2.68-3.56,4.2-.57.77-.99,1.9-.54,2.84,1.43,2.29,3.99,4,6.18,5.49.04.03.08-.04.04-.06-2.16-1.56-4.53-3.24-5.93-5.54-.37-.86.02-1.8.57-2.5,1.1-1.44,2.4-2.74,3.6-4.11,6.14-6.71,5.23-7.95,12.15-.88,2.63,2.51,9.33,8.9,11.88,11.32,1.64,1.78,4.86,3.64,4.34,6.45-.59,1.96-7.11,10.11-9.21,9.38-1.4-.64-3.1-2.32-4.36-3.25-2.91-2.09-5.61-5.11-8.23-7.2h0Z"/><path class="cls-1" d="m73.35,49.35c3.57,3.03,10.34,7.39,15.04,4.83,3.88-2.04,4.72-6.44,2.3-9.98-3.08-4.58-7.84-7.65-11.38-11.73-1.91-1.98-3.28-4.18-4.86-6.45-1.76-2.26-4.4-3.75-7.12-4.41-1.82-.47-3.66-.59-5.47-.73-1.85-.18-3.99.04-5.46,1.32-2.22,1.8-3.37,5.11-2.02,7.74.94,1.6,3.94,4.9,5.11,6.39.03.04.09,0,.06-.05-1.1-1.49-4.02-4.9-4.89-6.48-1.19-2.48-.05-5.59,2.04-7.22,1.43-1.19,3.34-1.32,5.11-1.13,1.8.17,3.61.32,5.35.78,2.61.66,5.08,2.07,6.74,4.21,1.53,2.23,2.98,4.55,4.86,6.52,3.57,4.08,8.3,7.08,11.38,11.57,2.24,3.26,1.58,7.27-1.99,9.21-3.34,1.87-7.14.03-10.25-1.48-1.77-.79-3.21-2.07-4.55-2.93h0v.02Z"/><path class="cls-1" d="m89.48,42.77c1.31,1.7,3.52,3.24,5.8,2.65,2.15-.75,4.38-1.8,5.23-4.15.51-3.01-.09-6.19-1.66-8.82-4.25-5.43-7.5-10.6-11.78-15.77-.4-.51-.75-1.15-1.15-1.78-.8-1.39-2.39-2.34-4.01-2.51-3.81-.43-5.1,3.2-6.08,6.08-1.66,4.15-.32,9.23,2.2,12.68-2.17-3.64-3.48-8.4-1.74-12.5.98-2.59,2.12-6.04,5.55-5.61,1.41.18,2.8.96,3.51,2.23.39.61.73,1.26,1.18,1.84l1.36,1.7c2.77,3.39,5.02,7.14,7.76,10.54.91,1.14,1.87,2.23,2.66,3.45,1.48,2.42,2.15,5.53,1.74,8.33-.68,2.11-2.92,3.24-4.85,3.99-2.17.62-4.31-.79-5.66-2.4-.03-.04-.09,0-.06.05h0Z"/><path class="cls-1" d="m234.28,32.17c-.75-.67-2.1-.41-2.5.54-.28.41-.24.93-.29,1.41-.03.18-.03.14-.15.18-1.09-.15-2.09.5-2.37,1.63-.26.67.33,1.53.64,1.97.04.12,0,.03-.08.09-.55.16-1.49.44-1.83,1.13-.64,1.14-.24,2.62.84,3.36,2.99,1.63,5.13-1.61,3.08-4.04-.02-.06-.02.08-.08.08,1.62-.55,1.82-2.2,1.15-3.61-.03-.13.22-.07.38-.06,1.53.31,2.37-1.73,1.22-2.68h-.01Zm-.05.06c1.03.9.26,2.76-1.15,2.45-.15,0-.31-.07-.49,0-.08.04-.14.16-.12.25.51,1.34.38,2.77-1.2,3.19-.17.1-.2.33-.13.49.39.68.8,1.37.62,2.18-.11,1.38-1.8,1.77-2.82,1.07-1.03-.62-1.24-2.48,0-2.98.28-.13.59-.2.88-.36.83-.49,0-1.14-.3-1.64-.16-.26-.21-.57-.15-.87.12-.59.52-1.16,1.09-1.38.29-.11.6-.05.93-.11.39-.08.29-.57.31-.86-.08-1.33,1.42-2.32,2.53-1.43h0Z"/><path class="cls-1" d="m232.94,38.5c.31.74,1.19.94,1.73,1.47.68.53.97,1.07,1.66,1.66,1.07.6,1.48-.98,2.01-1.53.41-.55.73-.67,1.2-1.27.49-.74-.14-1.55-.74-1.8-.32-.18-1.19-.58-1.53-.74-1.02-.3-2.27-1.73-3.39-1.07-.39.26-.57.65-.72,1.01-.27.7-.53,1.52-.22,2.27h0Zm.07-.03c-.34-.99.17-2.4,1.01-3,.33-.2.71-.1,1.01.12,1.17.93,2.63,1.56,3.84,2.41.28.34-.1.62-.34.85-.73.64-1.07,1.58-1.55,2.37-.12.12-.32.14-.46.05-.58-.44-1.12-1.02-1.76-1.44-.56-.47-1.45-.65-1.76-1.36h.01Z"/><path class="cls-1" d="m238.38,39.41c.43-.14.82.25,1.19.47,1.19.78,2.19,1.71,3.61,2.18.71.31,1.95.13,2.51.45.49.37.59.79.07,1.15-1.24.6-3.18-.53-4.53-1.14-.84-.39-1.73-.69-2.56-1.06-.4-.19-.79-.46-.8-.93-.03-.42.12-.93.51-1.14h0v.02Zm-.03-.07c-.44.23-.61.76-.59,1.21,0,.5.43.87.82,1.07.82.43,1.65.81,2.45,1.26,1.5.82,3.36,2.29,5.14,1.41.39-.27.7-.72.65-1.22-.38-1.84-2.27-1.08-3.55-1.41-1.56-.39-2.86-1.43-4.23-2.23-.2-.1-.46-.2-.69-.09h0Z"/><path class="cls-1" d="m253.71,46.42c.93-4.32-5.74-8.48-8.56-4.48-.03.04,0,.09.05.06,2.28-2.18,5.95-.63,7.49,1.71.53.81.85,1.76.95,2.72,0,.05.08.04.07,0h0Z"/><path class="cls-1" d="m256.4,48.14c1.11-3.72-.5-8.12-4.08-9.97-1.86-.68-3.81-1.02-5.78-.58-1.88.53-3.68,2.34-3.97,3.92,2-3.78,5.78-4.14,9.44-2.66,3.43,1.59,4.74,5.98,4.39,9.29h0Z"/><path class="cls-1" d="m247.71,51.49c-3.91-.6-6.94-4.01-5.78-8.14.02-.04-.04-.08-.07-.04-2.33,4.1,1.67,8.88,5.84,8.18h.01Z"/><path class="cls-1" d="m247.2,48.91c-1.52-1.29-3.01-2.61-2.83-4.78,0-.04-.05-.05-.07-.02-.55.97-.45,2.22.19,3.12.63.9,1.65,1.46,2.69,1.75.05,0,.06-.05.02-.07h0Z"/><path class="cls-1" d="m243.88,39.5c-.94-1.46-3.16-1.85-4.53-.86,1.51.11,3.1.27,4.5.93.04,0,.06-.04.03-.07h0Z"/><path class="cls-1" d="m252.91,45.83c4.62,4.8,11.79,4.31,17.87,5.48,3.12.32,6.27.62,9.31,1.14,3.05.53,5.8,2.16,8.22,4.07-.85-1.12-2.44-2.09-3.72-2.9-4.12-2.47-9.12-2.37-13.73-3.06l-9.36-1.23c-2.34-.27-4.65-.92-6.66-2.17-.66-.42-1.26-.93-1.89-1.39l-.05.06h.01Z"/><path class="cls-1" d="m284.31,58.22c-2.39-2.27-5.67-3.47-8.94-3.81-4.1-.86-8.38-.92-12.39-1.69-4.17-.77-15.87-3.62-14.59-9.28.22-.88.95-1.56,1.71-2.03-.88.21-1.64,1.08-1.95,1.94-1.02,2.98,1.91,5.19,4.17,6.5,6.56,3.81,14.27,4,21.58,4.88,1.83.31,3.71.37,5.47.94,1.95.53,3.46,1.67,4.92,2.54h.02Z"/><path class="cls-1" d="m248.58,42.55c-2.33,3.17-2.45,7.88.07,11.01,1.64,2.17,4.31,3.11,6.82,3.72,2.46.62,4.94,1.07,7.45,1.33,1.26.06,2.6.24,3.82.11-2.45-.33-5.01-.61-7.45-1.21-3.53-.91-7.64-1.42-10.11-4.38-2.57-3.07-2.23-7.39-.6-10.58h0Z"/><path class="cls-1" d="m255.1,40.89c2.18-.33,3.67.86,5.32,2.08,1.65,1.16,3.39,2.24,5.17,3.29,2.01,1.03,4.62,2.01,6.88,1.21.52-.07.54.75.64,1.27.1.46.02.84-.3,1.19-.45.51-1.05.62-1.26.81.97-.06,2.14-.91,1.95-2.02-.05-1.29-.36-2.13-1.83-1.64-.99.23-1.99-.07-2.97-.3-2.9-.88-5.38-2.77-7.98-4.3-1.67-1.13-3.55-2.3-5.65-1.66-.05,0-.03.08.02.07h0Z"/><path class="cls-1" d="m280.95,62.41c2.96-6.31,13.18-7.78,15.25-.09.41,1.08.25,2.62.44,2.94.28-1.99-.04-4.12-1.16-5.82-3.76-5.6-12.91-2.94-14.54,2.97h.01Z"/><path class="cls-1" d="m295.89,68c-1.62,2.89-4.81,4.9-8.13,4.8-2.44.09-4.95-.73-6.18-2.99-.5-.69-.88-1.45-1.23-2.26l-.07.02c.21.85.53,1.67.95,2.43,1.11,2.56,3.9,3.6,6.53,3.55,3.41.06,7.23-2.32,8.13-5.55h0Z"/><path class="cls-1" d="m283.85,63.07c3.02-3.54,8.6-3.76,9.42,1.59h.07c.31-2.35-1.49-4.69-3.87-4.9-2.27-.32-4.79,1.38-5.62,3.3h0Z"/><path class="cls-1" d="m292.6,67.58c-1.53,1.83-3.7,2.04-5.92,1.92-1.28,0-2.55-.08-3.17-1.49h-.07c.29,2.21,2.88,2.23,4.6,2.24,1.88.04,3.83-.88,4.63-2.64l-.07-.03h0Z"/><path class="cls-1" d="m285.31,63.02c-3.55.08-6.77-1.58-9.48-3.69-1.71-1.5-3.97-2.46-5.29-4.32-.8-1.3-2.85-1.27-3.98-.34-1.6,1.21-1.08,3.72.39,4.81.79.58,1.82.56,2.6.95,2.97,1.55,5.27,4.6,8.17,6.4,1.99,1.38,4.67,2.16,7.07,1.41,2.29-.74,4.52-2.34,5.28-4.71.33-1.19.14-2.44-.35-3.51-.02-.04-.09-.02-.07.03,1.02,2.24.07,4.77-1.91,6.12-2.74,2.42-6.82,2.29-9.66.12-2.96-1.9-5.1-4.9-8.23-6.55-1.04-.48-2.4-.36-3.05-1.46-1.2-1.59-.24-3.64,1.78-3.61.58,0,1.13.23,1.44.74.68.97,1.63,1.72,2.63,2.32,1.99,1.21,3.73,2.84,5.87,3.85,1.97,1.06,4.76,1.82,6.78,1.45h0Z"/><path class="cls-1" d="m301.75,68.47c-.4.42-1.03.38-1.57.3-1.7-.28-3.34-.82-5.06-1.07-.82-.15-2.49-.25-3.16-.61-.46-.19-1.08-1.31-.69-1.75,1.85-.47,4.4.42,6.36.39,1.13.05,2.32.02,3.41.13,1.14.24,1.52,1.77.71,2.6h0Zm.05.05c.89-.86.51-2.53-.72-2.82-1.14-.18-2.28-.24-3.41-.37-2.13-.12-4.69-1.32-6.8-.61-1,.8-.15,2.5.81,2.97.94.41,2.4.32,3.41.43,1.71.12,3.38.52,5.08.78.55.06,1.22.09,1.64-.37h0Z"/><path class="cls-1" d="m301.01,68.88c0,1.99,3.11,2.99,4.3,1.56-1.55.22-3.35-.22-4.24-1.6l-.06.04h0Z"/><path class="cls-1" d="m306.49,66.86c-.5-1.45-2.19-2.29-3.68-1.85-.52.16-.94.55-1.14,1.02l.05.06c1.46-1.11,3.48-.23,4.72.83l.05-.06h0Z"/><path class="cls-1" d="m309.83,66.65c.72-.23,1.15-1.09.94-1.82-.35-1.61-2.73-2.12-3.68-.69-.23.34-.36.79-.26,1.24.12.44.41.82.3.81-.9.28-2.1,1.85-1.4,3,.21.41.53.74.64.91.01.02,0,.04,0-.07,0-.1.06-.21.12-.25-1.62-.02-2.47,1.72-1.4,3.08.14.15.3.37.22.25-.05-.1-.02-.35.08-.44.1-.1.11-.07.06-.06-.25.07-.86.21-1.07.62-.66,1.52,1.39,2.76,2.73,2.43,1.4-.28,1.08-1.99.11-2.56-.03-.01.09.05.07.29-.02.1-.08.19-.13.23-.05.04-.07.04-.08.04.61-.19,1.46-.23,1.88-.81.66-.96.24-2.54-.93-2.71.07.04.07.22-.01.26-.04.01.11-.03.18-.04,1.64-.16,2.45-2.38,1.16-3.45-.52-.37.16-.12.47-.27h0Zm-.02-.07c-.22.08-.44.01-.67.05-.08.02-.08.14-.04.17.32.31.65.63.73,1.09.13.68-.08,1.48-.67,1.89-.38.29-.83.32-1.27.44-.09.06,0,.16.07.17.21.07.42.15.58.3.48.49.5,1.38.11,1.93-.4.46-1.17.41-1.73.58-.04.01-.12.05-.13.14-.01.08.04.14.07.17.3.23.52.49.59.84.22,1.27-1.94.7-2.29-.04-.21-.26-.32-.69.02-.82.28-.13.99-.13.83-.63-.21-.35-.51-.54-.6-.89-.24-.69.16-1.44.93-1.47,1.41-.19.28-.98-.07-1.58-.46-.8.15-1.78.86-2.21.14-.08.36-.17.41-.39.1-.4-.28-.67-.36-1.03-.09-.33-.02-.7.16-1,.77-1.32,2.98-.9,3.31.57.21.68-.17,1.49-.84,1.72h0Z"/><path class="cls-1" d="m108.68,328.46c1-3.11,4.18-3.19,6.88-2.51,1.93.47,4.17.61,5.87,1.59,1.58,1.26,1.43,3.43,1.35,5.36-.09,1.37-.28,2.75-.47,4.13-1.08,6.48-1.72,14.28-7.16,18.65-3.52,2.04-8.19-.24-10.21-3.47-1.67-2.23-2.03-5.35-1.74-7.9-.96,4.13.76,8.76,4.28,11.16,4.02,2.66,8.42,2.02,10.88-2.29,3.16-4.73,3.85-10.55,4.62-16.05.38-3.67,1.88-9.97-3.23-10.78-2.73-.46-5.55-1.44-8.33-.84-1.39.37-2.43,1.58-2.83,2.93-.01.05.06.07.07.02h.02Z"/><path class="cls-1" d="m123.45,331.76c.3-1.79.92-4.47,3.08-4.63.98-.01,2.06.24,3.06.29,2.97.18,6.28.34,9.11,1.3,2.13.45,3.26,1.7,3.08,3.88-.54,4.03-.84,8.26-1,12.39-.14,4.14-.2,8.39.08,12.5.59,4.75.86,5.81-4.43,6.4-4.36.66-8.77.41-13.08-.48-3.31-.5-3.3-2.96-2.98-5.71.2-3.48.54-7.44.32-10.7-.1,3.56-.31,7.12-.68,10.66-.47,2.96-.28,5.65,3.22,6.25,4.35.98,8.86,1.3,13.29.64,5.59-.59,5.76-1.95,5.08-7.13-.22-4.1-.23-8.28-.1-12.41.13-4.14.42-8.27.91-12.39.17-2.43-1.21-3.96-3.55-4.4-2.88-.92-6.22-1.05-9.23-1.14-1.5.02-3.25-.69-4.54.38-1.08,1.13-1.52,2.77-1.69,4.29,0,.05.07.05.07,0h-.02Z"/><path class="cls-1" d="m142,333.95c-.31-5.11,5.52-3.99,8.87-3.76,1.26.1,2.45.5,3.59,1,1.08.4,1.18,1.47,1.03,2.75-.54,3.86-.81,7.83-.66,11.74.19,3.87.65,7.75.42,11.58-.04,1.31-.72,2.06-1.73,2.73-2.12,1.33-4.74,1.53-7.18.88-2.51-.39-5.06-2.04-5.07-4.8-.64,6.56,14.07,7.81,14.61,1.26.37-5.2-.52-10.38-.34-15.57,0-2.6.28-5.18.59-7.76.06-.64.1-1.32-.1-1.96-.2-.64-.73-1.16-1.34-1.38-2.41-1.1-5.08-1.04-7.67-1.11-2.88-.11-5.46,1.15-5.09,4.41,0,.05.08.04.07,0h0Z"/><path class="cls-1" d="m155.81,333.65c2.32-5.51,6.34-6.29,11.8-6.21,2.19.22,4.94-.14,6.82,1.05.23.14.49.63.66.84.92,1.34,2.36,2.29,3.32,3.54,1.03,1.62.88,3.74,1,5.62.05,3.23-.1,6.47-.46,9.68-.19,3.17-1.26,6.22-3.36,8.63-1.97,2.33-4.58,4.6-7.86,4.15-4.67-.82-9.35-3.44-12.04-7.4,2.43,4.22,7.27,6.94,11.99,7.88,1.63.2,3.33-.12,4.75-.96,4.16-2.69,7.01-7.25,7.24-12.22.46-4.84.98-9.88-.13-14.65-.52-1.62-2.06-2.51-3.14-3.73-.61-.57-.95-1.32-1.57-1.88-.66-.53-1.51-.7-2.31-.8-2.44-.21-4.9-.36-7.35-.12-2.43.14-5.01.63-6.77,2.45-1.08,1.09-2.31,2.81-2.58,4.13h-.01Z"/><path class="cls-1" d="m179.26,333.06c.08-1.91.43-4.46,2.77-4.64,1.01-.2,2.04-.51,2.99-.53.48-.01.84.12.94.37.3,3.96-.14,8.22-.45,12.22-.29,3.05-.73,6.25-.74,9.56.03,1.96.28,4.08.54,6.02.53,2.07-1.97,1.59-3.72,1.48-2.62-.41-2.33-4.27-2.41-6.34-.03-1.33.13-2.73.06-4.02-.19,3.18-1.03,6.89.54,9.87.86,1.15,2.41,1.12,3.7,1.19,1.54.08,2.89-.44,2.48-2.25-.77-4.61-.39-9.27.11-13.89.4-4.14.67-8.32.53-12.49-.06-.44.03-1.15-.19-1.56-.26-.53-.9-.64-1.4-.61-1.54.22-3.15.5-4.52,1.23-1.19,1.08-1.28,2.9-1.3,4.4,0,.05.08.04.08,0h0Z"/><path class="cls-1" d="m186.32,330.73c1.93-.79,4.03-.78,6.06-.66,1.16-.02,1.1,1.03,1.29,1.91.41,2.85.95,6.4,1.41,9.21.42,4.48,1.3,10.94,1.55,15.4-.02.66.09,1.29-.33,1.71-1.02.35-2.36.18-3.51.21-1.03-.02-2.07-.04-3.09-.1-1.02-.08-2.08-.04-2.79-.73-.8-.63-1.19-1.69-1.51-2.64.06.99.61,2.08,1.35,2.81.75.79,1.91.84,2.92.95,2.07.15,4.14.32,6.23.21.26-.03.53-.06.77-.23.68-.51.61-1.46.62-2.21-.02-1.04-.11-2.08-.19-3.11-.27-3.09-.94-9.3-1.33-12.38-.34-2.01-1.24-7.26-1.6-9.2-.17-.73-.24-1.68-.98-2.07-1.26-.33-2.61-.03-3.9,0-1.03.14-2.04.44-2.99.86-.04.02,0,.09.03.07h-.01Z"/><path class="cls-1" d="m193.52,330.51c.23-1.07,1.12-1.81,2.21-1.83,2.15-.17,4.27-.06,6.43.04.89.11,2.04-.2,2.56.67.88,1.33.52,4.42.65,6.04.09,4.35.23,8.72,1.22,12.99.33,1.98,1.55,4.16,1.56,6.06-.3,2-2.76,2.77-4.56,3.13-2.08.55-4.3.37-6.36-.15,3.03,1.35,10.6,1.14,11.49-2.89.13-1.11-.31-2.16-.61-3.18-1.72-5.14-1.85-10.61-2.06-15.98-.17-1.81.24-4.84-.86-6.37-.66-1.04-1.97-.76-3.02-.82-2.16-.05-4.32-.07-6.47.22-1.12.08-2.08.93-2.25,2.05,0,.05.06.06.07.02h0Z"/><path class="cls-1" d="m208.31,355.51c.15.92.65,1.9,1.63,2.31,1.39.44,3.1-.03,4.32-.78,1.4-.99,1.07-3.06.72-4.39-.95-3.6-1.5-7.32-2.39-11-1.09-3.66-1.39-7.18-1.18-10.97-.04-1.34.23-3.61-1.48-4.19-1.25-.31-2.41-.15-3.65-.05-.23.04-.52.05-.77.27-.77.76-.58,1.89-.37,2.81,0,.05.08.03.07-.02-.16-.86-.27-1.98.44-2.61.16-.15.41-.16.64-.18,1.15-.04,2.36-.11,3.48.19,1.41.59,1.01,2.5,1.04,3.74-.1,1.87-.19,3.76-.04,5.64.17,1.88.64,3.71,1.07,5.54.94,3.63,1.49,7.36,2.55,10.98.61,1.89.65,3.93-1.67,4.5-2.03.74-3.79.59-4.36-1.8,0-.05-.08-.03-.07.02h.02Z"/><path class="cls-1" d="m211.08,328.52c-.25-1.84.39-4.06,2.5-4.3,2.12-.59,4.92-.26,5.54,2.18l.43,1.32c.64,2.67,1.71,5.74,1.48,8.38-.38,1.94-.22,4.12.27,6.05.23.99.72,1.76.89,2.77.72,2.66-.24,5.74-2.8,7.03-1.24.69-4.51,1.07-4.99-.7,0-.05-.08-.03-.07.02.42,1.92,3.85,1.7,5.23,1.04,4.11-2,4-6.67,2.41-10.32-.43-1.89-.61-3.88-.19-5.8.2-2.96-.9-5.82-1.6-8.65-.48-1.88-1.56-3.98-3.78-3.97-1.81-.15-4.39.12-5.15,2.05-.37.92-.41,1.95-.24,2.91,0,.05.08.03.07-.01h0Z"/><path class="cls-1" d="m221.76,341.58c2.51,6.09,9.93,8.74,16.08,7,6.98-1.69,8.38-10.12,7.15-16.19-.53-3.56-2.84-6.54-4.45-9.65-2.1-4.19-8.12-4.84-12.08-3.25l-2.19.85c-2.25.78-4.3,2.44-5.29,4.63-.61,1.36-.95,3.45-.43,4.63-.9-5.39,3.45-8.37,8.07-9.64,3.75-1.41,9.34-.79,11.32,3.09,1.56,3.11,3.8,5.96,4.31,9.49,1.2,5.78.03,13.76-6.59,15.49-6.09,1.86-13.17-.85-15.91-6.45h0Z"/><path class="cls-1" d="m102.6,345.95c-.3,2.57-2.15,3.86-4.51,2.73-1.63-.64-2.95-1.62-2.44-3.39.1-.55.47-1,.95-1.41.03-.02,0-.08-.04-.06-1.15.52-1.76,1.93-1.44,3.14.63,2.09,4.42,3.65,6.25,2.3,1.05-.75,1.39-2.11,1.3-3.32,0-.05-.08-.04-.07,0h0Z"/><path class="cls-1" d="m240.52,322.84c.1-1.41.28-2.82.24-4.24,0-1.32-.38-2.79.81-3.7,1.98-1.36,5.09-2.61,7.37-1.44.42.21.75,1.15.99,1.55.34.63.71,1.26,1.11,1.85,1.47,2.34,3.36,4.38,3.44,7.28.17,1.53.09,2.84.63,4.36.56,1.31,1.69,2.2,2.05,3.64.43,1.27.66,2.63.88,4.03.48,2.62.93,5.47-1.64,7.07-1.34.84-5.24,2.47-5.68.03-.08-.54-.55-1.31-1.24-1.38-.55-.04-.95.04-1.41-.29-1.43-1.39-2.16-3.59-3.03-5.4,0-.05-.09-.02-.07.03.5,1.32,1.06,2.62,1.7,3.88.33.61.62,1.29,1.21,1.74.55.53,1.42.19,1.98.62.55.45.36,1.32.86,1.89.49.58,1.29.68,1.98.66,2.73-.19,5.95-1.72,6.34-4.72.11-2.82-.46-5.65-1.19-8.38-.33-1.41-1.46-2.43-2.03-3.69-.85-2.64-.18-5.77-1.87-8.18-1.12-1.8-2.42-3.48-3.44-5.33-.36-.59-.58-1.33-1.22-1.73-2.55-1.29-5.82.08-7.96,1.63-1.23,1-.86,2.63-.77,4.01.09,1.41-.03,2.82-.08,4.23,0,.05.07.05.07,0h0l-.03-.02Z"/><path class="cls-1" d="m252.85,318.28c-.11-4.59,1.14-7.78,5.65-9.52,1.45-.68,3.02-1.07,4.58-1.25.73-.07,1.51.07,1.79.51.77,1.24,1.24,2.96,1.78,4.38.96,2.83,2.16,6.58,3.2,9.38.86,1.6,1.99,2.78,3.07,4.04,1.7,2.01,5.32,4.83,2.81,7.37-1.82,1.57-3.21,3.7-5.1,5.19-3.71,3.11-7.02,2.58-9.84-1.24-.95-1.27-1.72-2.75-2.52-4.16-.71-1.44-1.3-3.1-2.65-4.11-.03-.03-.09.03-.05.06.61.54,1.12,1.19,1.5,1.91.96,2.25,2.01,4.49,3.39,6.54,3.68,5.33,8.41,4.11,12.36-.16,1.24-1.65,2.97-2.85,4.17-4.51,1.68-3.97-4.98-7.83-6.5-11.24-.59-1.51-1.08-3.08-1.63-4.62-1.03-2.69-2.04-6.73-3.53-9.17-.54-.71-1.51-.76-2.3-.69-1.63.21-3.24.65-4.71,1.38-2.24.95-4.37,2.63-5.11,5.04-.49,1.59-.41,3.25-.43,4.89,0,.05.08.04.07,0h0v-.02Z"/><path class="cls-1" d="m266.49,311.05c.46-2.29,1.31-5.02,3.72-5.83.68-.21,1.24-.14,1.79.37,1.73,1.84,4.31,2.88,5.99,4.79.58.62,1.04,1.34,1.5,2.08.02.04.09,0,.07-.03-1.21-3.56-4.62-4.9-7.08-7.41-1.42-1.31-3.6-.25-4.58,1.11-.96,1.34-1.61,3.51-1.41,4.93h0Z"/><path class="cls-1" d="m276.06,328.89c1.79,1.6,6.19,4.53,8.23,2.07,1.16-1.49,2.6-3.07,2.23-5.08-.07-1.04-.17-2.15-.34-3.18,0-.04-.07-.05-.07,0-.06,1.41-.03,2.85-.15,4.23-.11.7-.48,1.3-.91,1.86-.66.79-1.19,1.81-2.12,2.29-1.01.41-2.06-.08-3.03-.41-1.34-.46-2.62-1.07-3.8-1.85-.04-.03-.08.04-.04.06h0Z"/><path class="cls-1" d="m285.69,302.12c-2.33-4.42-9.91-2.48-9.61,2.62.17,2.32,1.5,4.04,2.42,6.04,1.48,2.8,3.12,5.56,4.93,8.16,2.16,3,3.48,6.96,7.01,8.7,1.11.41,2.44.51,3.44-.27.83-.73,1.49-1.45,2.34-2.12l.63-.5c1.11-1.07.33-2.82-.31-3.85-.02-.04-.09,0-.07.04.78,1.35,1.29,3.22-.43,4.05-.86.61-1.62,1.35-2.42,2.02-1.31.92-3.19.32-4.24-.75-1.52-1.45-2.8-3.14-3.69-5.05-.96-1.89-2.34-3.5-3.37-5.34-.98-1.57-2.37-3.8-3.21-5.42-.88-1.86-2.22-3.66-2.44-5.75-.32-3.38,3.64-5.53,6.58-4.5.98.35,1.81,1.07,2.38,1.94.03.04.09,0,.06-.04h0v.02Z"/><path class="cls-1" d="m318.31,312.44c.03.58.24,1.14.18,1.7-.19,1.79-1.82,2.82-3.09,3.9-1.78,1.45-3.59,2.86-5.47,4.17-1.88,1.31-3.86,2.46-5.86,3.58-1.4.69-2.94,1.96-4.51,1.46-.99-.46-1.17-1.62-1.39-2.65-1.13-3.91-3.33-7.4-5.2-10.97-2.04-3.59-4.62-8.57-6.89-12.01-2.79-3.54-3.22-4.78.95-7.25,1.71-1.07,4.05-2.7,5.77-3.7,2.38-1.33,3.37-2.3,5.53-.06,2.56,2.34,5.56,4.1,8.39,6.06,1.9,1.33,3.41,3,4.94,4.72,1.57,1.68,3.32,3.19,4.98,4.76.79.79,1.6,1.71,1.69,2.86,0,1.13-.21,2.3-.03,3.43h0Zm.07,0c-.17-1.15.05-2.28.06-3.43-.08-1.19-.91-2.13-1.7-2.94-2.54-2.34-4.99-4.73-7.23-7.36-2.4-2.51-5.53-4.08-8.22-6.23-.9-.71-1.78-1.45-2.63-2.21-.83-.76-1.75-1.73-3-1.52-3.19.97-6.14,3.36-8.99,5.06-4.5,2.59-4.24,4.41-1.18,8.25,2.19,3.3,4.91,8.41,6.92,11.89,1.88,3.52,4.15,6.92,5.33,10.76.23,1.08.52,2.43,1.67,2.9,1.74.56,3.35-.81,4.8-1.56,1.98-1.16,3.94-2.36,5.82-3.69,1.88-1.32,3.68-2.75,5.45-4.21,1.99-1.6,3.68-2.88,2.9-5.7h0Z"/><path class="cls-1" d="m310.66,280.18c1.1,1.59,2.67,2.76,4,4.13,1.32,1.39,2.5,2.89,3.6,4.46,2.07,3.32,5.46,5.51,8.84,7.31l2.47,1.43c1.76.89,3.08,2.47,5.02,3.02,3.9,1.14,6.44-1.68,5.58-5.55-.28-.98-.51-1.82-.7-2.77-.24-.94-.24-2.09-.78-2.97-1.11-1.85-3-2.44-4.4-3.95-1.17-1.15-3.04-2.76-4.32-3.84l-4.39-3.69c-1.78-1.55-3.79-2.95-4.78-5.13-.26-.45-.7-.87-1.22-1.05-.56-.2-1.01-.13-1.42-.3-.94-.26-1.56-1.3-2.62-1.19-2.4.32-4.74,1.21-6.74,2.58-.39.27-.81.61-.97,1.1-.62,2.45,1.53,4.56,2.83,6.41h0Zm.06-.05c-1.26-1.83-3.36-3.93-2.76-6.32.15-.45.54-.77.93-1.03,1.97-1.34,4.3-2.18,6.66-2.45,1.04-.06,1.58.99,2.52,1.23.94.25,1.92.24,2.42,1.24.96,2.25,2.99,3.73,4.75,5.33l4.33,3.79c1.27,1.11,3.08,2.68,4.26,3.86,1.27,1.42,3.24,2.16,4.23,3.82.46.71.51,1.94.72,2.75.23,1.42.93,2.74.85,4.2.21,2.75-2.41,4.16-4.85,3.39-1.88-.5-3.22-2.03-4.95-2.85-1.48-.86-3.6-1.92-5.05-2.76-1.62-1-3.25-2.06-4.58-3.44-1.89-2.16-3.37-4.67-5.44-6.69-1.35-1.36-2.91-2.5-4.03-4.08h-.01Z"/><path class="cls-1" d="m323.69,293.92c1.42,1.9,2.68,4.06,2.53,6.5-.04.94-.18,3.48-.22,4.45-.04.96.05,2.07-.27,2.64-1.45,2.51-4.78,2.92-7.35,1.69,2.35,1.85,6.39,1.34,7.94-1.36.49-.9.35-1.96.43-2.95.02-.99.1-3.51.12-4.46.08-2.41-1.5-5.18-3.18-6.51h0Z"/><path class="cls-1" d="m309.92,279.13c-1.17-1.5-3.46-1.94-5.16-1.03-2.27,1.1-3.65,3.23-5.86,4.35-1.05.88-1.34,2.3-1.09,3.6.25.95.69,1.61.96,2.51.35.8.43,1.75.7,2.56.07-.85-.13-1.8-.32-2.65-.47-1.63-1.37-3.41-.26-5,.5-.74,1.5-.88,2.1-1.52,2.89-2.5,5.14-5.54,8.93-2.83h0Z"/><path class="cls-1" d="m338.85,290.8c1.09.44,2.4.7,3.58.14,1.09-.66,1.68-1.65,2.79-2.24,2.6-1.06,3.38-4.28,1.96-6.61-1.31-2.13-3.08-3.64-4.43-5.67-1.32-1.95-2.66-4.08-4.31-5.8-1.69-1.75-3.34-3.57-5.42-4.89-3.17-1.93-6.67-3.32-10.43-3.32-1.96.21-3.27,1.81-4.57,3.11-1.34,1.29-1.7,3.53-1.1,5.18-.14-1.14-.25-2.43.28-3.53.48-1.1,1.49-1.83,2.35-2.64.88-.78,1.87-1.56,3.08-1.63,1.18-.09,2.35.26,3.5.56,7.17,1.64,12.18,7.49,16.07,13.37,1.34,1.98,3.18,3.58,4.49,5.57.95,1.49.94,3.6-.23,4.96-.87.77-2.03,1.27-2.83,2.17-.43.42-.77.93-1.29,1.21-1.06.57-2.34.39-3.44,0-.05-.02-.07.06-.02.07h-.03Z"/><path class="cls-1" d="m347.06,282.5c1.93-.03,4.44-.23,5.6-2.02.36-.78.53-1.6,1.02-2.27.34-.44.82-.98.94-1.59.19-1.16-.15-2.44-.24-3.54-.15-.87-.16-1.91-.65-2.69-.47-.81-1.41-1.36-2.11-1.81-2.3-1.64-4.36-3.65-6.88-5.03-1.99-1.15-4.02-2.17-6.05-3.21l-3.04-1.52c-2.08-1.05-3.62-2.93-6.03-3.28-4.47-1.14-5.59,4.46-3.87,7.55.02.04.09.01.07-.03-.45-1.03-.65-2.18-.63-3.3.04-1.12.49-2.23,1.23-3.07,1.7-1.73,4.47-.4,6.14.75,3.4,2.86,8.03,4.32,11.79,6.75,1.95,1.15,3.81,2.44,5.51,3.96.88.73,1.92,1.23,2.79,1.94.92.73.93,1.98,1.15,3.07.1.96.48,2.4.33,3.36-.32,1.08-1.31,1.86-1.52,3.01-.5,2.39-3.5,2.77-5.55,2.9-.05,0-.05.08,0,.07h0Z"/><path class="cls-1" d="m351.72,268.85c3.89.43,7.94.02,11.55-1.6,5.39-2.67,9.02-8.48,9.4-14.47.43-8.56-7.37-14.51-14.7-17.11-7.48-2.57-17.5.87-20.2,8.71-1.82,5.69-3.04,11.94,1.23,16.86-.9-1.52-2.05-3.24-2.4-5.27-.78-3.83.54-7.76,1.63-11.41,2.73-7.46,12.33-10.7,19.51-8.21,7,2.56,14.66,8.17,14.29,16.41-.33,5.77-3.73,11.47-8.93,14.14-3.44,1.78-7.8,2.07-11.37,1.96h-.01Z"/><path class="cls-1" d="m369.69,243.99c2.08.54,3.94-.73,5.67-1.69,3.4-1.36,4.9-5.59,3.62-8.96-.49-1.41-2-2.23-3.24-2.82-1.19-.6-2.36-1.2-3.52-1.85-2.29-1.32-4.96-3.05-7.14-4.06-2.27-.97-4.69-2.11-7.17-2.41-1.74-.09-3.14,1.29-4.2,2.33-2.33,2.06-3.62,5.49-2.65,8.53.42.96,1.38,1.77,2.34,1.94-2.24-.93-2.63-2.71-2.23-4.97.43-3,2.74-5.45,5.28-6.89.93-.44,1.95-.3,2.9,0,3.2.98,6.23,2.4,9.09,4.14,2.79,1.83,5.86,3.18,8.75,4.82,2.68,2.12,1.88,6.66-.32,8.86-1.1.73-2.26,1.4-3.39,2.1-1.09.77-2.46,1.1-3.77.88-.05,0-.06.07,0,.07h0v-.02Z"/><path class="cls-1" d="m378.96,234.62c3.07,1.68,7.57-.8,6.78-4.6-.16-1.14-.64-2.27-1.48-3.11-2.47-2.32-4.87-4.04-7.35-6.3-.77-.6-2.06-1.11-2.98-1.48-2.46-1.03-4.9-2.37-7.55-2.8-2.46-.92-5.17-2.96-7.87-1.45-1.52.97-2.48,2.15-3.49,3.53-.95,1.45-.16,3.88,1.65,4-2.54-.87-2.18-3.52-.35-5.03,1.37-1.59,3.27-3.03,5.48-2.32,2.05.61,3.78,2.01,5.94,2.28,2.07.54,3.91,1.68,5.88,2.47.86.35,2.12.81,2.86,1.38,2.37,2.12,4.98,4.02,7.36,6.14.77.72,1.24,1.74,1.41,2.77.72,3.81-3.32,5.66-6.3,4.53h0Z"/><path class="cls-1" d="m379.9,223.91c1.72.6,3.82.85,5.47-.13,1.43-1.3,1.97-3.16,2.85-4.8,1.8-3.19,2.45-8.42-1.08-10.67-2.33-1.16-4.48-1.69-6.7-2.96-3.38-1.51-6.61-3.42-10.3-4.11-2.99-.54-5.15.23-6.49,3.14-.81,1.49-1.77,2.89-2.4,4.48-.5,1.84-.41,4.4.38,5.91-.65-2.28-.79-4.96.56-7.02l1.88-3.12c1.35-2.68,3.09-3.27,5.97-2.75,4.77,1.01,8.89,3.88,13.38,5.66,2.22.78,4.94,1.52,5.36,4.21,1.04,3.68-1.02,7.1-2.57,10.31-.5,1.14-1.43,1.99-2.72,2.06-1.2.17-2.43.09-3.58-.3-.05-.02-.07.06-.02.07h0v.02Z"/><path class="cls-1" d="m388.2,210.18c4.72.1,6.31-3.4,7.08-7.45.59-2.46,1.07-5.3-.43-7.61-.72-1.21-2.16-1.72-3.37-2.17-4.78-1.57-9.11-3.59-13.88-5.27-5-1.51-10.99,2.07-12.24,7.08-.5,2.44.3,5.53,2.59,6.7-4.54-3.54-2.15-9.74,2.37-12.13,5.02-3.06,9.2-.07,13.96,1.74,2.3.92,4.64,1.72,6.97,2.52,1.13.42,2.4.81,3.06,1.88,1.95,3.27.46,7.34-.43,10.73-.41,1.16-1.15,2.21-2.19,2.87-1.03.68-2.26,1-3.49,1.03-.05,0-.04.08,0,.07h0Z"/><path class="cls-1" d="m394.06,194.36c.61-.58,1.37-1.01,2.18-1.15.82-.09,1.81.18,2.55-.41,2.49-2.38,4.22-5.9,3.96-9.42-.17-.92-.34-1.59-.34-2.48-.04-.88.23-1.74,0-2.65-1.03-2.48-3.44-4.09-5.36-5.8-1.99-1.6-3.27-4.31-5.87-5.11-1.74-.62-3.56-1.02-5.4-.56-1.78.68-2.86,1.19-4.73.97-4.52-.11-5.96-2.86-9.81,1.4-2.35,2.42-4.95,5.05-6.07,8.35-1.66,4.72-.23,12.8,6.38,10.81-1.58.28-3.56.24-4.81-.98-2.16-2.59-2.16-6.59-1.11-9.66,1.55-3.87,4.84-7.08,8-9.7,1.54-1.11,3.23-.2,4.84.19.83.19,1.69.27,2.54.32,1.73.27,3.41-.32,4.96-.96,2.42-.51,5.21.21,7.13,1.76,1.15,1.23,2.21,2.6,3.52,3.69,1.86,1.63,4.15,3.17,5.23,5.44.22.81-.04,1.67.03,2.53.02.85.21,1.71.39,2.52.31,3.3-1.34,6.85-3.61,9.16-.72.58-1.61.31-2.44.45-.85.17-1.61.64-2.21,1.25-.04.03.02.09.05.05h0Z"/><path class="cls-1" d="m390.01,192.85c4.87,1.6,3.52-2.23.59-3.89-3.37-1.72-7.1-1.72-10.73-2.53-2.35-.61-4.87-.99-7.35-.8-2.72.35-.74,1.89.65,2.29-.43-.38-1.08-.64-1.49-1.09-1.63-1.88,7.37-.05,8.03.26,3.51.89,7.29.85,10.63,2.39.82.37,3.3,2.37,2.33,3.26-.79.45-1.79.22-2.63.04-.05,0-.06.06-.02.07h0Z"/><path class="cls-1" d="m398.24,173.67c.71.1,1.51-.21,1.99-.81,1.47-1.77,1.67-4.52.1-6.34-2-2.35-5.22-3.14-8.08-3.2-2.87,0-5.68-.11-8.53.25-2.74.37-5.98,1.46-7.87,3.25,4.84-3.23,10.81-2.9,16.37-2.75,3.82-.1,9.63,2,8.64,6.73-.28,1.3-1.09,2.86-2.62,2.79-.05,0-.05.08,0,.08h0Z"/><path class="cls-1" d="m400.56,171.94c3.31-1.7,1.95-6.17,1.61-9.12-.22-1.71-.74-3.93-2.77-4.29-1.17-.26-3.78-.11-4.99-.15-4.29-.12-8.73-.71-13.04-.15-3.27.3-6.96.35-9.5,2.77-1.86,1.53-1.96,4.07-1.85,6.28l.08,3.26s.02.04.04.04c.36-2.95-.6-7.06,2.07-9.21,2.5-2.24,6.06-2.16,9.22-2.45,4.34-.5,8.66.1,13,.15,1.1.04,3.81-.15,4.86.08,1.8.29,2.13,2.25,2.42,3.77.2,1.07.4,2.13.54,3.2.29,2.06.45,4.66-1.71,5.76-.04.02,0,.09.04.06h-.02Z"/><path class="cls-1" d="m399.44,158.87c.65-.75,1.12-1.72,1.15-2.78.05-1.05-.5-2-.91-2.93-.76-1.9-2.52-3.67-4.65-3.92-1.95-.49-4.1-.41-6.08-.24-4,.12-7.96,1.02-11.82,2.07-2.94.75-6.14,1.53-8.16,4.01-2.05,2.47-1.07,6.7,1.46,8.32-3.29-3.05-2.92-7.74,1.23-9.83,1.74-.94,3.73-1.33,5.64-1.84,3.85-.98,7.72-1.86,11.71-2.05,3.78-.35,8.67-.52,10.32,3.67.44.88,1.02,1.74,1.02,2.75.03.99-.37,1.95-.97,2.73-.03.04.03.08.06.05h0Z"/><path class="cls-1" d="m392.86,149.05c1.41-.09,3.12-.65,3.77-2.08.3-.86.35-1.76.43-2.64.06-1.79.21-3.53-.14-5.33-.07-.3-.22-.71-.53-1-1.22-1.13-3.14-.61-4.59-.57-3.47.39-7.04-.29-10.48.52-2.32.55-4.49,1.37-6.68,2.26-2.12,1-4.21,1.8-6.36,2.84-.6.24-1.27.9-1.36,1.6-.13.79.15,1.37.28,1.91.32,1.09.51,2.2.6,3.33.11.87.03,1.74.19,2.62.49,1.83,2.79,1.08,3.99.52.05-.02.01-.09-.03-.07-1.01.36-2.31.88-3.29.21-.82-.77-.29-2.28-.47-3.3.06-1.76-.77-3.5-.75-5.12.11-.58.55-.97,1.09-1.19,2.11-.93,4.28-1.77,6.38-2.73,3.21-1.23,6.52-2.53,10-2.59,2.31.03,4.63.03,6.94-.17,1.42-.02,4.04-.84,4.56,1.06.37,1.69.27,3.45.26,5.17-.09,1.1.06,2.42-.75,3.28-.77.86-1.94,1.26-3.07,1.38-.05,0-.04.08,0,.07h0v.02Z"/><path class="cls-1" d="m390.6,137.9c.89-.02,2.04-.35,2.29-1.35.16-.98.66-1.53,1.39-2.17.47-.51.49-1.36.33-1.97-.28-1.18-.48-2.33-.48-3.49.01-.58.1-1.42-.16-1.95-.64-1.97-2.53-3.39-4.58-3.3-2.11-.22-5.19,0-7.33.23-1.84.2-3.75-.12-5.54.62l-1.7.66c-3.42,1.35-7.36,2.1-9.63,5.3-1.68,2.02-1.68,4.94-.88,7.28.46,2.42,2.25,4.68,4.76,5.16.05,0,.07-.06.02-.07-1.15-.33-2.23-.98-2.99-1.9-1.36-1.82-1.88-4.61-1.83-6.84.71-5.31,6.52-6.76,10.8-8.26,1.14-.41,2.24-.93,3.44-1.05,1.19-.1,2.42-.03,3.61-.18,2.12-.24,5.11-.49,7.22-.29,1.87-.09,3.5,1.09,4.12,2.84.26.55.16,1.16.17,1.77.03,1.22.28,2.41.59,3.58.17.57.2,1.22-.19,1.69-.4.43-.91.83-1.1,1.43-.23.56-.17,1.24-.68,1.62-.45.39-1.07.52-1.66.58-.05,0-.04.08,0,.07h.01Z"/><path class="cls-1" d="m384.22,124.01c5.38-5.69,3.6-14.09-2.15-18.87-4.94-3.92-9.7-1.8-13.98,1.72-2.93,2.16-6.17,4.67-7.54,8.26-1.22,3.51-1.44,7.93,1.04,10.94,1.59,1.94,4.36,3.01,6.77,2.1-8.98,1.55-10.17-10.5-5.35-15.92,1.54-1.9,3.55-3.34,5.51-4.79,4.13-3.29,8.41-5.48,13.14-1.79,5.86,5,7.31,12.27,2.55,18.36h.01Z"/><path class="cls-1" d="m370.46,105.49c3.13-2.67,6.75-5.68,7.29-10.04.06-.26-.18-.63-.49-.65-.19-.02-.17,0-.21,0-1.03.3-1.86.96-2.74,1.53-5.97,4.17-11.32,9.23-15.75,15.01-.62.89-5.27,6.65-1.93,5.9,1.71-.71,3.12-1.93,4.58-3.02.04-.03,0-.09-.04-.06-6.39,4.51-6.88,3.42-2.16-2.46,3.86-4.83,8.35-9.15,13.19-12.99,1.58-1.18,3.13-2.51,4.93-3.33.06,0,.03-.05.03.05-.35,4.19-4.19,7.35-6.71,10.05h0Z"/><path class="cls-1" d="m377.49,96.36c1.13-3-1.9-5.29-3.74-7.2-.42-.4-.78-.8-1.33-1.18-1.28-.67-2.6-.4-3.71.02-2.19.9-4.08,2.15-5.95,3.56-3.5,3.04-7,5.95-9.5,9.91-1.16,1.96-2.37,3.83-3.47,5.86-.59,1.04-1.04,2.41-.59,3.61,1.38,2.95,3.62,6.85,7.41,6.31.05,0,.04-.08,0-.07-1.12.11-2.27-.2-3.18-.86-.92-.66-1.6-1.58-2.19-2.54-.55-.97-1.17-1.95-1.56-2.99-.37-1.1.07-2.23.63-3.18,2.34-3.86,4.47-7.9,7.92-10.91,2.4-2.38,4.81-4.8,7.74-6.55,1.82-1.06,4.04-2.71,6.2-1.76,1.71,1.42,3.45,2.96,4.81,4.73.67.92.73,2.15.44,3.22-.02.05.06.06.07.02h0Z"/><path class="cls-1" d="m368.09,88.39c.93-2.69-2.31-3.33-3.86-4.56-1.49-.82-2-3.03-3.88-3.16-1.87,0-3.18,1.55-4.42,2.63-2.36,2.24-4.55,4.7-6.68,7.13-2.8,3.25-5.79,6.53-7.77,10.52-.68,1.27-1.03,3.37.49,4.21l.67.45c1.36.91,2.53,1.95,3.89,2.91.94.72,2.31.49,3.09-.34.04-.03,0-.09-.05-.06-.4.35-.89.61-1.43.66-1.67.05-2.68-1.69-3.96-2.54-2.08-1.71-3.74-1.95-2.18-5.04,2.02-3.83,4.96-7.05,7.81-10.28,2.11-2.46,4.24-4.9,6.57-7.16,1.16-1.01,2.31-2.5,3.95-2.56.53.02,1.03.27,1.37.69.66.84,1.39,1.68,2.31,2.26,1.58,1.13,4.78,1.59,4,4.21-.02.05.06.06.07.02h.01Z"/><path class="cls-1" d="m356.28,83.49c.89-3.13-.2-6.77-2.65-8.97-3.08-2.83-6.58-.53-8.92,2.01-4.58,4.62-8.44,9.83-10.46,16.08-.17.55-.25,1.22-.08,1.83.34,1.14,1.09,1.77,1.2,2.88.22,2.89,3.74,4.62,6.32,3.86.05,0,.03-.08-.02-.07-1.03.22-2.13.12-3.09-.3-1.38-.65-2.75-1.9-2.77-3.52-.12-1.59-1.73-2.84-1.01-4.5,1.54-3.93,3.39-7.82,6.23-10.99,1.35-1.63,2.69-3.28,4.17-4.8,1.45-1.44,3.1-3.13,5.25-3.21,2.17-.03,3.85,1.79,4.83,3.57,1.17,1.92,1.23,4.2,1.01,6.14h0Z"/><path class="cls-1" d="m342.89,78.98c.35-2.7.4-5.46-.56-8.08-2.7-5.14-10.48-6.57-14.68-2.47-2.7,2.91-5.42,6.27-7.57,9.61-1.99,3.7-2.17,8.95,1.17,11.92,3.92,3.06,11.9,5.61,14.43-.24-2.88,5.46-10.22,2.83-14.05-.2-3.03-2.8-2.81-7.74-.94-11.13,2.02-3.06,4.95-6.78,7.43-9.48,3.9-3.84,11.22-2.56,13.85,2.15,1.11,2.41.93,5.55.91,7.91h.01Z"/><path class="cls-1" d="m329.15,67.55c2.96-2.75-.68-7.22-4.14-6.15-2.17.88-3.06,3.59-4.23,5.39-2.31,3.75-5.06,7.27-7.13,11.18-.98,1.52-1.53,3.61-1.04,5.42.21.95.77,2.05,1.83,2.27,1.97.3,3.7-1.16,4.6-2.67-3.13,3.69-6.88,3.11-5.91-2.31.46-1.7,1.57-3.15,2.43-4.67,1.83-3.03,4.04-5.81,5.81-8.88,1.36-1.96,2.18-5.6,5.11-5.37,1.69.22,3.41,1.56,3.52,3.35.06.88-.33,1.74-.9,2.39-.04.04.03.08.06.05h0Z"/><path class="cls-1" d="m322.9,63.29c-2.67-2.34-6.45-3.97-10.05-3.31-1.81.58-2.02,2.97-2.33,4.42-.01.04.05.07.07.02.46-1.15.82-2.43,1.63-3.38.95-.85,2.43-.52,3.6-.37,2.48.3,5.06,1.62,7.08,2.62h0Z"/><path class="cls-1" d="m313.71,78.32c-2.52-.14-4.52-1.36-5.89-3.47-.01-.04-.08-.03-.07.02.29,1.26,1.07,2.44,2.2,3.12,1.14.67,2.55.79,3.79.4.04-.02.02-.08-.02-.07h-.01Z"/></g></g></svg>