<svg width="74" height="75" viewBox="0 0 74 75" fill="none" xmlns="http://www.w3.org/2000/svg">
<g clip-path="url(#clip0_604_1156)">
<path fill-rule="evenodd" clip-rule="evenodd" d="M37.1114 18.2432C26.6493 18.2432 18.1683 26.8647 18.1683 37.5C18.1683 48.1351 26.6493 56.7566 37.1114 56.7566C47.5732 56.7566 56.0542 48.1351 56.0542 37.5C56.0542 26.8647 47.5732 18.2432 37.1114 18.2432ZM37.1114 49.9998C30.3202 49.9998 24.815 44.4034 24.815 37.5C24.815 30.5963 30.3202 24.9999 37.1114 24.9999C43.9023 24.9999 49.4076 30.5963 49.4076 37.5C49.4076 44.4034 43.9023 49.9998 37.1114 49.9998Z" fill="#806350"/>
<path d="M56.8025 21.9823C59.2472 21.9823 61.2291 19.9677 61.2291 17.4823C61.2291 14.9971 59.2472 12.9825 56.8025 12.9825C54.3577 12.9825 52.3758 14.9971 52.3758 17.4823C52.3758 19.9677 54.3577 21.9823 56.8025 21.9823Z" fill="#806350"/>
<path fill-rule="evenodd" clip-rule="evenodd" d="M37.1112 0C27.0926 0 25.8364 0.0432129 21.9018 0.225732C17.9754 0.407812 15.2938 1.04165 12.9473 1.96875C10.5215 2.92705 8.46427 4.20937 6.41361 6.29414C4.36281 8.37876 3.10138 10.4701 2.1587 12.936C1.2467 15.3212 0.623192 18.0473 0.444078 22.0387C0.264533 26.0385 0.222168 27.3155 0.222168 37.5C0.222168 47.6842 0.264533 48.9612 0.444078 52.961C0.623192 56.9524 1.2467 59.6785 2.1587 62.0637C3.10138 64.5296 4.36281 66.6209 6.41361 68.7059C8.46427 70.7905 10.5215 72.0728 12.9473 73.0311C15.2938 73.9581 17.9754 74.592 21.9018 74.7741C25.8364 74.9565 27.0926 74.9997 37.1112 74.9997C47.1294 74.9997 48.3857 74.9565 52.3202 74.7741C56.2466 74.592 58.9283 73.9581 61.2746 73.0311C63.7004 72.0728 65.7576 70.7905 67.8086 68.7059C69.8592 66.6209 71.1207 64.5296 72.0634 62.0637C72.9752 59.6785 73.5989 56.9524 73.778 52.961C73.9574 48.9612 73.9999 47.6842 73.9999 37.5C73.9999 27.3155 73.9574 26.0385 73.778 22.0387C73.5989 18.0473 72.9752 15.3212 72.0634 12.936C71.1207 10.4701 69.8592 8.37876 67.8086 6.29414C65.7576 4.20937 63.7004 2.92705 61.2746 1.96875C58.9283 1.04165 56.2466 0.407812 52.3202 0.225732C48.3857 0.0432129 47.1294 0 37.1112 0ZM37.1112 6.75688C46.9608 6.75688 48.1276 6.79497 52.0174 6.97544C55.6139 7.14228 57.5671 7.75312 58.867 8.26655C60.5889 8.94683 61.8177 9.75952 63.1086 11.0717C64.3995 12.3839 65.1988 13.6333 65.868 15.3835C66.3732 16.7049 66.9741 18.6905 67.1382 22.3466C67.3156 26.301 67.3532 27.4871 67.3532 37.5C67.3532 47.5128 67.3156 48.6989 67.1382 52.6531C66.9741 56.3092 66.3732 58.2948 65.868 59.6162C65.1988 61.3666 64.3995 62.6158 63.1086 63.928C61.8177 65.2403 60.5889 66.0529 58.867 66.7332C57.5671 67.2467 55.6139 67.8576 52.0174 68.0243C48.1282 68.2047 46.9615 68.243 37.1112 68.243C27.2605 68.243 26.0942 68.2047 22.2047 68.0243C18.6082 67.8576 16.6549 67.2467 15.355 66.7332C13.6332 66.0529 12.4043 65.2403 11.1134 63.928C9.82253 62.6158 9.02308 61.3666 8.35403 59.6162C7.84883 58.2948 7.24794 56.3092 7.08381 52.6531C6.90628 48.6989 6.86882 47.5128 6.86882 37.5C6.86882 27.4871 6.90628 26.301 7.08381 22.3466C7.24794 18.6905 7.84883 16.7049 8.35403 15.3835C9.02308 13.6333 9.82253 12.3839 11.1134 11.0717C12.4043 9.75952 13.6332 8.94683 15.355 8.26655C16.6549 7.75312 18.6082 7.14228 22.2047 6.97544C26.0946 6.79497 27.2614 6.75688 37.1112 6.75688Z" fill="#806350"/>
</g>
<defs>
<clipPath id="clip0_604_1156">
<rect width="73.778" height="75" fill="white" transform="translate(0.222168)"/>
</clipPath>
</defs>
</svg>
