<svg width="910" height="328" viewBox="0 0 910 328" fill="none" xmlns="http://www.w3.org/2000/svg">
<path d="M81.6906 64.3456C82.8232 63.8754 84.0413 64.6875 83.9986 65.927C83.4857 79.6894 83.0797 93.6014 82.7805 107.684C82.4599 122.665 82.289 138.735 82.289 155.896V175.813C82.289 199.619 81.9257 216.16 81.1777 225.434C80.4298 234.73 79.1476 241.825 77.3097 246.762C72.9716 258.43 66.0049 267.662 56.4097 274.5C46.8144 281.317 39.2066 285.869 8.62587 282.856L1.46686 281.98C0.270123 281.83 -0.370987 280.527 0.227379 279.479L11.1903 260.524C11.7245 259.584 12.9854 259.434 13.7975 260.161C27.7095 272.94 45.1903 266.251 50.8748 256.848C56.7729 247.082 59.7434 230.82 59.7434 208.06V105.248C59.7434 96.2513 59.0596 90.5455 57.6705 88.1734C56.2814 85.8013 53.7384 84.6259 50.0627 84.6259C49.2293 84.6259 48.2462 84.69 47.0923 84.8396C46.3443 84.9251 45.4895 85.0319 44.5706 85.1388C43.6944 85.2456 42.8823 84.6473 42.7327 83.7925L41.6642 78.0012C41.4933 77.1036 42.0916 76.2488 42.9892 76.0778C50.3192 74.6247 57.2858 72.8723 63.8679 70.8421C70.0652 68.9402 76.0275 66.7604 81.7547 64.3456H81.6906ZM59.2519 4.1457C64.9791 -0.448894 73.0998 -0.577117 78.9552 3.86789C81.4555 5.85532 83.2934 7.84275 84.4901 9.83018C85.6869 11.8176 86.2852 13.9119 86.2852 16.0916C86.2852 18.2714 85.8151 20.152 84.8962 21.712C83.9772 23.272 82.1821 25.1099 79.4895 27.1828L78.6988 27.7812C72.9929 32.1834 65.0219 32.0552 59.4656 27.5033L59.4229 27.4606C56.6447 25.2808 54.6787 23.272 53.4606 21.4128C52.2638 19.5536 51.6655 17.5876 51.6655 15.5147C51.6655 13.4417 52.157 11.6039 53.1186 10.0439C54.0803 8.48385 56.0036 6.60327 58.8672 4.42351L59.2305 4.1457H59.2519Z" fill="#F5F5F5"/>
<path d="M226.452 18.9552C241.989 18.9552 255.858 21.0281 268.06 25.1526C280.263 29.2984 291.332 35.6881 301.248 44.343C313.109 54.8144 322.17 66.9313 328.452 80.7151C334.735 94.4989 337.877 109.159 337.877 124.652C337.877 140.146 334.564 155.383 327.918 169.444C321.272 183.527 311.826 195.644 299.56 205.816C289.751 214.001 278.339 220.391 265.303 225.007C252.268 229.623 239.21 231.931 226.132 231.931C209.784 231.931 194.739 229.131 180.998 223.511C167.257 217.891 155.119 209.577 144.583 198.55C134.967 188.464 127.637 177.159 122.593 164.593C117.55 152.028 115.007 138.821 115.007 124.93C115.007 109.907 118.041 95.717 124.132 82.3393C130.201 68.9829 139.027 57.2506 150.567 47.1639C160.996 38.0388 172.749 31.0507 185.828 26.1997C198.906 21.3487 212.455 18.9338 226.452 18.9338V18.9552ZM304.026 129.674C304.026 102 297.701 72.5089 282.378 54.7503C267.056 37.013 247.737 28.1444 224.444 28.1444C201.15 28.1444 184.097 35.7522 170.569 50.9678C157.021 66.1834 148.921 93.3235 148.921 118.818C148.921 147.155 155.311 176.71 170.698 194.875C186.084 213.039 205.317 222.122 228.419 222.122C251.52 222.122 268.659 214.3 282.293 198.657C295.927 183.014 304.069 155.831 304.069 129.674H304.026Z" fill="#F5F5F5"/>
<path d="M411.84 18.9552V28.8924C411.22 28.8924 410.322 28.8496 409.19 28.7428C408.036 28.6359 407.202 28.5932 406.689 28.5932C398.462 28.5932 392.906 31.1362 389.999 36.201C387.093 41.2657 385.64 53.3185 385.64 72.338V125.764C385.64 141.577 386.345 163.674 387.392 171.175C388.439 178.698 390.149 184.874 392.542 189.767C397.65 200.303 405.151 208.338 415.088 213.852C425.025 219.365 437.014 222.122 451.075 222.122C461.589 222.122 470.8 220.711 478.707 217.869C486.614 215.027 493.388 210.689 498.987 204.833C504.608 198.978 508.561 191.819 510.848 183.313C513.134 174.83 514.096 150.232 514.096 130.422C514.096 106.616 513.818 86.5919 513.241 70.3506C512.664 54.1092 511.916 44.2789 510.976 40.8597C509.523 36.3719 507.258 33.2519 504.18 31.4995C501.103 29.7472 496.145 28.871 489.264 28.871H486.913V18.9338C488.153 18.9338 489.99 18.9766 492.384 19.0834C506.745 19.7673 516.981 20.1092 523.136 20.1092C529.29 20.1092 539.377 19.7673 553.716 19.0834C556.217 18.9766 558.033 18.9338 559.187 18.9338V28.871H557.307C551.152 28.871 546.557 29.5976 543.501 31.0721C540.424 32.5253 538.223 34.9829 536.855 38.3807C535.701 41.2016 534.868 48.6384 534.355 60.6912C533.842 72.744 533.586 92.2336 533.586 119.16V133.799C533.586 149.207 532.966 161.003 531.705 169.145C530.466 177.287 528.414 184.489 525.615 190.729C519.781 203.701 509.758 213.894 495.504 221.31C481.25 228.725 464.432 232.422 445.092 232.422C431.671 232.422 419.319 230.563 408.014 226.866C396.731 223.169 387.114 217.784 379.207 210.774C370.574 203.359 364.44 194.597 360.786 184.51C357.153 174.423 355.315 160.298 355.315 142.154C355.315 135.124 355.422 123.648 355.636 107.684C355.85 91.7421 355.957 79.2619 355.957 70.2865V65.756C355.957 48.9804 354.482 38.6372 351.512 34.7264C348.541 30.8157 342.75 28.871 334.116 28.871H331.317V18.9338C338.711 19.3185 345.72 19.6177 352.388 19.81C359.055 20.0023 365.124 20.1092 370.659 20.1092C377.327 20.1092 384.08 20.0023 390.94 19.81C397.799 19.6177 404.787 19.3185 411.861 18.9338L411.84 18.9552Z" fill="#F5F5F5"/>
<path d="M566.922 18.9551C574.06 19.3611 580.834 19.6603 587.245 19.8526C593.656 20.045 599.49 20.1518 604.769 20.1518C611.073 20.1518 617.548 20.045 624.152 19.8526C630.776 19.6603 637.551 19.3611 644.475 18.9551V29.4051H638.726C635.008 29.4051 632.101 29.9607 630.05 31.0506C627.977 32.1405 626.951 33.6364 626.951 35.517C626.951 37.2052 627.977 39.9406 630.05 43.7018C632.123 47.4843 635.948 53.4893 641.526 61.7382L668.986 102.107L692.707 69.0468C700.978 57.6352 706.32 49.8564 708.756 45.7319C711.192 41.6075 712.411 38.5088 712.411 36.4145C712.411 34.1279 711.214 32.3969 708.842 31.2002C706.47 30.0035 703.008 29.4051 698.456 29.4051H695.357V18.9551C701.768 19.3611 707.901 19.6603 713.736 19.8526C719.57 20.045 724.763 20.1518 729.314 20.1518C734.785 20.1518 740.406 20.045 746.154 19.8526C751.881 19.6603 757.801 19.3611 763.913 18.9551L763.763 29.4051C763.25 29.2983 762.695 29.2341 762.139 29.1914C761.562 29.1487 760.665 29.1273 759.425 29.1273C749.915 29.1273 738.269 38.2737 724.527 56.5666C721.322 60.9475 718.779 64.324 716.92 66.7175L678.453 115.933L731.815 191.113C741.218 204.534 748.313 213.018 753.057 216.544C757.801 220.07 763.037 221.844 768.721 221.844C769.747 221.844 770.538 221.822 771.05 221.78C771.563 221.737 772.033 221.716 772.44 221.716V232.016C764.383 231.61 756.797 231.311 749.723 231.119C742.649 230.926 736.26 230.819 730.575 230.819C725.917 230.819 720.125 230.926 713.201 231.119C706.277 231.311 698.712 231.61 690.549 232.016V221.566H694.588C699.952 221.566 703.927 220.968 706.448 219.771C708.97 218.574 710.252 216.736 710.252 214.257C710.252 211.778 707.303 206.201 701.405 197.845L700.016 195.9L659.989 138.735L632.7 176.347C624.216 187.993 618.253 196.691 614.791 202.461C611.329 208.231 609.598 212.27 609.598 214.557C609.598 217.036 610.859 218.895 613.402 220.07C615.924 221.267 619.728 221.865 624.793 221.865C625.412 221.865 626.31 221.822 627.507 221.716C628.703 221.609 629.601 221.566 630.221 221.566V232.016C622.677 231.61 615.71 231.311 609.363 231.119C602.995 230.926 597.653 230.819 593.314 230.819C588.25 230.819 582.48 230.926 576.026 231.119C569.572 231.311 562.712 231.61 555.468 232.016V221.716C555.981 221.716 556.579 221.737 557.263 221.78C557.925 221.822 558.844 221.844 559.977 221.844C570.32 221.844 582.416 212.89 596.263 195.003L596.413 194.853L650.544 125.357L600.901 53.3184C600.58 52.8269 600.025 51.972 599.191 50.7753C589.361 36.5641 579.595 29.4479 569.871 29.4479H566.922V18.9978V18.9551Z" fill="#F5F5F5"/>
<path d="M823.109 0C822.553 18.6348 822.232 42.9114 822.147 72.7656C822.061 84.2841 822.019 92.5544 822.019 97.5764L821.741 128.392V195.452C821.741 206.97 822.916 214.279 825.267 217.335C827.618 220.391 832.063 221.93 838.623 221.93H841.808V232.465C835.439 231.974 829.456 231.589 823.878 231.333C818.3 231.076 813.385 230.948 809.133 230.948C804.88 230.948 800.05 231.076 794.879 231.333C789.707 231.589 784.3 231.952 778.68 232.465L778.552 221.93C779.193 221.93 780.005 221.972 780.967 222.079C781.928 222.186 782.655 222.229 783.104 222.229C789.557 222.229 793.874 220.391 796.054 216.737C798.212 213.082 799.302 202.419 799.302 184.788V173.654L799.858 60.5845V34.7266C799.858 30.4098 799.003 27.1829 797.293 25.0245C795.584 22.8661 793.019 21.7976 789.622 21.7976C788.318 21.7976 785.924 22.1395 782.42 22.8448C781.95 22.9516 781.629 22.9943 781.458 22.9943L779.385 13.2282C787.143 11.8177 794.622 10.0226 801.888 7.8215C809.133 5.62036 816.206 3.0132 823.13 0H823.109Z" fill="#F5F5F5"/>
<path d="M892.968 73.4281C892.882 77.3815 892.733 83.0019 892.562 90.2678C891.365 132.047 890.767 161.473 890.767 178.505V195.025C890.767 207.077 891.771 214.664 893.801 217.784C895.832 220.904 899.806 222.464 905.705 222.464C906.26 222.464 906.987 222.421 907.927 222.314C908.846 222.207 909.53 222.165 910 222.165V232.764C902.157 232.145 895.832 231.717 891.045 231.525C886.236 231.311 882.176 231.204 878.864 231.204C875.914 231.204 872.153 231.311 867.58 231.525C863.007 231.739 856.168 232.145 847.022 232.764V221.844H850.484C861.917 221.844 867.687 209.172 867.794 183.805V175.236L868.349 136.727C868.349 133.927 868.392 130.38 868.478 126.127C868.563 121.874 868.606 119.011 868.606 117.558C868.606 109.138 867.879 103.581 866.469 100.867C865.037 98.1748 862.43 96.8071 858.647 96.8071C857.899 96.8071 856.831 96.8925 855.399 97.0421C853.967 97.1917 852.429 97.3841 850.762 97.5978L849.373 87.7675C856.66 86.2074 863.926 84.2414 871.17 81.8479C878.415 79.4544 885.681 76.655 892.968 73.4281ZM868.328 8.3985C873.906 3.54747 882.197 3.48336 887.86 8.24891C890.446 10.4287 892.327 12.6084 893.545 14.7882C894.742 16.968 895.34 19.2546 895.34 21.648C895.34 24.0415 894.848 26.093 893.887 27.8026C892.925 29.5123 891.087 31.5211 888.416 33.8077L887.86 34.2778C882.219 39.1075 873.906 39.0434 868.349 34.1069C865.678 31.7134 863.733 29.5123 862.537 27.4821C861.34 25.4519 860.742 23.2935 860.742 21.0069C860.742 18.7203 861.212 16.7115 862.131 15.0019C863.05 13.2923 864.952 11.2407 867.815 8.84728L868.349 8.37714L868.328 8.3985Z" fill="#F5F5F5"/>
<path d="M155.484 318.393C148.659 318.393 145.247 315.18 145.247 308.754V294.074L142.598 293.681V292.229H151.143V293.681L148.409 294.074V308.242C148.409 312.446 149.747 315.004 152.425 315.915C153.279 316.2 154.31 316.342 155.518 316.342C156.737 316.342 157.831 316.188 158.799 315.881C159.768 315.573 160.571 315.089 161.209 314.428C162.474 313.118 163.106 311.056 163.106 308.242V294.074L160.491 293.681V292.229H167.652V293.681L165.071 294.074V308.754C165.071 311.831 164.245 314.206 162.593 315.881C160.941 317.556 158.571 318.393 155.484 318.393ZM174.522 297.185V316.154L177.12 316.547V318H169.908V316.547L172.557 316.154V294.074L169.908 293.681V292.229H174.625L191.185 313.044V294.074L188.604 293.681V292.229H195.765V293.681L193.184 294.074V318H191.065L174.522 297.185ZM199.114 292.229H207.488V293.681L204.908 294.074V316.154L207.488 316.547V318H199.114V316.547L201.746 316.154V294.074L199.114 293.681V292.229ZM228.15 294.04L226.219 293.681V292.229H234.234V293.681L231.175 294.04L220.306 304.482L230.73 315.625L232.063 316.274L234.285 316.547V318H228.27L216.7 305.131L228.15 294.04ZM210.752 292.229H219.126V293.681L216.563 294.074V316.154L219.126 316.547V318H210.752V316.547L213.401 316.154V294.074L210.752 293.681V292.229ZM253.426 316.547L255.784 316.154L253.084 309.506H242.83L240.147 316.154L242.557 316.547V318H235.225V316.547L237.925 316.154L246.897 293.972L246.18 292.28L248.948 291.118L259.168 316.154L261.919 316.547V318H253.426V316.547ZM243.633 307.438H252.332L247.974 296.467L243.633 307.438ZM283.436 316.359C284.279 316.359 285.042 316.28 285.726 316.12C286.421 315.949 287.019 315.687 287.52 315.334C288.591 314.593 289.126 313.511 289.126 312.087C289.126 310.879 288.733 309.888 287.947 309.113C287.116 308.316 285.765 307.513 283.897 306.704C282.04 305.883 280.621 305.154 279.642 304.516C278.673 303.867 277.91 303.212 277.352 302.551C276.338 301.389 275.831 299.982 275.831 298.33C275.831 296.416 276.657 294.838 278.309 293.596C279.847 292.422 281.709 291.835 283.897 291.835C285.617 291.835 287.338 292.149 289.058 292.775C289.776 293.06 290.425 293.374 291.006 293.715L290.408 298.278H288.973C288.973 296.706 288.545 295.567 287.691 294.86C286.836 294.143 285.6 293.784 283.982 293.784C281.749 293.784 280.223 294.513 279.402 295.971C279.14 296.45 279.009 296.985 279.009 297.578C279.009 298.17 279.095 298.706 279.266 299.184C279.437 299.651 279.767 300.113 280.257 300.568C281.214 301.491 283.014 302.505 285.657 303.61C289.349 305.183 291.502 307.04 292.117 309.182C292.299 309.854 292.391 310.572 292.391 311.335C292.391 312.087 292.26 312.805 291.998 313.488C291.747 314.16 291.399 314.764 290.955 315.3C290.511 315.824 289.992 316.28 289.4 316.667C288.819 317.054 288.198 317.373 287.537 317.624C284.609 318.763 281.533 318.672 278.309 317.351C277.135 316.861 276.098 316.263 275.198 315.556L275.916 310.651H277.369C277.369 312.941 278.092 314.536 279.539 315.437C280.53 316.052 281.829 316.359 283.436 316.359ZM300.782 296.501C300.782 296.501 300.542 303.052 300.064 316.154L302.439 316.547V318H295.347V316.547L297.774 316.154L299.004 294.074L296.595 293.681V292.229H302.439L311.617 312.241L320.862 292.229H326.211V293.681L323.648 294.074C323.83 297.788 324.024 301.486 324.229 305.166C324.434 308.846 324.622 312.508 324.793 316.154L327.425 316.547V318H319.068V316.547L321.631 316.154L320.862 296.757L310.916 318L300.782 296.501ZM329.083 292.229H338.362V293.681L335.406 294.074L341.626 305.439L346.958 294.074L344.139 293.681V292.229H352.068V293.681L349.437 294.006L342.703 307.524V316.154L345.677 316.547V318H336.602V316.547L339.524 316.154V307.541L331.424 294.074L329.083 293.681V292.229ZM371.26 294.04L369.329 293.681V292.229H377.344V293.681L374.285 294.04L363.416 304.482L373.841 315.625L375.174 316.274L377.396 316.547V318H371.38L359.81 305.131L371.26 294.04ZM353.863 292.229H362.237V293.681L359.673 294.074V316.154L362.237 316.547V318H353.863V316.547L356.512 316.154V294.074L353.863 293.681V292.229ZM397.476 294.04L395.545 293.681V292.229H403.56V293.681L400.501 294.04L389.632 304.482L400.057 315.625L401.39 316.274L403.611 316.547V318H397.596L386.026 305.131L397.476 294.04ZM380.079 292.229H388.453V293.681L385.889 294.074V316.154L388.453 316.547V318H380.079V316.547L382.728 316.154V294.074L380.079 293.681V292.229ZM418.172 305.644H411.883V315.949H421.402L422.632 312.924H423.931L423.367 318H406.072V316.547L408.67 316.154V294.074L406.072 293.681V292.229H422.615L423.008 297.304H421.504L420.582 294.296H411.883V303.593H418.172L418.685 301.782H419.898V307.438H418.685L418.172 305.644ZM444.524 296.142C444.832 296.928 444.986 297.823 444.986 298.825C444.986 299.828 444.826 300.739 444.507 301.56C444.2 302.38 443.75 303.086 443.157 303.679C442.029 304.807 440.372 305.598 438.184 306.054L438.492 305.49L445.242 315.744L446.438 316.274L448.848 316.547V318H442.986L435.296 305.712L436.731 306.328H432.151V316.154L434.715 316.547V318H426.341V316.547L428.99 316.154V294.074L426.341 293.681V292.229H434.766C440.223 292.229 443.476 293.533 444.524 296.142ZM432.151 294.296V304.482H434.681C438.372 304.482 440.605 303.405 441.38 301.252C441.619 300.603 441.739 299.902 441.739 299.15C441.739 298.387 441.631 297.703 441.414 297.099C441.198 296.495 440.833 295.988 440.32 295.578C439.261 294.724 437.466 294.296 434.937 294.296H432.151ZM461.819 292.229H470.193V293.681L467.613 294.074V316.154L470.193 316.547V318H461.819V316.547L464.451 316.154V294.074L461.819 293.681V292.229ZM488.445 294.074L485.796 293.681V292.229H496.768C501.291 292.229 504.812 293.334 507.33 295.544C509.791 297.72 511.021 300.699 511.021 304.482C511.021 307.205 510.389 309.637 509.124 311.779C507.962 313.75 506.35 315.288 504.288 316.394C502.282 317.465 500.123 318 497.811 318H485.796V316.547L488.445 316.154V294.074ZM491.607 294.296V315.949H497.776C500.636 315.949 503.006 315.049 504.886 313.249C506.823 311.369 507.791 308.914 507.791 305.883C507.791 300.084 505.763 296.467 501.707 295.031C500.306 294.541 498.631 294.296 496.683 294.296H491.607ZM530.828 316.547L533.187 316.154L530.486 309.506H520.232L517.549 316.154L519.959 316.547V318H512.627V316.547L515.328 316.154L524.3 293.972L523.582 292.28L526.351 291.118L536.57 316.154L539.322 316.547V318H530.828V316.547ZM521.036 307.438H529.734L525.376 296.467L521.036 307.438ZM545.269 297.185V316.154L547.867 316.547V318H540.655V316.547L543.304 316.154V294.074L540.655 293.681V292.229H545.372L561.932 313.044V294.074L559.351 293.681V292.229H566.512V293.681L563.931 294.074V318H561.812L545.269 297.185ZM578.304 316.359C579.147 316.359 579.91 316.28 580.594 316.12C581.289 315.949 581.887 315.687 582.388 315.334C583.459 314.593 583.995 313.511 583.995 312.087C583.995 310.879 583.602 309.888 582.815 309.113C581.984 308.316 580.634 307.513 578.765 306.704C576.908 305.883 575.49 305.154 574.51 304.516C573.541 303.867 572.778 303.212 572.22 302.551C571.206 301.389 570.699 299.982 570.699 298.33C570.699 296.416 571.525 294.838 573.177 293.596C574.715 292.422 576.578 291.835 578.765 291.835C580.486 291.835 582.206 292.149 583.926 292.775C584.644 293.06 585.293 293.374 585.875 293.715L585.276 298.278H583.841C583.841 296.706 583.414 295.567 582.559 294.86C581.705 294.143 580.468 293.784 578.851 293.784C576.618 293.784 575.091 294.513 574.271 295.971C574.008 296.45 573.877 296.985 573.877 297.578C573.877 298.17 573.963 298.706 574.134 299.184C574.305 299.651 574.635 300.113 575.125 300.568C576.082 301.491 577.882 302.505 580.525 303.61C584.217 305.183 586.37 307.04 586.985 309.182C587.168 309.854 587.259 310.572 587.259 311.335C587.259 312.087 587.128 312.805 586.866 313.488C586.615 314.16 586.268 314.764 585.823 315.3C585.379 315.824 584.861 316.28 584.268 316.667C583.687 317.054 583.066 317.373 582.405 317.624C579.477 318.763 576.401 318.672 573.177 317.351C572.003 316.861 570.966 316.263 570.066 315.556L570.784 310.651H572.237C572.237 312.941 572.96 314.536 574.407 315.437C575.398 316.052 576.697 316.359 578.304 316.359ZM607.75 294.04L605.818 293.681V292.229H613.833V293.681L610.774 294.04L599.905 304.482L610.33 315.625L611.663 316.274L613.885 316.547V318H607.869L596.299 305.131L607.75 294.04ZM590.352 292.229H598.726V293.681L596.163 294.074V316.154L598.726 316.547V318H590.352V316.547L593.001 316.154V294.074L590.352 293.681V292.229ZM631.556 294.074L628.907 293.681V292.229H639.878C644.402 292.229 647.922 293.334 650.44 295.544C652.901 297.72 654.131 300.699 654.131 304.482C654.131 307.205 653.499 309.637 652.234 311.779C651.072 313.75 649.46 315.288 647.398 316.394C645.393 317.465 643.234 318 640.921 318H628.907V316.547L631.556 316.154V294.074ZM634.717 294.296V315.949H640.887C643.746 315.949 646.116 315.049 647.996 313.249C649.933 311.369 650.901 308.914 650.901 305.883C650.901 300.084 648.873 296.467 644.817 295.031C643.416 294.541 641.741 294.296 639.793 294.296H634.717ZM669.358 305.644H663.069V315.949H672.588L673.819 312.924H675.118L674.554 318H657.259V316.547L659.856 316.154V294.074L657.259 293.681V292.229H673.802L674.195 297.304H672.691L671.768 294.296H663.069V303.593H669.358L669.871 301.782H671.084V307.438H669.871L669.358 305.644ZM686.38 316.359C687.223 316.359 687.986 316.28 688.67 316.12C689.365 315.949 689.963 315.687 690.464 315.334C691.535 314.593 692.071 313.511 692.071 312.087C692.071 310.879 691.678 309.888 690.892 309.113C690.06 308.316 688.71 307.513 686.841 306.704C684.984 305.883 683.566 305.154 682.586 304.516C681.618 303.867 680.854 303.212 680.296 302.551C679.282 301.389 678.775 299.982 678.775 298.33C678.775 296.416 679.601 294.838 681.253 293.596C682.791 292.422 684.654 291.835 686.841 291.835C688.562 291.835 690.282 292.149 692.002 292.775C692.72 293.06 693.37 293.374 693.951 293.715L693.353 298.278H691.917C691.917 296.706 691.49 295.567 690.635 294.86C689.781 294.143 688.545 293.784 686.927 293.784C684.694 293.784 683.167 294.513 682.347 295.971C682.085 296.45 681.954 296.985 681.954 297.578C681.954 298.17 682.039 298.706 682.21 299.184C682.381 299.651 682.711 300.113 683.201 300.568C684.158 301.491 685.958 302.505 688.602 303.61C692.293 305.183 694.446 307.04 695.062 309.182C695.244 309.854 695.335 310.572 695.335 311.335C695.335 312.087 695.204 312.805 694.942 313.488C694.691 314.16 694.344 314.764 693.899 315.3C693.455 315.824 692.937 316.28 692.344 316.667C691.763 317.054 691.142 317.373 690.481 317.624C687.553 318.763 684.477 318.672 681.253 317.351C680.079 316.861 679.043 316.263 678.143 315.556L678.86 310.651H680.313C680.313 312.941 681.036 314.536 682.483 315.437C683.475 316.052 684.773 316.359 686.38 316.359ZM698.445 292.229H706.819V293.681L704.239 294.074V316.154L706.819 316.547V318H698.445V316.547L701.077 316.154V294.074L698.445 293.681V292.229ZM725.584 306.396H735.684V308.242H734.727C734.385 308.242 734.123 308.299 733.941 308.413C733.77 308.515 733.685 308.715 733.685 309.011V316.394C732.864 316.394 731.953 316.564 730.95 316.906L728.763 317.624C727.133 318.137 725.373 318.393 723.482 318.393C721.602 318.393 719.819 318.057 718.133 317.385C716.458 316.701 715.028 315.773 713.843 314.599C712.658 313.426 711.741 312.047 711.092 310.463C710.454 308.88 710.135 307.29 710.135 305.695C710.135 304.089 710.3 302.676 710.63 301.457C710.972 300.238 711.445 299.127 712.049 298.125C712.653 297.122 713.37 296.233 714.202 295.458C715.045 294.672 715.968 294.012 716.971 293.476C719.033 292.382 721.277 291.835 723.704 291.835C727.452 291.835 730.426 292.417 732.625 293.579L732.232 297.8H731.104C731.104 296.752 730.455 295.857 729.156 295.117C727.72 294.296 725.875 293.886 723.619 293.886C720.691 293.886 718.258 294.94 716.321 297.048C714.43 299.099 713.484 301.588 713.484 304.516C713.484 307.729 714.373 310.463 716.15 312.719C718.064 315.135 720.645 316.342 723.892 316.342C727.47 316.342 729.577 315.573 730.215 314.035C730.409 313.557 730.506 313.038 730.506 312.48V309.011C730.506 308.703 730.415 308.498 730.232 308.396C730.062 308.293 729.828 308.242 729.532 308.242H725.584V306.396ZM743.887 297.185V316.154L746.485 316.547V318H739.273V316.547L741.922 316.154V294.074L739.273 293.681V292.229H743.99L760.55 313.044V294.074L757.969 293.681V292.229H765.13V293.681L762.549 294.074V318H760.43L743.887 297.185Z" fill="white"/>
</svg>
