<svg width="169" height="62" viewBox="0 0 169 62" fill="none" xmlns="http://www.w3.org/2000/svg">
<path d="M1.01985 8.31576C0.984751 12.1412 1.70712 16.2314 1.02862 56.9703C1.02277 57.3979 0.902863 58.6721 1.7042 59.5215C2.68685 60.563 4.45914 60.3273 4.80716 60.3273C57.4611 60.4466 108.626 59.8415 161.725 60.9993C162.263 61.011 164.029 60.8801 165.369 59.6583C167.217 57.971 167.138 55.1317 167.124 54.1543C167.054 49.6364 167.267 14.6023 167.934 7.31504C168.01 6.49758 168.258 4.18777 166.855 2.61686C165.308 0.885953 162.585 0.993589 161.862 1.00523C157.677 1.08086 26.7239 1.9245 9.2993 1.60741C6.43615 1.55504 3.68413 1.09832 2.06977 3.02704C0.739087 4.61831 1.02862 7.47213 1.02277 8.31867L1.01985 8.31576Z" stroke="#F1E9DF" stroke-width="0.5" stroke-miterlimit="10"/>
<path d="M32.3771 21.1506C32.5321 21.0866 32.6988 21.1971 32.6929 21.3659C32.6227 23.2393 32.5672 25.1331 32.5262 27.0502C32.4824 29.0895 32.459 31.2771 32.459 33.6131V36.3244C32.459 39.5651 32.4093 41.8168 32.3069 43.0793C32.2045 44.3447 32.0291 45.3106 31.7775 45.9826C31.1839 47.5709 30.2305 48.8277 28.9173 49.7586C27.6042 50.6866 26.563 51.3062 22.378 50.896L21.3983 50.7767C21.2345 50.7564 21.1467 50.5789 21.2286 50.4364L22.7289 47.856C22.802 47.728 22.9746 47.7077 23.0857 47.8066C24.9896 49.5462 27.3819 48.6357 28.1599 47.3557C28.967 46.0262 29.3736 43.8124 29.3736 40.7142V26.7186C29.3736 25.4939 29.28 24.7171 29.0899 24.3942C28.8998 24.0713 28.5517 23.9113 28.0487 23.9113C27.9347 23.9113 27.8001 23.92 27.6422 23.9404C27.5398 23.952 27.4229 23.9666 27.2971 23.9811C27.1772 23.9957 27.0661 23.9142 27.0456 23.7979L26.8994 23.0095C26.876 22.8873 26.9579 22.771 27.0807 22.7477C28.0838 22.5499 29.0372 22.3113 29.938 22.035C30.7861 21.776 31.6021 21.4793 32.3859 21.1506H32.3771ZM29.3063 12.9557C30.0901 12.3302 31.2014 12.3128 32.0027 12.9179C32.3449 13.1884 32.5964 13.459 32.7602 13.7295C32.924 14.0001 33.0059 14.2851 33.0059 14.5819C33.0059 14.8786 32.9415 15.1346 32.8158 15.347C32.69 15.5593 32.4443 15.8095 32.0759 16.0917L31.9676 16.1731C31.1868 16.7724 30.0959 16.755 29.3355 16.1353L29.3297 16.1295C28.9495 15.8328 28.6804 15.5593 28.5137 15.3062C28.35 15.0531 28.2681 14.7855 28.2681 14.5033C28.2681 14.2211 28.3353 13.971 28.4669 13.7586C28.5985 13.5462 28.8618 13.2902 29.2536 12.9935L29.3034 12.9557H29.3063Z" fill="#F1E9DF"/>
<path d="M52.1882 14.9717C54.3143 14.9717 56.2124 15.2538 57.8823 15.8153C59.5522 16.3797 61.0671 17.2495 62.4241 18.4277C64.0473 19.8531 65.2873 21.5026 66.1471 23.3789C67.0069 25.2553 67.4369 27.2509 67.4369 29.36C67.4369 31.4691 66.9835 33.5433 66.074 35.4575C65.1645 37.3745 63.8718 39.024 62.1931 40.4087C60.8507 41.5229 59.289 42.3927 57.505 43.0211C55.721 43.6494 53.9341 43.9636 52.1443 43.9636C49.907 43.9636 47.8481 43.5825 45.9676 42.8175C44.0871 42.0524 42.4259 40.9207 40.9841 39.4196C39.6681 38.0465 38.6649 36.5076 37.9747 34.7971C37.2845 33.0865 36.9365 31.2887 36.9365 29.3978C36.9365 27.3527 37.3518 25.4211 38.1853 23.6C39.0159 21.7818 40.2237 20.1847 41.803 18.8117C43.2302 17.5695 44.8387 16.6182 46.6285 15.9578C48.4184 15.2975 50.2726 14.9688 52.1882 14.9688V14.9717ZM62.8043 30.0436C62.8043 26.2764 61.9387 22.2618 59.8417 19.8444C57.7448 17.4298 55.101 16.2226 51.9132 16.2226C48.7255 16.2226 46.3917 17.2582 44.5404 19.3295C42.6862 21.4007 41.5778 25.0953 41.5778 28.5658C41.5778 32.4233 42.4523 36.4465 44.558 38.9193C46.6636 41.392 49.2958 42.6284 52.4572 42.6284C55.6187 42.6284 57.9642 41.5636 59.8301 39.4342C61.6959 37.3047 62.8102 33.6044 62.8102 30.0436H62.8043Z" fill="#F1E9DF"/>
<path d="M77.5588 14.9717V16.3244C77.474 16.3244 77.3512 16.3186 77.1962 16.304C77.0383 16.2895 76.9242 16.2837 76.854 16.2837C75.7281 16.2837 74.9677 16.6298 74.5699 17.3193C74.1722 18.0087 73.9733 19.6495 73.9733 22.2386V29.5113C73.9733 31.664 74.0698 34.672 74.2131 35.6931C74.3564 36.7171 74.5904 37.5578 74.918 38.224C75.6169 39.6582 76.6435 40.752 78.0034 41.5025C79.3633 42.2531 81.004 42.6284 82.9284 42.6284C84.3672 42.6284 85.6277 42.4364 86.7098 42.0495C87.7919 41.6625 88.719 41.072 89.4852 40.2749C90.2544 39.4778 90.7954 38.5033 91.1084 37.3455C91.4213 36.1905 91.5529 32.8422 91.5529 30.1455C91.5529 26.9047 91.5149 24.1789 91.4359 21.968C91.357 19.7571 91.2546 18.4189 91.1259 17.9535C90.927 17.3426 90.617 16.9178 90.1959 16.6793C89.7748 16.4407 89.0963 16.3215 88.1546 16.3215H87.8329V14.9688C88.0025 14.9688 88.254 14.9746 88.5815 14.9891C90.5469 15.0822 91.9477 15.1287 92.79 15.1287C93.6323 15.1287 95.0127 15.0822 96.9751 14.9891C97.3172 14.9746 97.5658 14.9688 97.7237 14.9688V16.3215H97.4664C96.6241 16.3215 95.9953 16.4204 95.5771 16.6211C95.156 16.8189 94.8547 17.1535 94.6676 17.616C94.5096 18 94.3956 19.0124 94.3254 20.6531C94.2552 22.2938 94.2201 24.9469 94.2201 28.6124V30.6051C94.2201 32.7026 94.1353 34.3084 93.9628 35.4167C93.7931 36.5251 93.5124 37.5055 93.1292 38.3549C92.3308 40.1207 90.9592 41.5084 89.0085 42.5178C87.0578 43.5273 84.7562 44.0305 82.1095 44.0305C80.2728 44.0305 78.5824 43.7774 77.0353 43.2742C75.4912 42.7709 74.1751 42.0378 73.093 41.0836C71.9115 40.0742 71.0721 38.8815 70.572 37.5084C70.0749 36.1353 69.8234 34.2124 69.8234 31.7425C69.8234 30.7855 69.838 29.2233 69.8672 27.0502C69.8965 24.88 69.9111 23.1811 69.9111 21.9593V21.3426C69.9111 19.0589 69.7093 17.6509 69.3028 17.1186C68.8963 16.5862 68.1037 16.3215 66.9222 16.3215H66.5391V14.9688C67.551 15.0211 68.5102 15.0618 69.4227 15.088C70.3352 15.1142 71.1657 15.1287 71.9232 15.1287C72.8357 15.1287 73.7598 15.1142 74.6986 15.088C75.6374 15.0618 76.5937 15.0211 77.5618 14.9688L77.5588 14.9717Z" fill="#F1E9DF"/>
<path d="M98.7824 14.9717C99.7592 15.027 100.686 15.0677 101.564 15.0939C102.441 15.12 103.239 15.1346 103.962 15.1346C104.825 15.1346 105.711 15.12 106.614 15.0939C107.521 15.0677 108.448 15.027 109.396 14.9717V16.3942H108.609C108.1 16.3942 107.702 16.4699 107.422 16.6182C107.138 16.7666 106.998 16.9702 106.998 17.2262C106.998 17.456 107.138 17.8284 107.422 18.3404C107.705 18.8553 108.229 19.6728 108.992 20.7957L112.75 26.2909L115.996 21.7906C117.128 20.2371 117.859 19.1782 118.193 18.6168C118.526 18.0553 118.693 17.6335 118.693 17.3484C118.693 17.0371 118.529 16.8015 118.204 16.6386C117.88 16.4757 117.406 16.3942 116.783 16.3942H116.359V14.9717C117.236 15.027 118.076 15.0677 118.874 15.0939C119.673 15.12 120.383 15.1346 121.006 15.1346C121.755 15.1346 122.524 15.12 123.311 15.0939C124.095 15.0677 124.905 15.027 125.741 14.9717L125.721 16.3942C125.65 16.3797 125.574 16.3709 125.498 16.3651C125.419 16.3593 125.297 16.3564 125.127 16.3564C123.826 16.3564 122.232 17.6015 120.351 20.0917C119.912 20.688 119.564 21.1477 119.31 21.4735L114.046 28.1731L121.348 38.4073C122.635 40.2342 123.606 41.3891 124.255 41.8691C124.905 42.3491 125.621 42.5906 126.399 42.5906C126.539 42.5906 126.648 42.5876 126.718 42.5818C126.788 42.576 126.852 42.5731 126.908 42.5731V43.9753C125.805 43.92 124.767 43.8793 123.799 43.8531C122.831 43.8269 121.957 43.8124 121.179 43.8124C120.541 43.8124 119.749 43.8269 118.801 43.8531C117.854 43.8793 116.818 43.92 115.701 43.9753V42.5527H116.254C116.988 42.5527 117.532 42.4713 117.877 42.3084C118.222 42.1455 118.397 41.8953 118.397 41.5578C118.397 41.2204 117.994 40.4611 117.187 39.3236L116.997 39.0589L111.519 31.2771L107.784 36.3971C106.623 37.9826 105.807 39.1666 105.333 39.952C104.86 40.7375 104.623 41.2873 104.623 41.5986C104.623 41.936 104.795 42.1891 105.143 42.3491C105.488 42.512 106.009 42.5935 106.702 42.5935C106.787 42.5935 106.91 42.5876 107.074 42.5731C107.237 42.5586 107.36 42.5527 107.445 42.5527V43.9753C106.413 43.92 105.459 43.8793 104.591 43.8531C103.719 43.8269 102.988 43.8124 102.394 43.8124C101.701 43.8124 100.911 43.8269 100.028 43.8531C99.1451 43.8793 98.2063 43.92 97.2148 43.9753V42.5731C97.285 42.5731 97.3669 42.576 97.4605 42.5818C97.5512 42.5876 97.6769 42.5906 97.8319 42.5906C99.2474 42.5906 100.903 41.3716 102.798 38.9367L102.818 38.9164L110.226 29.456L103.432 19.6495C103.389 19.5826 103.313 19.4662 103.199 19.3033C101.853 17.3688 100.517 16.4 99.186 16.4H98.7824V14.9775V14.9717Z" fill="#F1E9DF"/>
<path d="M133.842 12.3914C133.766 14.9281 133.722 18.2328 133.711 22.2968C133.699 23.8648 133.693 24.9906 133.693 25.6743L133.655 29.8692V38.9979C133.655 40.5659 133.816 41.5608 134.137 41.9768C134.459 42.3928 135.068 42.6022 135.965 42.6022H136.401V44.0364C135.53 43.9695 134.711 43.9171 133.947 43.8822C133.184 43.8473 132.511 43.8299 131.929 43.8299C131.347 43.8299 130.687 43.8473 129.979 43.8822C129.271 43.9171 128.531 43.9666 127.762 44.0364L127.744 42.6022C127.832 42.6022 127.943 42.6081 128.075 42.6226C128.206 42.6371 128.306 42.643 128.367 42.643C129.251 42.643 129.841 42.3928 130.14 41.8953C130.435 41.3979 130.584 39.9462 130.584 37.5462V36.0306L130.66 20.6386V17.1186C130.66 16.531 130.543 16.0917 130.309 15.7979C130.075 15.5041 129.724 15.3586 129.259 15.3586C129.081 15.3586 128.753 15.4052 128.274 15.5012C128.209 15.5157 128.166 15.5215 128.142 15.5215L127.858 14.1921C128.92 14.0001 129.944 13.7557 130.938 13.4561C131.929 13.1564 132.897 12.8015 133.845 12.3914H133.842Z" fill="#F1E9DF"/>
<path d="M143.403 22.387C143.391 22.9251 143.37 23.6902 143.347 24.6793C143.183 30.3666 143.101 34.3724 143.101 36.6909V38.9397C143.101 40.5804 143.239 41.6131 143.517 42.0378C143.794 42.4626 144.338 42.6749 145.146 42.6749C145.222 42.6749 145.321 42.6691 145.45 42.6546C145.576 42.64 145.669 42.6342 145.733 42.6342V44.0771C144.66 43.9927 143.794 43.9346 143.139 43.9084C142.481 43.8793 141.926 43.8647 141.472 43.8647C141.069 43.8647 140.554 43.8793 139.928 43.9084C139.302 43.9375 138.366 43.9927 137.115 44.0771V42.5906H137.589C139.153 42.5906 139.943 40.8655 139.957 37.4124V36.2458L140.033 31.0037C140.033 30.6226 140.039 30.1397 140.051 29.5608C140.063 28.9819 140.069 28.592 140.069 28.3942C140.069 27.248 139.969 26.4917 139.776 26.1222C139.58 25.7557 139.223 25.5695 138.706 25.5695C138.603 25.5695 138.457 25.5811 138.261 25.6015C138.065 25.6219 137.855 25.648 137.627 25.6771L137.436 24.339C138.434 24.1266 139.428 23.859 140.42 23.5331C141.411 23.2073 142.405 22.8262 143.403 22.387ZM140.031 13.5346C140.794 12.8742 141.929 12.8655 142.704 13.5142C143.057 13.811 143.315 14.1077 143.482 14.4044C143.645 14.7011 143.727 15.0124 143.727 15.3382C143.727 15.6641 143.66 15.9433 143.528 16.176C143.397 16.4088 143.145 16.6822 142.78 16.9935L142.704 17.0575C141.932 17.715 140.794 17.7062 140.033 17.0342C139.668 16.7084 139.402 16.4088 139.238 16.1324C139.074 15.8561 138.992 15.5622 138.992 15.251C138.992 14.9397 139.057 14.6662 139.182 14.4335C139.308 14.2008 139.568 13.9215 139.96 13.5957L140.033 13.5317L140.031 13.5346Z" fill="#F1E9DF"/>
<path d="M2.76594 9.76164C2.73085 13.3427 3.43859 17.174 2.77472 55.315C2.76887 55.7136 2.65188 56.9092 3.43274 57.7034C4.392 58.6809 6.12335 58.4569 6.46552 58.4569C57.9058 58.5703 107.887 58.003 159.76 59.0852C160.286 59.0969 162.012 58.9747 163.319 57.8285C165.123 56.2459 165.047 53.59 165.033 52.6765C164.966 48.4467 165.173 15.6438 165.822 8.822C165.896 8.05691 166.138 5.89255 164.767 4.42346C163.255 2.8031 160.596 2.90201 159.888 2.91656C155.8 2.98637 27.8704 3.77765 10.8495 3.48092C8.05064 3.43146 5.36296 3.00383 3.78662 4.81037C2.48518 6.29982 2.76887 8.97328 2.76302 9.76455L2.76594 9.76164Z" stroke="#F1E9DF" stroke-width="0.5" stroke-miterlimit="10"/>
</svg>
