<svg width="169" height="62" viewBox="0 0 169 62" fill="none" xmlns="http://www.w3.org/2000/svg">
<path d="M1.01985 8.31576C0.984751 12.1412 1.70712 16.2314 1.02862 56.9703C1.02277 57.3979 0.902863 58.6721 1.7042 59.5215C2.68685 60.563 4.45914 60.3273 4.80716 60.3273C57.4611 60.4466 108.626 59.8415 161.725 60.9993C162.263 61.011 164.029 60.8801 165.369 59.6583C167.217 57.971 167.138 55.1317 167.124 54.1543C167.054 49.6364 167.267 14.6023 167.934 7.31504C168.01 6.49758 168.258 4.18777 166.855 2.61686C165.308 0.885953 162.585 0.993589 161.862 1.00523C157.677 1.08086 26.7239 1.9245 9.2993 1.60741C6.43615 1.55504 3.68413 1.09832 2.06977 3.02704C0.739087 4.61831 1.02862 7.47213 1.02277 8.31867L1.01985 8.31576Z" stroke="#3F352C" stroke-width="0.5" stroke-miterlimit="10"/>
<path d="M1.01985 8.31576C0.984751 12.1412 1.70712 16.2314 1.02862 56.9703C1.02277 57.3979 0.902863 58.6721 1.7042 59.5215C2.68685 60.563 4.45914 60.3273 4.80716 60.3273C57.4611 60.4466 108.626 59.8415 161.725 60.9993C162.263 61.011 164.029 60.8801 165.369 59.6583C167.217 57.971 167.138 55.1317 167.124 54.1543C167.054 49.6364 167.267 14.6023 167.934 7.31504C168.01 6.49758 168.258 4.18777 166.855 2.61686C165.308 0.885953 162.585 0.993589 161.862 1.00523C157.677 1.08086 26.7239 1.9245 9.2993 1.60741C6.43615 1.55504 3.68413 1.09832 2.06977 3.02704C0.739087 4.61831 1.02862 7.47213 1.02277 8.31867L1.01985 8.31576Z" stroke="black" stroke-opacity="0.2" stroke-width="0.5" stroke-miterlimit="10"/>
<path d="M32.3773 21.1507C32.5323 21.0867 32.699 21.1972 32.6932 21.3659C32.623 23.2394 32.5674 25.1332 32.5265 27.0503C32.4826 29.0896 32.4592 31.2772 32.4592 33.6132V36.3245C32.4592 39.5652 32.4095 41.8168 32.3071 43.0794C32.2048 44.3448 32.0293 45.3106 31.7778 45.9826C31.1841 47.571 30.2307 48.8277 28.9176 49.7586C27.6044 50.6866 26.5633 51.3063 22.3782 50.8961L21.3985 50.7768C21.2347 50.7564 21.147 50.579 21.2289 50.4364L22.7292 47.8561C22.8023 47.7281 22.9748 47.7077 23.086 47.8066C24.9899 49.5463 27.3822 48.6357 28.1601 47.3557C28.9673 46.0263 29.3738 43.8124 29.3738 40.7143V26.7186C29.3738 25.4939 29.2802 24.7172 29.0901 24.3943C28.9 24.0714 28.552 23.9114 28.049 23.9114C27.9349 23.9114 27.8004 23.9201 27.6425 23.9405C27.5401 23.9521 27.4231 23.9667 27.2974 23.9812C27.1774 23.9957 27.0663 23.9143 27.0458 23.7979L26.8996 23.0096C26.8762 22.8874 26.9581 22.771 27.0809 22.7477C28.0841 22.5499 29.0375 22.3114 29.9382 22.035C30.7864 21.7761 31.6023 21.4794 32.3861 21.1507H32.3773ZM29.3065 12.9558C30.0903 12.3303 31.2017 12.3128 32.003 12.9179C32.3452 13.1885 32.5967 13.459 32.7604 13.7296C32.9242 14.0001 33.0061 14.2852 33.0061 14.5819C33.0061 14.8787 32.9418 15.1347 32.816 15.347C32.6903 15.5594 32.4446 15.8096 32.0761 16.0917L31.9679 16.1732C31.187 16.7725 30.0962 16.755 29.3358 16.1354L29.3299 16.1296C28.9497 15.8328 28.6807 15.5594 28.514 15.3063C28.3502 15.0532 28.2683 14.7856 28.2683 14.5034C28.2683 14.2212 28.3356 13.971 28.4672 13.7587C28.5988 13.5463 28.862 13.2903 29.2539 12.9936L29.3036 12.9558H29.3065Z" fill="#3F352C"/>
<path d="M32.3773 21.1507C32.5323 21.0867 32.699 21.1972 32.6932 21.3659C32.623 23.2394 32.5674 25.1332 32.5265 27.0503C32.4826 29.0896 32.4592 31.2772 32.4592 33.6132V36.3245C32.4592 39.5652 32.4095 41.8168 32.3071 43.0794C32.2048 44.3448 32.0293 45.3106 31.7778 45.9826C31.1841 47.571 30.2307 48.8277 28.9176 49.7586C27.6044 50.6866 26.5633 51.3063 22.3782 50.8961L21.3985 50.7768C21.2347 50.7564 21.147 50.579 21.2289 50.4364L22.7292 47.8561C22.8023 47.7281 22.9748 47.7077 23.086 47.8066C24.9899 49.5463 27.3822 48.6357 28.1601 47.3557C28.9673 46.0263 29.3738 43.8124 29.3738 40.7143V26.7186C29.3738 25.4939 29.2802 24.7172 29.0901 24.3943C28.9 24.0714 28.552 23.9114 28.049 23.9114C27.9349 23.9114 27.8004 23.9201 27.6425 23.9405C27.5401 23.9521 27.4231 23.9667 27.2974 23.9812C27.1774 23.9957 27.0663 23.9143 27.0458 23.7979L26.8996 23.0096C26.8762 22.8874 26.9581 22.771 27.0809 22.7477C28.0841 22.5499 29.0375 22.3114 29.9382 22.035C30.7864 21.7761 31.6023 21.4794 32.3861 21.1507H32.3773ZM29.3065 12.9558C30.0903 12.3303 31.2017 12.3128 32.003 12.9179C32.3452 13.1885 32.5967 13.459 32.7604 13.7296C32.9242 14.0001 33.0061 14.2852 33.0061 14.5819C33.0061 14.8787 32.9418 15.1347 32.816 15.347C32.6903 15.5594 32.4446 15.8096 32.0761 16.0917L31.9679 16.1732C31.187 16.7725 30.0962 16.755 29.3358 16.1354L29.3299 16.1296C28.9497 15.8328 28.6807 15.5594 28.514 15.3063C28.3502 15.0532 28.2683 14.7856 28.2683 14.5034C28.2683 14.2212 28.3356 13.971 28.4672 13.7587C28.5988 13.5463 28.862 13.2903 29.2539 12.9936L29.3036 12.9558H29.3065Z" fill="black" fill-opacity="0.2"/>
<path d="M52.1882 14.9718C54.3143 14.9718 56.2124 15.2539 57.8823 15.8154C59.5522 16.3797 61.0671 17.2496 62.4241 18.4277C64.0473 19.8532 65.2873 21.5027 66.1471 23.379C67.0069 25.2554 67.4369 27.251 67.4369 29.3601C67.4369 31.4692 66.9835 33.5434 66.074 35.4576C65.1645 37.3746 63.8718 39.0241 62.1931 40.4088C60.8507 41.523 59.289 42.3928 57.505 43.0212C55.721 43.6495 53.9341 43.9637 52.1443 43.9637C49.907 43.9637 47.8481 43.5826 45.9676 42.8175C44.0871 42.0525 42.4259 40.9208 40.9841 39.4197C39.6681 38.0466 38.6649 36.5077 37.9747 34.7972C37.2845 33.0866 36.9365 31.2888 36.9365 29.3979C36.9365 27.3528 37.3518 25.4212 38.1853 23.6001C39.0159 21.7819 40.2237 20.1848 41.803 18.8117C43.2302 17.5696 44.8387 16.6183 46.6285 15.9579C48.4184 15.2976 50.2726 14.9688 52.1882 14.9688V14.9718ZM62.8043 30.0437C62.8043 26.2765 61.9387 22.2619 59.8417 19.8445C57.7448 17.4299 55.101 16.2227 51.9132 16.2227C48.7255 16.2227 46.3917 17.2583 44.5404 19.3296C42.6862 21.4008 41.5778 25.0954 41.5778 28.5659C41.5778 32.4234 42.4523 36.4466 44.558 38.9194C46.6636 41.3921 49.2958 42.6284 52.4572 42.6284C55.6187 42.6284 57.9642 41.5637 59.8301 39.4343C61.6959 37.3048 62.8102 33.6045 62.8102 30.0437H62.8043Z" fill="#3F352C"/>
<path d="M52.1882 14.9718C54.3143 14.9718 56.2124 15.2539 57.8823 15.8154C59.5522 16.3797 61.0671 17.2496 62.4241 18.4277C64.0473 19.8532 65.2873 21.5027 66.1471 23.379C67.0069 25.2554 67.4369 27.251 67.4369 29.3601C67.4369 31.4692 66.9835 33.5434 66.074 35.4576C65.1645 37.3746 63.8718 39.0241 62.1931 40.4088C60.8507 41.523 59.289 42.3928 57.505 43.0212C55.721 43.6495 53.9341 43.9637 52.1443 43.9637C49.907 43.9637 47.8481 43.5826 45.9676 42.8175C44.0871 42.0525 42.4259 40.9208 40.9841 39.4197C39.6681 38.0466 38.6649 36.5077 37.9747 34.7972C37.2845 33.0866 36.9365 31.2888 36.9365 29.3979C36.9365 27.3528 37.3518 25.4212 38.1853 23.6001C39.0159 21.7819 40.2237 20.1848 41.803 18.8117C43.2302 17.5696 44.8387 16.6183 46.6285 15.9579C48.4184 15.2976 50.2726 14.9688 52.1882 14.9688V14.9718ZM62.8043 30.0437C62.8043 26.2765 61.9387 22.2619 59.8417 19.8445C57.7448 17.4299 55.101 16.2227 51.9132 16.2227C48.7255 16.2227 46.3917 17.2583 44.5404 19.3296C42.6862 21.4008 41.5778 25.0954 41.5778 28.5659C41.5778 32.4234 42.4523 36.4466 44.558 38.9194C46.6636 41.3921 49.2958 42.6284 52.4572 42.6284C55.6187 42.6284 57.9642 41.5637 59.8301 39.4343C61.6959 37.3048 62.8102 33.6045 62.8102 30.0437H62.8043Z" fill="black" fill-opacity="0.2"/>
<path d="M77.5588 14.9718V16.3245C77.474 16.3245 77.3512 16.3187 77.1962 16.3041C77.0383 16.2896 76.9242 16.2837 76.854 16.2837C75.7281 16.2837 74.9677 16.6299 74.5699 17.3194C74.1722 18.0088 73.9733 19.6496 73.9733 22.2387V29.5114C73.9733 31.6641 74.0698 34.6721 74.2131 35.6932C74.3564 36.7172 74.5904 37.5579 74.918 38.2241C75.6169 39.6583 76.6435 40.7521 78.0034 41.5026C79.3633 42.2532 81.004 42.6284 82.9284 42.6284C84.3672 42.6284 85.6277 42.4365 86.7098 42.0495C87.7919 41.6626 88.719 41.0721 89.4852 40.275C90.2544 39.4779 90.7954 38.5034 91.1084 37.3455C91.4213 36.1906 91.5529 32.8423 91.5529 30.1456C91.5529 26.9048 91.5149 24.179 91.4359 21.9681C91.357 19.7572 91.2546 18.419 91.1259 17.9536C90.927 17.3427 90.617 16.9179 90.1959 16.6794C89.7748 16.4408 89.0963 16.3216 88.1546 16.3216H87.8329V14.9688C88.0025 14.9688 88.254 14.9747 88.5815 14.9892C90.5469 15.0823 91.9477 15.1288 92.79 15.1288C93.6323 15.1288 95.0127 15.0823 96.9751 14.9892C97.3172 14.9747 97.5658 14.9688 97.7237 14.9688V16.3216H97.4664C96.6241 16.3216 95.9953 16.4205 95.5771 16.6212C95.156 16.819 94.8547 17.1536 94.6676 17.6161C94.5096 18.0001 94.3956 19.0125 94.3254 20.6532C94.2552 22.2939 94.2201 24.947 94.2201 28.6125V30.6052C94.2201 32.7026 94.1353 34.3085 93.9628 35.4168C93.7931 36.5252 93.5124 37.5055 93.1292 38.355C92.3308 40.1208 90.9592 41.5084 89.0085 42.5179C87.0578 43.5274 84.7562 44.0306 82.1095 44.0306C80.2728 44.0306 78.5824 43.7775 77.0353 43.2743C75.4912 42.771 74.1751 42.0379 73.093 41.0837C71.9115 40.0743 71.0721 38.8815 70.572 37.5085C70.0749 36.1354 69.8234 34.2125 69.8234 31.7426C69.8234 30.7856 69.838 29.2234 69.8672 27.0503C69.8965 24.8801 69.9111 23.1812 69.9111 21.9594V21.3427C69.9111 19.059 69.7093 17.651 69.3028 17.1187C68.8963 16.5863 68.1037 16.3216 66.9222 16.3216H66.5391V14.9688C67.551 15.0212 68.5102 15.0619 69.4227 15.0881C70.3352 15.1143 71.1657 15.1288 71.9232 15.1288C72.8357 15.1288 73.7598 15.1143 74.6986 15.0881C75.6374 15.0619 76.5937 15.0212 77.5618 14.9688L77.5588 14.9718Z" fill="#3F352C"/>
<path d="M77.5588 14.9718V16.3245C77.474 16.3245 77.3512 16.3187 77.1962 16.3041C77.0383 16.2896 76.9242 16.2837 76.854 16.2837C75.7281 16.2837 74.9677 16.6299 74.5699 17.3194C74.1722 18.0088 73.9733 19.6496 73.9733 22.2387V29.5114C73.9733 31.6641 74.0698 34.6721 74.2131 35.6932C74.3564 36.7172 74.5904 37.5579 74.918 38.2241C75.6169 39.6583 76.6435 40.7521 78.0034 41.5026C79.3633 42.2532 81.004 42.6284 82.9284 42.6284C84.3672 42.6284 85.6277 42.4365 86.7098 42.0495C87.7919 41.6626 88.719 41.0721 89.4852 40.275C90.2544 39.4779 90.7954 38.5034 91.1084 37.3455C91.4213 36.1906 91.5529 32.8423 91.5529 30.1456C91.5529 26.9048 91.5149 24.179 91.4359 21.9681C91.357 19.7572 91.2546 18.419 91.1259 17.9536C90.927 17.3427 90.617 16.9179 90.1959 16.6794C89.7748 16.4408 89.0963 16.3216 88.1546 16.3216H87.8329V14.9688C88.0025 14.9688 88.254 14.9747 88.5815 14.9892C90.5469 15.0823 91.9477 15.1288 92.79 15.1288C93.6323 15.1288 95.0127 15.0823 96.9751 14.9892C97.3172 14.9747 97.5658 14.9688 97.7237 14.9688V16.3216H97.4664C96.6241 16.3216 95.9953 16.4205 95.5771 16.6212C95.156 16.819 94.8547 17.1536 94.6676 17.6161C94.5096 18.0001 94.3956 19.0125 94.3254 20.6532C94.2552 22.2939 94.2201 24.947 94.2201 28.6125V30.6052C94.2201 32.7026 94.1353 34.3085 93.9628 35.4168C93.7931 36.5252 93.5124 37.5055 93.1292 38.355C92.3308 40.1208 90.9592 41.5084 89.0085 42.5179C87.0578 43.5274 84.7562 44.0306 82.1095 44.0306C80.2728 44.0306 78.5824 43.7775 77.0353 43.2743C75.4912 42.771 74.1751 42.0379 73.093 41.0837C71.9115 40.0743 71.0721 38.8815 70.572 37.5085C70.0749 36.1354 69.8234 34.2125 69.8234 31.7426C69.8234 30.7856 69.838 29.2234 69.8672 27.0503C69.8965 24.8801 69.9111 23.1812 69.9111 21.9594V21.3427C69.9111 19.059 69.7093 17.651 69.3028 17.1187C68.8963 16.5863 68.1037 16.3216 66.9222 16.3216H66.5391V14.9688C67.551 15.0212 68.5102 15.0619 69.4227 15.0881C70.3352 15.1143 71.1657 15.1288 71.9232 15.1288C72.8357 15.1288 73.7598 15.1143 74.6986 15.0881C75.6374 15.0619 76.5937 15.0212 77.5618 14.9688L77.5588 14.9718Z" fill="black" fill-opacity="0.2"/>
<path d="M98.7824 14.9717C99.7592 15.027 100.686 15.0677 101.564 15.0939C102.441 15.1201 103.239 15.1346 103.962 15.1346C104.825 15.1346 105.711 15.1201 106.614 15.0939C107.521 15.0677 108.448 15.027 109.396 14.9717V16.3943H108.609C108.1 16.3943 107.702 16.4699 107.422 16.6183C107.138 16.7666 106.998 16.9703 106.998 17.2263C106.998 17.4561 107.138 17.8285 107.422 18.3405C107.705 18.8554 108.229 19.6728 108.992 20.7957L112.75 26.291L115.996 21.7906C117.128 20.2372 117.859 19.1783 118.193 18.6168C118.526 18.0554 118.693 17.6336 118.693 17.3485C118.693 17.0372 118.529 16.8016 118.204 16.6386C117.88 16.4757 117.406 16.3943 116.783 16.3943H116.359V14.9717C117.236 15.027 118.076 15.0677 118.874 15.0939C119.673 15.1201 120.383 15.1346 121.006 15.1346C121.755 15.1346 122.524 15.1201 123.311 15.0939C124.095 15.0677 124.905 15.027 125.741 14.9717L125.721 16.3943C125.65 16.3797 125.574 16.371 125.498 16.3652C125.419 16.3594 125.297 16.3565 125.127 16.3565C123.826 16.3565 122.232 17.6016 120.351 20.0917C119.912 20.6881 119.564 21.1477 119.31 21.4735L114.046 28.1732L121.348 38.4073C122.635 40.2343 123.606 41.3892 124.255 41.8692C124.905 42.3492 125.621 42.5906 126.399 42.5906C126.539 42.5906 126.648 42.5877 126.718 42.5819C126.788 42.5761 126.852 42.5732 126.908 42.5732V43.9753C125.805 43.9201 124.767 43.8793 123.799 43.8532C122.831 43.827 121.957 43.8124 121.179 43.8124C120.541 43.8124 119.749 43.827 118.801 43.8532C117.854 43.8793 116.818 43.9201 115.701 43.9753V42.5528H116.254C116.988 42.5528 117.532 42.4713 117.877 42.3084C118.222 42.1455 118.397 41.8953 118.397 41.5579C118.397 41.2204 117.994 40.4612 117.187 39.3237L116.997 39.059L111.519 31.2772L107.784 36.3972C106.623 37.9826 105.807 39.1666 105.333 39.9521C104.86 40.7375 104.623 41.2873 104.623 41.5986C104.623 41.9361 104.795 42.1892 105.143 42.3492C105.488 42.5121 106.009 42.5935 106.702 42.5935C106.787 42.5935 106.91 42.5877 107.074 42.5732C107.237 42.5586 107.36 42.5528 107.445 42.5528V43.9753C106.413 43.9201 105.459 43.8793 104.591 43.8532C103.719 43.827 102.988 43.8124 102.394 43.8124C101.701 43.8124 100.911 43.827 100.028 43.8532C99.1451 43.8793 98.2063 43.9201 97.2148 43.9753V42.5732C97.285 42.5732 97.3669 42.5761 97.4605 42.5819C97.5512 42.5877 97.6769 42.5906 97.8319 42.5906C99.2474 42.5906 100.903 41.3717 102.798 38.9368L102.818 38.9164L110.226 29.4561L103.432 19.6496C103.389 19.5826 103.313 19.4663 103.199 19.3034C101.853 17.3688 100.517 16.4001 99.186 16.4001H98.7824V14.9776V14.9717Z" fill="#3F352C"/>
<path d="M98.7824 14.9717C99.7592 15.027 100.686 15.0677 101.564 15.0939C102.441 15.1201 103.239 15.1346 103.962 15.1346C104.825 15.1346 105.711 15.1201 106.614 15.0939C107.521 15.0677 108.448 15.027 109.396 14.9717V16.3943H108.609C108.1 16.3943 107.702 16.4699 107.422 16.6183C107.138 16.7666 106.998 16.9703 106.998 17.2263C106.998 17.4561 107.138 17.8285 107.422 18.3405C107.705 18.8554 108.229 19.6728 108.992 20.7957L112.75 26.291L115.996 21.7906C117.128 20.2372 117.859 19.1783 118.193 18.6168C118.526 18.0554 118.693 17.6336 118.693 17.3485C118.693 17.0372 118.529 16.8016 118.204 16.6386C117.88 16.4757 117.406 16.3943 116.783 16.3943H116.359V14.9717C117.236 15.027 118.076 15.0677 118.874 15.0939C119.673 15.1201 120.383 15.1346 121.006 15.1346C121.755 15.1346 122.524 15.1201 123.311 15.0939C124.095 15.0677 124.905 15.027 125.741 14.9717L125.721 16.3943C125.65 16.3797 125.574 16.371 125.498 16.3652C125.419 16.3594 125.297 16.3565 125.127 16.3565C123.826 16.3565 122.232 17.6016 120.351 20.0917C119.912 20.6881 119.564 21.1477 119.31 21.4735L114.046 28.1732L121.348 38.4073C122.635 40.2343 123.606 41.3892 124.255 41.8692C124.905 42.3492 125.621 42.5906 126.399 42.5906C126.539 42.5906 126.648 42.5877 126.718 42.5819C126.788 42.5761 126.852 42.5732 126.908 42.5732V43.9753C125.805 43.9201 124.767 43.8793 123.799 43.8532C122.831 43.827 121.957 43.8124 121.179 43.8124C120.541 43.8124 119.749 43.827 118.801 43.8532C117.854 43.8793 116.818 43.9201 115.701 43.9753V42.5528H116.254C116.988 42.5528 117.532 42.4713 117.877 42.3084C118.222 42.1455 118.397 41.8953 118.397 41.5579C118.397 41.2204 117.994 40.4612 117.187 39.3237L116.997 39.059L111.519 31.2772L107.784 36.3972C106.623 37.9826 105.807 39.1666 105.333 39.9521C104.86 40.7375 104.623 41.2873 104.623 41.5986C104.623 41.9361 104.795 42.1892 105.143 42.3492C105.488 42.5121 106.009 42.5935 106.702 42.5935C106.787 42.5935 106.91 42.5877 107.074 42.5732C107.237 42.5586 107.36 42.5528 107.445 42.5528V43.9753C106.413 43.9201 105.459 43.8793 104.591 43.8532C103.719 43.827 102.988 43.8124 102.394 43.8124C101.701 43.8124 100.911 43.827 100.028 43.8532C99.1451 43.8793 98.2063 43.9201 97.2148 43.9753V42.5732C97.285 42.5732 97.3669 42.5761 97.4605 42.5819C97.5512 42.5877 97.6769 42.5906 97.8319 42.5906C99.2474 42.5906 100.903 41.3717 102.798 38.9368L102.818 38.9164L110.226 29.4561L103.432 19.6496C103.389 19.5826 103.313 19.4663 103.199 19.3034C101.853 17.3688 100.517 16.4001 99.186 16.4001H98.7824V14.9776V14.9717Z" fill="black" fill-opacity="0.2"/>
<path d="M133.842 12.3914C133.766 14.9281 133.722 18.2328 133.711 22.2968C133.699 23.8648 133.693 24.9906 133.693 25.6743L133.655 29.8692V38.9979C133.655 40.5659 133.816 41.5608 134.138 41.9768C134.459 42.3928 135.068 42.6023 135.966 42.6023H136.401V44.0364C135.53 43.9695 134.711 43.9172 133.948 43.8823C133.184 43.8474 132.512 43.8299 131.93 43.8299C131.348 43.8299 130.687 43.8474 129.979 43.8823C129.271 43.9172 128.531 43.9666 127.762 44.0364L127.745 42.6023C127.832 42.6023 127.944 42.6081 128.075 42.6226C128.207 42.6372 128.306 42.643 128.368 42.643C129.251 42.643 129.842 42.3928 130.14 41.8954C130.435 41.3979 130.584 39.9463 130.584 37.5463V36.0306L130.66 20.6387V17.1187C130.66 16.531 130.543 16.0917 130.309 15.7979C130.076 15.5041 129.725 15.3587 129.26 15.3587C129.081 15.3587 128.754 15.4052 128.274 15.5012C128.21 15.5157 128.166 15.5216 128.142 15.5216L127.859 14.1921C128.92 14.0001 129.944 13.7558 130.938 13.4561C131.93 13.1565 132.898 12.8016 133.845 12.3914H133.842Z" fill="#3F352C"/>
<path d="M133.842 12.3914C133.766 14.9281 133.722 18.2328 133.711 22.2968C133.699 23.8648 133.693 24.9906 133.693 25.6743L133.655 29.8692V38.9979C133.655 40.5659 133.816 41.5608 134.138 41.9768C134.459 42.3928 135.068 42.6023 135.966 42.6023H136.401V44.0364C135.53 43.9695 134.711 43.9172 133.948 43.8823C133.184 43.8474 132.512 43.8299 131.93 43.8299C131.348 43.8299 130.687 43.8474 129.979 43.8823C129.271 43.9172 128.531 43.9666 127.762 44.0364L127.745 42.6023C127.832 42.6023 127.944 42.6081 128.075 42.6226C128.207 42.6372 128.306 42.643 128.368 42.643C129.251 42.643 129.842 42.3928 130.14 41.8954C130.435 41.3979 130.584 39.9463 130.584 37.5463V36.0306L130.66 20.6387V17.1187C130.66 16.531 130.543 16.0917 130.309 15.7979C130.076 15.5041 129.725 15.3587 129.26 15.3587C129.081 15.3587 128.754 15.4052 128.274 15.5012C128.21 15.5157 128.166 15.5216 128.142 15.5216L127.859 14.1921C128.92 14.0001 129.944 13.7558 130.938 13.4561C131.93 13.1565 132.898 12.8016 133.845 12.3914H133.842Z" fill="black" fill-opacity="0.2"/>
<path d="M143.403 22.387C143.391 22.9252 143.37 23.6903 143.347 24.6794C143.183 30.3666 143.101 34.3725 143.101 36.691V38.9397C143.101 40.5805 143.239 41.6132 143.517 42.0379C143.794 42.4626 144.338 42.675 145.146 42.675C145.222 42.675 145.321 42.6692 145.45 42.6546C145.576 42.6401 145.669 42.6343 145.733 42.6343V44.0772C144.66 43.9928 143.794 43.9346 143.139 43.9084C142.481 43.8794 141.926 43.8648 141.472 43.8648C141.069 43.8648 140.554 43.8794 139.928 43.9084C139.302 43.9375 138.366 43.9928 137.115 44.0772V42.5906H137.589C139.153 42.5906 139.943 40.8655 139.957 37.4125V36.2459L140.033 31.0037C140.033 30.6226 140.039 30.1397 140.051 29.5608C140.063 28.9819 140.069 28.5921 140.069 28.3943C140.069 27.2481 139.969 26.4917 139.776 26.1223C139.58 25.7557 139.223 25.5696 138.706 25.5696C138.603 25.5696 138.457 25.5812 138.261 25.6016C138.065 25.6219 137.855 25.6481 137.627 25.6772L137.436 24.339C138.434 24.1266 139.428 23.859 140.42 23.5332C141.411 23.2074 142.405 22.8263 143.403 22.387ZM140.031 13.5347C140.794 12.8743 141.929 12.8656 142.704 13.5143C143.057 13.811 143.315 14.1078 143.482 14.4045C143.645 14.7012 143.727 15.0125 143.727 15.3383C143.727 15.6641 143.66 15.9434 143.528 16.1761C143.397 16.4088 143.145 16.6823 142.78 16.9936L142.704 17.0576C141.932 17.715 140.794 17.7063 140.033 17.0343C139.668 16.7085 139.402 16.4088 139.238 16.1325C139.074 15.8561 138.992 15.5623 138.992 15.251C138.992 14.9397 139.057 14.6663 139.182 14.4336C139.308 14.2008 139.568 13.9216 139.96 13.5957L140.033 13.5318L140.031 13.5347Z" fill="#3F352C"/>
<path d="M143.403 22.387C143.391 22.9252 143.37 23.6903 143.347 24.6794C143.183 30.3666 143.101 34.3725 143.101 36.691V38.9397C143.101 40.5805 143.239 41.6132 143.517 42.0379C143.794 42.4626 144.338 42.675 145.146 42.675C145.222 42.675 145.321 42.6692 145.45 42.6546C145.576 42.6401 145.669 42.6343 145.733 42.6343V44.0772C144.66 43.9928 143.794 43.9346 143.139 43.9084C142.481 43.8794 141.926 43.8648 141.472 43.8648C141.069 43.8648 140.554 43.8794 139.928 43.9084C139.302 43.9375 138.366 43.9928 137.115 44.0772V42.5906H137.589C139.153 42.5906 139.943 40.8655 139.957 37.4125V36.2459L140.033 31.0037C140.033 30.6226 140.039 30.1397 140.051 29.5608C140.063 28.9819 140.069 28.5921 140.069 28.3943C140.069 27.2481 139.969 26.4917 139.776 26.1223C139.58 25.7557 139.223 25.5696 138.706 25.5696C138.603 25.5696 138.457 25.5812 138.261 25.6016C138.065 25.6219 137.855 25.6481 137.627 25.6772L137.436 24.339C138.434 24.1266 139.428 23.859 140.42 23.5332C141.411 23.2074 142.405 22.8263 143.403 22.387ZM140.031 13.5347C140.794 12.8743 141.929 12.8656 142.704 13.5143C143.057 13.811 143.315 14.1078 143.482 14.4045C143.645 14.7012 143.727 15.0125 143.727 15.3383C143.727 15.6641 143.66 15.9434 143.528 16.1761C143.397 16.4088 143.145 16.6823 142.78 16.9936L142.704 17.0576C141.932 17.715 140.794 17.7063 140.033 17.0343C139.668 16.7085 139.402 16.4088 139.238 16.1325C139.074 15.8561 138.992 15.5623 138.992 15.251C138.992 14.9397 139.057 14.6663 139.182 14.4336C139.308 14.2008 139.568 13.9216 139.96 13.5957L140.033 13.5318L140.031 13.5347Z" fill="black" fill-opacity="0.2"/>
<path d="M2.76594 9.76155C2.73085 13.3426 3.43859 17.1739 2.77472 55.3149C2.76887 55.7135 2.65188 56.9091 3.43274 57.7033C4.392 58.6808 6.12335 58.4568 6.46552 58.4568C57.9058 58.5702 107.887 58.0029 159.76 59.0851C160.286 59.0968 162.012 58.9746 163.319 57.8284C165.123 56.2459 165.047 53.5899 165.033 52.6764C164.966 48.4466 165.173 15.6437 165.822 8.82191C165.896 8.05682 166.138 5.89246 164.767 4.42337C163.255 2.80301 160.596 2.90192 159.888 2.91646C155.8 2.98628 27.8704 3.77755 10.8495 3.48083C8.05064 3.43137 5.36296 3.00374 3.78662 4.81028C2.48518 6.29973 2.76887 8.97318 2.76302 9.76446L2.76594 9.76155Z" stroke="#3F352C" stroke-width="0.5" stroke-miterlimit="10"/>
<path d="M2.76594 9.76155C2.73085 13.3426 3.43859 17.1739 2.77472 55.3149C2.76887 55.7135 2.65188 56.9091 3.43274 57.7033C4.392 58.6808 6.12335 58.4568 6.46552 58.4568C57.9058 58.5702 107.887 58.0029 159.76 59.0851C160.286 59.0968 162.012 58.9746 163.319 57.8284C165.123 56.2459 165.047 53.5899 165.033 52.6764C164.966 48.4466 165.173 15.6437 165.822 8.82191C165.896 8.05682 166.138 5.89246 164.767 4.42337C163.255 2.80301 160.596 2.90192 159.888 2.91646C155.8 2.98628 27.8704 3.77755 10.8495 3.48083C8.05064 3.43137 5.36296 3.00374 3.78662 4.81028C2.48518 6.29973 2.76887 8.97318 2.76302 9.76446L2.76594 9.76155Z" stroke="black" stroke-opacity="0.2" stroke-width="0.5" stroke-miterlimit="10"/>
</svg>
