<svg width="520" height="596" viewBox="0 0 520 596" fill="none" xmlns="http://www.w3.org/2000/svg">
<g opacity="0.7">
<path d="M67.5813 214.022C63.0816 218.019 59.3197 222.805 55.9327 227.758C49.4171 237.69 42.968 248.608 42.7211 260.785C43.5022 291.43 64.6028 317.018 85.0807 337.978C97.6355 351.279 105.851 367.939 112.278 384.88C116.882 396.13 120.025 407.986 121.654 419.988C122.851 426.076 121.285 432.741 118.167 437.949C115.165 443.299 114.611 448.954 114.572 455.018L114.001 473.166C114.117 479.637 109.436 485.149 105.185 489.268C101.194 493.738 97.0113 498.157 93.6692 502.984C85.8105 512.98 88.9058 525.321 94.2029 535.823C100.476 551.673 113.275 567.803 131.119 569.714C137.026 570.325 141.839 566.457 146.81 563.649C154.382 558.91 162.544 555.141 168.003 548.009C170.889 544.834 172.337 538.712 177.128 537.061C182.179 535.761 186.573 536.844 191.501 537.13C194.201 537.525 201.716 538.033 204.242 538.868C212.259 541.578 218.043 548.767 222.606 555.118C224.451 557.583 226.074 560.319 227.674 562.629C229.157 564.797 230.674 565.957 233.172 565.418C241.177 562.581 247.57 555.573 253.751 549.719C260.758 543.424 269.688 539.47 278.709 537.254C282.927 536.134 287.463 535.762 291.169 533.874C292.204 533.29 292.523 532.702 292.667 531.9C292.746 531.092 292.418 528.777 293.151 526.956C293.683 525.181 295.068 523.36 296.564 522.397C298.064 521.402 298.86 520.925 299.304 520.055C299.742 519.25 299.824 518.41 299.499 517.073C297.828 511.494 296.007 505.117 295.956 498.978C295.914 495.745 296.363 492.493 297.648 489.357C299.916 483.511 305.703 480.685 305.199 474.176C304.012 468.318 304.448 461.868 305.124 455.964C305.541 449.709 305.184 443.703 307.283 437.58C309.006 431.648 315.652 429.036 315.745 422.423C315.821 413.655 317.433 404.188 316.783 395.512C316.104 387.126 315.879 366.127 303.161 369.808C291.747 373.486 279.983 378.075 267.541 377.607C254.506 375.874 248.723 361.671 242.136 352.022C235.568 341.852 230.463 330.717 225.543 319.697C218.477 302.954 210.756 286.571 204.913 269.328C200.243 246.425 203.776 219.008 184.926 201.731C171.184 188.902 151.409 189.738 133.788 189.546C127.769 189.413 121.747 189.639 115.785 190.588C109.865 191.444 104.083 193.553 99.1784 197.02C96.8412 198.912 94.1772 200.478 91.3834 201.705C82.7643 204.482 74.2105 207.592 67.5168 214.016L67.5813 214.022ZM67.4357 213.845C74.0972 207.418 82.7313 204.153 91.3149 201.405C94.0764 200.174 96.6727 198.634 99.0099 196.743C103.953 193.214 109.803 191.079 115.758 190.194C121.72 189.245 127.781 188.957 133.832 189.093C151.491 189.224 171.597 188.355 185.462 201.262C204.511 218.493 201.244 246.197 205.913 269.1C211.805 286.184 219.584 302.638 226.695 319.255C231.651 330.246 236.736 341.249 243.31 351.354C255.911 371.183 259.877 381.294 285.496 373.722C291.347 372.239 297.02 370.25 302.754 368.3C309.947 366.101 314.193 371.019 315.901 377.547C320.28 392.102 318.199 407.689 317.583 422.636C317.289 425.641 316.3 428.741 314.125 430.975C306.701 437.197 307.655 447.436 307.127 456.16C306.848 460.668 306.015 465.186 306.621 469.65C307.624 474.054 307.653 479.081 304.619 482.764C300.495 487.254 297.803 492.765 298.139 498.996C298.228 505.073 299.977 510.856 301.693 516.635C302.714 519.867 300.76 522.84 297.911 524.29C295.135 526.009 294.857 529.179 294.989 532.16C294.83 533.776 293.748 535.171 292.403 535.92C288.342 538.099 283.651 538.39 279.327 539.598C270.603 541.778 262.145 545.582 255.363 551.573C248.794 557.716 242.457 564.827 233.696 567.721C226.705 569.189 224.405 560.71 220.81 556.476C217.306 551.631 213.58 546.731 208.523 543.43C203.569 539.748 197.167 540.197 191.259 539.26C186.851 538.991 182.164 537.913 177.884 538.994C173.477 540.716 172.6 546.013 169.542 549.269C163.935 556.583 155.36 560.571 147.756 565.307C142.576 568.258 137.292 572.276 131.003 571.562C112.381 569.608 99.1482 552.913 92.6995 536.524C87.2372 525.713 84.1627 512.492 92.4116 502.175C95.8986 497.199 100.078 492.813 104.134 488.349C108.391 484.166 112.667 479.463 112.67 473.101L113.303 454.992C113.342 448.927 114.011 442.762 117.11 437.421C120.199 432.178 121.666 426.188 120.563 420.142C118.963 408.176 115.908 396.426 111.394 385.25C105.061 368.351 97.0004 351.771 84.5393 338.513C64.0449 317.388 42.9664 291.573 42.298 260.776C42.5868 248.505 49.1037 237.562 55.6902 227.571C59.1127 222.589 62.9037 217.838 67.4389 213.813L67.4357 213.845Z" fill="#D8B49C"/>
<path d="M121.78 383.07C120.346 373.077 117.553 363.31 113.056 354.29C110.015 348.381 101.862 333.75 98.6115 327.657C95.3417 321.758 92.1688 315.868 88.6989 310.015C86.1157 306.761 84.6456 299.798 87.944 295.75C90.8453 291.76 94.6479 289.555 98.4137 286.727C102.367 283.982 107.237 281.197 112.446 282.946C116.637 284.76 120.28 288.183 123.817 290.683C126.499 293.262 129.914 292.683 131.581 289.649C132.769 286.176 129.893 281.915 129.772 277.825C129.502 275.254 130.329 272.137 132.449 270.127C138.155 265.466 145.288 265.218 151.828 263.02C158.283 261.369 164.814 259.268 171.646 259.089C176.367 258.833 182.455 261.256 184.105 266.051L186.771 272.119C195.745 292.017 206.031 312.175 216.772 330.681C203.457 310.488 192.607 288.774 182.427 266.865C176.949 256.215 161.293 263.262 152.401 265.164C141.585 268.738 127.276 268.348 133.601 284.007C134.18 286.086 134.698 288.453 133.769 290.613C131.698 295.108 125.769 296.061 122.362 292.563C119.286 290.337 115.059 286.563 111.617 285.084C107.358 283.623 103.065 286.171 99.6055 288.54C96.1234 291.135 92.1822 293.424 89.619 296.958C86.9107 300.64 87.9312 305.536 90.4213 309.074C93.762 314.915 96.8899 320.931 100.06 326.852C108.883 343.963 121.199 363.7 121.751 383.035L121.78 383.07Z" fill="#D8B49C"/>
<path d="M183.143 268.207C183.345 251.164 175.051 230.974 155.994 229.466C128.521 224.329 103.435 227.451 84.4257 249.764C68.1655 269.638 62.6264 306.222 93.221 314.438C61.2004 308.464 66.163 267.778 82.705 248.356C101.726 225.261 128.481 221.748 156.31 227.572C175.913 229.492 184.917 251.09 183.11 268.204L183.143 268.207Z" fill="#D8B49C"/>
<path d="M191.964 345.607C199.188 338.094 212.001 322.123 222.473 333.392C233.362 345.061 238.287 353.7 226.15 367.094C220.446 372.734 213.677 376.932 206.168 379.688C201.082 381.016 196.062 378.013 192.42 375.242C177.479 365.003 179.642 356.896 191.964 345.607ZM192.142 345.788C180.479 357.01 177.937 364.656 193.148 374.139C196.789 376.583 201.14 379.097 205.632 377.841C212.498 374.99 219.199 370.818 224.351 365.483C235.906 353.369 230.85 345.403 221.441 334.27C211.868 323.154 199.138 338.937 192.11 345.785L192.142 345.788Z" fill="#D8B49C"/>
<path d="M161.829 380.304C173.257 388.797 168.57 405.367 158.679 413.142C151.272 419.855 140.891 421.318 131.185 420.204C123.867 419.683 118.507 412.829 117.708 405.998C114.358 390.271 115.404 378.923 134.171 377.726C140.428 377.426 146.635 377.642 152.855 378.055C155.92 378.388 159.271 378.455 161.862 380.308L161.829 380.304ZM161.678 380.518C159.111 378.766 155.817 378.77 152.781 378.472C146.617 378.162 140.368 378.04 134.209 378.676C116.318 380.578 116.651 390.822 119.874 405.525C120.874 411.626 125.048 417.287 131.504 417.952C140.557 419.067 150.558 418.154 157.805 412.078C167.842 404.807 172.706 389.102 161.649 380.483L161.678 380.518Z" fill="#D8B49C"/>
<path d="M168.214 392.021C172.829 397.498 177.193 403.21 181.972 408.343C184.405 410.8 186.819 413.124 189.726 413.735C195.376 414.974 202.971 411.998 205.699 406.785C206.983 404.659 205.845 400.959 205.261 397.607C203.946 390.725 200.593 383.676 198.737 377.328C203.06 385.125 206.673 393.504 208.286 402.34C209.881 412.023 197.397 417.977 189.191 415.869C185.595 414.962 182.894 412.25 180.58 409.577C176.255 404.129 171.228 397.863 168.246 392.025L168.214 392.021Z" fill="#D8B49C"/>
<path d="M111.87 478.601C114.7 490.656 119.081 503.188 125.978 513.325C134.941 524.349 148.35 518.615 157.947 511.171C163.152 507.635 168.246 502.229 174.637 500.897C184.943 498.872 197.322 501.977 205.214 493.974C207.598 491.271 212.059 490.338 215.463 490.541C218.388 490.631 220.783 490.148 223.075 488.383C225.374 486.552 228.353 484.104 230.875 482.654C245.626 473.529 259.791 463.4 273.742 453.119C283.343 445.642 295.244 438.652 295.611 425.247C296.35 422.024 297.503 418.907 299.093 415.996C301.767 411.658 304.729 408.718 303.286 403.814C302.395 400.921 301.454 397.208 302.507 394.113L304.067 389.503C306.189 384.491 308.411 373.78 315.898 377.906L315.779 378.122C314.412 377.434 312.757 377.011 311.302 377.554C309.847 378.096 308.923 379.539 308.206 380.872C306.244 384.921 304.746 389.896 303.409 394.234C301.829 399.039 305.542 403.415 304.776 408.234C304.386 411.556 301.749 413.842 300.399 416.646C296.919 422.21 297.381 428.813 295.194 434.83C290.952 443.517 282.313 448.836 275.017 454.745C270.007 458.626 264.822 462.294 259.67 465.965C249.417 473.443 238.817 480.463 228.262 487.357C225.767 489.201 223.437 491.681 220.171 492.405C217.008 493.4 213.752 492.363 210.757 493.31C207.571 493.879 205.953 497.08 203.063 498.624C200.319 500.346 197.062 500.973 193.957 501.386C186.252 502.818 177.811 501.11 170.627 504.55L166.654 507.162C158.902 512.406 151.467 519.41 141.899 520.887C131.408 522.469 123.683 515.123 120.329 505.757C116.699 497.213 112.73 487.461 111.838 478.598L111.87 478.601Z" fill="#D8B49C"/>
<path d="M207.077 495.266C203.234 503.208 209.103 510.21 216.574 511.496C220.589 512.118 226.583 511.172 228.651 507.361C231.676 500.448 225.174 492.927 217.492 492.795L217.45 492.562C225.8 491.194 234.34 500.219 230.61 508.336C226.382 515.882 214.667 515.322 208.792 510.049C204.349 506.482 203.634 499.79 206.857 495.179L207.074 495.298L207.077 495.266Z" fill="#D8B49C"/>
<path d="M247.024 474.905C243.033 479.702 243.466 488.259 249.223 491.074C254.451 492.956 262.224 493.489 266.916 490.523C269.38 489.002 270.853 485.949 271.984 483.385C274.953 475.716 271.431 473.054 264.744 469.757C262.07 468.092 258.58 468.109 255.346 469.163L255.236 468.956C260.068 466.232 265.416 468.224 269.854 470.845C271.341 471.643 272.874 472.641 273.803 474.135C275.689 477.19 275.215 481.026 274.059 484.175C272.741 487.309 271.243 490.62 268.247 492.578C262.474 495.927 254.184 495.344 248.244 492.74C241.912 489.477 241.645 478.554 247.021 474.938L247.024 474.905Z" fill="#D8B49C"/>
<path d="M104.188 555.037C103.445 551.311 105.216 547.21 107.907 544.701C114.627 538.671 121.276 529.372 131.273 529.177C139.807 530.926 149.347 533.067 157.981 534.467C164.939 535.997 172.873 536.219 179.402 537.805C164.91 537.625 150.453 535.753 136.311 532.671C132.886 531.683 129.232 530.706 125.894 532.499C119.504 535.821 114.147 540.908 108.761 545.633C105.898 547.897 104.194 551.319 104.421 554.995L104.195 554.973L104.188 555.037Z" fill="#D8B49C"/>
<path d="M207.756 540.941C212.55 538.931 218.321 537.604 222.837 535.436C225.25 534.107 226.179 531.947 227.895 529.733C233.394 521.528 242.483 513.284 244.472 503.626C244.445 502.906 244.122 502.874 243.476 502.484C240.684 501.363 235.812 501.832 234.083 504.175C232.975 510.493 229.946 518.45 222.663 519.564C220.495 520.396 218.412 523.356 216.102 524.304C214.382 524.886 212.879 524.25 211.309 523.966C208.657 523.412 206.115 522.739 204.451 524.077C202.617 525.496 201.195 528.032 200.638 530.391C200.065 532.912 200.122 535.659 200.679 538.29L200.444 538.365C198.498 532.596 199.885 522.096 207.505 521.864C210.152 521.797 212.916 523.209 215.482 522.645C216.672 522.142 217.48 520.883 218.535 520.106C219.566 519.228 220.514 518.212 221.84 517.656C223.13 517.13 224.512 517.005 225.598 516.23C227.856 514.82 229.239 512.346 230.2 509.862C231.445 507.472 231.06 504.074 232.748 502.152C235.783 498.795 246.346 497.807 246.781 503.689C244.649 514.475 235.375 522.277 229.099 530.764C227.395 532.849 225.976 535.352 223.411 536.569C220.94 537.828 218.173 538.112 215.611 538.97L207.798 541.173L207.724 540.938L207.756 540.941Z" fill="#D8B49C"/>
<path d="M136.048 418.494C140.525 435.375 152.299 440.672 168.559 435.446C182.601 431.894 195.51 425.264 207.147 416.649C218.179 408.203 231.922 400.381 239.073 388.293C245.312 375.528 241.065 358.963 230.981 349.069C239.295 355.397 244.124 367.68 243.396 378.44C242.379 397.817 221.911 407.72 208.549 418.645C193.72 429.232 176.503 437.561 158.108 438.957C146.515 440.138 136.96 428.828 136.048 418.494Z" fill="#D8B49C"/>
<path d="M303.776 483.367C304.766 477.592 304.648 471.806 301.047 466.951C296.336 460.128 293.139 451.822 292.851 443.442C292.895 441.326 292.968 439.245 293.397 437.199L293.623 437.221C293.639 445.379 296.193 453.263 299.888 460.476C301.581 464.165 304.532 467.325 305.341 471.385C306.09 474.72 305.641 480.973 303.747 483.332L303.776 483.367Z" fill="#D8B49C"/>
<path d="M245.477 505.681C263.886 504.809 282.078 501.501 298.48 492.831L298.623 493.041C283.743 504.144 263.261 508.532 245.473 505.714L245.477 505.681Z" fill="#D8B49C"/>
<path d="M243.297 477.672C242.543 481.709 241.765 484.993 241.394 488.448C240.927 491.893 240.956 495.256 240.748 499.379L240.512 499.453C239.1 495.89 238.537 491.985 238.978 488.146C239.452 484.31 240.917 480.669 243.116 477.524L243.33 477.676L243.297 477.672Z" fill="#D8B49C"/>
<path d="M288.724 498.564C289.626 502.012 290.259 505.533 291.054 509.069C291.342 510.793 291.607 512.744 291.279 514.767C290.969 516.596 290.544 518.61 289.288 520.445C288.094 522.318 285.813 523.628 283.702 523.878C281.52 524.186 279.615 523.999 277.576 523.506L276.277 523.118C275.896 523.015 276.18 523.108 276.284 523.053C276.284 523.053 276.425 522.937 276.381 523.063C276.339 523.157 276.204 523.535 276.063 523.978C275.777 524.896 275.202 526.112 274.396 527.012C273.588 527.944 272.407 528.676 271.455 529.073C269.662 529.745 267.615 530.328 265.559 530.355C264.577 530.389 263.67 530.333 263.237 530.421C262.872 530.483 262.563 530.649 262.196 531.069C261.529 531.885 261.018 533.433 261.124 534.684C261.155 535.372 261.383 536.699 260.998 537.966C260.688 539.143 259.754 540.356 258.977 540.965C257.494 542.125 256.527 543.009 255.735 544.432C254.947 545.823 254.35 547.592 253.475 549.203C251.66 552.418 249.321 555.321 246.494 557.556L246.316 557.375C248.781 554.844 250.861 551.915 252.289 548.662C253.031 547.071 253.525 545.358 254.307 543.705C255.056 542.05 256.331 540.674 257.679 539.566C259.094 538.432 259.371 536.6 259.022 534.837C258.874 533.028 259.383 531.153 260.475 529.661C261.035 528.933 261.874 528.363 262.806 528.16C263.736 527.99 264.611 528.044 265.496 528C267.262 527.944 268.943 527.424 270.569 526.8C272.225 526.212 273.404 524.827 273.924 523.181C274.196 522.392 274.53 521.316 275.543 520.958C276.589 520.604 277.442 521.209 278.24 521.385C279.923 521.844 281.697 522.05 283.414 521.827C285.131 521.603 286.78 520.754 287.8 519.32C289.81 516.45 290.277 512.679 289.802 509.207L288.521 498.642L288.754 498.599L288.724 498.564Z" fill="#D8B49C"/>
<path d="M119.196 402.457C123.519 402.26 133.762 403.883 133.33 397.642C133.075 394.91 132.418 390.963 135.152 388.686C139.176 385.557 143.579 386.869 148.168 386.959C151.171 387.253 154.753 389.301 155.522 392.443C155.729 392.985 155.697 392.982 155.907 393.165C159.506 394.04 163.819 390.613 167.197 389.084L167.343 389.261C164.248 391.568 161.085 394.227 157.164 394.985C155.802 395.243 154.267 394.603 153.812 393.254C151.731 387.863 144.795 389.108 140.155 389.209C131.89 390.03 137.513 397.204 134.264 401.42C132.366 403.486 129.415 403.653 126.903 403.668C124.3 403.609 121.697 403.224 119.139 402.712L119.161 402.486L119.196 402.457Z" fill="#D8B49C"/>
<path d="M191.417 373.154C195.006 368.807 199.072 364.573 201.859 359.756C203.133 357.402 204.126 354.922 203.032 353.771C199.114 349.831 198.511 343.671 203.107 339.684C208.616 334.71 213.356 338.241 215.609 344.204C218.312 350.895 223.663 343.198 226.451 340.372L226.667 340.491C224.413 343.533 221.576 349.192 217.041 348.226C213.027 346.594 213.149 339.689 208.341 339.512C204.277 340.06 201.084 345.032 202.59 348.964C203.08 350.285 204.086 351.329 204.88 352.549C206.642 355.201 204.921 358.458 203.424 360.758C200.146 365.265 195.68 370.244 191.388 373.118L191.417 373.154Z" fill="#D8B49C"/>
<path d="M81.5788 176.636C82.1413 178.55 83.2285 179.766 84.3083 180.394C85.3589 180.986 86.7318 181.284 87.9521 181.142C89.3015 181.013 90.3179 180.623 91.2139 179.798C92.0484 178.933 92.7203 177.401 92.7196 175.411L92.7259 175.346C92.7259 175.346 92.7708 175.22 92.8354 175.226C92.8677 175.229 92.9323 175.236 92.926 175.3C93.6752 176.972 93.7956 179.072 92.8496 180.741C91.9327 182.445 90.0457 183.402 88.17 183.578C86.2975 183.72 84.3331 183.137 82.9646 181.796C81.5961 180.454 81.0431 178.443 81.3204 176.61C81.3267 176.546 81.3945 176.52 81.4591 176.526C81.4914 176.529 81.556 176.536 81.5497 176.6L81.5788 176.636Z" fill="#D8B49C"/>
<path d="M77.6954 174.657C77.2022 176.697 76.9769 178.665 77.3456 180.56C77.5882 182.411 78.2279 184.203 79.2671 185.577C81.2392 188.413 84.7101 189.927 88.0803 189.474C91.4447 189.412 94.5367 187.138 96.2064 184.071C97.1075 182.528 97.6076 180.75 97.5942 178.889C97.7132 177.009 97.1508 175.094 96.2946 173.184C96.2946 173.184 96.3103 173.022 96.3458 172.993C96.3781 172.996 96.4427 173.002 96.5073 173.009C99.1228 176.266 99.736 180.991 97.958 184.83C96.3415 188.684 92.5371 191.574 88.2982 191.91C84.1206 192.283 79.722 190.254 77.6739 186.53C75.5517 182.897 75.6167 178.238 77.5112 174.541C77.5175 174.477 77.6175 174.454 77.6789 174.492C77.7435 174.499 77.7696 174.566 77.7309 174.628L77.6954 174.657Z" fill="#D8B49C"/>
<path d="M75.7729 165.987C75.3108 169.041 76.0633 172.344 79.0523 173.453C84.6105 175.628 91.3875 175.346 95.592 170.701C96.5425 169.652 97.1054 168.565 96.98 167.183C96.9254 165.742 95.9248 164.306 94.7438 163.049C94.6564 162.942 94.769 162.79 94.8919 162.868C96.3693 163.763 97.7056 165.101 98.2224 166.815C99.4442 172.318 93.0783 176.392 88.3201 177.035C83.5549 177.417 76.4397 176.492 75.0146 171.067C74.6301 169.333 74.9365 167.536 75.5855 165.903C75.6659 165.748 75.8502 165.864 75.8053 165.99L75.7729 165.987Z" fill="#D8B49C"/>
<path d="M75.1526 159.009C75.0621 160.599 74.9071 162.182 75.4422 163.377C75.8482 164.558 76.7563 164.941 77.8936 165.313C79.0696 165.624 80.426 165.757 81.8046 165.664C83.1768 165.635 84.594 165.48 85.9625 165.157C88.6867 164.641 91.5261 163.614 93.144 162.076C94.8917 160.877 94.0975 157.667 92.5775 154.876C92.5775 154.876 92.5933 154.714 92.6287 154.685C92.661 154.688 92.7257 154.695 92.7903 154.701C93.8162 155.878 94.768 157.146 95.3393 158.637C95.5926 159.38 95.7751 160.181 95.6637 160.985C95.52 161.787 95.2148 162.573 94.7316 163.178C92.7218 165.721 89.5176 166.81 86.516 167.495C83.4594 168.077 80.1823 168.245 77.2028 167.04C75.7615 166.442 74.3866 165.166 74.2542 163.521C74.0508 161.936 74.4674 160.345 75.0005 158.897C75.0069 158.832 75.1069 158.809 75.1392 158.812C75.2038 158.819 75.2298 158.886 75.2266 158.919L75.1526 159.009Z" fill="#D8B49C"/>
<path d="M72.3452 155.374C73.1248 157.734 75.4014 159.458 77.8071 159.53C80.2129 159.603 82.4678 158.551 84.7196 157.532C86.9714 156.513 89.4265 155.416 90.4086 154.044C91.3812 152.769 91.545 150.762 90.8667 149.032C90.2271 147.24 89.0106 146.012 87.0785 145.431C85.1787 144.853 82.5823 144.73 80.4135 145.235C79.2806 145.483 78.1965 145.899 77.1257 146.512C76.0581 147.092 75.0196 147.708 74.2465 148.611C72.7002 150.417 71.6333 152.988 72.3775 155.377L72.3452 155.374ZM72.1096 155.449C71.278 152.953 72.3222 150.282 73.7906 148.273C74.5441 147.238 75.5692 146.424 76.614 145.744C77.662 145.031 78.7651 144.421 79.9816 143.986C82.4082 143.179 84.9747 142.941 87.5071 143.385C90.0395 143.829 92.2971 145.746 93.1319 148.21C94.0376 150.615 93.7818 153.558 91.9613 155.501C90.0826 157.372 87.5136 157.969 85.1807 158.817C82.8219 159.597 80.3275 160.429 77.7502 160.112C75.2051 159.797 72.9089 157.941 72.1388 155.484L72.1096 155.449Z" fill="#D8B49C"/>
<path d="M71.9632 151.617C70.7733 150.783 69.8861 149.522 69.2116 148.085C68.6404 146.594 68.5332 144.691 69.35 143.009C70.1085 141.257 71.653 140.136 72.9365 139.348C74.2847 138.566 75.6044 138.076 76.8658 137.514C78.1823 137.056 79.5406 136.504 81.0996 136.233C82.6232 135.99 84.4634 135.844 86.1504 136.597C87.8761 137.288 89.106 138.713 89.7127 140.175C90.2485 141.696 90.429 143.182 90.1575 144.623C90.1575 144.623 90.0771 144.778 90.0157 144.74C89.9511 144.733 89.922 144.698 89.9283 144.633C89.6324 141.994 88.2479 139.151 85.5857 138.368C82.9558 137.589 80.2652 138.761 77.755 139.755C75.274 140.784 72.4244 141.582 70.9889 143.92C69.6149 146.298 70.5574 149.326 72.1406 151.471C72.1666 151.539 72.1602 151.604 72.1248 151.633C72.0893 151.662 72.0247 151.656 71.9956 151.62L71.9632 151.617Z" fill="#D8B49C"/>
<path d="M69.1715 143.514C61.4393 139.233 67.9753 131.424 73.9385 129.463C77.0946 128.533 79.7352 128.204 83.1466 128.995C86.7264 130.063 87.7842 134.245 86.5793 137.226C86.5635 137.388 86.3374 137.365 86.3532 137.204C87.0163 126.438 72.3238 130.969 68.156 136.237C66.2488 138.399 67.4047 141.579 69.352 143.336C69.4717 143.446 69.3235 143.627 69.1715 143.514Z" fill="#D8B49C"/>
<path d="M66.2216 136.015C65.1159 135.32 64.2679 134.323 63.5453 133.046C62.9196 131.777 62.6155 129.888 63.7907 128.209C64.7791 126.772 65.7175 126.179 66.5876 125.285C67.5096 124.527 68.4829 123.579 70.1445 122.926L70.7479 122.757C71.0158 122.685 71.2805 122.646 71.4806 122.6C71.9423 122.547 72.3329 122.553 72.6914 122.556C73.405 122.593 74.0542 122.624 74.6615 122.748C75.8792 122.966 77.071 123.115 78.3084 123.464C78.9448 123.625 79.549 123.782 80.2405 124.045C80.5539 124.174 81.1162 124.425 81.443 124.75C81.7438 125.008 82.0092 125.295 82.2068 125.608C82.9908 126.924 83.2809 128.29 83.0897 129.577C83.0897 129.577 83.0094 129.732 82.9448 129.726C82.8802 129.719 82.851 129.684 82.8573 129.619C82.6128 128.453 82.136 127.33 81.3045 126.498C80.5147 125.573 79.2843 125.485 78.0925 125.336L74.5077 124.984C73.3064 124.932 72.0855 124.747 71.0305 125.198C69.9496 125.582 68.9921 126.369 68.041 127.092C67.0867 127.846 66.0742 128.53 65.3042 129.401C64.5665 130.275 64.5046 131.574 64.82 132.681C65.1323 133.821 65.7124 134.889 66.4343 135.841C66.4634 135.876 66.454 135.973 66.4185 136.002C66.383 136.031 66.3184 136.025 66.2893 135.989L66.257 135.986L66.2216 136.015Z" fill="#D8B49C"/>
<path d="M85.2451 130.865C85.6679 125.882 85.8936 120.912 87.1916 115.983C88.428 111.015 91.5738 106.527 95.484 103.223C99.2744 99.8102 104.081 97.3448 108.921 95.8614C111.345 95.0873 113.694 94.4039 116.114 93.6622C118.528 92.9851 121.045 92.2529 123.825 92.1663C126.573 92.0765 129.406 92.7781 131.843 93.8649C134.276 94.9841 136.426 96.3365 138.547 97.6534L144.871 101.666C146.986 103.047 149.11 104.332 151.209 106.201C153.27 108.132 154.898 110.477 155.879 113.118C156.836 115.659 157.416 118.064 158.131 120.418C159.561 125.125 161.165 129.719 163.321 134.009C164.381 136.168 165.549 138.566 166.451 141.003C167.354 143.44 168.024 145.92 168.703 148.303C169.348 150.715 170.053 153.166 170.481 155.785C170.942 158.407 170.957 161.247 170.504 163.878C168.791 174.378 161.532 183.911 151.423 187.586C146.351 189.439 141.1 189.446 136.167 189.551C131.136 189.645 125.924 189.265 121.013 187.805C111.162 184.851 102.792 178.093 97.5954 169.559C97.5695 169.491 97.5758 169.427 97.6113 169.397C97.679 169.371 97.7405 169.41 97.7728 169.413C103.253 177.714 111.699 184.023 121.33 186.564C126.124 187.882 131.117 188.175 136.096 187.945C141.036 187.776 146.105 187.62 150.748 185.824C160.001 182.228 166.809 173.303 168.32 163.534C169.228 158.598 167.816 153.697 166.457 148.931C165.778 146.548 165.101 144.133 164.218 141.828C163.371 139.494 162.249 137.296 161.131 135.066C158.929 130.577 157.309 125.818 155.885 121.046C155.173 118.66 154.597 116.222 153.746 113.921C152.896 111.619 151.471 109.522 149.711 107.849C145.946 104.674 141.559 102.19 137.427 99.4359C133.279 96.8439 128.901 93.9358 123.868 94.0627C121.388 94.0808 118.977 94.7256 116.566 95.3703C114.156 96.0151 111.774 96.6953 109.389 97.4079C104.626 98.7683 100.103 101.001 96.2965 104.249C92.4085 107.326 89.2975 111.459 87.9186 116.217C86.5073 120.973 86.0814 125.988 85.468 130.919C85.4617 130.984 85.3908 131.042 85.3262 131.036C85.2616 131.029 85.2033 130.958 85.2096 130.894L85.2451 130.865Z" fill="#D8B49C"/>
<path d="M140.148 98.9517C138.613 92.9942 138.345 86.7368 139.505 80.554C140.199 77.4574 141.853 74.5527 144.128 72.2961C146.403 70.0395 149.048 68.3411 151.654 66.7041C156.839 63.3623 162.688 60.9009 168.092 58.3308C173.505 55.6638 178.581 52.4417 183.465 48.8421C185.951 47.0955 188.456 45.155 191.498 43.7238C194.544 42.2604 198.201 41.8682 201.457 42.2523C204.78 42.6104 208.425 44.0113 210.727 47.1403C211.873 48.7533 212.355 50.4969 212.842 51.8495C213.326 53.2345 213.845 54.5904 214.474 55.8264C215.703 58.263 217.67 60.4784 219.622 62.8554C220.609 64.0939 221.525 65.0644 222.623 66.5095C223.542 67.774 224.426 69.0677 225.281 70.3259C228.656 75.4847 232.05 80.776 234.513 86.5958C236.862 92.2415 239.317 97.7996 241.908 103.306L245.858 111.588C246.535 112.992 247.162 114.586 247.591 116.194C247.988 117.799 248.298 119.298 248.569 120.857C249.715 127.136 249.209 133.97 246.699 139.955C245.458 142.965 243.846 145.776 241.707 148.307C239.43 150.923 236.685 152.644 234.018 154.242C228.564 157.329 223.18 160.032 217.57 162.712C214.68 163.93 211.899 165.354 208.765 166.059C205.767 166.711 203.034 167.65 200.331 168.952C197.663 170.224 195.125 171.835 192.939 173.839C191.834 174.808 190.835 176.015 189.436 176.987C188.007 177.924 186.368 178.35 184.763 178.422C181.528 178.496 178.426 177.54 175.749 175.908C173.076 174.243 170.921 171.944 169.249 169.366C169.223 169.298 169.23 169.234 169.265 169.204C169.333 169.178 169.398 169.185 169.427 169.22C171.137 171.737 173.333 173.942 175.955 175.471C178.58 176.968 181.627 177.821 184.642 177.659C186.153 177.546 187.631 177.104 188.889 176.248C190.114 175.389 191.083 174.147 192.195 173.114C194.396 170.948 196.979 169.211 199.724 167.816C202.437 166.418 205.374 165.4 208.346 164.68C211.318 163.96 214.034 162.529 216.831 161.27C222.312 158.577 227.741 155.748 233.001 152.642C235.604 151.037 238.151 149.329 240.139 147.012C242.065 144.656 243.597 142 244.753 139.177C247.067 133.532 247.519 127.247 246.41 121.266C245.742 115.1 242.341 109.873 239.824 104.276C237.204 98.7346 234.684 93.1701 232.303 87.5213C229.954 81.8756 226.679 76.694 223.366 71.5737C220.3 66.2495 215.439 62.2826 212.525 56.7448C211.845 55.3732 211.303 53.9172 210.793 52.4644C210.315 51.0148 209.873 49.5361 209.015 48.3102C207.234 45.8521 204.229 44.579 201.261 44.2557C198.263 43.897 195.167 44.2137 192.4 45.5086C189.638 46.7389 187.143 48.5824 184.627 50.2935C179.62 53.8159 174.379 57.0544 168.84 59.6765C163.246 62.1954 157.607 64.5139 152.369 67.7202C149.741 69.2571 147.106 70.8587 144.911 72.96C142.687 75.0259 141.052 77.7368 140.309 80.6654C139.01 86.6062 139.113 92.8801 140.455 98.8186C140.449 98.8833 140.442 98.9478 140.374 98.9738C140.31 98.9675 140.245 98.9612 140.219 98.8934L140.148 98.9517Z" fill="#D8B49C"/>
<path d="M211.732 49.8486C217.159 46.041 222.505 42.0624 228.025 38.2967C230.902 36.5557 233.685 34.7729 237.128 33.5768C238.819 32.9594 241.047 32.8513 242.882 33.4225C244.788 33.9354 246.466 35.111 247.776 36.3812C250.391 38.9861 252.149 41.6705 254.166 44.38C256.119 47.0833 258.039 49.7833 259.953 52.5481C263.719 58.0389 267.343 63.6464 270.832 69.3058C274.156 74.9817 277.768 80.7183 280.445 87.0159C281.771 90.1146 282.995 93.2684 283.906 96.62C284.329 98.2927 284.746 100.03 284.827 101.865C284.867 102.782 284.837 103.758 284.639 104.783C284.415 105.739 284.136 106.593 283.789 107.472C282.339 110.952 279.735 113.568 277.111 115.725C274.587 117.859 271.676 119.956 268.572 121.348C262.359 124.198 255.409 125.246 248.804 124.436C248.74 124.43 248.681 124.359 248.688 124.294C248.694 124.23 248.765 124.172 248.83 124.178C255.437 124.629 262.128 123.229 268.002 120.183C270.95 118.71 273.623 116.721 276.089 114.515C278.551 112.342 280.881 109.863 282.063 106.781C283.471 103.722 282.764 100.293 281.895 97.1735C281.001 93.9867 279.768 90.9297 278.435 87.8956C275.801 81.8305 272.176 76.2231 268.787 70.5409C261.907 59.2316 254.726 47.9908 246.471 37.7215C244.261 35.3193 240.771 33.9988 237.628 35.1264C234.498 36.1249 231.625 37.8335 228.728 39.4421C223.046 42.8657 217.535 46.5345 211.939 50.0646C211.872 50.0906 211.807 50.0843 211.778 50.0488C211.752 49.981 211.758 49.9163 211.794 49.8871L211.732 49.8486Z" fill="#D8B49C"/>
<path d="M250.15 39.1261C251.202 29.0504 254.85 19.0984 260.949 10.7567C262.456 8.68586 264.148 6.73092 265.771 4.80197C267.427 2.87619 269.151 0.924516 271.178 -0.80174C275.175 -4.32521 280.189 -6.57476 285.239 -7.87446C295.379 -10.5353 306.576 -9.66719 316.105 -4.75389C320.94 -2.19239 324.677 1.59919 328.346 5.09037C331.976 8.64302 335.615 12.0987 339.156 15.9035C340.89 17.8351 342.583 19.8604 344.018 22.1868C345.456 24.4808 346.598 27.1373 347.191 29.7401C348.567 34.9968 348.481 40.5345 347.42 45.7156C346.355 50.929 344.34 55.8537 341.937 60.4141C339.522 65.1038 336.207 69.3141 332.433 72.892C330.561 74.6987 328.54 76.3602 326.56 77.928C324.581 79.4959 322.566 81.0929 320.37 82.5417C316.039 85.4779 311.077 87.5367 305.935 88.4359C300.8 89.2706 295.527 89.1783 290.497 87.9353C285.499 86.6956 280.838 84.3468 276.841 81.215C276.779 81.1763 276.786 81.1117 276.824 81.0503C276.863 80.9888 276.927 80.9951 276.989 81.0337C281.067 84.0104 285.75 86.1328 290.666 87.2016C295.586 88.238 300.743 88.1883 305.665 87.2023C310.622 86.1871 315.32 84.1677 319.421 81.2417C323.493 78.2802 327.43 75.0444 331.033 71.5476C334.639 68.0185 337.679 63.9447 340.011 59.4426C342.34 54.9728 344.239 50.2324 345.21 45.3035C346.182 40.3745 346.198 35.2215 344.913 30.3652C343.766 25.4246 340.719 21.2439 337.296 17.581C333.879 13.8534 330.242 10.3654 326.648 6.78355C323.047 3.26638 319.426 -0.383168 314.998 -2.7743C306.07 -7.49825 295.393 -8.34813 285.611 -6.0111C280.705 -4.86032 275.973 -2.81175 272.133 0.433544C270.183 2.03687 268.469 3.89175 266.784 5.78205C265.099 7.67236 263.446 9.56577 261.881 11.5657C255.655 19.5361 251.68 29.1624 250.309 39.1741C250.302 39.2388 250.231 39.2971 250.167 39.2908C250.102 39.2845 250.044 39.2135 250.05 39.1488L250.15 39.1261Z" fill="#D8B49C"/>
<path d="M293.182 -9.08686C292.41 -12.5228 291.809 -16.0397 292.034 -19.6716C292.212 -21.4812 292.557 -23.3396 293.538 -25.0378C294.011 -25.8723 294.742 -26.6816 295.419 -27.2678C296.096 -27.854 296.673 -28.4173 297.156 -29.0225C298.19 -30.2588 298.946 -31.6528 299.524 -33.2274C299.83 -34.0131 300.118 -34.9636 300.762 -35.8793C301.406 -36.7949 302.296 -37.5561 303.319 -38.0105C305.329 -38.8903 307.227 -38.9653 309.148 -38.9403C311.099 -38.8798 313.011 -38.4314 314.746 -37.8374C318.278 -36.6107 321.352 -35.0374 324.522 -33.7808C326.122 -33.1348 327.666 -32.5921 329.346 -32.1013C330.994 -31.6137 332.887 -30.9715 334.539 -30.1899C336.19 -29.4083 337.807 -28.5976 339.404 -27.5929C340.968 -26.5915 342.369 -25.5735 343.84 -24.6138C346.717 -22.7008 349.666 -20.8461 352.653 -19.0529C358.618 -15.3694 364.573 -11.5891 370.352 -7.33665C373.301 -5.15564 376.061 -2.04701 377.505 1.51993C378.28 3.25967 378.859 5.33902 378.754 7.41661C378.677 9.52968 377.964 11.4826 376.98 13.2131C375.96 14.9728 374.503 16.5266 372.487 17.471C370.245 18.3933 368.261 18.0033 366.543 17.9003C363.026 17.5232 359.574 17.1525 356.079 16.8755C352.624 16.5371 349.078 16.4509 345.554 15.8121C342.059 15.2089 338.721 14.0012 335.319 13.1134C335.255 13.1071 335.229 13.0393 335.235 12.9747C335.242 12.91 335.309 12.884 335.374 12.8904C338.791 13.6165 342.178 14.6658 345.659 15.072C349.134 15.5429 352.634 15.4289 356.171 15.6121C359.678 15.7598 363.169 16.0691 366.663 16.346C368.381 16.449 370.219 16.6616 371.757 15.9315C373.299 15.169 374.537 13.8547 375.338 12.3346C376.139 10.8145 376.697 9.10739 376.732 7.4144C376.771 5.6891 376.319 3.98099 375.592 2.40914C374.214 -0.825169 371.832 -3.47257 369.035 -5.54082C363.372 -9.65134 357.375 -13.3379 351.372 -16.9599C348.391 -18.8178 345.414 -20.7079 342.51 -22.6887C339.642 -24.6987 336.777 -26.7409 333.59 -28.1622C330.481 -29.7064 326.957 -30.3452 323.741 -31.802C320.477 -33.1003 317.381 -34.7738 314.111 -36.0075C310.902 -37.2026 307.197 -37.6633 303.951 -36.4804C302.29 -35.8276 301.418 -34.2491 300.833 -32.6099C300.184 -30.977 299.28 -29.4017 298.075 -28.0843C296.899 -26.7313 295.254 -25.9138 294.356 -24.4031C293.432 -22.9603 292.968 -21.2114 292.735 -19.5051C292.329 -16.0215 292.769 -12.5203 293.344 -9.07105C293.338 -9.00642 293.331 -8.94183 293.231 -8.91901C293.167 -8.92533 293.102 -8.93165 293.079 -9.03176L293.182 -9.08686Z" fill="#D8B49C"/>
<path d="M311.137 -38.6147C308.889 -40.9555 306.734 -43.2544 304.375 -45.4755C303.812 -46.0526 303.188 -46.6683 302.712 -47.4653C302.238 -48.2946 302.033 -49.1956 301.96 -50.1162C301.815 -51.9574 302.447 -53.7551 303.116 -55.2556C304.572 -58.4733 307.266 -61.015 310.512 -62.5241C313.954 -64.0466 317.668 -63.6829 320.937 -63.1018C327.598 -61.8623 333.648 -58.7251 339.119 -54.9921C341.871 -53.1241 344.423 -50.884 346.813 -48.9861C348.026 -48.0518 349.248 -47.2144 350.376 -46.7451C350.938 -46.4943 351.484 -46.4082 351.972 -46.3931C352.456 -46.3456 352.827 -46.4724 353.799 -46.7362C357.474 -47.6485 361.5 -46.7976 364.567 -45.1596C367.709 -43.6122 370.377 -41.5565 372.912 -39.4813C375.445 -37.3737 377.819 -35.3143 380.31 -33.1129L387.13 -26.1811C388.256 -25.0269 389.395 -24.0019 390.595 -22.612C391.764 -21.2253 392.7 -19.4697 392.969 -17.5512C393.202 -15.6035 392.915 -14.0005 392.757 -12.3848C392.534 -10.7754 392.443 -9.18564 392.011 -7.43366C391.023 -4.00699 388.63 -1.2074 385.727 0.465775C384.276 1.30236 382.646 1.95842 380.919 1.95237C379.22 1.98179 377.566 1.23253 376.404 0.107441C376.343 0.0688028 376.352 -0.0281987 376.42 -0.054189C376.459 -0.115655 376.556 -0.10617 376.581 -0.0383786C377.782 1.02524 379.355 1.60346 380.931 1.49676C382.503 1.42237 384.003 0.753771 385.329 -0.127782C388.012 -1.88772 390.037 -4.59294 390.796 -7.68313C391.145 -9.24755 391.203 -10.8405 391.362 -12.4562C391.484 -14.0427 391.678 -15.6876 391.439 -17.2443C390.942 -20.4902 388.145 -22.5584 385.883 -24.7699C383.557 -26.9878 381.202 -29.2412 378.979 -31.5142C376.544 -33.6122 374.108 -35.7103 371.598 -37.7178C369.089 -39.7253 366.505 -41.6421 363.606 -43.0026C360.778 -44.4215 357.483 -45.0703 354.407 -44.295C352.891 -43.791 351.063 -43.7742 349.534 -44.4786C347.999 -45.1182 346.693 -46.0944 345.422 -47.0997C342.915 -49.1395 340.551 -51.2959 337.893 -53.1221C332.677 -56.7974 326.837 -59.751 320.586 -61.1788C317.488 -61.841 314.168 -62.2314 311.209 -60.9878C308.283 -59.7411 305.749 -57.5097 304.36 -54.6443C303.633 -53.2148 303.062 -51.7048 303.1 -50.1025C303.071 -48.4741 303.946 -47.0835 305.072 -45.9293C307.288 -43.5916 309.363 -41.1374 311.47 -38.68C311.499 -38.6445 311.522 -38.5444 311.454 -38.5185C311.419 -38.4893 311.322 -38.4988 311.293 -38.5343L311.137 -38.6147Z" fill="#D8B49C"/>
<path d="M147.978 103.895C147.51 102.022 147.109 100.123 147.179 98.0746C147.23 97.5576 147.248 97.0373 147.47 96.4392C147.595 96.1578 147.759 95.815 148.114 95.5235C148.471 95.1996 149.033 95.1242 149.45 95.1976C150.978 95.5756 151.583 96.3853 152.366 97.0492C155.107 100.025 157.209 103.2 159.401 106.449C163.618 112.995 166.871 120.067 169.995 127.126L174.227 137.849C175.603 141.442 177.144 145.019 178.001 148.92C178.896 152.759 179.392 157.016 178.186 161.009C177.515 162.868 176.964 164.837 175.21 166.427C174.749 166.806 174.072 167.066 173.426 167.002C172.78 166.939 172.292 166.598 171.903 166.233C171.13 165.472 170.66 164.611 170.258 163.723C170.232 163.655 170.271 163.594 170.274 163.562C170.342 163.536 170.403 163.574 170.435 163.577C170.912 164.374 171.485 165.181 172.209 165.774C172.898 166.396 173.964 166.5 174.65 165.817C175.955 164.477 176.442 162.502 176.913 160.688C177.833 156.961 177.234 153.086 176.158 149.424C175.082 145.763 173.602 142.225 172.155 138.691L167.749 128.08C164.79 121.005 161.593 114.036 157.74 107.428C155.777 104.169 153.788 100.842 151.37 97.8977C150.752 97.2173 150.079 96.4337 149.219 96.2191C148.289 96.0627 148.033 97.3426 147.951 98.1827C147.767 100.057 147.968 102.002 148.208 103.885C148.201 103.949 148.195 104.014 148.098 104.004C148.034 103.998 147.969 103.992 147.978 103.895Z" fill="#D8B49C"/>
<path d="M64.1523 128.505C63.1167 124.097 60.0737 120.21 55.9056 118.823C51.7375 117.436 47.1692 117.805 42.7238 118.25C38.243 118.725 33.6393 119.122 29.2718 119.771C27.0865 120.112 24.9239 120.552 23.2661 121.499C21.6698 122.485 20.3102 124.048 19.4516 125.824C17.6927 129.468 17.4143 133.976 17.21 138.393C17.0671 142.848 17.244 147.368 17.4209 151.887C17.8362 160.965 18.2546 170.01 19.5703 178.882C20.7537 187.774 22.8407 196.428 26.9959 204.273C29.0282 208.158 31.3992 211.914 34.6429 214.418C37.8251 216.882 42.0509 218.014 46.2645 217.937C50.4813 217.828 54.8412 216.591 58.709 214.719C62.554 212.747 65.9676 209.851 68.7183 206.401C74.4653 199.656 77.3822 190.514 76.5762 181.431C76.5826 181.366 76.5889 181.301 76.6858 181.311C76.7504 181.317 76.815 181.323 76.8055 181.42C77.9376 190.503 75.3798 199.974 69.7176 207.184C66.948 210.828 63.4798 213.947 59.4512 216.129C55.3998 218.212 50.9272 219.601 46.3393 219.837C41.7869 220.043 37.0381 218.926 33.3676 216.12C29.6971 213.313 27.1867 209.316 25.0347 205.321C20.6725 197.259 18.4234 188.263 17.1558 179.233C15.8559 170.199 15.5438 161.066 15.1932 151.995C15.0517 147.447 14.9102 142.898 15.0981 138.316C15.3119 133.803 15.6416 129.104 17.7773 124.942C18.8259 122.891 20.4336 121.124 22.4397 119.95C24.504 118.847 26.8217 118.487 29.0394 118.15C33.562 117.581 38.0916 117.275 42.6276 116.903C47.1509 116.661 51.8387 116.402 56.1753 118.067C60.5474 119.702 63.5233 123.941 64.3879 128.43C64.3816 128.495 64.3753 128.559 64.3075 128.585C64.2429 128.579 64.1783 128.573 64.1523 128.505Z" fill="#D8B49C"/>
<path d="M15.407 134.498C15.3454 131.131 14.7221 127.84 13.4598 124.748C12.8626 123.189 12.1977 121.656 11.0653 120.566C9.96533 119.48 8.46571 118.811 6.925 118.562C5.38745 118.281 3.73784 118.478 2.03946 118.508C0.341087 118.537 -1.35412 118.534 -3.04933 118.531L-13.1244 118.197C-19.783 117.936 -26.3592 118.5 -32.8791 119.818C-36.2005 120.439 -39.2635 121.085 -41.1352 123.218C-43.0944 125.245 -43.915 128.297 -44.0218 131.385C-43.5532 144.579 -43.9229 158.343 -44.7132 171.739C-45.1099 178.453 -45.6421 185.22 -46.3326 191.938C-46.9845 198.594 -47.7586 205.5 -48.8791 211.948L-48.8981 212.142L-50.6701 220.581C-51.1683 223.338 -51.3766 225.797 -50.2974 227.762C-49.3215 229.783 -47.2589 231.029 -44.7126 231.996C-42.1953 232.927 -39.3913 233.593 -36.6164 234.224C-25.4451 237.014 -14.232 238.047 -2.72521 237.412C0.154804 237.303 3.00568 237.158 5.77866 236.81C8.51935 236.458 11.3759 235.922 13.2135 234.471C15.1315 232.865 16.315 230.436 16.7391 227.77C17.1956 225.107 17.1188 222.228 17.1744 219.33C17.3967 207.738 18.1711 196.167 19.2977 184.663C19.304 184.598 19.375 184.54 19.4396 184.546C19.5042 184.553 19.5625 184.624 19.5561 184.688C18.7525 196.224 18.3041 207.794 18.3788 219.35C18.391 222.222 18.5615 225.143 18.0829 228.032C17.6398 230.892 16.4152 233.741 14.1717 235.674C11.8345 237.566 8.81958 238.054 6.00481 238.496C3.1286 238.899 0.239078 239.106 -2.64411 239.247C-8.41363 239.563 -14.232 239.711 -19.987 239.213C-25.7774 238.744 -31.4723 237.631 -37.0899 236.396C-39.8971 235.762 -42.7366 235.125 -45.4767 234.139C-48.1523 233.159 -50.9678 231.611 -52.2971 228.871C-53.7651 226.215 -53.4228 223.052 -52.9537 220.26L-51.2398 211.749C-49.2224 198.473 -47.88 185.098 -46.9897 171.679C-46.0994 158.26 -45.729 144.822 -46.0077 131.354C-45.8109 128.013 -44.8784 124.483 -42.4196 122.016C-40.0159 119.446 -36.4007 118.821 -33.1502 118.259C-26.5398 117.014 -19.7792 116.567 -13.0332 116.934L-2.98346 117.526C-1.29458 117.594 0.361977 117.658 2.05719 117.661C3.71694 117.693 5.42796 117.535 7.12383 117.864C8.78739 118.19 10.4067 118.968 11.5909 120.193C12.8043 121.454 13.4275 123.081 13.9924 124.637C15.1837 127.788 15.7298 131.201 15.6945 134.558C15.6882 134.623 15.6495 134.684 15.5849 134.678C15.5204 134.672 15.4589 134.633 15.4652 134.568L15.407 134.498Z" fill="#D8B49C"/>
<path d="M78.2526 186.945C78.4082 195.345 83.9747 200.099 91.9541 197.194C97.4209 195.641 101.994 192.892 100.907 187.011C100.758 185.202 99.7057 183.631 98.2853 182.154C98.1947 182.08 98.3105 181.896 98.4334 181.973C101.983 184.017 103.507 188.766 102.09 192.575C99.3943 199.129 86.6604 202.972 81.1775 198.03C78.0238 195.275 77.3561 190.773 78.0297 186.891C78.0455 186.729 78.3008 186.787 78.2558 186.913L78.2526 186.945Z" fill="#D8B49C"/>
</g>
</svg>
