<?xml version="1.0" encoding="UTF-8"?>
<svg id="Layer_5" data-name="Layer 5" xmlns="http://www.w3.org/2000/svg" viewBox="0 0 1218.74 482.13">
  <defs>
    <style>
      .cls-1 {
        fill: #d8b49c;
      }
    </style>
  </defs>
  <g id="Perler">
    <path class="cls-1" d="m601.66,146.7c-.64-20.58,22.41-39.18,41.56-29.21,6.15,3.4,9.48,9.81,12.7,15.66,3.07,5.88,5.06,12.83,4.65,19.7-.19,23.18-22.52,37.27-41.94,24.59,29.12,13.98,48.91-17.11,34.85-42.96-5.77-12.95-15.25-20.74-29.61-15.92-5.96,1.87-11.54,5.38-15.29,10.54-4.61,5.88-5.4,11.61-6.9,17.64h0l-.04-.04Z"/>
    <path class="cls-1" d="m644.28,119.58c-11.99-21.12-6.67-62.93,23.95-38.07,9.67,10.23,13,24.44,18.55,36.89,3.19,8.44,6.48,16.88,9.26,25.62,4.61,12.68,6.3,31.93-8.06,38.91-10.19,3.7-18.55-4.43-22.82-12.68-2.44-3.82-4.5-7.9-6.11-12.14-.07-.19.19-.27.26-.11,3.86,7.9,8.32,16.42,15.37,21.69,15.07,8.75,24.21-8.06,22.15-21.77-2.14-13.4-7.95-25.85-12.67-38.46-5.32-12.22-8.51-26.2-17.61-36.16-13.19-11.57-25.48-9.66-26.57,9.85-1.54,8.9,1.57,18.98,4.27,26.43h.04Z"/>
    <path class="cls-1" d="m678.27,100.57c-7.12-33.34,28.26-48.04,48.61-22.15,5.88,6.53,6.6,16.12,8.81,24.1,2.32,8.1,5.66,15.7,6.71,24.33,3.37,17.41-11.32,37.54-29.34,35.97-9.59-.65-16.9-4.35-17.28-15.05,0-.19.26-.19.26,0,.9,10.31,7.87,13.37,17.09,13.56,12.52.88,23.24-10.08,26.35-21.77,3.04-12.49-3-24.59-6.48-36.28-2.21-7.94-2.47-16.76-8.09-23.22-20.54-24.97-50.67-10.81-46.62,20.55h0v-.04Z"/>
    <path class="cls-1" d="m730.47,86.48c-1.01-16.04,4.83-37.54,22.45-41.36,19.3-3.97,32.49,6.87,42.2,22.57l4.65,6.84c5.21,6.91,7.53,16.57,6.45,25.13-1.39,11.11-3.45,21.65-3.37,32.73.34,5.46.11,12.75-3.71,17.11-6.26,9.43-23.61,20.77-34.03,12.22-6.18-7.37-16.15-10.92-20.65-19.86-2.77-4.93-3.9-10.73-3.34-16.27,0-.19.3-.15.26,0-.6,8.29,2.89,16.61,8.92,22.11,4.23,3.4,9.03,6.15,13.08,9.85,2.17,1.72,3.56,4.35,6.37,4.77,10.72,1.87,21.32-5.73,27.32-14.28,3.67-4.51,3.37-10.2,3.15-15.7-.19-11.11,1.8-22.11,3.11-33.03,1.91-11.49-3.86-21.42-10.42-30.21-9.03-14.89-21.51-25.66-39.73-22.23-17.28,3.28-22.49,25.01-22.82,39.49h0l.11.11Z"/>
    <path class="cls-1" d="m800.55,78.38c-4.01-9.59.04-19.48,4.95-27.72,4.5-9.28,16.75-14.59,26.23-10.35,8.54,5.5,14.09,14.28,18.29,23.37,4.42,8.67,3.97,19.13,6.22,28.41,4.2,12.03,3.56,24.86-1.01,36.7-5.85,12.98-24.28,16.04-35.3,8.59-2.66-2.25-5.96-7.1-8.28-9.78-6.75-7.41-9.52-17.6-6.33-27.3.07-.19.3-.11.26.08-1.16,4.62-1.27,9.55-.15,14.17,1.69,6.8,7.8,12.18,11.92,17.53,8.13,11.57,30.06,8.4,35.57-4.32,4.27-11.3,4.68-23.68.56-35.06-2.25-9.36-1.5-19.21-5.85-28.03-3.79-8.55-9.26-17.07-16.94-22.42-8.47-3.9-19.75.88-23.95,9.17-2.29,4.16-5.06,8.17-6.45,12.75-1.27,4.62-.9,9.55.49,14.13.07.19-.22.27-.26.08h.04Z"/>
    <path class="cls-1" d="m852.87,81.55c.49-9.24.71-22.23,1.01-31.31.64-5.27.26-11.61,3.86-15.89,5.51-6.57,14.05-7.79,21.89-9.39,8.09-2.41,18.96,1.15,21.66,9.93,3.26,10.5,3.64,20.85,4.35,31.58.67,12.3.79,27.19.52,39.41-1.2,14.01-.52,31.12-19.3,30.63-24.36,1.95-28.11,1.83-29.08-24.44,0-.19.26-.19.26,0,2.02,25.51,4.72,24.97,28.63,22.61,4.98-.38,10.61-1.03,13.15-6.07,3.49-6.64,3.15-15.47,3.86-22.84.15-12.11-.07-26.88-.86-39.07-.6-10.31-.97-20.97-3.97-30.86-2.44-7.83-11.73-10.43-18.89-8.44-7.35,1.37-15.63,2.25-20.91,8.29-1.84,1.83-2.29,4.51-2.77,7.03-1.31,7.71-1.42,15.54-1.99,23.33l-1.2,15.62c0,.19-.3.15-.26,0h0l.04-.11Z"/>
    <path class="cls-1" d="m987.56,63.18c-11.24-35.36-54.34-43.42-75.14-12.64-9.63,19.51-3.34,43.84-1.87,64.8,1.09,7.75,2.96,16,10.64,18.56,7.95,1.76,16.15,3.97,23.87,6.19,7.5,1.83,16.49,3.36,21.92-3.09,5.21-6.42,8.43-14.4,8.62-22.84,0-.19.3-.19.26,0-.15,10.31-4.42,24.48-14.8,28.3-5.4,1.64-11.09.65-16.45-.53-8.06-2.1-16.04-4.05-24.17-5.73-8.66-2.52-11.43-12.41-12.44-20.43-1.76-21.88-8.28-45.98,2.17-66.52,11.92-19.44,39.88-26.01,58.61-13.06,8.92,5.96,16.83,17.18,18.74,27h.04Z"/>
    <path class="cls-1" d="m1000.42,122.75c1.31,10.46-3.64,24.86-15.59,15.16l-4.53-3.4c-7.83-4.81-7.87-14.82-4.87-22.49,9.93-24.71,10.01-51.63,14.5-77.6,1.05-3.93,3.22-9.47,7.95-9.74,3.94.11,8.96.46,11.73,3.44,2.44,3.93,1.16,7.87.94,11.95l-1.31,11.3c0,.19-.3.15-.26,0,.15-3.86,1.05-13.21.86-16.99-.07-1.83-.19-3.86-1.35-5.27-2.44-2.41-7.16-2.52-10.42-2.56-1.84.11-3.26,1.53-4.12,3.17-2.66,5.04-2.77,10.88-3.37,16.46-1.09,11-2.25,22.99-4.01,33.83-1.24,7.48-2.77,14.93-5.02,22.15-2.32,8.67-8.92,18.18-3.94,26.92,3.49,4.16,8.17,7.94,12.97,10.31,3.71,1.45,7.08-2.14,8.13-5.5,1.09-3.59,1.65-7.37,1.46-11.15,0-.19.26-.19.26,0h0Z"/>
    <path class="cls-1" d="m1004.05,146.12c-1.95-2.21-2.36-5.27-2.81-8.02-1.2-8.48-1.61-17.11-1.39-25.66.49-11.34-.22-23.6,5.13-33.87,4.27-11.07.22-22.72,5.7-33.91,2.74-6.15,10.46-8.52,16.45-7.79,12.14-.27,25.03,8.25,26.68,21.19,1.91,17.68-5.92,34.48-10.72,50.75l-5.25,16.23c-3.22,7.56-1.69,18.6-10.01,23.07-7.27,4.09-17.69,4.32-23.8-1.95h0v-.04Zm.22-.19c7.68,7.64,24.14,5.77,28.71-4.54,1.8-5.35,1.91-11.23,3.82-16.61l4.8-16.42c4.31-16.31,11.47-32.73,9.63-49.91-2.17-14.7-19.41-21.96-32.42-18.1-8.39,3.4-8.66,14.09-9.56,21.96-.3,5.65-.52,11.53-2.85,16.84-2.59,5.12-4.38,10.43-4.72,16.23-1.35,14.17-1.99,28.49-.07,42.66.41,2.75.79,5.77,2.66,7.9h0Z"/>
    <path class="cls-1" d="m1045.99,97.13c6.03-14.17,13.34-29.14,25.52-39.03,14.13-11.04,31.97-8.63,42.99,5.5,4.23,4.66,10.57,7.33,14.05,12.68,11.81,17.57-.15,39.22-10.42,54.34-10.57,14.44-25.3,34.98-45.35,30.28-6.33-1.49-11.84-4.01-17.65-6.38-4.35-1.83-8.92-4.85-11.17-9.39-4.83-13.4-3.94-28.83.56-42.04-2.77,11.04-4.05,24.97-.67,36.93,1.01,6.38,6.33,10.62,11.99,12.79,10.91,4.28,23.95,10.39,34.82,2.94,10.34-6.72,18.36-16.46,25.22-26.69,9.44-14.47,21.44-34.56,10.53-51.32-1.61-2.75-4.12-4.43-6.63-6.22-4.95-3.7-9.11-8.4-13.49-12.68-12.55-10.43-30.99-4.96-40.66,6.91-8.21,9.01-14.5,21.39-19.68,31.39h.04Z"/>
    <path class="cls-1" d="m1264.03,235.94c-9.82,9.7-19.19,19.93-29.91,28.64-5.06,3.86-10.91,10.27-16.71,13.02-4.38,1.34-7.68-1.68-10.79-3.93-8.09-6.84-14.88-14.78-21.29-23.26-9.52-11.61-6.37-20.39,4.01-29.86,13.27-13.1,38.23-37.23,51.98-50.29,5.06-4.74,9.48-9.78,14.92-14.55,2.85-2.52,7.01-4.7,10.98-3.93,4.16.5,6.82,3.86,9.37,6.64l13.42,15.85c4.42,5.31,9.14,10.23,13.34,16.04,2.14,2.94,3.71,7.26,2.02,10.85-5.36,8.75-14.95,15.28-23.16,20.97-.15.11-.3-.15-.15-.23,8.09-5.96,16.98-12.37,22.22-21.16,1.39-3.28-.07-6.87-2.14-9.55-4.12-5.5-8.99-10.46-13.49-15.7-23.01-25.62-19.6-30.36-45.53-3.36-9.86,9.59-34.97,33.99-44.52,43.23-6.15,6.8-18.21,13.9-16.26,24.63,2.21,7.48,26.65,38.61,34.52,35.82,5.25-2.44,11.62-8.86,16.34-12.41,10.91-7.98,21.02-19.51,30.84-27.5h0v.04Z"/>
    <path class="cls-1" d="m1198.11,212.69c-13.38,11.57-38.75,28.22-56.37,18.44-14.54-7.79-17.69-24.59-8.62-38.11,11.54-17.49,29.38-29.21,42.65-44.79,7.16-7.56,12.29-15.96,18.21-24.63,6.6-8.63,16.49-14.32,26.68-16.84,6.82-1.79,13.72-2.25,20.5-2.79,6.93-.69,14.95.15,20.46,5.04,8.32,6.87,12.63,19.51,7.57,29.56-3.52,6.11-14.77,18.71-19.15,24.4-.11.15-.34-.04-.22-.19,4.12-5.69,15.07-18.71,18.33-24.75,4.46-9.47.19-21.35-7.65-27.57-5.36-4.54-12.52-5.04-19.15-4.32-6.75.65-13.53,1.22-20.05,2.98-9.78,2.52-19.04,7.9-25.26,16.08-5.73,8.52-11.17,17.38-18.21,24.9-13.38,15.58-31.11,27.04-42.65,44.18-8.39,12.45-5.92,27.76,7.46,35.17,12.52,7.14,26.76.11,38.41-5.65,6.63-3.02,12.03-7.9,17.05-11.19h0v.08Z"/>
    <path class="cls-1" d="m1137.66,187.56c-4.91,6.49-13.19,12.37-21.74,10.12-8.06-2.86-16.41-6.87-19.6-15.85-1.91-11.49.34-23.64,6.22-33.68,15.93-20.74,28.11-40.48,44.15-60.22,1.5-1.95,2.81-4.39,4.31-6.8,3-5.31,8.96-8.94,15.03-9.59,14.28-1.64,19.11,12.22,22.79,23.22,6.22,15.85,1.2,35.25-8.24,48.42,8.13-13.9,13.04-32.08,6.52-47.73-3.67-9.89-7.95-23.07-20.8-21.42-5.28.69-10.49,3.67-13.15,8.52-1.46,2.33-2.74,4.81-4.42,7.03l-5.1,6.49c-10.38,12.95-18.81,27.27-29.08,40.25-3.41,4.35-7.01,8.52-9.97,13.17-5.55,9.24-8.06,21.12-6.52,31.81,2.55,8.06,10.94,12.37,18.18,15.24,8.13,2.37,16.15-3.02,21.21-9.17.11-.15.34.04.22.19h0Z"/>
    <path class="cls-1" d="m594.99,147.08c2.81-2.56,7.87-1.57,9.37,2.06,1.05,1.57.9,3.55,1.09,5.38.11.69.11.53.56.69,4.08-.57,7.83,1.91,8.88,6.22.97,2.56-1.24,5.84-2.4,7.52-.15.46,0,.11.3.34,2.06.61,5.58,1.68,6.86,4.32,2.4,4.35.9,10.01-3.15,12.83-11.21,6.22-19.23-6.15-11.54-15.43.07-.23.07.31.3.31-6.07-2.1-6.82-8.4-4.31-13.79.11-.5-.82-.27-1.42-.23-5.73,1.18-8.88-6.61-4.57-10.23h.04Zm.19.23c-3.86,3.44-.97,10.54,4.31,9.36.56-.04,1.16-.27,1.84.04.3.15.52.61.45.95-1.91,5.12-1.42,10.58,4.5,12.18.64.38.75,1.26.49,1.87-1.46,2.6-3,5.23-2.32,8.32.41,5.27,6.75,6.76,10.57,4.09,3.86-2.37,4.65-9.47,0-11.38-1.05-.5-2.21-.76-3.3-1.37-3.11-1.87,0-4.35,1.12-6.26.6-.99.79-2.18.56-3.32-.45-2.25-1.95-4.43-4.08-5.27-1.09-.42-2.25-.19-3.49-.42-1.46-.31-1.09-2.18-1.16-3.28.3-5.08-5.32-8.86-9.48-5.46h0v-.04Z"/>
    <path class="cls-1" d="m600.02,171.25c-1.16,2.83-4.46,3.59-6.48,5.61-2.55,2.02-3.64,4.09-6.22,6.34-4.01,2.29-5.55-3.74-7.53-5.84-1.54-2.1-2.74-2.56-4.5-4.85-1.84-2.83.52-5.92,2.77-6.87,1.2-.69,4.46-2.21,5.73-2.83,3.82-1.15,8.51-6.61,12.7-4.09,1.46.99,2.14,2.48,2.7,3.86,1.01,2.67,1.99,5.8.82,8.67h0Zm-.26-.11c1.27-3.78-.64-9.17-3.79-11.46-1.24-.76-2.66-.38-3.79.46-4.38,3.55-9.86,5.96-14.39,9.2-1.05,1.3.37,2.37,1.27,3.25,2.74,2.44,4.01,6.03,5.81,9.05.45.46,1.2.53,1.72.19,2.17-1.68,4.2-3.9,6.6-5.5,2.1-1.79,5.43-2.48,6.6-5.19h-.04Z"/>
    <path class="cls-1" d="m579.63,174.73c-1.61-.53-3.07.95-4.46,1.79-4.46,2.98-8.21,6.53-13.53,8.32-2.66,1.18-7.31.5-9.41,1.72-1.84,1.41-2.21,3.02-.26,4.39,4.65,2.29,11.92-2.02,16.98-4.35,3.15-1.49,6.48-2.63,9.59-4.05,1.5-.73,2.96-1.76,3-3.55.11-1.6-.45-3.55-1.91-4.35h0v.08Zm.11-.27c1.65.88,2.29,2.9,2.21,4.62,0,1.91-1.61,3.32-3.07,4.09-3.07,1.64-6.18,3.09-9.18,4.81-5.62,3.13-12.59,8.75-19.26,5.38-1.46-1.03-2.62-2.75-2.44-4.66,1.42-7.03,8.51-4.12,13.3-5.38,5.85-1.49,10.72-5.46,15.85-8.52.75-.38,1.72-.76,2.59-.34h0Z"/>
    <path class="cls-1" d="m522.18,201.5c-3.49-16.5,21.51-32.38,32.08-17.11.11.15-.04.34-.19.23-8.54-8.32-22.3-2.41-28.07,6.53-1.99,3.09-3.19,6.72-3.56,10.39,0,.19-.3.15-.26,0h0v-.04Z"/>
    <path class="cls-1" d="m512.09,208.07c-4.16-14.21,1.87-31.01,15.29-38.07,6.97-2.6,14.28-3.9,21.66-2.21,7.05,2.02,13.79,8.94,14.88,14.97-7.5-14.44-21.66-15.81-35.38-10.16-12.85,6.07-17.76,22.84-16.45,35.48h0Z"/>
    <path class="cls-1" d="m544.66,220.86c14.65-2.29,26.01-15.31,21.66-31.08-.07-.15.15-.31.26-.15,8.73,15.66-6.26,33.91-21.89,31.24h-.04Z"/>
    <path class="cls-1" d="m546.57,211.01c5.7-4.93,11.28-9.97,10.61-18.25,0-.15.19-.19.26-.08,2.06,3.7,1.69,8.48-.71,11.91-2.36,3.44-6.18,5.58-10.08,6.68-.19,0-.22-.19-.07-.27h0Z"/>
    <path class="cls-1" d="m559.02,175.07c3.52-5.58,11.84-7.06,16.98-3.28-5.66.42-11.62,1.03-16.86,3.55-.15.04-.22-.15-.11-.27h0Z"/>
    <path class="cls-1" d="m525.17,199.24c-17.31,18.33-44.19,16.46-66.97,20.93-11.69,1.22-23.5,2.37-34.89,4.35-11.43,2.02-21.74,8.25-30.81,15.54,3.19-4.28,9.14-7.98,13.94-11.07,15.44-9.43,34.18-9.05,51.46-11.69l35.08-4.7c8.77-1.03,17.43-3.51,24.96-8.29,2.47-1.6,4.72-3.55,7.08-5.31l.19.23h-.04Z"/>
    <path class="cls-1" d="m407.5,246.56c8.96-8.67,21.25-13.25,33.5-14.55,15.37-3.28,31.41-3.51,46.43-6.45,15.63-2.94,59.48-13.82,54.68-35.44-.82-3.36-3.56-5.96-6.41-7.75,3.3.8,6.15,4.12,7.31,7.41,3.82,11.38-7.16,19.82-15.63,24.82-24.58,14.55-53.48,15.28-80.87,18.64-6.86,1.18-13.9,1.41-20.5,3.59-7.31,2.02-12.97,6.38-18.44,9.7h0l-.07.04Z"/>
    <path class="cls-1" d="m541.4,186.72c8.73,12.11,9.18,30.09-.26,42.04-6.15,8.29-16.15,11.88-25.56,14.21-9.22,2.37-18.51,4.09-27.92,5.08-4.72.23-9.74.92-14.32.42,9.18-1.26,18.78-2.33,27.92-4.62,13.23-3.48,28.63-5.42,37.89-16.73,9.63-11.72,8.36-28.22,2.25-40.4h0Z"/>
    <path class="cls-1" d="m516.97,180.38c-8.17-1.26-13.75,3.28-19.94,7.94-6.18,4.43-12.7,8.55-19.38,12.56-7.53,3.93-17.31,7.68-25.78,4.62-1.95-.27-2.02,2.86-2.4,4.85-.37,1.76-.07,3.21,1.12,4.54,1.69,1.95,3.94,2.37,4.72,3.09-3.64-.23-8.02-3.48-7.31-7.71.19-4.93,1.35-8.13,6.86-6.26,3.71.88,7.46-.27,11.13-1.15,10.87-3.36,20.16-10.58,29.91-16.42,6.26-4.32,13.3-8.78,21.17-6.34.19,0,.11.31-.07.27h-.04Z"/>
    <path class="cls-1" d="m420.09,262.56c-11.09-24.1-49.39-29.71-57.15-.34-1.54,4.12-.94,10.01-1.65,11.23-1.05-7.6.15-15.73,4.35-22.23,14.09-21.39,48.38-11.23,54.49,11.34h-.04Z"/>
    <path class="cls-1" d="m364.1,283.91c6.07,11.04,18.03,18.71,30.47,18.33,9.14.34,18.55-2.79,23.16-11.42,1.87-2.63,3.3-5.54,4.61-8.63l.26.08c-.79,3.25-1.99,6.38-3.56,9.28-4.16,9.78-14.62,13.75-24.47,13.56-12.78.23-27.1-8.86-30.47-21.19h0Z"/>
    <path class="cls-1" d="m409.22,265.08c-11.32-13.52-32.23-14.36-35.3,6.07h-.26c-1.16-8.97,5.58-17.91,14.5-18.71,8.51-1.22,17.95,5.27,21.06,12.6h0v.04Z"/>
    <path class="cls-1" d="m376.43,282.3c5.73,6.99,13.87,7.79,22.19,7.33,4.8,0,9.56-.31,11.88-5.69l.26.04c-1.09,8.4-10.79,8.48-17.24,8.52-7.05.15-14.35-3.36-17.35-10.08l.26-.11h0Z"/>
    <path class="cls-1" d="m403.75,264.89c13.3.31,25.37-6.03,35.53-14.09,6.41-5.73,14.88-9.39,19.83-16.5,3-4.96,10.68-4.85,14.92-1.3,6,4.62,4.05,14.21-1.46,18.37-2.96,2.21-6.82,2.14-9.74,3.63-11.13,5.92-19.75,17.57-30.62,24.44-7.46,5.27-17.5,8.25-26.5,5.38-8.58-2.83-16.94-8.94-19.79-17.99-1.24-4.54-.52-9.32,1.31-13.4.07-.15.34-.08.26.11-3.82,8.55-.26,18.22,7.16,23.37,10.27,9.24,25.56,8.75,36.2.46,11.09-7.26,19.11-18.71,30.84-25.01,3.9-1.83,8.99-1.37,11.43-5.58,4.5-6.07.9-13.9-6.67-13.79-2.17-.04-4.23.88-5.4,2.83-2.55,3.7-6.11,6.57-9.86,8.86-7.46,4.62-13.98,10.85-22,14.7-7.38,4.05-17.84,6.95-25.41,5.54h0l-.04-.04Z"/>
    <path class="cls-1" d="m342.14,285.7c1.5,1.6,3.86,1.45,5.88,1.15,6.37-1.07,12.52-3.13,18.96-4.09,3.07-.57,9.33-.95,11.84-2.33,1.72-.73,4.05-5,2.59-6.68-6.93-1.79-16.49,1.6-23.84,1.49-4.23.19-8.69.08-12.78.5-4.27.92-5.7,6.76-2.66,9.93h0v.04Zm-.19.19c-3.34-3.28-1.91-9.66,2.7-10.77,4.27-.69,8.54-.92,12.78-1.41,7.98-.46,17.58-5.04,25.48-2.33,3.75,3.06.56,9.55-3.04,11.34-3.52,1.57-8.99,1.22-12.78,1.64-6.41.46-12.67,1.99-19.04,2.98-2.06.23-4.57.34-6.15-1.41h0l.04-.04Z"/>
    <path class="cls-1" d="m344.91,287.27c0,7.6-11.66,11.42-16.12,5.96,5.81.84,12.55-.84,15.89-6.11l.22.15h0Z"/>
    <path class="cls-1" d="m324.37,279.55c1.87-5.54,8.21-8.75,13.79-7.06,1.95.61,3.52,2.1,4.27,3.9l-.19.23c-5.47-4.24-13.04-.88-17.69,3.17l-.19-.23h0Z"/>
    <path class="cls-1" d="m311.86,278.75c-2.7-.88-4.31-4.16-3.52-6.95,1.31-6.15,10.23-8.1,13.79-2.63.86,1.3,1.35,3.02.97,4.74-.45,1.68-1.54,3.13-1.12,3.09,3.37,1.07,7.87,7.06,5.25,11.46-.79,1.57-1.99,2.83-2.4,3.48-.04.08,0,.15,0-.27,0-.38-.22-.8-.45-.95,6.07-.08,9.26,6.57,5.25,11.76-.52.57-1.12,1.41-.82.95.19-.38.07-1.34-.3-1.68-.37-.38-.41-.27-.22-.23.94.27,3.22.8,4.01,2.37,2.47,5.8-5.21,10.54-10.23,9.28-5.25-1.07-4.05-7.6-.41-9.78.11-.04-.34.19-.26,1.11.07.38.3.73.49.88.19.15.26.15.3.15-2.29-.73-5.47-.88-7.05-3.09-2.47-3.67-.9-9.7,3.49-10.35-.26.15-.26.84.04.99.15.04-.41-.11-.67-.15-6.15-.61-9.18-9.09-4.35-13.17,1.95-1.41-.6-.46-1.76-1.03h0v.04Zm.07-.27c.82.31,1.65.04,2.51.19.3.08.3.53.15.65-1.2,1.18-2.44,2.41-2.74,4.16-.49,2.6.3,5.65,2.51,7.22,1.42,1.11,3.11,1.22,4.76,1.68.34.23,0,.61-.26.65-.79.27-1.57.57-2.17,1.15-1.8,1.87-1.87,5.27-.41,7.37,1.5,1.76,4.38,1.57,6.48,2.21.15.04.45.19.49.53.04.31-.15.53-.26.65-1.12.88-1.95,1.87-2.21,3.21-.82,4.85,7.27,2.67,8.58-.15.79-.99,1.2-2.63-.07-3.13-1.05-.5-3.71-.5-3.11-2.41.79-1.34,1.91-2.06,2.25-3.4.9-2.63-.6-5.5-3.49-5.61-5.28-.73-1.05-3.74.26-6.03,1.72-3.06-.56-6.8-3.22-8.44-.52-.31-1.35-.65-1.54-1.49-.37-1.53,1.05-2.56,1.35-3.93.34-1.26.07-2.67-.6-3.82-2.89-5.04-11.17-3.44-12.4,2.18-.79,2.6.64,5.69,3.15,6.57h0Z"/>
    <path class="cls-1" d="m33.07,497.8c-20.16-21.73-13.49-53.81,8.06-72.06,18.51-14.97,36.35-6.87,52.39,6.57,10.98,8.25,23.12,17.83,28.26,31.54,4.57,13.4,5.4,30.28-3.9,41.78-5.96,7.41-16.34,11.49-25.37,8.02,33.65,5.92,38.11-40.1,20.05-60.8-5.77-7.26-13.3-12.75-20.65-18.29-15.48-12.56-31.52-20.93-49.24-6.84-21.96,19.09-27.4,46.86-9.56,70.11h0l-.04-.04Z"/>
    <path class="cls-1" d="m84.63,427.07c-11.73-10.2-25.3-21.69-27.32-38.34-.22-.99.67-2.41,1.84-2.48.71-.08.64,0,.79,0,3.86,1.15,6.97,3.67,10.27,5.84,22.37,15.92,42.42,35.25,59.03,57.32,2.32,3.4,19.75,25.39,7.23,22.53-6.41-2.71-11.69-7.37-17.16-11.53-.15-.11,0-.34.15-.23,23.95,17.22,25.78,13.06,8.09-9.39-14.47-18.44-31.29-34.94-49.43-49.61-5.92-4.51-11.73-9.59-18.48-12.72-.22,0-.11-.19-.11.19,1.31,16,15.7,28.07,25.15,38.38h0l-.04.04Z"/>
    <path class="cls-1" d="m58.29,392.21c-4.23-11.46,7.12-20.2,14.02-27.5,1.57-1.53,2.92-3.06,4.98-4.51,4.8-2.56,9.74-1.53,13.9.08,8.21,3.44,15.29,8.21,22.3,13.59,13.12,11.61,26.23,22.72,35.6,37.84,4.35,7.48,8.88,14.63,13,22.38,2.21,3.97,3.9,9.2,2.21,13.79-5.17,11.27-13.57,26.16-27.77,24.1-.19,0-.15-.31,0-.27,4.2.42,8.51-.76,11.92-3.28,3.45-2.52,6-6.03,8.21-9.7,2.06-3.7,4.38-7.45,5.85-11.42,1.39-4.2-.26-8.52-2.36-12.14-8.77-14.74-16.75-30.17-29.68-41.66-8.99-9.09-18.03-18.33-29.01-25.01-6.82-4.05-15.14-10.35-23.24-6.72-6.41,5.42-12.93,11.3-18.03,18.06-2.51,3.51-2.74,8.21-1.65,12.3.07.19-.22.23-.26.08h0Z"/>
    <path class="cls-1" d="m93.52,361.77c-3.49-10.27,8.66-12.72,14.47-17.41,5.58-3.13,7.5-11.57,14.54-12.07,7.01,0,11.92,5.92,16.56,10.04,8.84,8.55,17.05,17.95,25.03,27.23,10.49,12.41,21.7,24.94,29.12,40.17,2.55,4.85,3.86,12.87-1.84,16.08l-2.51,1.72c-5.1,3.48-9.48,7.45-14.58,11.11-3.52,2.75-8.66,1.87-11.58-1.3-.15-.11.04-.34.19-.23,1.5,1.34,3.34,2.33,5.36,2.52,6.26.19,10.04-6.45,14.84-9.7,7.8-6.53,14.02-7.45,8.17-19.25-7.57-14.63-18.59-26.92-29.27-39.26-7.91-9.39-15.89-18.71-24.62-27.34-4.35-3.86-8.66-9.55-14.8-9.78-1.99.08-3.86,1.03-5.13,2.63-2.47,3.21-5.21,6.42-8.66,8.63-5.92,4.32-17.91,6.07-14.99,16.08.07.19-.22.23-.26.08h0l-.04.04Z"/>
    <path class="cls-1" d="m137.78,343.06c-3.34-11.95.75-25.85,9.93-34.25,11.54-10.81,24.66-2.02,33.43,7.68,17.16,17.64,31.63,37.54,39.2,61.41.64,2.1.94,4.66.3,6.99-1.27,4.35-4.08,6.76-4.5,11-.82,11.04-14.02,17.64-23.69,14.74-.19,0-.11-.31.07-.27,3.86.84,7.98.46,11.58-1.15,5.17-2.48,10.31-7.26,10.38-13.44.45-6.07,6.48-10.85,3.79-17.18-5.77-15.01-12.7-29.86-23.35-41.97-5.06-6.22-10.08-12.53-15.63-18.33-5.43-5.5-11.62-11.95-19.68-12.26-8.13-.11-14.43,6.84-18.1,13.63-4.38,7.33-4.61,16.04-3.79,23.45h0l.04-.04Z"/>
    <path class="cls-1" d="m187.96,325.84c-1.31-10.31-1.5-20.85,2.1-30.86,10.12-19.63,39.28-25.09,55.02-9.43,10.12,11.11,20.31,23.94,28.37,36.7,7.46,14.13,8.13,34.18-4.38,45.52-14.69,11.69-44.6,21.42-54.08-.92,10.79,20.85,38.3,10.81,52.65-.76,11.36-10.69,10.53-29.56,3.52-42.5-7.57-11.69-18.55-25.89-27.85-36.2-14.62-14.66-42.05-9.78-51.91,8.21-4.16,9.2-3.49,21.19-3.41,30.21h0l-.04.04Z"/>
    <path class="cls-1" d="m239.45,282.19c-11.09-10.5,2.55-27.57,15.52-23.49,8.13,3.36,11.47,13.71,15.85,20.58,8.66,14.32,18.96,27.76,26.72,42.69,3.67,5.8,5.73,13.79,3.9,20.7-.79,3.63-2.89,7.83-6.86,8.67-7.38,1.15-13.87-4.43-17.24-10.2,11.73,14.09,25.78,11.88,22.15-8.82-1.72-6.49-5.88-12.03-9.11-17.83-6.86-11.57-15.14-22.19-21.77-33.91-5.1-7.48-8.17-21.39-19.15-20.51-6.33.84-12.78,5.96-13.19,12.79-.22,3.36,1.24,6.64,3.37,9.13.15.15-.11.31-.22.19h.04Z"/>
    <path class="cls-1" d="m262.87,265.92c10.01-8.94,24.17-15.16,37.66-12.64,6.78,2.21,7.57,11.34,8.73,16.88.04.15-.19.27-.26.08-1.72-4.39-3.07-9.28-6.11-12.91-3.56-3.25-9.11-1.99-13.49-1.41-9.29,1.15-18.96,6.19-26.53,10.01h0Z"/>
    <path class="cls-1" d="m297.32,323.32c9.44-.53,16.94-5.19,22.07-13.25.04-.15.3-.11.26.08-1.09,4.81-4.01,9.32-8.24,11.91-4.27,2.56-9.56,3.02-14.2,1.53-.15-.08-.07-.31.07-.27h.04Z"/>
  </g>
</svg>