<svg width="390" height="705" viewBox="0 0 390 705" fill="none" xmlns="http://www.w3.org/2000/svg">
<g opacity="0.7">
<path d="M69.6387 712.655C69.6292 711.002 70.1311 709.266 71.248 707.927C71.8065 707.257 72.4918 706.707 73.2045 706.238L74.2727 705.583L75.416 705.058C76.9833 704.365 78.4804 703.751 80.0939 703.205C80.5201 703.075 80.9007 702.932 81.52 702.903C82.1354 702.933 82.6168 703.099 83.0904 703.385C83.992 703.944 84.5443 704.667 85.057 705.354C88.852 710.859 92.3616 716.47 95.3755 722.425C96.1589 723.882 96.7336 725.479 97.4241 727.009L98.4081 729.314C98.6955 730.113 98.96 730.905 99.204 731.728C99.7042 733.33 100.019 735.077 100.342 736.606C100.656 738.084 101.409 739.289 102.421 740.575C102.886 741.213 103.598 741.844 103.864 743.04C104.101 744.253 103.425 745.319 102.758 745.935C102.086 746.574 101.396 747.049 100.729 747.531C100.045 747.984 99.3847 748.577 98.3749 748.832C97.3361 749.104 96.2648 748.585 95.6592 747.97C95.0474 747.378 94.4418 746.763 93.9847 746.005C93.2303 744.531 92.2055 743.291 90.8029 742.365C90.7862 742.336 90.7695 742.307 90.7901 742.276C90.8191 742.259 90.848 742.242 90.8708 742.248C92.2978 743.083 93.4884 744.344 94.3152 745.776C94.7678 746.459 95.3628 747.022 95.9929 747.546C96.594 748.086 97.4282 748.395 98.2083 748.176C98.9883 747.957 99.628 747.395 100.281 746.922C100.931 746.411 101.598 745.93 102.169 745.349C102.734 744.791 103.166 744.002 102.976 743.206C102.794 742.423 102.174 741.817 101.658 741.189C100.573 739.945 99.6113 738.514 99.2725 736.858C98.8986 735.241 98.5992 733.621 98.0868 732.065C97.845 731.279 97.5744 730.509 97.2809 729.734L96.2847 727.474C95.5964 725.981 95.0239 724.422 94.22 722.996L91.9361 718.606L90.8013 716.406L89.5075 714.299C87.7465 711.516 86.093 708.652 84.2537 705.934C83.7721 705.267 83.2761 704.608 82.5988 704.17C82.2643 703.958 81.8742 703.817 81.4763 703.796C81.0868 703.789 80.6751 703.911 80.2923 704.017C78.7199 704.5 77.1688 705.087 75.6488 705.695L74.501 706.145C74.131 706.339 73.7755 706.525 73.4139 706.734C72.7051 707.143 72.0381 707.625 71.4835 708.234C70.366 709.439 69.7828 711.068 69.7093 712.711C69.7116 712.748 69.6827 712.765 69.6454 712.767C69.6081 712.769 69.5914 712.741 69.5892 712.703L69.6387 712.655Z" fill="#D8B49C"/>
<path d="M84.5014 704.692C85.2499 703.45 86.1688 702.302 87.2624 701.324C87.8093 700.834 88.3811 700.388 88.9675 699.934C89.5622 699.494 90.2086 699.044 91.0488 698.829C91.8973 698.628 92.8366 698.819 93.549 699.218C94.2758 699.608 94.8769 700.148 95.4035 700.693C96.4505 701.805 97.2806 703.042 98.065 704.267C101.12 709.157 103.951 714.195 106.543 719.353C107.754 721.952 109.167 724.299 110.631 726.867C112.029 729.455 113.164 732.29 113.596 735.242C113.803 736.704 113.963 738.251 113.631 739.812C113.314 741.403 112.353 742.845 110.998 743.705C110.321 744.134 109.425 744.42 108.543 744.196C107.643 743.906 107.183 743.342 106.599 742.966C105.458 742.159 104.171 741.533 102.812 741.083C102.789 741.077 102.749 741.042 102.77 741.011C102.776 740.988 102.819 740.963 102.842 740.969C104.246 741.296 105.603 741.843 106.825 742.623C107.438 742.983 107.993 743.511 108.669 743.68C109.352 743.826 110.078 743.58 110.637 743.18C111.794 742.377 112.607 741.079 112.836 739.673C113.089 738.274 112.913 736.832 112.656 735.419C112.128 732.599 111.076 729.909 109.654 727.412C108.226 724.939 106.694 722.487 105.446 719.89C102.957 714.712 100.142 709.702 97.255 704.735C96.5223 703.499 95.7607 702.28 94.8133 701.207C93.9054 700.169 92.6331 699.168 91.1903 699.442C89.8266 699.785 88.6812 700.774 87.5413 701.606C86.4204 702.504 85.4514 703.565 84.6154 704.723C84.5865 704.739 84.5576 704.756 84.5264 704.735C84.5097 704.707 84.493 704.678 84.5135 704.646L84.5014 704.692Z" fill="#D8B49C"/>
<path d="M94.4622 700.098C93.9041 698.53 93.77 696.795 93.9987 695.12C94.2419 693.436 94.7255 691.768 95.736 690.279C96.2611 689.551 96.9687 688.873 97.9056 688.525C98.8403 688.139 99.9387 688.238 100.804 688.568C102.574 689.262 103.86 690.487 105.067 691.642C106.274 692.796 107.452 694.103 108.372 695.596C109.301 697.105 109.93 698.728 110.537 700.248C111.701 703.299 113.229 706.08 115.11 708.736C116.924 711.411 119.035 714.031 120.794 716.911C121.658 718.34 122.553 719.791 123.234 721.404C123.912 722.979 124.42 724.595 124.776 726.28C125.094 727.967 125.458 729.666 124.901 731.608C124.285 733.313 122.969 734.941 121.065 735.385C119.144 735.8 117.462 734.958 116.005 734.237C114.482 733.438 113.216 732.279 112.244 730.931C112.228 730.902 112.225 730.865 112.254 730.848C112.283 730.831 112.32 730.829 112.337 730.858C113.364 732.136 114.664 733.217 116.156 733.899C117.632 734.551 119.28 735.2 120.877 734.76C122.469 734.343 123.61 732.912 124.109 731.371C124.531 729.797 124.175 728.112 123.818 726.524C123.415 724.925 122.88 723.363 122.22 721.854C121.576 720.336 120.691 718.937 119.821 717.53C118.052 714.733 115.96 712.18 114.061 709.458C112.176 706.727 110.607 703.776 109.456 700.68C108.869 699.128 108.29 697.592 107.434 696.176C106.579 694.761 105.494 693.517 104.359 692.32C103.219 691.146 102.01 689.954 100.491 689.327C99.7392 689.028 98.8956 688.937 98.1345 689.222C97.3567 689.478 96.7314 690.032 96.2392 690.682C95.2402 691.992 94.6693 693.575 94.3615 695.18C94.0393 696.793 94.0882 698.482 94.5573 700.062C94.574 700.091 94.539 700.131 94.51 700.147C94.4811 700.164 94.4416 700.129 94.4249 700.1L94.4622 700.098Z" fill="#D8B49C"/>
<path d="M100.343 688.371C99.1479 685.532 98.6633 682.321 99.2399 679.211C99.8432 676.047 101.69 673.399 103.292 670.796C104.986 668.218 106.571 665.586 108.632 663.142C109.652 661.936 110.909 660.806 112.397 660.043C113.848 659.282 115.443 658.805 117.054 658.589C123.483 657.866 129.945 659.671 135.27 663.25C138.012 665.158 139.945 667.706 141.829 670.167C143.701 672.673 145.419 675.249 147.109 677.842C150.387 683.085 153.714 688.281 156.255 694.085C156.852 695.553 157.41 697.121 157.516 698.873C157.552 700.607 157.271 702.158 156.843 703.755C155.962 706.906 154.166 709.64 152.348 712.136C148.666 717.251 143.514 721.422 137.488 723.377C135.981 723.842 134.423 724.182 132.824 724.218C131.202 724.248 129.632 723.901 128.169 723.338C125.232 722.16 122.751 720.101 120.911 717.615C120.894 717.586 120.892 717.549 120.921 717.532C120.95 717.515 120.987 717.513 121.004 717.542C122.892 719.943 125.411 721.902 128.29 722.979C129.728 723.499 131.264 723.788 132.792 723.696C134.329 723.619 135.834 723.252 137.286 722.761C143.115 720.765 148.067 716.614 151.552 711.593C153.324 709.084 154.976 706.434 155.794 703.474C156.199 702.005 156.443 700.456 156.397 698.94C156.314 697.426 155.791 695.953 155.205 694.537C152.713 688.917 149.333 683.732 146.057 678.526C144.391 675.94 142.695 673.37 140.863 670.898C139.025 668.449 137.124 665.959 134.61 664.21C132.075 662.491 129.249 661.172 126.297 660.368C124.814 659.971 123.295 659.711 121.776 659.585C120.248 659.444 118.711 659.387 117.18 659.576C115.673 659.771 114.179 660.19 112.798 660.872C111.432 661.545 110.252 662.574 109.235 663.72C107.22 666.041 105.588 668.66 103.832 671.198C102.159 673.745 100.277 676.298 99.6133 679.323C98.9783 682.332 99.3632 685.504 100.455 688.365C100.472 688.393 100.451 688.425 100.423 688.441C100.394 688.458 100.362 688.437 100.346 688.409L100.343 688.371Z" fill="#D8B49C"/>
<path d="M137.917 665.83C138.856 665.017 140.005 664.335 141.309 664.122C141.961 664.015 142.643 664.027 143.333 664.187C144.032 664.362 144.639 664.745 145.148 665.126C147.14 666.773 148.824 668.52 150.663 670.235C152.508 671.928 154.188 673.735 155.932 675.486C156.785 676.363 157.722 677.25 158.54 678.301C159.343 679.322 160.064 680.372 160.722 681.477C161.373 682.605 161.91 683.703 162.473 684.844C163.035 685.985 163.501 687.259 163.877 688.412C164.614 690.724 165.73 692.858 166.687 695.217C166.918 695.817 167.19 696.489 167.216 697.303C167.228 698.125 166.979 698.829 166.621 699.479C165.875 700.758 164.724 701.538 163.702 702.206C161.575 703.665 158.623 704.232 156.33 703.067C156.33 703.067 156.297 703.009 156.289 702.995C156.309 702.964 156.347 702.962 156.361 702.953C158.704 703.838 161.374 703.184 163.31 701.661C164.307 700.95 165.323 700.17 165.894 699.088C166.184 698.555 166.349 697.939 166.322 697.357C166.286 696.76 166.049 696.183 165.798 695.615C164.736 693.374 163.607 691.152 162.793 688.806C162.045 686.441 160.844 684.261 159.637 682.103C159.019 681.033 158.328 680.004 157.589 679.024C156.849 678.043 155.958 677.168 155.111 676.269L149.947 670.899C148.203 669.148 146.542 667.272 144.707 665.631C143.796 664.788 142.566 664.361 141.334 664.532C140.114 664.658 138.973 665.22 137.976 665.931C137.947 665.947 137.909 665.95 137.893 665.921C137.876 665.892 137.874 665.855 137.903 665.838L137.917 665.83Z" fill="#D8B49C"/>
<path d="M142.186 664.271C141.665 663.569 141.17 662.813 141.046 661.862C140.988 661.394 141.085 660.894 141.373 660.458C141.67 660.036 142.058 659.774 142.409 659.513C143.12 659.006 143.784 658.488 144.37 657.899C144.659 657.597 144.896 657.306 145.122 656.963C145.34 656.606 145.665 656.167 146.02 655.847C147.454 654.556 149.375 654.006 151.216 653.888C153.043 653.779 154.929 654.04 156.687 654.78C157.563 655.161 158.344 655.578 159.154 656.113C159.944 656.68 160.606 657.358 161.199 658.018C162.394 659.354 163.486 660.71 164.577 662.066C166.769 664.793 168.952 667.506 170.987 670.362C171.494 671.072 171.982 671.851 172.438 672.475C172.901 673.075 173.5 673.713 174.089 674.299C175.232 675.51 176.632 676.398 177.983 677.836C179.254 679.302 180.17 680.855 180.789 682.696C181.44 684.558 181.203 686.72 180.378 688.431C178.742 691.978 174.82 694.07 171.114 693.664C167.366 693.185 164.368 690.364 163.191 687.09C163.174 687.061 163.187 687.016 163.224 687.013C163.253 686.997 163.284 687.017 163.301 687.046C164.614 690.222 167.691 692.747 171.142 693.011C174.586 693.298 178.107 691.246 179.464 688.051C180.156 686.476 180.309 684.671 179.732 683.037C179.164 681.417 178.264 679.892 177.125 678.621C175.943 677.375 174.463 676.416 173.235 675.158C172.615 674.552 172.001 673.923 171.466 673.229C170.945 672.527 170.467 671.8 169.961 671.089C167.972 668.245 165.817 665.516 163.677 662.779C162.6 661.414 161.538 660.041 160.382 658.741C159.261 657.401 157.867 656.355 156.283 655.65C154.713 654.936 152.959 654.637 151.234 654.688C149.508 654.739 147.764 655.226 146.431 656.323C145.751 656.85 145.391 657.695 144.699 658.268C144.053 658.853 143.328 659.368 142.593 659.831C142.234 660.077 141.866 660.309 141.617 660.646C141.367 660.982 141.266 661.407 141.284 661.84C141.336 662.698 141.787 663.479 142.27 664.183C142.287 664.212 142.289 664.249 142.26 664.266C142.232 664.283 142.194 664.285 142.178 664.256L142.186 664.271Z" fill="#D8B49C"/>
<path d="M160.91 658.185C160.099 656.513 159.545 654.653 159.52 652.739C159.485 651.776 159.659 650.807 159.734 649.935C159.8 649.048 159.703 648.178 159.509 647.307C159.416 646.878 159.302 646.481 159.14 646.034C158.958 645.619 158.872 644.801 159.116 644.255C159.298 643.668 159.834 643.127 160.291 642.882C160.754 642.615 161.161 642.419 161.56 642.208C163.164 641.378 164.483 640.289 165.857 638.994C166.234 638.679 166.616 638.305 167.296 638.047C167.971 637.812 168.781 637.846 169.419 638.249C169.932 638.57 170.231 638.821 170.622 639.097C171.004 639.358 171.393 639.597 171.781 639.836C173.344 640.804 174.873 641.85 176.437 642.721C177.984 643.564 179.826 644.449 181.348 645.749C182.885 647.041 184.12 648.546 185.27 650.004C187.498 652.96 189.885 655.96 191.575 659.42C193.174 662.759 195.077 666.154 195.503 670.132C195.733 672.101 195.475 674.16 194.739 675.992C194.012 677.839 192.845 679.459 191.427 680.778C188.584 683.403 184.702 684.796 180.967 684.542C180.93 684.544 180.913 684.515 180.911 684.478C180.909 684.44 180.938 684.424 180.975 684.421C184.698 684.49 188.363 682.953 190.965 680.312C192.279 679.014 193.345 677.453 193.982 675.716C194.619 673.979 194.805 672.097 194.546 670.28C194.041 666.598 192.217 663.273 190.574 659.959C188.908 656.64 186.556 653.735 184.3 650.795C183.164 649.329 182 647.88 180.596 646.685C179.198 645.467 177.533 644.654 175.907 643.741C174.287 642.806 172.763 641.737 171.193 640.754C170.393 640.271 169.641 639.702 168.899 639.185C168.533 638.953 168.052 638.922 167.641 639.044C167.223 639.189 166.859 639.495 166.502 639.778C165.118 641.021 163.623 642.174 161.936 642.993C161.138 643.415 160.122 643.693 159.809 644.588C159.434 645.441 160.064 646.331 160.157 647.261C160.325 648.186 160.366 649.126 160.25 650.061C160.134 650.996 159.919 651.892 159.914 652.82C159.86 654.664 160.293 656.516 161.024 658.216C161.041 658.245 161.028 658.291 160.991 658.293C160.962 658.31 160.931 658.289 160.914 658.26L160.91 658.185Z" fill="#D8B49C"/>
<path d="M169.737 638.567C171.707 635.096 173.827 631.654 176.667 628.722C177.378 627.984 178.177 627.33 178.947 626.692C179.339 626.369 179.769 626.044 180.283 625.766C180.812 625.48 181.44 625.33 182.038 625.332C183.296 625.339 184.307 625.854 185.225 626.308C186.145 626.799 187.001 627.346 187.865 627.908C189.55 629.057 191.153 630.195 192.762 631.445C194.377 632.673 195.929 634.091 197.299 635.596C198.683 637.091 199.956 638.729 201.097 640.404C202.231 642.102 203.299 643.684 204.555 645.157C206.982 648.192 209.957 650.64 213.263 652.858C214.084 653.445 214.918 653.986 215.751 654.662C216.548 655.34 217.438 656.08 217.986 657.229C218.237 657.798 218.438 658.415 218.431 659.036C218.533 659.614 218.371 660.402 218.095 660.927C217.572 662.058 216.809 662.808 216.083 663.555C214.583 664.999 213.018 666.23 211.456 667.499C209.891 668.73 208.351 670.005 206.662 671.154C204.968 672.229 203.118 673.335 200.979 673.471C198.883 673.582 196.868 672.797 195.269 671.598C195.252 671.57 195.236 671.541 195.256 671.509C195.285 671.493 195.314 671.476 195.345 671.497C196.983 672.596 198.968 673.262 200.948 673.083C202.934 672.882 204.669 671.745 206.292 670.615C207.914 669.448 209.414 668.138 210.954 666.863C212.471 665.582 214.01 664.308 215.407 662.884C216.089 662.162 216.763 661.426 217.165 660.519C217.356 660.081 217.476 659.587 217.395 659.113C217.404 658.626 217.225 658.151 217.035 657.721C216.099 655.966 214.242 654.955 212.654 653.808C209.328 651.621 206.159 649.072 203.63 645.961C202.356 644.421 201.238 642.752 200.157 641.081C199.048 639.427 197.845 637.845 196.507 636.361C193.879 633.346 190.562 631.076 187.359 628.702C186.546 628.129 185.705 627.574 184.845 627.087C183.979 626.622 183.053 626.154 182.079 626.138C181.074 626.101 180.217 626.653 179.439 627.276C178.652 627.885 177.874 628.508 177.152 629.195C174.264 631.942 171.979 635.267 169.868 638.626C169.839 638.643 169.81 638.66 169.779 638.639C169.762 638.61 169.746 638.581 169.752 638.559L169.737 638.567Z" fill="#D8B49C"/>
<path d="M188.314 628.652C187.504 623.642 188.371 618.262 191.011 613.749C193.608 609.26 197.946 605.617 203.126 604.266C205.687 603.559 208.428 603.462 211.023 603.815C213.627 604.182 216.132 604.78 218.623 605.753C223.581 607.693 227.609 611.23 231.31 614.667C233.151 616.42 235.013 618.142 236.807 619.979C238.593 621.803 240.402 623.767 241.691 626.167C244.259 631.049 244.011 636.9 241.951 641.716C240.944 644.148 239.56 646.394 237.907 648.409C236.178 650.391 234.155 652.099 231.866 653.344C227.269 655.804 221.986 656.675 216.93 656.103C216.893 656.105 216.868 656.062 216.889 656.031C216.886 655.994 216.93 655.969 216.961 655.989C221.991 656.383 227.188 655.33 231.548 652.794C233.732 651.533 235.666 649.838 237.286 647.9C238.843 645.921 240.132 643.711 241.069 641.357C242.929 636.696 243.136 631.176 240.713 626.712C239.51 624.494 237.766 622.608 235.982 620.822C234.199 619.036 232.322 617.323 230.467 615.578C226.795 612.125 222.922 608.69 218.207 606.803C213.529 605.049 208.308 603.955 203.376 605.202C198.449 606.388 194.215 609.777 191.593 614.088C188.879 618.374 187.832 623.608 188.455 628.629C188.471 628.658 188.436 628.697 188.399 628.699C188.37 628.716 188.331 628.681 188.328 628.644L188.314 628.652Z" fill="#D8B49C"/>
<path d="M212.676 604.306C211.358 602.791 210.33 600.877 210.254 598.742C210.243 597.687 210.439 596.59 210.965 595.631C211.5 594.686 212.058 593.882 212.779 593.06C215.71 590.018 219.434 588.119 223.046 586.323C223.97 585.886 224.854 585.414 225.918 585.05C227.039 584.654 228.296 584.661 229.435 584.929C231.642 585.545 233.351 586.602 235.152 587.549C238.718 589.483 242.098 591.697 245.582 593.755C247.302 594.864 249.007 595.847 250.711 597.062C252.43 598.268 253.993 599.873 255.194 601.552C256.403 603.245 257.535 604.771 258.693 606.61C259.448 607.717 259.341 609.302 258.916 610.338C258.494 611.411 257.947 612.267 257.454 613.15C256.436 614.894 255.447 616.622 254.529 618.406C254.044 619.303 253.648 620.187 253.017 621.131C252.296 622.087 251.455 622.669 250.586 623.267C248.807 624.429 246.574 625.005 244.507 624.597C243.479 624.42 242.501 624.097 241.551 623.72C240.621 623.312 239.724 622.827 238.814 622.387C238.783 622.367 238.781 622.33 238.787 622.307C238.808 622.276 238.845 622.273 238.859 622.265C239.781 622.659 240.69 623.098 241.618 623.469C242.566 623.808 243.533 624.08 244.528 624.2C246.528 624.491 248.564 623.875 250.185 622.708C250.98 622.114 251.804 621.503 252.377 620.69C252.918 619.857 253.326 618.927 253.773 618.032C254.66 616.228 255.616 614.442 256.58 612.671C257.05 611.782 257.566 610.905 257.914 609.972C258.256 609.061 258.326 607.979 257.752 607.153C256.664 605.467 255.459 603.848 254.269 602.221C253.078 600.594 251.653 599.16 250.013 598.024C248.365 596.873 246.614 595.878 244.911 594.798C241.471 592.715 238.111 590.47 234.582 588.534C232.819 587.584 231.072 586.53 229.154 585.979C228.204 585.736 227.164 585.739 226.224 586.05C225.285 586.361 224.361 586.798 223.443 587.212C219.802 588.89 216.125 590.704 213.241 593.526C212.559 594.248 211.926 595.057 211.416 595.911C210.906 596.764 210.675 597.766 210.629 598.757C210.615 600.77 211.523 602.676 212.754 604.241C212.771 604.27 212.773 604.308 212.744 604.324C212.715 604.341 212.678 604.343 212.661 604.314L212.676 604.306Z" fill="#D8B49C"/>
<path d="M149.477 273.1C151.938 271.717 154.854 271.056 157.785 271.254C160.723 271.467 163.539 272.869 165.75 274.795C168.024 276.664 169.74 279.569 169.813 282.767C169.84 284.352 169.419 285.926 168.797 287.288C168.169 288.673 167.447 289.861 166.713 291.095C165.17 293.567 162.98 295.853 160.285 297.198C157.656 298.523 154.653 299.369 151.629 298.974C148.607 298.617 145.827 296.943 144.054 294.572C142.338 292.169 141.513 289.27 141.561 286.446C141.558 286.409 141.587 286.392 141.624 286.39C141.653 286.373 141.678 286.416 141.681 286.454C141.869 289.219 142.799 291.999 144.553 294.168C146.299 296.323 148.916 297.783 151.699 298.027C157.282 298.41 162.889 295.328 165.65 290.455C167.079 288.087 168.713 285.639 168.677 282.805C168.659 280 167.156 277.397 165.092 275.56C163.056 273.669 160.481 272.282 157.693 271.963C154.925 271.613 152.075 272.121 149.532 273.261C149.503 273.278 149.457 273.266 149.455 273.228C149.438 273.2 149.459 273.168 149.488 273.152L149.477 273.1Z" fill="#D8B49C"/>
<path d="M169.242 283.617C171.33 280.252 174.342 277.317 178.024 275.577C179.814 274.736 181.751 273.849 184.016 273.93C185.127 273.983 186.343 274.419 187.179 275.267C188.045 276.098 188.543 277.161 188.852 278.197C189.147 279.242 189.286 280.319 189.318 281.342C189.374 282.409 189.244 283.487 189 284.534C188.498 286.637 187.45 288.496 186.347 290.193C184.095 293.576 181.583 296.608 179.176 299.753C176.689 302.828 174.227 305.947 171.533 308.929C170.17 310.41 168.761 311.879 167.093 313.132C165.456 314.405 163.349 315.332 161.284 315.598C159.262 315.937 156.794 315.838 154.997 314.329C153.238 312.819 152.522 310.609 152.595 308.465C152.755 306.27 153.831 304.492 154.714 302.748C155.632 300.964 156.706 299.283 157.952 297.734C157.981 297.718 158.01 297.701 158.041 297.721C158.058 297.75 158.075 297.779 158.054 297.81C156.893 299.407 155.896 301.12 155.069 302.928C154.248 304.714 153.309 306.529 153.256 308.507C153.238 310.446 153.974 312.49 155.506 313.708C157.055 314.954 159.2 315.027 161.108 314.658C163.05 314.347 164.87 313.49 166.428 312.281C167.987 311.073 169.36 309.643 170.671 308.173C173.285 305.217 175.716 302.078 178.172 298.983C180.596 295.866 183.16 292.824 185.381 289.555C186.48 287.918 187.468 286.19 187.945 284.275C188.415 282.384 188.36 280.352 187.917 278.448C187.666 277.513 187.252 276.595 186.559 275.895C185.88 275.188 184.93 274.811 183.96 274.734C181.999 274.613 180.093 275.385 178.306 276.166C174.656 277.695 171.58 280.416 169.365 283.662C169.336 283.679 169.307 283.695 169.276 283.675C169.259 283.646 169.242 283.617 169.263 283.586L169.242 283.617Z" fill="#D8B49C"/>
<path d="M184.006 292.586C186.694 290.127 190.318 288.42 194.197 288.592C196.127 288.693 198.046 289.378 199.622 290.571C201.212 291.755 202.414 293.337 203.261 295.104C204.116 296.886 204.492 298.906 204.385 300.858C204.257 302.842 203.909 304.643 203.235 306.517C202.566 308.331 201.453 310.111 200.021 311.439C198.627 312.765 197.31 313.892 196.062 315.172C195.442 315.8 194.806 316.437 194.262 317.098C193.782 317.703 193.125 318.603 192.447 319.265C191.141 320.578 189.858 321.897 188.329 323.089C186.836 324.279 185.063 325.283 183.147 325.772C181.233 326.299 179.244 326.328 177.339 326.001C175.433 325.674 173.582 325.007 171.956 323.959C170.323 322.935 168.934 321.365 168.178 319.622C167.775 318.755 167.474 317.868 167.205 317.001C166.885 316.145 166.702 315.093 166.869 314.148C167.132 312.164 168.524 310.666 170.036 309.677C170.065 309.661 170.102 309.658 170.119 309.687C170.135 309.716 170.138 309.754 170.109 309.77C168.653 310.823 167.412 312.349 167.253 314.177C167.157 315.081 167.346 315.975 167.695 316.814C168.016 317.671 168.352 318.519 168.759 319.325C170.33 322.68 173.937 324.551 177.484 325.049C179.287 325.3 181.131 325.22 182.875 324.733C184.628 324.261 186.233 323.334 187.639 322.195C189.053 321.07 190.327 319.736 191.604 318.44C192.254 317.795 192.756 317.061 193.333 316.323C193.918 315.6 194.545 314.948 195.186 314.289C196.469 312.97 197.881 311.807 199.205 310.561C200.538 309.328 201.53 307.772 202.191 306.079C203.365 302.701 203.926 298.828 202.393 295.47C201.65 293.816 200.564 292.303 199.127 291.184C197.705 290.057 195.943 289.377 194.138 289.224C190.503 288.873 186.865 290.356 184.085 292.656C184.056 292.672 184.019 292.675 184.002 292.646C183.985 292.617 183.983 292.58 184.012 292.563L184.006 292.586Z" fill="#D8B49C"/>
<path d="M200.977 309.653C202.974 308.269 205.215 307.207 207.586 306.57C209.962 306.009 212.386 305.496 214.939 305.777C217.478 306.066 219.9 307.388 221.63 309.282C223.368 311.19 224.504 313.524 225.21 315.951C225.957 318.413 225.905 321.163 225.205 323.592C224.537 326.041 223.504 328.296 222.485 330.505L220.931 333.793C220.406 334.887 219.796 336.069 218.967 337.106C217.394 339.191 215.116 340.757 212.841 341.762C210.538 342.783 208.279 343.547 206.083 344.487C203.879 345.413 201.733 346.439 199.679 347.625C198.644 348.204 197.681 348.875 196.414 349.453C195.08 350.049 193.613 350.047 192.372 349.935C189.785 349.731 187.322 348.838 185.154 347.487C183.022 346.133 180.975 344.326 180.178 341.642C180.098 341.303 180.055 340.961 180.004 340.605C179.975 340.255 180.05 339.749 180.16 339.473C180.365 338.892 180.505 338.367 180.613 337.785C180.858 336.64 181.019 335.448 181.165 334.264C181.333 333.087 181.365 331.873 181.641 330.614C181.949 329.376 182.441 328.224 183.08 327.16C184.328 325.013 186.276 323.309 188.499 322.315C188.528 322.299 188.574 322.311 188.576 322.348C188.593 322.377 188.58 322.423 188.543 322.425C186.385 323.497 184.557 325.208 183.421 327.349C182.848 328.394 182.393 329.544 182.164 330.717C181.935 331.891 181.949 333.117 181.834 334.322C181.719 335.526 181.582 336.724 181.355 337.935C181.188 339.149 180.499 340.261 180.967 341.438C181.696 343.736 183.632 345.453 185.666 346.671C187.737 347.886 190.067 348.681 192.473 348.874C193.669 348.974 194.895 348.96 195.987 348.446C197.072 347.954 198.07 347.243 199.111 346.642C203.278 344.139 207.887 342.501 212.316 340.618C214.518 339.656 216.544 338.254 218.032 336.354C219.505 334.463 220.346 332.145 221.445 330.006C222.458 327.82 223.501 325.617 224.147 323.296C224.802 320.989 224.907 318.499 224.258 316.173C223.633 313.853 222.593 311.619 221.002 309.798C219.42 307.993 217.212 306.741 214.82 306.406C210.049 305.959 205.076 307.133 201.027 309.74C200.998 309.757 200.952 309.745 200.935 309.716C200.919 309.687 200.931 309.641 200.96 309.624L200.977 309.653Z" fill="#D8B49C"/>
<path d="M219.66 334.932C221.031 333.331 222.798 331.983 224.894 331.371C227.044 330.785 229.153 330.898 231.264 330.779C231.794 330.762 232.341 330.774 232.89 330.823C233.469 330.856 234.047 331.023 234.574 331.201C235.651 331.563 236.65 332.124 237.53 332.812C238.44 333.521 239.171 334.353 239.826 335.286C240.483 336.257 240.948 337.396 241.03 338.641C241.091 339.917 240.79 340.998 240.523 342.039C240.242 343.088 239.869 344.113 239.466 345.118C238.658 347.127 237.54 349.065 236.267 350.802C234.98 352.548 233.531 354.214 231.689 355.567C229.907 356.789 228.4 357.987 226.892 359.417C226.132 360.106 225.47 360.797 224.726 361.612C223.924 362.461 222.97 363.147 222.032 363.727C220.148 364.873 218.082 365.738 215.998 366.304C214.982 366.582 213.954 366.906 212.766 367.052C211.563 367.206 210.34 367.025 209.24 366.657C206.966 365.926 205.204 364.243 203.924 362.494C202.582 360.704 201.65 358.522 201.594 356.221C201.599 355.929 201.569 355.676 201.621 355.299C201.67 354.982 201.751 354.722 201.839 354.44C201.994 353.907 202.189 353.409 202.369 352.919L203.502 349.97C203.899 348.989 204.319 348.013 204.808 347.056C205.283 346.107 205.966 345.153 206.777 344.453C208.405 343.031 210.367 342.053 212.418 341.563C212.447 341.546 212.486 341.581 212.503 341.61C212.52 341.639 212.485 341.679 212.456 341.696C210.447 342.258 208.556 343.292 207.056 344.736C205.496 346.177 204.865 348.257 204.122 350.21L203.081 353.183C202.789 354.181 202.317 355.167 202.417 356.209C202.505 358.299 203.402 360.288 204.69 361.917C205.949 363.562 207.577 365.014 209.569 365.657C210.561 365.972 211.61 366.119 212.626 365.975C213.651 365.846 214.665 365.531 215.672 365.239C217.673 364.662 219.621 363.827 221.396 362.725C222.276 362.178 223.129 361.551 223.832 360.798C224.541 360.022 225.25 359.246 226.03 358.526C227.567 357.079 229.248 355.781 230.989 354.621C232.682 353.412 234.099 351.823 235.353 350.154C236.607 348.485 237.672 346.655 238.469 344.729C238.875 343.761 239.236 342.782 239.519 341.77C239.811 340.772 240.1 339.737 240.069 338.714C239.972 336.609 238.57 334.815 237.031 333.486C235.432 332.152 233.371 331.356 231.275 331.467C229.189 331.495 227.052 331.301 225.008 331.768C222.974 332.287 221.191 333.509 219.764 335.046C219.735 335.063 219.706 335.079 219.667 335.044C219.65 335.015 219.634 334.986 219.654 334.955L219.66 334.932Z" fill="#D8B49C"/>
<path d="M230.118 355.818L236.167 352.634C238.183 351.548 240.173 350.418 242.204 349.361C243.244 348.857 244.278 348.376 245.382 347.95C245.93 347.73 246.495 347.539 247.108 347.398C247.718 347.219 248.514 347.261 249.082 347.376C250.33 347.601 251.478 348.153 252.498 348.818C253.014 349.176 253.45 349.464 253.964 349.919C254.424 350.348 254.823 350.773 255.223 351.198C255.999 352.042 256.776 352.886 257.532 353.761C257.903 354.203 258.282 354.659 258.632 355.132C258.974 355.59 259.388 356.141 259.634 356.868C260.043 358.078 260.223 359.324 260.152 360.638C260.112 361.972 259.412 363.399 258.598 364.293C256.976 366.194 255.12 367.555 253.265 368.953C251.409 370.314 249.536 371.647 247.604 372.877L241.787 376.564C239.847 377.78 237.795 378.869 235.798 380.021L232.788 381.721L229.689 383.202C227.596 384.121 225.415 385.187 222.782 385.203C221.493 385.175 220.091 384.751 219.105 383.777C218.175 382.868 217.555 381.895 216.9 380.961C215.64 379.046 214.296 377.219 213.183 375.123C212.67 374.069 212.18 372.886 212.288 371.57C212.382 370.262 213.237 369.171 214.106 368.438C214.987 367.659 215.898 366.998 216.806 366.3L219.663 364.4C219.663 364.4 219.729 364.381 219.746 364.41C219.762 364.439 219.75 364.485 219.721 364.501L216.96 366.5C216.083 367.219 215.183 367.932 214.362 368.714C213.547 369.474 212.843 370.459 212.792 371.607C212.733 372.741 213.216 373.812 213.732 374.806C214.854 376.781 216.235 378.607 217.53 380.482C218.199 381.407 218.854 382.341 219.672 383.122C220.489 383.904 221.653 384.215 222.761 384.231C225.025 384.178 227.148 383.145 229.195 382.214L232.271 380.727L235.237 379.015C237.196 377.865 239.211 376.779 241.128 375.556L246.877 371.851C248.802 370.643 250.692 369.34 252.528 368.01C254.347 366.651 256.203 365.29 257.687 363.584C259.323 361.907 259.266 359.337 258.579 357.245C258.195 356.213 257.388 355.349 256.683 354.463C255.965 353.586 255.203 352.733 254.455 351.873C253.722 351.004 252.904 350.222 251.961 349.591C251.032 348.95 249.998 348.429 248.893 348.218C247.789 347.91 246.677 348.321 245.613 348.685C244.544 349.071 243.502 349.537 242.46 350.004C240.401 350.98 238.375 352.015 236.318 353.029L230.135 355.982C230.135 355.982 230.06 355.986 230.058 355.949C230.042 355.92 230.054 355.874 230.091 355.872L230.118 355.818Z" fill="#D8B49C"/>
<path d="M267.09 403.788C270.28 400.094 272.408 395.394 272.488 390.623C272.651 385.861 270.803 381.123 267.475 377.798C264.216 374.492 259.689 372.13 255.127 372.044C250.537 372.11 246.097 374.442 242.083 377.01C240.027 378.294 238.093 379.719 236.108 381.193C234.109 382.675 232.058 384.033 230.157 385.516C228.284 386.983 226.458 388.597 225.74 390.593C225.379 391.572 225.27 392.619 225.521 393.689C225.621 394.229 225.808 394.719 225.993 395.307C226.223 395.907 226.417 396.509 226.61 397.111C227.346 399.521 227.835 401.938 228.512 404.247C229.19 406.556 230.039 408.863 231.639 410.465C232.436 411.278 233.421 411.847 234.57 412.033C235.724 412.196 236.988 412.314 238.161 412.274C240.574 412.211 242.972 411.521 245.14 410.366C245.169 410.349 245.215 410.361 245.232 410.39C245.248 410.419 245.236 410.465 245.207 410.481C243.066 411.717 240.667 412.505 238.2 412.676C236.97 412.749 235.739 412.689 234.503 412.553C233.26 412.403 232.101 411.799 231.19 410.956C229.365 409.232 228.472 406.817 227.726 404.489C226.987 402.139 226.445 399.732 225.677 397.399C225.315 396.238 224.784 395.117 224.501 393.892C224.189 392.684 224.32 391.374 224.729 390.212C225.597 387.84 227.568 386.143 229.467 384.622C231.404 383.099 233.446 381.727 235.408 380.247C237.369 378.767 239.345 377.279 241.422 375.965C243.49 374.636 245.67 373.435 247.949 372.505C250.228 371.575 252.657 370.906 255.149 370.913C260.12 371.071 264.834 373.557 268.2 377.149C271.617 380.73 273.452 385.746 273.157 390.68C272.879 395.643 270.526 400.319 267.194 403.901C267.165 403.918 267.136 403.935 267.105 403.914C267.088 403.885 267.071 403.856 267.106 403.817L267.09 403.788Z" fill="#D8B49C"/>
<path d="M247.389 421.777C246.035 422.771 244.482 423.456 242.849 423.935C242.011 424.188 241.027 424.119 240.181 423.856C239.253 423.62 238.421 422.712 238.236 421.758C238.014 420.806 238.104 419.925 238.158 419.084L238.435 416.59C238.549 415.753 238.676 414.869 239.078 413.962C239.488 413.07 240.154 412.319 240.906 411.75C242.432 410.618 244.19 410.123 245.855 409.799C247.556 409.472 249.123 409.281 250.709 408.887C253.875 408.158 256.97 407.104 260.026 405.918C263.102 404.798 266.146 403.523 269.181 402.233L273.732 400.261C275.227 399.61 276.77 398.874 278.479 398.427C279.334 398.204 280.199 398.032 281.173 398.049C281.651 398.042 282.165 398.131 282.663 398.326C283.176 398.512 283.681 398.953 283.938 399.364C284.474 400.193 284.747 400.999 285.014 401.829C285.127 402.226 285.264 402.63 285.359 403.095C285.454 403.561 285.467 404.151 285.25 404.643C284.797 405.696 283.924 406.122 283.21 406.554C282.464 406.966 281.713 407.303 280.94 407.633L276.366 409.599C276.366 409.599 276.291 409.603 276.289 409.566C276.272 409.537 276.293 409.506 276.322 409.489L280.776 407.284C281.519 406.933 282.25 406.529 282.951 406.106C283.628 405.676 284.37 405.19 284.646 404.433C284.937 403.667 284.581 402.85 284.339 402.064C284.069 401.294 283.767 400.504 283.294 399.852C282.841 399.168 281.989 398.927 281.174 398.954C280.367 398.957 279.547 399.141 278.752 399.369C277.172 399.838 275.69 400.578 274.174 401.26L269.642 403.298C266.617 404.639 263.567 405.937 260.465 407.111C257.354 408.271 254.191 409.306 250.956 410.017C247.763 410.8 244.247 410.689 241.479 412.576C240.804 413.043 240.257 413.667 239.881 414.385C239.528 415.11 239.368 415.935 239.237 416.744C239.035 418.365 238.612 420.037 238.866 421.645C239.004 422.452 239.568 423.129 240.355 423.389C241.12 423.68 241.956 423.757 242.761 423.581C244.363 423.216 245.92 422.606 247.31 421.707C247.339 421.69 247.376 421.688 247.401 421.731C247.418 421.76 247.406 421.806 247.377 421.823L247.389 421.777Z" fill="#D8B49C"/>
<path d="M239.347 428.291C239.752 427.055 240.817 426.228 241.758 425.453C244.702 423.136 247.879 421.089 251.17 419.305C255.574 417.013 260.059 414.058 265.144 413.88C270.291 413.107 273.801 408.997 279.258 408.662C282.197 408.374 284.814 410.836 285.875 413.309C288.682 417.937 288.329 424.775 283.793 428.243C277.522 432.847 269.412 433.498 262.181 435.204L254.864 436.729C251.282 437.138 247.444 440.145 243.898 437.911C240.73 435.998 238.322 432.027 239.333 428.3L239.347 428.291ZM239.469 428.336C238.288 432.972 242.663 438.913 247.588 438.423C250.014 437.948 252.266 436.705 254.732 436.265L262.021 434.526C269.157 432.623 276.972 431.795 283.072 427.328C288.157 423.274 287.064 415.033 282.705 410.858C279.547 408.361 275.438 410.598 272.258 411.971C270.05 413.091 267.773 414.291 265.244 414.555C262.73 414.676 260.318 415.142 258.045 416.281C252.377 418.859 246.811 421.745 241.871 425.581C240.921 426.341 239.862 427.145 239.469 428.336Z" fill="#D8B49C"/>
<path d="M267.25 433.763C272.66 433.011 278.193 432.941 283.673 433.847C285.035 434.102 286.427 434.475 287.72 435.078C288.991 435.675 290.237 436.364 291.359 437.239C293.634 438.973 295.392 441.584 295.997 444.436C296.314 445.854 296.476 447.304 296.246 448.844C295.963 450.357 295.496 451.553 295.216 452.872C294.919 454.162 294.662 455.487 294.508 456.79C294.429 457.454 294.413 458.061 294.296 458.861C294.167 459.707 293.857 460.406 293.546 461.069C292.217 463.745 290.043 465.926 287.306 467.198C285.914 467.827 284.495 468.107 283.166 468.411C281.8 468.718 280.398 468.929 278.992 469.066C276.186 469.317 273.364 469.172 270.641 468.931C267.897 468.722 265.102 468.291 262.416 467.681C261.066 467.381 259.675 467.008 258.351 466.519C257.002 465.986 255.804 465.482 254.492 464.812C251.807 463.469 249.86 460.832 249.059 458.074C248.212 455.304 247.939 452.626 247.541 449.867C247.398 448.483 247.331 446.998 247.731 445.553C247.927 444.822 248.23 444.146 248.619 443.516C249.037 442.87 249.558 442.337 250.085 441.879C254.178 438.146 259.28 435.491 264.67 434.538C264.699 434.522 264.738 434.557 264.741 434.594C264.757 434.623 264.722 434.663 264.685 434.665C259.343 435.801 254.421 438.566 250.532 442.354C249.5 443.239 248.756 444.421 248.438 445.742C248.098 447.057 248.181 448.436 248.359 449.78C248.789 452.463 249.148 455.188 249.984 457.772C250.811 460.341 252.58 462.637 255.003 463.861C257.433 465.062 259.985 466.076 262.658 466.597C265.313 467.186 268.008 467.578 270.729 467.781C273.444 468.007 276.175 468.128 278.883 467.875C280.238 467.749 281.573 467.557 282.91 467.267C284.247 466.977 285.578 466.71 286.825 466.164C289.287 465.051 291.321 463.028 292.516 460.622C292.801 460.013 293.078 459.391 293.181 458.733C293.284 458.076 293.31 457.386 293.396 456.7C293.576 455.342 293.825 454.003 294.157 452.673C294.451 451.346 294.934 450.045 295.2 448.735C295.42 447.412 295.314 446.026 295.033 444.704C294.499 442.042 292.955 439.635 290.841 437.944C288.712 436.261 286.185 435.058 283.521 434.552C278.181 433.488 272.674 433.37 267.261 433.949C267.232 433.966 267.193 433.931 267.191 433.893C267.174 433.864 267.209 433.825 267.246 433.823L267.25 433.763Z" fill="#D8B49C"/>
<path d="M224.756 585.645C223.432 583.651 222.456 581.36 222.159 578.909C222.019 577.697 222.041 576.431 222.296 575.204C222.552 573.976 223.029 572.833 223.524 571.718C224.575 569.53 225.676 567.428 226.812 565.287C227.4 564.234 227.985 563.144 228.882 562.125C229.822 561.081 231.108 560.435 232.47 560.188C235.192 559.793 237.545 560.46 239.91 560.849C242.257 561.307 244.605 561.765 246.956 562.162C249.301 562.583 251.65 562.943 254.017 563.235L257.613 563.685C258.842 563.844 260.214 564.248 261.331 564.779C263.593 565.826 265.717 567.165 267.63 568.741C269.549 570.295 271.268 572.003 272.978 573.696C273.829 574.535 274.711 575.395 275.517 576.357C276.33 577.296 277.114 578.521 277.447 579.833C277.84 581.149 277.799 582.581 277.566 583.814C277.327 585.071 276.949 586.253 276.569 587.399C275.771 589.691 274.978 591.924 274.089 594.193C273.212 596.415 272.077 598.826 270.008 600.386C268.014 601.943 265.608 602.753 263.234 603.218C260.845 603.69 258.367 603.674 256.012 603.202C255.974 603.204 255.949 603.161 255.97 603.13C255.968 603.092 256.011 603.067 256.042 603.088C258.399 603.463 260.827 603.392 263.151 602.841C265.469 602.313 267.75 601.42 269.581 599.881C271.474 598.383 272.483 596.122 273.323 593.902C274.146 591.652 274.9 589.385 275.632 587.111C276.32 584.862 277.088 582.451 276.402 580.128C275.754 577.802 273.83 576.174 272.165 574.493C268.776 571.127 265.204 567.847 260.793 565.919C258.648 564.843 256.197 564.773 253.834 564.421C251.45 564.1 249.092 563.725 246.739 563.29C244.386 562.856 242.03 562.383 239.689 561.903C237.344 561.482 234.971 560.846 232.609 561.13C231.451 561.297 230.333 561.866 229.531 562.714C228.723 563.586 228.127 564.625 227.53 565.663C226.361 567.746 225.208 569.858 224.115 571.974C223.573 573.039 223.093 574.146 222.81 575.293C222.513 576.448 222.45 577.642 222.544 578.841C222.739 581.216 223.603 583.514 224.847 585.534C224.864 585.563 224.851 585.609 224.822 585.626C224.794 585.642 224.748 585.63 224.731 585.601L224.756 585.645Z" fill="#D8B49C"/>
<path d="M245.649 562.338C241.737 560.372 237.868 558.113 234.751 554.82C233.983 553.991 233.306 553.051 232.765 552.014C232.223 550.976 231.829 549.758 231.968 548.462C232.053 547.14 232.872 545.953 233.768 545.166C234.612 544.39 235.758 543.67 236.992 543.401C239.445 542.873 241.711 543.358 243.896 543.735C246.069 544.159 248.21 544.659 250.356 545.136L263.209 547.956C265.343 548.479 267.566 548.989 269.694 550.036C270.743 550.55 271.757 551.237 272.626 551.873C273.517 552.516 274.384 553.115 275.294 553.689C276.204 554.263 277.126 554.791 278.077 555.303C279.014 555.823 280.012 556.249 281.055 556.92C282.072 557.645 282.87 558.36 283.695 559.253C284.482 560.149 285.151 561.209 285.515 562.407C285.879 563.605 285.912 564.897 285.645 566.073C285.524 566.664 285.328 567.259 285.055 567.822C284.773 568.37 284.316 568.981 283.806 569.334C281.635 570.818 279.221 570.746 277.014 570.632C272.533 570.153 268.323 568.707 264.298 566.98C264.267 566.96 264.251 566.931 264.257 566.908C264.277 566.877 264.315 566.874 264.329 566.866C268.411 568.424 272.662 569.673 277.034 569.965C279.179 570.038 281.517 569.98 283.295 568.683C284.154 568.033 284.576 566.96 284.775 565.901C284.973 564.841 284.929 563.729 284.582 562.695C283.904 560.618 282.179 559.067 280.45 557.809C279.546 557.213 278.525 556.78 277.559 556.277C276.586 555.759 275.626 555.233 274.693 554.653C272.793 553.532 271.133 552.06 269.175 551.108C267.217 550.155 265.056 549.686 262.931 549.178C258.652 548.215 254.368 547.275 250.108 546.243C247.968 545.743 245.842 545.235 243.698 544.795C241.565 544.407 239.358 543.925 237.214 544.353C236.142 544.567 235.195 545.133 234.37 545.841C233.55 546.526 232.89 547.486 232.797 548.562C232.659 549.625 232.964 550.722 233.441 551.681C233.926 552.655 234.526 553.562 235.272 554.385C238.164 557.691 241.893 560.109 245.717 562.221C245.748 562.242 245.75 562.279 245.744 562.302C245.724 562.333 245.686 562.335 245.663 562.329L245.649 562.338Z" fill="#D8B49C"/>
<path d="M263.258 548.276C257.396 546.607 251.432 545.229 245.745 542.996L241.446 541.428C240.734 541.164 240.014 540.886 239.286 540.593C238.563 540.277 237.843 539.998 237.088 539.393C236.261 538.694 236.053 537.599 236.02 536.808C235.992 535.956 236.056 535.167 236.181 534.381C236.408 532.803 236.783 531.314 237.195 529.823C238.041 526.846 239.013 523.952 240.232 521.087C240.895 519.663 241.475 518.229 242.71 516.861C243.019 516.528 243.478 516.186 243.871 515.998C244.269 515.787 244.671 515.613 245.097 515.483C245.949 515.222 246.842 515.131 247.689 515.162C249.398 515.217 250.952 515.67 252.423 516.113L256.81 517.399L265.583 519.933L283.056 525.177C285.977 526.094 288.872 526.699 291.891 527.752C292.642 528.051 293.433 528.385 294.155 528.933C294.899 529.487 295.478 530.291 295.828 531.13C296.232 531.996 296.193 533.099 296.039 533.901C295.879 534.726 295.632 535.467 295.407 536.214L292.394 544.858C291.369 547.726 290.555 550.626 289.292 553.515C288.953 554.231 288.54 554.952 287.925 555.558C287.305 556.186 286.482 556.565 285.635 556.668C283.931 556.823 282.465 556.222 281.003 555.794C278.105 554.882 275.224 553.768 272.533 552.313C272.502 552.293 272.499 552.256 272.505 552.233C272.526 552.202 272.563 552.199 272.586 552.206C275.31 553.583 278.178 554.609 281.101 555.428C282.546 555.828 284.036 556.337 285.552 556.157C287.105 555.974 288.139 554.624 288.692 553.244C289.856 550.451 290.651 547.484 291.631 544.605L294.492 535.932C294.886 534.509 295.511 532.953 294.881 531.561C294.338 530.12 292.948 529.283 291.527 528.792C288.662 527.804 285.661 527.183 282.757 526.295L265.222 521.144L256.461 518.564L252.08 517.256C250.632 516.819 249.155 516.399 247.655 516.339C246.178 516.286 244.576 516.651 243.507 517.673C242.489 518.782 241.855 520.189 241.219 521.56C240.009 524.341 238.992 527.223 238.126 530.134C237.698 531.596 237.292 533.065 237.052 534.553C236.925 535.302 236.858 536.054 236.865 536.802C236.887 537.541 237.055 538.332 237.622 538.814C238.813 539.708 240.315 540.172 241.698 540.762L245.95 542.415C251.563 544.787 257.463 546.356 263.268 548.193C263.291 548.199 263.316 548.242 263.31 548.265C263.304 548.288 263.261 548.313 263.238 548.307L263.258 548.276Z" fill="#D8B49C"/>
<path d="M257.392 517.738C250.028 515.104 238.067 508.953 237.845 500.016C237.556 492.7 243.219 487.811 250.36 488.355C259.557 488.985 267.973 493.307 276.831 495.02C281.29 496.129 285.617 496.273 290.22 496.663C294.958 497.322 299.318 499.896 302.545 503.279C304.744 505.519 306.455 508.081 308.169 510.582C309.974 513.107 311.443 516.387 310.819 519.582C310.069 524.296 306.242 528.724 301.31 528.968C298.211 528.944 290.932 527.361 287.8 526.913C287.717 526.903 287.739 526.774 287.822 526.784C290.896 527.131 298.267 528.507 301.279 528.446C305.86 528.096 309.407 523.85 310.019 519.465C310.546 516.403 309.139 513.532 307.386 511.13C305.637 508.668 303.908 506.176 301.79 504.043C298.655 500.819 294.553 498.423 290.071 497.809C285.568 497.459 281.001 497.299 276.582 496.225C267.699 494.468 259.409 490.131 250.342 489.426C243.756 488.908 238.507 493.212 238.682 499.996C238.766 506.389 244.601 510.349 249.383 513.586C252.004 515.487 255.058 516.501 257.421 517.721L257.392 517.738Z" fill="#D8B49C"/>
<path d="M253.425 488.919C251.024 488.569 248.586 487.72 246.739 485.99C245.819 485.133 245.108 484.001 244.748 482.743C244.388 481.485 244.38 480.235 244.292 479.014C244.161 476.582 244.523 473.769 246.375 471.697C247.329 470.645 248.545 470.078 249.611 469.52C250.692 468.954 251.858 468.435 253.037 468.005C255.364 467.124 257.966 466.587 260.519 466.733C263.07 466.841 265.471 467.326 267.863 467.661C270.264 468.011 272.616 468.311 275.012 468.452C277.43 468.599 279.896 468.795 282.321 469.053C284.749 469.349 287.162 469.653 289.57 470.018L293.167 470.602C294.239 470.755 295.457 470.727 296.703 470.779C297.969 470.801 299.478 471.144 300.641 471.822C301.811 472.478 302.873 473.35 303.697 474.475C304.512 475.586 305.042 476.939 305.162 478.316C305.247 479.732 305.062 481.016 304.453 482.332C303.158 484.699 301.516 486.399 299.986 488.324C299.211 489.254 298.358 490.248 297.356 491.019C296.386 491.811 295.32 492.503 294.202 493.072C289.749 495.314 284.721 496.192 279.878 495.787C279.84 495.789 279.824 495.76 279.822 495.723C279.819 495.686 279.848 495.669 279.885 495.667C284.726 495.9 289.646 494.834 293.891 492.499C296.013 491.332 297.902 489.759 299.356 487.801C300.826 485.872 302.467 484.037 303.589 481.905C304.542 479.715 304.327 477.004 302.85 475.08C301.412 473.19 299.108 471.84 296.693 471.865C295.485 471.81 294.261 471.861 293.046 471.695L289.451 471.147C287.044 470.82 284.632 470.516 282.221 470.249C277.404 469.655 272.514 469.605 267.725 468.725C265.316 468.36 262.937 467.882 260.513 467.758C258.095 467.612 255.683 468.078 253.389 468.882C252.245 469.272 251.129 469.743 250.031 470.281C248.948 470.81 247.819 471.326 246.996 472.206C245.322 473.983 244.9 476.56 244.969 478.95C245.012 480.16 244.988 481.389 245.275 482.554C245.562 483.719 246.188 484.804 247.025 485.652C248.729 487.368 251.106 488.31 253.459 488.745C253.496 488.743 253.521 488.786 253.501 488.817C253.503 488.855 253.46 488.88 253.428 488.859L253.425 488.919Z" fill="#D8B49C"/>
<path d="M147.831 270.617C148.862 270.966 149.584 272.016 149.643 273.12C149.662 273.687 149.418 274.233 149.138 274.684C148.873 275.126 148.483 275.621 147.973 275.839C147.756 275.964 147.547 276.104 147.347 276.258C147.111 276.452 147.169 276.418 147.212 276.625C147.369 276.998 147.785 277.452 147.935 278.079C148.197 279.335 147.693 280.533 146.819 281.423C146.367 281.877 145.66 282.189 144.995 282.206C144.347 282.252 143.739 282.102 143.435 282.143C143.279 282.174 143.333 282.201 143.333 282.201C143.342 282.216 143.362 282.184 143.357 282.342C143.389 282.632 143.595 283.188 143.647 283.814C143.737 284.437 143.637 285.266 143.25 285.933C142.878 286.591 142.309 287.074 141.707 287.402C140.527 288.064 138.97 288.173 137.689 287.524C136.466 286.841 135.59 285.726 135.284 284.36C135.123 283.682 135.166 282.886 135.484 282.201C135.787 281.524 136.257 281.002 136.765 280.612C137.75 279.812 139.213 279.508 140.33 279.672C140.594 279.694 140.857 279.716 140.969 279.709C141.072 279.688 140.87 279.805 140.92 279.891C140.951 279.912 140.877 279.55 140.851 279.237C140.83 278.902 140.856 278.578 140.927 278.267C141.145 277.042 142.191 276.014 143.248 275.674C143.753 275.479 144.305 275.333 144.848 275.271C144.974 275.256 145.115 275.232 145.181 275.213C145.254 275.172 145.218 275.211 145.254 275.172C145.278 275.08 145.099 274.837 144.945 274.636C144.205 273.79 144.129 272.388 144.862 271.521C145.559 270.656 146.777 270.261 147.802 270.633L147.831 270.617ZM147.786 270.739C146.823 270.408 145.651 270.815 145.055 271.621C144.417 272.453 144.497 273.66 145.217 274.44C145.357 274.649 145.577 274.83 145.612 275.157C145.621 275.307 145.497 275.494 145.35 275.54C145.212 275.601 145.086 275.616 144.945 275.639C144.434 275.722 143.943 275.909 143.462 276.11C142.504 276.489 141.762 277.342 141.622 278.368C141.495 278.884 141.665 279.345 141.722 279.911C141.719 280.24 141.411 280.476 141.121 280.508C140.84 280.555 140.577 280.533 140.322 280.526C139.277 280.454 138.255 280.755 137.465 281.423C136.649 282.049 136.165 283.08 136.435 284.082C136.659 285.071 137.383 285.926 138.272 286.396C139.175 286.858 140.288 286.814 141.195 286.348C142.119 285.911 142.726 284.924 142.574 283.893C142.528 283.379 142.371 282.872 142.36 282.319C142.281 281.748 142.835 281.138 143.424 281.223C143.971 281.235 144.475 281.407 144.991 281.398C145.501 281.412 145.991 281.226 146.375 280.889C147.128 280.222 147.619 279.168 147.461 278.159C147.378 277.648 147.032 277.25 146.843 276.722C146.707 276.454 146.917 276.082 147.165 275.977C147.388 275.829 147.611 275.681 147.851 275.562C148.333 275.361 148.661 274.96 148.949 274.523C149.237 274.087 149.462 273.609 149.454 273.094C149.431 272.085 148.786 271.068 147.807 270.708L147.786 270.739Z" fill="#D8B49C"/>
<path d="M139.809 277.833C139.15 277.962 138.497 277.665 137.961 277.338C137.404 277.042 136.827 276.777 136.238 276.558C135.648 276.339 135.032 276.174 134.433 276.038C133.794 275.867 133.264 275.884 132.45 275.543C131.973 275.318 131.597 274.667 131.733 274.067C131.863 273.491 132.085 273.208 132.233 272.93C132.552 272.379 132.784 271.879 132.999 271.35C133.214 270.821 133.361 270.273 133.485 269.719C133.579 269.414 133.557 269.176 133.834 268.553C134.193 267.806 135.107 267.452 135.804 267.59C136.455 267.715 136.746 267.952 137.056 268.121L137.889 268.662L139.427 269.722C140.443 270.447 141.467 271.051 142.632 271.767C142.921 271.966 143.233 272.172 143.502 272.538C143.756 272.912 143.835 273.348 143.82 273.723C143.769 274.505 143.356 275.091 142.96 275.608C142.173 276.584 141.204 277.644 139.86 277.822L139.809 277.833ZM139.794 277.707C141.054 277.519 141.966 276.491 142.659 275.454C143.003 274.947 143.296 274.354 143.267 273.734C143.28 273.09 142.818 272.624 142.25 272.373C141.116 271.813 139.941 271.315 138.84 270.677C138.29 270.359 137.74 270.04 137.21 269.69C136.674 269.363 136.133 268.962 135.58 268.838C135.314 268.779 135.023 268.909 134.91 269.147C134.782 269.394 134.728 269.734 134.649 270.031C134.492 270.662 134.258 271.259 133.979 271.845C133.7 272.43 133.35 272.96 132.969 273.469C132.79 273.727 132.588 273.979 132.515 274.252C132.441 274.526 132.58 274.832 132.827 274.959C133.947 275.431 135.237 275.728 136.379 276.303C136.957 276.567 137.521 276.878 138.072 277.196C138.608 277.523 139.187 277.825 139.816 277.713L139.794 277.707Z" fill="#D8B49C"/>
<path d="M133.935 270.733C133.778 269.994 132.888 269.755 132.261 269.404C131.576 269.086 130.854 268.77 130.166 268.415C128.788 267.764 127.314 267.149 126.079 266.011C125.469 265.456 124.942 264.777 124.498 264.108C124.06 263.416 123.684 262.9 123.317 262.764C122.9 262.543 122.255 262.529 122.07 262.675C121.865 262.754 121.599 263.197 121.595 263.624C121.47 264.409 122.439 265.586 123.442 266.588C124.343 267.514 125.788 268.281 127.027 269.224C128.293 270.113 129.47 271.15 130.698 272.042C131.307 272.462 132.024 272.8 132.712 272.422C133.344 272.115 133.957 271.472 133.935 270.733ZM134.061 270.718C134.096 271.546 133.471 272.235 132.804 272.581C132.08 272.999 131.186 272.686 130.571 272.289C129.264 271.462 128.022 270.579 126.702 269.797C125.419 268.976 123.955 268.413 122.772 267.399C122.188 266.888 121.632 266.36 121.153 265.73C120.696 265.107 120.314 264.344 120.37 263.54C120.435 262.75 120.827 261.926 121.592 261.581C122.366 261.25 123.222 261.431 123.897 261.832C124.603 262.253 124.934 263.027 125.296 263.686C125.665 264.36 126.07 264.994 126.582 265.547C127.615 266.667 128.977 267.423 130.294 268.167C130.961 268.554 131.625 268.903 132.327 269.25C132.659 269.425 133.006 269.591 133.34 269.803C133.652 270.009 134.014 270.301 134.047 270.726L134.061 270.718Z" fill="#D8B49C"/>
<path d="M110.993 254.412C116.465 249.459 128.052 255.633 124.622 263.053C124.589 263.13 124.483 263.114 124.493 263.031C125.742 257.912 120.435 253.898 115.764 253.625C114.15 253.534 112.509 253.865 111.037 254.522C110.964 254.564 110.912 254.44 110.978 254.421L110.993 254.412Z" fill="#D8B49C"/>
<path d="M106.273 251.95C110.727 247.237 118.436 245.892 124.101 249.525C126.638 251.648 128.759 254.184 129.767 257.401C130.571 260.563 129.456 264.679 127.413 266.418C131.21 260.368 128.574 254.599 123.377 250.541C118.212 246.908 110.768 248.679 106.273 251.95Z" fill="#D8B49C"/>
<path d="M108.67 267.325C109.811 268.634 111.088 269.71 112.409 270.528C113.765 271.307 115.181 271.821 116.716 271.976C119.755 272.362 122.784 271.327 125.277 268.865C125.277 268.865 125.35 268.824 125.375 268.867C125.391 268.896 125.4 268.91 125.379 268.941C124.487 270.402 123.177 271.64 121.62 272.385C120.072 273.144 118.291 273.4 116.567 273.219C114.848 273.016 113.192 272.352 111.806 271.32C110.434 270.28 109.319 268.918 108.546 267.378C108.529 267.349 108.541 267.303 108.579 267.301C108.608 267.284 108.63 267.29 108.647 267.319L108.67 267.325Z" fill="#D8B49C"/>
<path d="M112.842 265.9C113.767 266.234 114.589 266.454 115.398 266.72C116.213 266.962 116.852 267.134 117.625 267.17C118.363 267.245 119.048 267.196 119.773 267.048C120.481 266.871 121.262 266.555 122.085 266.041L122.113 266.025C122.113 266.025 122.18 266.006 122.196 266.035C122.205 266.049 122.221 266.078 122.192 266.095C121.715 266.872 121.028 267.519 120.208 267.935C119.387 268.351 118.445 268.49 117.521 268.425C116.597 268.361 115.711 268.063 114.928 267.608C114.124 267.185 113.388 266.646 112.743 265.996C112.726 265.967 112.71 265.938 112.753 265.913C112.767 265.905 112.796 265.888 112.819 265.894L112.828 265.908L112.842 265.9Z" fill="#D8B49C"/>
<path d="M129.226 262.844C129.97 262.896 130.671 263.109 131.296 263.423C131.95 263.72 132.452 264.222 132.916 264.725C133.353 265.283 133.7 265.815 133.935 266.49C134.19 267.133 134.33 267.843 134.315 268.585L134.323 268.599C134.323 268.599 134.282 268.661 134.245 268.664C134.23 268.672 134.199 268.652 134.191 268.637C133.455 267.596 132.803 266.468 131.946 265.517C131.527 265.025 131.117 264.549 130.628 264.137L129.141 262.931C129.141 262.931 129.108 262.873 129.129 262.842C129.143 262.834 129.158 262.826 129.172 262.817L129.226 262.844Z" fill="#D8B49C"/>
<path d="M112.529 255.068C111.284 254.649 109.998 254.292 108.775 253.745C107.567 253.189 106.389 252.519 105.273 251.755C103.076 250.188 101.17 248.222 99.4973 246.16C96.1479 242.096 92.9492 237.925 89.6783 233.796C86.6098 229.551 83.5452 225.245 80.2543 221.282C78.6316 219.306 76.6646 217.703 74.4562 216.317C72.3118 214.874 69.9327 213.76 67.5024 212.791L67.5329 212.676C70.0616 213.415 72.5025 214.436 74.7894 215.758C77.0823 217.057 79.2212 218.657 80.9785 220.632C84.4993 224.559 87.5266 228.867 90.6963 233.054L100.292 245.566C101.87 247.664 103.642 249.63 105.706 251.235C106.735 252.049 107.84 252.761 108.993 253.387C110.152 253.991 111.391 254.433 112.582 254.96L112.537 255.083L112.529 255.068Z" fill="#D8B49C"/>
<path d="M68.3836 219.996C71.3648 220.917 74.1603 222.485 76.6159 224.5C77.816 225.543 78.9108 226.705 79.9128 227.939L81.3607 229.746L82.8748 231.533C86.9256 236.311 90.1669 241.691 94.1524 246.256C98.0846 250.929 102.548 255.218 107.664 258.436C110.211 259.974 113.06 261.434 115.921 261.345C117.317 261.291 118.723 260.653 119.76 259.61C120.775 258.562 121.313 257.055 121.213 255.512C121.196 255.483 121.231 255.444 121.269 255.441C121.297 255.425 121.337 255.46 121.339 255.497C121.582 257.054 121.128 258.705 120.091 259.882C119.054 261.059 117.582 261.851 116.013 262.005C114.443 262.159 112.879 261.789 111.427 261.278C109.958 260.737 108.563 260.058 107.215 259.293C101.839 256.129 97.297 251.769 93.2363 247.074C89.2022 242.325 86.0149 236.972 82.1399 232.131C80.1632 229.743 78.5209 227.065 76.2121 225.004C73.9384 222.903 71.2586 221.268 68.3759 220.116C68.3447 220.096 68.3425 220.058 68.3341 220.044C68.3547 220.013 68.392 220.01 68.4064 220.002L68.3836 219.996Z" fill="#D8B49C"/>
<path d="M120.889 258.593C120.04 260.529 118.73 262.269 117.167 263.77C115.555 265.221 113.633 266.369 111.521 267.087C109.409 267.805 107.146 267.993 104.905 267.686C102.664 267.379 100.505 266.446 98.6809 265.223C96.8687 263.955 95.3186 262.44 93.8285 260.928C92.359 259.385 90.9207 257.862 89.5814 256.244C88.2192 254.619 86.915 252.962 85.683 251.262C84.5006 249.515 83.3181 247.767 82.3093 245.92C82.2926 245.891 82.2903 245.853 82.3193 245.837C82.3482 245.82 82.3938 245.832 82.4022 245.847C84.8143 249.256 87.4351 252.526 90.2912 255.603C93.1595 258.633 95.9394 261.811 99.3684 264.209C101.07 265.387 103.009 266.273 105.07 266.569C107.118 266.91 109.247 266.722 111.242 266.168C115.274 265.036 118.678 262.145 120.767 258.547C120.787 258.516 120.825 258.514 120.847 258.52C120.864 258.549 120.881 258.578 120.875 258.601L120.889 258.593Z" fill="#D8B49C"/>
<path d="M117.831 247.783C117.111 246.27 116.127 244.832 114.843 244.011C113.53 243.207 111.897 242.55 110.379 241.825C107.323 240.407 104.308 238.792 101.303 237.094C99.8856 236.177 98.379 235.137 97.1466 233.804C96.5532 233.144 95.9872 232.564 95.4038 231.821C94.8226 231.115 94.3544 230.17 94.1142 229.287C93.9984 228.852 93.897 228.409 93.8067 228.153C93.702 227.905 93.7082 227.882 93.4716 227.806C92.9925 227.678 92.1796 227.974 91.4352 228.288C90.6863 228.527 90.2035 228.96 89.9645 229.716C89.746 230.44 89.7602 231.299 89.8923 232.129C89.8923 232.129 89.874 232.198 89.8367 232.2C89.8078 232.217 89.7683 232.182 89.7744 232.159C89.5159 231.344 89.396 230.468 89.5621 229.62C89.697 228.751 90.3484 228.009 91.1446 227.684C91.9012 227.324 92.6907 226.888 93.5944 226.983C94.0462 227.031 94.462 227.35 94.6212 227.76C94.8094 228.153 94.8941 228.567 95.0451 228.962C95.5392 230.586 96.8082 231.782 97.9593 233.007C99.1249 234.224 100.542 235.142 101.979 236.028C104.875 237.77 107.845 239.373 110.843 240.959C112.322 241.783 113.869 242.491 115.267 243.477C116.598 244.58 117.469 246.121 117.963 247.745C117.98 247.774 117.959 247.805 117.93 247.822C117.901 247.839 117.87 247.818 117.853 247.789L117.831 247.783Z" fill="#D8B49C"/>
<path d="M65.1146 228.364C65.97 226.906 66.6884 225.411 67.1331 223.843C67.6317 222.301 67.8877 220.707 67.8455 219.131C67.7888 217.563 67.589 215.981 67.0666 214.508C66.5587 213.027 65.7942 211.636 64.8523 210.406C63.9538 209.15 62.8345 208.08 61.5216 207.276C60.217 206.486 58.7173 206.059 57.1915 205.822C55.6534 205.63 54.0526 205.763 52.5008 206.216C50.9217 206.587 49.4001 207.292 47.9536 208.127L47.8952 208.026C50.5254 205.968 53.8736 204.652 57.2679 204.852C58.9507 204.96 60.6185 205.444 62.1055 206.283C63.5782 207.13 64.845 208.288 65.862 209.649C67.8733 212.364 68.9906 215.769 68.8192 219.147C68.6935 222.537 67.295 225.794 65.2081 228.426L65.1063 228.35L65.1146 228.364Z" fill="#D8B49C"/>
<path d="M44.5522 211.422C43.8431 212.699 43.217 213.987 42.9103 215.359C42.5268 216.7 42.3258 218.088 42.3401 219.449C42.3399 222.188 42.959 224.897 44.3987 227.191C45.0439 228.342 45.8946 229.548 46.7691 230.528C47.6602 231.537 48.7366 232.266 49.9159 232.838C51.1097 233.403 52.453 233.592 53.8931 233.647C55.3087 233.794 56.7254 233.709 58.1893 233.539L58.2188 233.657C56.8139 234.063 55.3606 234.285 53.9105 234.312C52.4543 234.362 50.9603 234.28 49.574 233.749C46.7375 232.745 44.8309 230.278 43.3077 227.84C41.8379 225.294 41.1514 222.334 41.3497 219.404C41.5335 216.482 42.5959 213.612 44.4359 211.354L44.5377 211.43L44.5522 211.422Z" fill="#D8B49C"/>
<path d="M61.7383 224.72C62.2769 222.847 62.5256 221.006 62.4577 219.252C62.3297 217.494 61.8523 215.899 60.823 214.583C59.8516 213.235 58.4696 212.278 56.8375 211.889C55.1992 211.524 53.358 211.642 51.5715 212.422L51.513 212.321C53.0534 211.181 55.0504 210.665 56.974 210.923C58.9039 211.159 60.6698 212.28 61.8266 213.85C63.0123 215.402 63.5349 217.376 63.4481 219.297C63.3697 221.233 62.7711 223.102 61.8546 224.788L61.7466 224.735L61.7383 224.72Z" fill="#D8B49C"/>
<path d="M47.907 215.83C47.4 217.357 47.278 218.816 47.4643 220.174C47.6879 221.53 48.2136 222.808 48.9318 224.052C49.262 224.691 49.6834 225.354 50.0592 226.005C50.435 226.656 50.8147 227.247 51.2211 227.783C52.0316 228.82 53.2115 229.527 54.8473 229.354L54.9058 229.455C54.153 229.755 53.3351 229.842 52.5616 229.671C51.7797 229.486 51.0879 229.056 50.5302 228.491C49.4147 227.361 48.6297 226.001 47.8241 224.672C47.0619 223.319 46.5061 221.788 46.4639 220.212C46.4216 218.635 46.9035 217.065 47.7762 215.77L47.878 215.847L47.907 215.83Z" fill="#D8B49C"/>
<path d="M60.5912 222.567C62.5309 225.96 65.334 228.777 68.7066 230.61C70.4119 231.593 72.0259 232.551 73.8456 233.198C75.6843 233.91 77.4925 234.737 79.2717 235.581C81.047 236.484 82.6303 237.055 84.5122 237.242C84.9641 237.289 85.7415 237.4 86.3359 237.828C86.8908 238.221 87.301 238.698 87.6017 239.219C88.2029 240.26 88.5149 241.469 88.3278 242.715C88.1552 243.952 87.3899 245.166 86.2845 245.823C85.1935 246.472 83.9699 246.658 82.8281 246.584C82.2416 246.537 81.659 246.43 81.059 246.159C80.4446 245.897 79.9248 245.464 79.5502 245.083C78.8154 244.311 78.241 243.717 77.528 243.183C76.2329 242.176 74.3263 241.58 72.5332 240.879C70.6968 240.204 68.8686 239.543 67.045 238.956C66.1362 238.652 65.1863 238.409 64.1963 237.997C63.2435 237.583 62.3965 237.185 61.4704 236.717C59.6806 235.821 57.9124 234.663 56.4802 233.118C55.0419 231.595 54.0141 229.681 53.5265 227.668C53.0246 225.662 53.0255 223.56 53.3999 221.569C53.8016 219.659 54.4075 217.535 55.9155 216.105C57.3613 214.634 59.328 213.865 61.285 213.68C61.3139 213.663 61.3534 213.698 61.3557 213.736C61.3724 213.765 61.3373 213.804 61.3 213.806C59.3848 214.064 57.5055 214.917 56.2005 216.365C54.8416 217.786 54.347 219.769 54.0427 221.68C53.3884 225.491 54.3663 229.69 57.1589 232.456C58.522 233.848 60.1861 234.893 61.9364 235.753C62.8001 236.18 63.7073 236.582 64.606 236.97C65.4965 237.343 66.4608 237.577 67.3841 237.873C69.245 238.458 71.1021 239.102 72.9446 239.755C74.7522 240.447 76.6854 240.989 78.2984 242.179C79.0965 242.76 79.7772 243.505 80.433 244.206C81.0826 244.931 81.9958 245.31 82.9573 245.372C83.9044 245.442 84.8982 245.293 85.7143 244.802C86.5388 244.326 87.1006 243.462 87.231 242.519C87.3843 241.582 87.1603 240.592 86.6843 239.768C86.2144 238.921 85.4079 238.325 84.4113 238.303C82.4403 238.129 80.5621 237.382 78.8591 236.436C75.4469 234.568 71.6361 233.413 68.388 231.161C65.0331 229.125 62.2933 226.116 60.5188 222.608C60.5021 222.579 60.5143 222.534 60.5433 222.517C60.5722 222.5 60.6178 222.513 60.6345 222.542L60.5912 222.567Z" fill="#D8B49C"/>
<path d="M38.9786 203.338C38.7051 204.268 39.2891 205.146 39.8558 205.86C40.4536 206.595 41.101 207.282 41.7422 207.991C43.0742 209.363 44.4085 210.772 45.6209 212.271L47.3961 214.544C47.965 215.296 48.5835 215.999 49.1278 216.341C49.6348 216.684 50.4016 216.743 51.1405 216.587C51.5027 216.512 51.8232 216.366 52.0234 216.212C52.2443 216.026 52.2192 215.983 52.2209 215.886C52.292 215.575 51.8404 214.659 51.3483 213.94C50.8539 213.184 50.285 212.432 49.7222 211.658C49.1594 210.884 48.6734 210.142 48.0466 209.424C47.397 208.7 46.8047 207.807 46.337 206.997C45.321 205.405 44.3706 203.658 43.3012 202.173C42.7223 201.505 41.7206 201.273 40.8493 201.468C39.9635 201.67 39.2459 202.432 38.939 203.303L38.9786 203.338ZM38.8645 203.308C39.1608 202.385 39.8594 201.557 40.832 201.304C41.7673 201.053 42.858 201.272 43.5448 201.994C44.7572 203.493 45.7961 205.092 46.9278 206.618C47.9522 208.225 49.4616 209.436 50.5956 211C51.1874 211.757 51.7852 212.492 52.3335 213.275C52.8446 214.06 53.4698 214.875 53.4951 215.921C53.4892 216.446 53.1516 216.93 52.726 217.195C52.3087 217.474 51.8392 217.63 51.3506 217.719C50.4025 217.881 49.3497 217.794 48.5143 217.216C47.7017 216.643 47.18 215.807 46.6317 215.024L45.0301 212.651C43.9334 211.085 42.7521 209.607 41.4902 208.156C40.8779 207.43 40.2367 206.72 39.6594 205.954C39.1133 205.208 38.5103 204.264 38.825 203.273L38.8645 203.308Z" fill="#D8B49C"/>
<path d="M39.0034 204.751C38.3091 205.152 37.485 205.261 36.6887 205.085C35.8946 204.945 35.1655 204.518 34.5811 204.006C34.0484 203.485 33.563 202.878 33.2801 202.154C32.9766 201.461 32.884 200.666 33.0318 199.886L33.133 199.828C33.6214 201.108 34.4136 202.213 35.4244 203.095C36.3773 204.011 37.6684 204.577 38.9967 204.639L38.9889 204.759L39.0034 204.751Z" fill="#D8B49C"/>
<path d="M37.3489 195.137C39.0192 194.79 40.6837 195.469 41.8638 196.677C42.4009 197.274 42.9158 197.999 43.1065 198.93C43.3093 199.816 43.0959 200.749 42.5831 201.431L42.4545 201.409C42.5467 200.7 42.4647 199.956 42.1862 199.307C41.9223 198.649 41.4391 198.08 40.9437 197.556C39.9673 196.499 38.665 195.747 37.2977 195.283L37.3427 195.16L37.3489 195.137Z" fill="#D8B49C"/>
<path d="M34.8632 190.131C34.5946 188.897 35.4795 187.557 36.7108 187.251C37.9376 186.871 39.3194 187.326 40.1856 188.292C41.0205 189.237 41.425 190.74 40.7821 191.998C40.4824 192.614 39.9401 193.178 39.2056 193.409C38.469 193.603 37.6771 193.501 37.7834 193.652C37.7494 193.459 37.9095 194.505 37.7261 195.189C37.5571 195.866 37.2886 196.503 36.7941 197.116C36.3224 197.736 35.4211 198.179 34.6215 198.197C33.8531 198.236 33.1085 198.048 32.7708 198.031C32.7335 198.033 32.7129 198.065 32.872 197.973C33.0167 197.889 33.1257 197.71 33.1334 197.59C33.1306 197.418 33.1797 197.737 33.3155 198.006C33.4308 198.306 33.5734 198.686 33.6169 199.163C33.6605 199.639 33.5366 200.193 33.3002 200.618C32.7468 201.497 32.0692 201.927 31.1629 202.161C30.72 202.262 30.2331 202.254 29.8703 202.194C29.5364 202.116 29.0845 202.069 29.3249 202.084C29.5113 202.073 29.8479 201.821 29.8946 201.601C29.9557 201.373 29.9039 201.383 29.9312 201.464C29.9485 201.628 30.095 201.948 30.1347 202.485C30.1587 202.76 30.1293 203.143 29.928 203.53C29.7267 203.916 29.3818 204.154 29.1047 204.275C28.5278 204.512 28.0782 204.501 27.6719 204.466C26.8884 204.378 26.0915 204.067 25.4843 203.549C24.8854 203.047 24.4228 202.446 24.1332 201.61C24.0112 201.198 23.903 200.644 24.2317 200.01C24.5976 199.375 25.1396 199.178 25.5224 199.072C25.9135 198.981 26.3297 198.934 26.7671 198.99C27.1672 199.048 27.6363 199.26 27.7359 199.299C27.7755 199.334 27.5884 199.21 27.258 199.44C27.1301 199.552 27.05 199.714 27.0339 199.82C27.0178 199.925 27.0345 199.954 27.0428 199.969C27.0428 199.969 27.0027 199.799 26.9648 199.667C26.8724 199.373 26.7716 199.065 26.6997 198.74C26.6278 198.415 26.5665 198.142 26.5091 197.808C26.4918 197.645 26.4411 197.423 26.4855 197.166C26.5177 196.955 26.5727 196.749 26.6589 196.565C27.0037 195.826 27.5984 195.386 28.2309 195.078C28.8657 194.808 29.5818 194.646 30.3225 194.893C30.667 195.022 30.9726 195.251 31.1952 195.469L31.3533 195.609C31.3533 195.609 31.3928 195.644 31.3616 195.624C31.3472 195.632 31.2765 195.577 31.138 195.637C31.0222 195.704 30.9917 195.818 30.9939 195.855C31.0128 195.922 30.9454 195.671 30.9014 195.562C30.6937 194.968 30.6017 194.308 30.6755 193.667C30.8125 192.334 31.8894 191.327 33.079 190.949C33.681 190.755 34.3565 190.79 34.923 191.003C35.8925 191.446 34.963 190.671 34.9211 190.097L34.8632 190.131ZM34.9812 190.101C35.0508 190.389 35.1928 190.635 35.3576 190.887C35.3994 190.959 35.4327 191.017 35.4684 191.112C35.5063 191.244 35.3327 191.345 35.2559 191.312C35.0901 191.292 34.9593 191.232 34.7996 191.19C34.2414 190.991 33.6199 190.984 33.0696 191.166C31.9774 191.546 30.9956 192.518 30.8953 193.714C30.8482 194.3 30.973 194.884 31.1869 195.455C31.2331 195.602 31.3144 195.709 31.3194 195.918C31.3467 195.999 31.1648 196.085 31.1314 196.027C31.0774 196 31.0463 195.979 31.0151 195.959L30.8342 195.813C30.6054 195.617 30.3645 195.467 30.0968 195.37C28.9871 195.085 27.6831 195.8 27.2132 196.823C26.9608 197.355 27.2431 197.944 27.3824 198.519C27.4665 198.798 27.5734 199.084 27.6803 199.369C27.7266 199.516 27.8017 199.646 27.8274 199.824C27.8463 199.891 27.8553 200.04 27.7334 200.129C27.6261 200.211 27.4975 200.188 27.4291 200.17C26.8458 199.928 26.286 199.827 25.7213 200.018C25.442 200.102 25.1816 200.253 25.0749 200.469C24.962 200.707 24.9799 201.006 25.0701 201.262C25.4644 202.346 26.5186 203.203 27.6833 203.283C28.2347 203.369 28.9486 203.169 28.8527 202.569C28.8286 202.294 28.7072 202.017 28.6437 201.706C28.6119 201.551 28.5718 201.381 28.6352 201.19C28.6841 201.008 28.8844 200.853 29.0624 200.828C29.7441 200.839 30.2694 201.115 30.8509 200.952C31.3973 200.83 31.9386 200.498 32.2244 200.024C32.5164 199.528 32.4205 198.928 32.2005 198.38C32.1164 198.1 31.9577 197.825 31.981 197.465C32.002 197.067 32.461 196.86 32.7637 196.917C33.3959 196.976 33.954 197.174 34.5444 197.161C35.1203 197.157 35.6828 196.928 36.0744 196.471C36.4599 196.036 36.7413 195.488 36.9025 194.932C36.9758 194.658 37.018 194.364 37.0146 194.057C37.0134 193.788 36.9598 193.395 37.2363 193.139C37.4755 192.885 37.8628 192.854 38.1404 192.867C38.447 192.864 38.7392 192.869 39.0124 192.807C39.5649 192.662 40.0416 192.252 40.3252 191.741C40.9297 190.717 40.675 189.34 39.9252 188.442C39.1754 187.545 37.8826 187.076 36.7426 187.406C35.5836 187.67 34.7293 188.896 34.9561 190.058L34.9812 190.101Z" fill="#D8B49C"/>
<path d="M-28.2727 136.997C-25.7773 134.437 -22.2271 132.87 -18.5653 132.665C-16.7385 132.555 -14.871 132.75 -13.0763 133.353C-11.3044 133.95 -9.53013 135.086 -8.51739 136.873C-7.96457 137.731 -7.71774 138.726 -7.5249 139.695C-7.40663 140.668 -7.39408 141.625 -7.4728 142.558C-7.63023 144.423 -8.04699 146.206 -8.52608 147.949C-9.48427 151.434 -10.7063 154.762 -11.9199 158.105C-12.5921 159.747 -13.1191 161.439 -13.961 163.121C-14.7762 164.749 -15.6933 166.301 -16.6499 167.817C-18.6148 170.861 -20.6282 173.721 -23.0584 176.493C-23.712 177.198 -24.6143 177.874 -25.6386 178.137C-26.7041 178.463 -27.6952 178.283 -28.4636 178.322C-29.2549 178.354 -30.1284 178.512 -30.815 178.792C-31.1355 178.939 -31.7246 179.221 -32.1842 179.293C-32.6728 179.383 -33.1635 179.435 -33.6443 179.403C-35.5963 179.296 -37.3216 178.479 -38.7726 177.369C-40.2197 176.199 -41.2068 174.589 -41.6764 172.874C-41.6931 172.845 -41.6725 172.814 -41.6436 172.797C-41.6147 172.781 -41.5835 172.801 -41.5668 172.83C-41.0248 174.504 -39.9615 176.011 -38.5523 177.049C-37.1225 178.056 -35.4123 178.746 -33.6534 178.753C-32.7709 178.745 -31.9057 178.573 -31.1391 178.131C-30.3162 177.752 -29.4282 177.586 -28.5418 177.518C-27.6554 177.45 -26.7578 177.568 -25.9221 177.279C-25.0842 177.026 -24.376 176.483 -23.7948 175.819C-21.5716 173.089 -19.5087 170.182 -17.645 167.196C-16.7173 165.696 -15.8292 164.161 -15.049 162.573C-14.2605 160.999 -13.7419 159.292 -13.0925 157.644C-11.8621 154.33 -10.5945 151.014 -9.63183 147.604C-9.14215 145.913 -8.72927 144.19 -8.56513 142.436C-8.39263 140.697 -8.50228 138.87 -9.37304 137.329C-10.2065 135.785 -11.7299 134.717 -13.3754 134.104C-15.0271 133.515 -16.8078 133.27 -18.5706 133.324C-22.1007 133.356 -25.598 134.681 -28.1997 137.089C-28.2287 137.106 -28.2576 137.123 -28.2827 137.079C-28.2994 137.051 -28.3161 137.022 -28.2727 136.997Z" fill="#D8B49C"/>
<path d="M-10.581 152.607C-8.82421 151.207 -6.91546 149.97 -4.90426 148.944C-2.87635 147.947 -0.800575 146.999 1.57421 146.67C3.97628 146.421 6.3581 147.206 8.38665 148.214C10.4898 149.217 12.4372 150.62 13.9969 152.419C15.5628 154.196 16.7119 156.387 17.2775 158.703C17.5789 159.859 17.754 161.031 17.8111 162.232C17.8766 163.448 17.7123 164.7 17.4295 165.847C16.8409 168.135 16.0236 170.227 15.2147 172.333L12.7483 178.617C11.8626 180.691 10.9996 182.771 9.83622 184.831C8.60272 186.97 6.91946 188.598 5.10093 190.091C4.17191 190.821 3.18667 191.486 2.08898 192.023C1.03469 192.535 -0.061359 192.975 -1.23257 193.285C-3.54382 193.925 -6.08175 193.905 -8.39736 193.102C-9.55934 192.692 -10.575 192.102 -11.5534 191.51C-12.509 190.924 -13.5019 190.34 -14.4269 189.64C-16.3182 188.301 -17.9419 186.558 -19.3129 184.785C-20.7068 183.005 -21.9512 180.85 -22.0777 178.493C-22.2476 176.161 -21.4643 173.876 -20.1984 172.027C-20.1695 172.01 -20.1406 171.993 -20.1094 172.014C-20.0927 172.043 -20.076 172.072 -20.0966 172.103C-21.2856 173.985 -21.951 176.24 -21.6904 178.462C-21.4732 180.709 -20.2401 182.678 -18.7989 184.372C-16.0773 187.95 -12.1775 190.462 -8.0866 192.17C-3.78988 193.566 0.969959 191.956 4.3884 189.191C6.09121 187.765 7.70826 186.156 8.78936 184.22C9.86211 182.27 10.725 180.191 11.5735 178.119L14.0877 171.885C14.8906 169.801 15.7307 167.715 16.297 165.556C16.9006 163.395 16.7268 161.123 16.2075 158.954C15.6882 156.785 14.6682 154.751 13.2331 153.034C11.8125 151.308 10.002 149.943 8.01073 148.932C6.04004 147.891 3.86357 147.161 1.6206 147.318C-0.603417 147.541 -2.71484 148.394 -4.7411 149.294C-6.76514 150.231 -8.70118 151.387 -10.5081 152.7C-10.537 152.717 -10.5743 152.719 -10.591 152.69C-10.6077 152.661 -10.6099 152.624 -10.581 152.607Z" fill="#D8B49C"/>
<path d="M17.427 162.936C17.7977 161.507 18.6552 160.087 20.075 159.305C21.4636 158.504 23.2097 158.421 24.7239 158.839C26.2548 159.286 27.649 160.198 28.6905 161.467C29.2155 162.109 29.623 162.915 29.7802 163.789C29.9374 164.662 29.8481 165.543 29.657 166.348C29.2518 167.951 28.4872 169.299 27.7492 170.593L25.5391 174.415C24.1127 176.955 22.871 179.581 21.6337 182.282C20.3487 184.933 19.0057 187.618 17.5526 190.212C16.8229 191.52 16.085 192.814 15.3219 194.065C14.619 195.319 13.693 196.722 12.4919 197.782C11.3076 198.871 9.8422 199.64 8.35053 200.096C7.59329 200.321 6.77983 200.482 5.91566 200.421C5.05984 200.376 4.13213 200.005 3.53875 199.344C2.36646 198.015 2.19732 196.319 2.25694 194.819C2.35159 193.28 2.80296 191.823 3.45579 190.482C3.47636 190.451 3.51365 190.449 3.52811 190.44C3.55928 190.461 3.56152 190.498 3.56987 190.513C3.03112 191.884 2.6916 193.334 2.66703 194.795C2.67139 196.239 2.95176 197.793 3.97984 198.839C5.03298 199.928 6.73508 199.736 8.06928 199.274C9.45522 198.802 10.757 198.051 11.8028 197.022C12.8798 196.015 13.6345 194.75 14.358 193.464C15.1043 192.185 15.8278 190.899 16.5285 189.608C17.936 187.001 19.2211 184.35 20.475 181.678C21.7373 179.021 23.0285 176.347 24.5212 173.788C25.9454 171.21 27.7992 168.809 28.7026 166.031C29.15 164.635 28.9359 163.061 28.0213 161.911C27.144 160.759 25.8783 159.87 24.4965 159.414C23.1292 158.95 21.5422 158.94 20.2504 159.609C18.9274 160.257 18.0091 161.54 17.5449 162.907C17.5243 162.938 17.4954 162.955 17.4726 162.949C17.4498 162.943 17.4247 162.899 17.4308 162.876L17.427 162.936Z" fill="#D8B49C"/>
<path d="M28.8082 168.419C29.8516 168.723 30.821 169.166 31.8278 169.607C32.7934 170.11 33.7178 170.676 34.6216 171.273C36.4316 172.504 38.0129 174.04 39.4724 175.666C40.1454 176.531 40.7918 177.45 41.3246 178.473C41.588 178.996 41.8308 179.55 41.9806 180.177C42.145 180.796 42.1547 181.581 41.8945 182.233C40.8152 184.573 39.1986 185.814 37.5186 187.247C37.4897 187.264 37.4607 187.281 37.4212 187.246C37.4045 187.217 37.3878 187.188 37.4084 187.157C38.0781 186.346 38.7622 185.526 39.3779 184.689C39.9853 183.837 40.6361 182.959 40.9362 181.976C41.228 180.978 40.7903 179.92 40.2954 179.029C39.7692 178.118 39.1419 177.265 38.465 176.46C35.7925 173.201 32.4079 170.545 28.7091 168.515C28.678 168.494 28.6757 168.457 28.6818 168.434C28.7108 168.417 28.7252 168.409 28.7542 168.392L28.8082 168.419Z" fill="#D8B49C"/>
<path d="M14.7571 194.256C15.4118 195.189 16.0948 195.972 16.765 196.665C17.4641 197.341 18.1937 197.903 18.9913 198.349C19.7827 198.818 20.6397 199.133 21.5896 199.376C22.5312 199.604 23.5534 199.804 24.6892 199.901C24.6892 199.901 24.7576 199.919 24.7598 199.956C24.7682 199.971 24.7476 200.002 24.7103 200.004C22.6456 200.637 20.2874 200.494 18.3601 199.427C16.4389 198.338 15.0878 196.399 14.6163 194.279C14.5996 194.25 14.6347 194.211 14.672 194.209C14.6864 194.2 14.7176 194.221 14.7404 194.227L14.7488 194.241L14.7571 194.256Z" fill="#D8B49C"/>
</g>
</svg>
