<?xml version="1.0" encoding="UTF-8"?>
<svg id="Layer_4" data-name="Layer 4" xmlns="http://www.w3.org/2000/svg" viewBox="0 0 1188.31 543.04">
  <defs>
    <style>
      .cls-1 {
        fill: #d8b49c;
      }

      .cls-2 {
        opacity: .7;
      }
    </style>
  </defs>
  <g class="cls-2">
    <path class="cls-1" d="m509.67,133.78c-.08-6.54-2.12-13.16-5.91-18.8-3.83-5.65-9.9-9.67-16.32-11.88-6.38-2.4-14.19-2.48-20.68,1.08-3.21,1.78-5.88,4.45-7.89,7.27-2.05,2.86-3.59,5.69-5.22,8.59-3.17,5.96-5.22,13-4.8,19.97.39,6.81,2.17,13.81,6.46,19.42,4.21,5.65,10.79,9.29,17.59,10.1,6.8.66,13.57-1.04,19.18-4.41.08-.04.08-.12.04-.19,0-.08-.12-.08-.19-.04-5.76,2.82-12.41,4.18-18.79,3.17-6.34-1.01-12.3-4.57-16-9.87-7.23-10.76-7.54-25.58-.97-36.76,3.09-5.61,6.11-11.72,11.83-14.94,5.64-3.21,12.6-3.21,18.67-1.2,6.15,1.9,11.91,5.46,15.77,10.68,3.9,5.15,6.19,11.45,6.84,17.88,0,.08.08.15.15.12.08,0,.12-.08.12-.15l.12-.04Z"/>
    <path class="cls-1" d="m465.71,106.31c4.33-8.09,6.73-17.53,5.95-26.93-.39-4.57-.85-9.48-3.64-13.93-1.39-2.17-3.67-4.1-6.34-4.8-2.67-.77-5.38-.54-7.81.04-2.43.62-4.76,1.59-6.84,2.71-2.2,1.12-4.21,2.63-6.03,4.33-3.64,3.44-6.15,7.7-8.27,11.88-4.17,8.44-7.35,16.99-10.86,25.46-3.29,8.55-6.69,17.1-9.55,25.96-1.39,4.45-2.71,8.98-3.28,13.77-.66,4.76-.08,10.06,1.78,14.51,1.66,4.45,4.72,9.29,9.82,11.14,5.06,1.78,10.32.66,14.54-1.97,4.21-2.86,6.53-7.08,9.01-10.87,2.51-3.91,4.64-8.01,6.3-12.3,0-.08,0-.15-.08-.19-.08,0-.16,0-.19.08-1.86,4.18-4.14,8.16-6.8,11.92-2.63,3.71-5.18,7.7-9.09,10.1-3.87,2.28-8.82,3.17-13.03,1.51-4.29-1.66-6.92-5.88-8.39-10.14-1.62-4.26-2.01-8.9-1.39-13.43.62-4.53,1.89-8.94,3.32-13.27,2.9-8.67,6.38-17.18,9.74-25.69,3.44-8.47,6.57-17.14,10.56-25.38,2.01-4.1,4.33-8.09,7.62-11.26,3.25-3.13,7.38-5.38,11.71-6.69,2.17-.58,4.49-.81,6.69-.23,2.2.54,4.06,2.01,5.34,3.87,2.51,3.79,3.17,8.51,3.67,13,1.16,9.09-.73,18.42-4.68,26.62,0,.08,0,.15.08.19.08,0,.16,0,.2-.08l-.04.08Z"/>
    <path class="cls-1" d="m430.65,87.08c1.82-8.24,1.05-17.49-3.79-25.07-2.44-3.75-6.03-6.81-10.24-8.59-4.21-1.82-8.78-2.4-13.3-2.05-4.56.35-9.05,1.93-12.84,4.41-3.83,2.55-7.04,5.34-10.01,8.86-2.86,3.44-5.14,7.74-6.15,12.15-1.05,4.33-1.78,8.28-2.9,12.27-.54,1.97-1.08,3.99-1.78,5.84-.66,1.66-1.7,4.02-2.24,6.15-1.12,4.14-2.28,8.24-2.9,12.69-.66,4.37-.62,9.09.62,13.5,1.16,4.45,3.4,8.47,6.27,11.92,2.86,3.44,6.34,6.38,10.32,8.44,3.94,2.09,8.7,3.06,13.07,2.55,2.2-.19,4.33-.62,6.38-1.08,2.09-.35,4.41-1.2,6.11-2.63,3.68-2.82,5.06-7.35,5.3-11.53,0-.08-.04-.15-.12-.15s-.15.04-.15.12c-.43,4.14-2.05,8.4-5.53,10.83-1.7,1.24-3.71,1.9-5.8,2.17-2.09.35-4.17.66-6.26.77-8.54.74-16.47-4.33-21.57-10.87-2.59-3.33-4.56-7.12-5.6-11.18-1.08-4.06-1.08-8.36-.43-12.5.62-4.14,1.82-8.24,2.94-12.3.54-2.05,1.43-3.91,2.24-5.92.77-2.01,1.35-4.02,1.94-6.08,1.16-4.1,1.86-8.28,2.82-12.38.93-4.1,2.9-7.89,5.53-11.18,5.41-6.27,12.53-11.88,21.03-12.69,4.17-.43,8.47,0,12.37,1.59,3.9,1.55,7.31,4.29,9.7,7.74,4.91,6.89,6.15,15.9,4.76,24.14,0,.08.04.15.12.15s.16-.04.16-.12l-.04.04Z"/>
    <path class="cls-1" d="m376.79,72.8c.46-5.61,0-11.34-1.47-16.83-1.62-5.42-3.4-10.87-6.92-15.67-3.52-4.76-8.97-8.09-14.77-9.36-5.84-1.28-11.83-.85-17.51.54-5.8,1.35-11.25,4.64-15.31,8.86-4.14,4.18-7.46,8.86-10.71,13.47l-4.79,6.93c-1.59,2.32-3.25,4.91-4.37,7.78-2.36,5.57-2.86,11.96-2.24,17.68.62,5.8,1.7,11.22,2.36,16.72.7,5.49,1.12,10.99,1.12,16.48.04,2.75-.19,5.46.12,8.67.35,3.37,2.05,6.31,3.71,8.67,3.4,4.95,8.04,8.86,13.26,11.65,5.18,2.71,11.17,4.72,17.47,3.21.77-.23,1.51-.54,2.28-.85.73-.35,1.66-1.08,2.09-1.63.93-1.08,1.82-1.97,2.86-2.86,2.01-1.82,4.21-3.52,6.42-5.18,2.17-1.7,4.56-3.17,6.77-5.18,2.12-2.05,3.86-4.37,5.26-6.89,2.86-4.99,4.02-10.87,3.44-16.48,0-.08-.08-.15-.15-.12-.08,0-.16.08-.12.15.35,5.57-.97,11.22-3.94,15.98-1.43,2.36-3.21,4.6-5.3,6.42-2.09,1.82-4.56,3.21-6.84,4.84-2.28,1.63-4.53,3.29-6.69,5.15-2.24,1.74-3.67,4.41-6.57,4.84-5.45,1.2-11.13-.7-15.93-3.37-4.83-2.75-9.12-6.5-12.29-11.1-1.59-2.28-2.98-4.76-3.21-7.55-.27-2.75,0-5.57,0-8.36.19-11.26-1.86-22.4-3.21-33.47-.62-5.53-.15-11.22,1.93-16.41,2.09-5.15,5.76-9.52,8.78-14.2,3.21-4.57,6.42-9.21,10.32-13.19,3.87-3.99,8.74-7.08,14.15-8.47,5.37-1.43,11.06-1.93,16.55-.85,5.45,1.08,10.52,4.06,13.96,8.47,6.42,9.05,9.82,20.39,9.28,31.53,0,.08.08.15.15.15s.16-.08.16-.15h-.08Z"/>
    <path class="cls-1" d="m304.5,64.6c1.62-4.6,2.28-9.71,1.08-14.63-1.31-4.99-3.98-9.09-6.19-13.47-.58-1.08-1.24-2.17-1.97-3.21-.73-1.12-1.74-2.09-2.71-2.94-1.97-1.74-4.25-3.1-6.65-4.06-2.47-1.01-4.99-1.51-7.62-1.74-2.71-.19-5.53.19-8.12,1.47-2.63,1.35-4.45,3.21-6.22,4.95-1.78,1.78-3.4,3.71-4.95,5.69-3.09,3.95-5.68,8.44-7.69,13-2.01,4.6-3.67,9.44-4.25,14.7-.39,4.99-1.04,9.4-2.17,14.08-.5,2.32-1.12,4.45-1.89,6.89-.77,2.59-1.04,5.3-1.12,7.85-.12,5.11.54,10.25,1.82,15.09.62,2.36,1.16,4.8,2.24,7.35,1.08,2.59,2.86,4.84,4.87,6.62,4.1,3.71,9.51,5.3,14.5,5.84,5.14.62,10.59-.04,15.27-2.59.58-.35,1.12-.58,1.82-1.12.58-.46,1.01-.93,1.47-1.43.89-.93,1.66-1.9,2.44-2.82l4.6-5.69c1.51-1.93,2.98-3.91,4.33-6,1.35-2.05,2.47-4.53,2.94-6.96.97-4.91.66-9.98-.73-14.66,0-.08-.12-.12-.19-.12s-.12.12-.12.19c1.2,4.68,1.31,9.67.15,14.36-1.08,4.8-4.52,8.47-7.58,12.23l-4.76,5.53c-1.66,1.74-3.09,3.83-5.3,4.84-4.29,2.24-9.32,2.75-14.07,2.05-4.76-.62-9.55-2.21-13.14-5.46-1.78-1.63-3.29-3.56-4.18-5.77-.93-2.21-1.47-4.6-2.05-6.96-1.16-4.68-1.74-9.56-1.59-14.39.08-2.4.35-4.84,1.04-7.12.73-2.32,1.47-4.64,2.01-7.04,1.12-4.76,1.78-9.63,2.09-14.47.46-4.8,2.01-9.48,3.9-13.93,1.89-4.45,4.33-8.71,7.27-12.54,1.47-1.93,3.02-3.79,4.72-5.53,1.66-1.74,3.4-3.52,5.49-4.64,4.33-2.24,9.55-1.51,14,.04,4.52,1.66,8.51,4.88,10.71,9.21,2.36,4.22,5.22,8.28,6.65,12.92,1.31,4.68.93,9.67-.5,14.32,0,.08,0,.15.12.19.08,0,.15,0,.19-.08l.04-.04Z"/>
    <path class="cls-1" d="m250.53,67.81l-.62-15.83c-.15-5.3-.19-10.6-.43-15.9-.19-2.67-.43-5.3-.85-8.01-.19-1.35-.46-2.71-.89-4.1-.35-1.43-1.35-2.98-2.24-3.99-1.89-2.24-4.33-3.91-6.84-5.18-1.31-.62-2.4-1.16-3.91-1.66-1.39-.43-2.71-.74-4.02-1.04-2.59-.58-5.18-1.16-7.81-1.66-1.31-.23-2.67-.46-4.02-.62-1.31-.15-2.9-.35-4.64,0-2.9.58-5.61,1.66-8.16,3.33-2.63,1.63-4.68,4.68-5.53,7.35-1.93,5.46-2.51,10.76-3.17,16.1-.58,5.3-1.08,10.6-1.31,15.9l-.66,15.94c-.19,5.3,0,10.68,0,16.02l.08,8.01.62,7.93c.58,5.26.97,10.87,3.98,16.17,1.55,2.55,4.02,4.88,7.11,5.73,2.9.81,5.57.93,8.2,1.16,5.3.31,10.52.89,16.01.7,2.71-.19,5.64-.58,8.16-2.32,2.51-1.7,3.71-4.68,4.18-7.27.54-2.67.81-5.26,1.16-7.89l.5-7.93s-.04-.15-.12-.15-.15.08-.15.15l-.81,7.85c-.43,2.59-.81,5.22-1.43,7.78-.58,2.51-1.74,5.07-3.98,6.5-2.2,1.43-4.91,1.7-7.5,1.82-5.26.04-10.52-.62-15.77-1.04-2.63-.27-5.26-.5-7.77-1.24-2.51-.74-4.48-2.71-5.8-4.91-2.51-4.6-2.9-10.06-3.4-15.25l-.58-7.89v-7.93c.04-5.26-.12-10.56.12-15.83l.77-15.83c.19-5.26.62-10.56,1.16-15.79.62-5.22,1.2-10.52,2.9-15.48,1.47-5.22,6.69-8.09,11.68-9.13,2.51-.43,5.18.19,7.77.58,2.59.43,5.18.97,7.77,1.47,2.59.46,5.1,1.2,7.46,2.36,2.36,1.12,4.6,2.59,6.3,4.57,1.89,1.86,2.36,4.57,2.86,7.12.46,2.59.73,5.22,1.01,7.85.43,5.26.7,10.52,1.04,15.83l1.24,15.83s.08.15.15.12c.08,0,.15-.08.12-.15l.08-.12Z"/>
    <path class="cls-1" d="m111.58,49.2c3.71-10.68,10.67-20.39,20.14-26.08,9.36-5.84,20.99-7.62,31.51-4.8,10.4,2.71,20.37,9.05,25.83,18.11,5.18,9.29,5.64,20.89,5.14,31.92-.19,5.61-.81,11.14-1.47,16.83-.66,5.73-1.01,11.41-1.78,16.95-.77,5.46-1.89,10.99-5.06,14.74-1.55,1.86-3.52,3.29-5.95,4.02-1.2.43-2.4.62-3.79.93-1.47.23-2.9.54-4.33.85-5.68,1.32-11.1,3.13-16.51,4.45-5.41,1.32-11.02,2.28-16.08.93-2.55-.66-4.83-1.97-6.53-4.06-1.66-2.13-3.36-4.53-4.64-6.93-2.67-4.91-4.06-10.52-4.25-16.21,0-.08-.08-.15-.15-.15s-.15.08-.15.15c0,5.73,1.2,11.45,3.71,16.6,1.28,2.55,2.82,4.95,4.52,7.27,1.74,2.32,4.29,3.95,7.04,4.8,5.57,1.66,11.44.66,16.97-.54,5.57-1.24,11.02-2.94,16.59-4.1,2.74-.62,5.61-.85,8.39-1.7,2.78-.77,5.26-2.55,7.11-4.72,3.75-4.49,4.87-10.41,5.72-15.98.81-5.65,1.2-11.34,1.89-16.99.7-5.65,1.39-11.34,1.62-17.03.27-5.69.15-11.45-.62-17.1-.77-5.65-2.24-11.3-5.14-16.29-6.07-9.79-16.51-16.37-27.6-18.96-11.13-2.71-23.31-.58-32.86,5.73-9.63,6.31-16.28,16.44-19.6,27.28,0,.08,0,.15.08.19.08,0,.15,0,.19-.12h.08Z"/>
    <path class="cls-1" d="m98.32,109.56c-.43,3.87,0,7.78.93,11.61.46,1.97,1.74,3.87,3.25,5.26,1.55,1.59,4.33,2.21,6.46,1.47,2.17-.66,3.83-1.86,5.45-2.94l4.68-3.44c1.55-1.2,3.17-2.48,4.52-4.33,1.31-1.86,2.05-4.06,2.32-6.23.5-4.37-.54-8.47-1.82-12.19-1.31-3.79-2.74-7.16-3.79-10.8-2.2-7.2-3.67-14.63-4.83-22.13-1.31-7.47-2.28-15.05-3.21-22.64l-1.31-11.41c-.43-3.75-.73-7.7-1.82-11.65-.54-1.97-1.2-3.91-2.36-5.84-.54-.97-1.31-1.9-2.28-2.67-.97-.81-2.44-1.32-3.56-1.35-2.28-.12-4.21.27-6.19.7-.93.23-1.89.43-2.94.77-1.04.35-2.24,1.01-2.98,2.01-1.59,2.13-1.43,4.37-1.47,6.31.04,1.97.23,3.87.46,5.8l1.35,11.45s.08.15.15.12c.08,0,.12-.08.12-.15l-.73-11.49c-.15-1.9-.19-3.83-.15-5.73.08-1.86.19-3.91,1.39-5.34,1.2-1.47,3.25-1.7,5.1-2.13,1.86-.35,3.79-.66,5.64-.46,1.89.12,3.36,1.55,4.25,3.21.93,1.63,1.51,3.48,1.97,5.34.89,3.71,1.12,7.55,1.51,11.38l1.16,11.45c.81,7.62,1.74,15.25,2.98,22.83,1.28,7.58,2.86,15.13,5.18,22.44,2.13,7.31,6.42,14.24,5.84,21.98-.15,1.9-.77,3.71-1.78,5.3-1.04,1.55-2.51,2.82-3.98,4.02-3.02,2.28-5.88,5.07-9.39,6.42-1.78.66-3.79.31-5.22-.97-1.47-1.2-2.59-2.79-3.17-4.6-1.12-3.64-1.7-7.47-1.51-11.3,0-.08-.04-.15-.15-.15-.08,0-.15.08-.15.15l.08-.08Z"/>
    <path class="cls-1" d="m94.57,133.24c2.01-2.24,2.44-5.34,2.9-8.13,1.24-8.59,1.66-17.33,1.43-26-.5-11.49.23-23.91-5.3-34.32-4.41-11.22-.23-23.02-5.88-34.36-2.82-6.23-10.79-8.63-16.97-7.89-12.53-.27-25.83,8.36-27.53,21.47-1.97,17.91,6.11,34.94,11.06,51.42l5.41,16.44c3.32,7.66,1.74,18.84,10.32,23.37,7.5,4.14,18.25,4.37,24.55-1.97v-.04Zm-.23-.19c-7.93,7.74-24.9,5.84-29.61-4.6-1.86-5.42-1.97-11.38-3.94-16.83l-4.95-16.64c-4.45-16.52-11.83-33.16-9.94-50.57,2.24-14.9,20.03-22.25,33.44-18.34,8.66,3.44,8.93,14.28,9.86,22.25.31,5.73.54,11.69,2.94,17.06,2.67,5.18,4.52,10.56,4.87,16.44,1.39,14.36,2.05,28.87.08,43.22-.43,2.79-.81,5.84-2.74,8.01Z"/>
    <path class="cls-1" d="m51.3,83.6c-4.76-11.72-11.02-22.91-19.18-32.85-2.09-2.44-4.45-4.8-7.15-6.69-2.67-1.86-5.49-3.56-8.54-4.8-6.11-2.55-13.38-3.06-19.79-.97-3.21,1.01-6.3,2.36-9.12,4.6-2.71,2.32-4.56,4.64-6.88,6.73-2.24,2.09-4.6,4.14-7.04,5.96-1.24.93-2.44,1.66-3.91,2.82-1.55,1.24-2.59,2.67-3.56,4.06-3.83,5.77-5.68,12.65-5.06,19.62.35,3.52,1.43,6.69,2.36,9.71.97,3.1,2.17,6.15,3.52,9.13,2.74,5.92,6.3,11.41,9.94,16.6,3.6,5.26,7.69,10.37,12.02,15.05,2.17,2.36,4.52,4.72,7.04,6.81,2.63,2.09,5.03,3.91,7.89,5.77,5.8,3.83,13.34,4.68,19.79,3.1,6.53-1.51,12.22-4.06,18.21-6.46,2.94-1.32,5.99-2.9,8.43-5.38,1.24-1.24,2.24-2.63,3.05-4.14.81-1.59,1.28-3.25,1.59-4.84,2.74-12.54,2.17-25.85-2.17-37.76,0-.08-.12-.12-.19-.08-.08,0-.12.12-.08.19,3.9,12.03,4.06,25.11.97,37.3-.58,3.1-2.09,5.96-4.37,8.13-2.24,2.21-5.1,3.64-8,4.84-5.88,2.24-11.75,4.68-17.9,6-6.11,1.32-12.76.43-18.02-3.02-5.22-3.48-10.21-7.43-14.34-12.19-4.25-4.64-8.16-9.6-11.71-14.82-3.6-5.18-7-10.52-9.63-16.25-1.31-2.86-2.47-5.77-3.44-8.78-.97-3.02-1.97-6-2.32-9.13-.62-6.23,1.08-12.65,4.52-17.84.89-1.28,1.82-2.55,3.02-3.52,1.2-.97,2.55-1.82,3.83-2.79,2.51-1.93,4.91-3.99,7.19-6.19,2.32-2.13,4.37-4.6,6.69-6.66,2.4-1.97,5.3-3.37,8.27-4.33,5.95-2.01,12.57-1.7,18.4.58,5.84,2.32,11.17,6,15.27,10.76,8.31,9.48,14.92,20.39,20.03,31.92,0,.08.12.12.19.08.08,0,.12-.12.08-.19l.12-.08Z"/>
    <path class="cls-1" d="m516.55,134.21c-1.9-1.66-4.83-1.9-7.11-.74-1.16.62-1.97,1.74-2.55,2.82-.58,1.04-1.12,2.4-.97,3.68,0,.58-.04,1.16-.12,1.74-.12.7-.12.54-.58.7-.93.12-2.32-.19-3.75.23-2.82.93-4.64,3.33-5.41,6.11-.39,1.43-.2,3.21.54,4.57.66,1.35,1.66,2.4,1.93,3.06.12.35,0,.27,0,.27-.04,0,0-.08-.31.12-.62.27-1.97.5-3.28,1.12-1.35.54-2.9,1.7-3.79,3.25-.89,1.51-1.2,3.21-1.16,4.8.04,3.13,1.62,6.38,4.41,8.2,2.79,1.66,6.03,2.13,9.12,1.16,1.55-.46,3.09-1.47,4.1-2.9,1.01-1.39,1.51-2.94,1.7-4.41.46-2.9-.62-6.19-2.24-8.24-.35-.5-.7-1.01-.81-1.24-.08-.23-.08.31-.31.31-.08-.04.73-.31,1.39-.62.69-.35,1.31-.77,1.86-1.28,2.2-1.86,3.05-5.15,2.51-7.66-.19-1.24-.54-2.52-1.04-3.68-.12-.27-.23-.58-.27-.74,0-.19-.04-.08,0-.19.16-.15.85-.08,1.43,0,2.55.5,5.45-.97,6.34-3.44.93-2.4.31-5.3-1.62-6.93v-.08Zm-.19.23c1.78,1.55,2.32,4.37,1.39,6.5-.93,2.24-3.44,3.48-5.84,2.94-.58-.04-1.2-.27-1.9.04-.31.15-.54.62-.46.97.04.35.15.62.27.93.42,1.12.62,2.32.77,3.52.35,2.36-.5,4.84-2.4,6.31-.89.85-2.01,1.04-3.21,1.59-.66.39-.77,1.28-.5,1.9.23.62.58,1.12.89,1.63,1.36,2.01,1.93,4.41,1.51,6.77-.31,2.36-1.82,4.53-4.14,5.15-2.24.7-4.79.23-6.77-1.01-1.97-1.28-3.17-3.56-3.28-5.92-.19-2.36,1.08-4.72,3.32-5.61,1.08-.5,2.28-.77,3.4-1.39,1.24-.5,1.82-2.32.97-3.41-.66-1.08-1.58-1.9-2.17-2.94-.62-1.01-.81-2.21-.58-3.37.46-2.28,2.01-4.49,4.21-5.34,1.12-.43,2.32-.19,3.6-.43.69-.04,1.2-.89,1.12-1.51.04-.62.08-1.24.04-1.86-.15-1.2.27-2.32.81-3.4.54-1.08,1.24-2.09,2.28-2.67,2.05-1.12,4.83-1.01,6.69.54l-.04.08Z"/>
    <path class="cls-1" d="m511.37,158.66c.5,1.47,1.86,2.44,3.13,3.13,1.24.77,2.43,1.63,3.56,2.55,1.12.93,2.16,1.97,3.13,3.02,1.08,1.08,1.66,2.17,3.29,3.41,1.01.7,2.75.7,3.79-.27,1.01-.93,1.32-1.7,1.7-2.32.74-1.28,1.47-2.32,2.28-3.37.81-1.04,1.74-1.97,2.71-2.86.5-.54,1.01-.77,1.93-2.05,1.08-1.59.74-3.83-.35-5.07-1.01-1.16-1.82-1.47-2.51-1.9l-2.05-1.04-3.9-1.86c-2.63-1.2-5.03-2.55-7.81-4.06-.73-.35-1.51-.74-2.55-.85-1.05-.08-2.01.27-2.75.73-1.51,1.01-2.2,2.52-2.79,3.91-1.04,2.71-2.05,5.88-.85,8.78l.04.12Zm.27-.12c-1.08-2.75-.08-5.77,1.2-8.36.62-1.28,1.47-2.55,2.75-3.21,1.28-.77,2.75-.39,3.9.46,2.44,1.63,4.79,3.41,7.35,4.88,1.27.74,2.55,1.47,3.87,2.13,1.27.7,2.71,1.32,3.59,2.28.43.46.5,1.2.16,1.7-.35.54-.97,1.04-1.47,1.55-1.08,1.04-2.01,2.21-2.86,3.44-.85,1.24-1.51,2.55-2.09,3.91-.31.66-.58,1.35-1.04,1.82-.47.46-1.24.54-1.78.19-2.24-1.7-4.33-3.95-6.8-5.57-1.2-.85-2.47-1.63-3.75-2.36-1.27-.7-2.55-1.51-3.05-2.9l.04.04Z"/>
    <path class="cls-1" d="m532.41,162.22c1.66-.54,3.17.97,4.6,1.82,1.43,1.01,2.9,2.09,4.41,3.06,2.9,2.01,5.84,4.26,9.55,5.42,1.82.58,3.79.85,5.65.97,1.89.08,3.36.23,4.06.81.93.58,1.7,1.86,1.62,2.4.08.5-.5,1.55-1.35,2.05-1.43,1.16-4.91.58-8.08-.27-2.9-.73-6.11-2.75-9.43-4.14-3.25-1.51-6.69-2.67-9.89-4.1-1.55-.73-3.06-1.78-3.09-3.6-.12-1.63.46-3.6,1.97-4.41Zm-.12-.27c-1.7.89-2.36,2.94-2.28,4.68,0,1.93,1.66,3.37,3.17,4.14,3.17,1.66,6.38,3.13,9.47,4.88,3.13,1.63,5.95,3.91,9.36,5.11,1.7.58,3.4,1.08,5.22,1.32,1.78.19,3.75.08,5.3-.97,1.51-1.04,2.71-2.79,2.51-4.72-.23-1.93-1.59-3.44-3.17-4.33-1.66-.93-3.6-.7-5.34-.66-1.78.04-3.52-.04-5.22-.43-3.44-.77-6.53-2.63-9.55-4.41-1.55-.89-3.02-1.82-4.53-2.82-.73-.46-1.47-.97-2.28-1.39-.77-.39-1.78-.77-2.67-.35v-.04Z"/>
    <path class="cls-1" d="m591.67,189.34c3.6-16.72-22.19-32.81-33.09-17.33-.12.15.04.35.19.23,8.82-8.43,23-2.44,28.96,6.62,2.05,3.13,3.28,6.81,3.67,10.52,0,.19.31.15.27,0v-.04Z"/>
    <path class="cls-1" d="m602.07,195.96c4.29-14.39-1.93-31.42-15.78-38.58-7.19-2.63-14.73-3.95-22.35-2.24-7.27,2.05-14.23,9.05-15.35,15.17,7.73-14.63,22.35-16.02,36.5-10.29,13.26,6.15,18.33,23.14,16.97,35.95Z"/>
    <path class="cls-1" d="m568.48,208.96c-3.94-.77-7.58-2.09-10.75-3.79-3.13-1.82-5.8-4.06-7.89-6.96-4.29-5.65-5.72-12.92-3.67-20.78,0,0,0-.19-.12-.19-.08,0-.12,0-.16.08-1.89,3.48-2.86,7.55-2.55,11.53.27,3.99,1.82,7.85,4.17,11.1,2.4,3.21,5.65,5.77,9.32,7.35,3.67,1.55,7.69,2.21,11.67,1.97.08,0,.16-.08.12-.15,0-.08-.04-.12-.12-.12l-.04-.04Z"/>
    <path class="cls-1" d="m566.5,198.94c-1.74-1.47-3.13-2.86-4.6-4.18-1.43-1.35-2.51-2.44-3.48-3.95-1.01-1.39-1.7-2.82-2.24-4.45-.46-1.63-.73-3.56-.66-5.8v-.08s-.04-.15-.12-.15c-.04,0-.12,0-.12.08-1,1.86-1.51,3.99-1.39,6.11.12,2.13.93,4.18,2.12,5.96,1.2,1.78,2.82,3.21,4.64,4.26,1.78,1.12,3.71,1.97,5.76,2.51.08,0,.16,0,.16-.12,0-.04,0-.12-.04-.15h-.04v-.04Z"/>
    <path class="cls-1" d="m553.67,162.53c-.97-1.43-2.21-2.59-3.56-3.48-1.35-.97-2.94-1.39-4.48-1.74-1.62-.23-3.09-.31-4.72,0-1.58.23-3.17.77-4.64,1.66h-.04s-.08.15-.04.23c0,.04.08.08.12.08,2.94.27,5.95.27,8.85.89,1.47.27,2.9.54,4.29,1.04l4.14,1.59s.16,0,.2-.08v-.12l-.12-.08Z"/>
    <path class="cls-1" d="m588.58,187.02c2.28,2.01,4.49,4.18,7,6,2.51,1.78,5.22,3.37,8.04,4.72,5.68,2.59,11.83,4.14,17.9,5.11,12.02,2.01,24.09,3.6,36.15,5.38,12.06,1.24,24.24,2.4,35.99,4.41,5.84.97,11.33,3.06,16.66,5.88,5.38,2.63,10.36,6.11,15.12,9.87l.19-.19c-4.41-4.22-9.28-7.93-14.58-10.99-5.26-3.1-10.94-5.53-16.93-6.77-11.95-2.51-24.09-3.6-36.15-5.11l-36.19-4.76c-6.03-.74-12.02-2.01-17.63-4.29-2.82-1.12-5.53-2.52-8.12-4.1-2.55-1.63-4.87-3.6-7.31-5.38l-.19.23h.04Z"/>
    <path class="cls-1" d="m709.98,234.96c-5.3-4.91-11.67-8.71-18.56-11.3-3.48-1.2-7.07-2.05-10.71-2.63l-5.3-.81-5.34-.97c-14.27-2.59-28.8-2.86-42.57-5.57-13.92-2.48-27.68-6.46-40.05-13-6.03-3.33-12.25-7.35-15.39-13.19-1.51-2.86-1.86-6.42-.97-9.71.93-3.25,3.32-6.07,6.53-7.66.08,0,.12-.12.08-.19,0-.08-.12-.12-.19-.08-3.4,1.32-6.19,4.14-7.35,7.58-1.16,3.44-1.04,7.31.47,10.64,1.51,3.33,4.06,6.04,6.76,8.36,2.78,2.32,5.76,4.33,8.85,6.15,12.56,7.12,26.56,11.18,40.67,13.89,14.19,2.59,28.61,2.79,42.8,4.95,7.08,1.2,14.34,1.39,21.15,3.64,6.84,2.13,13.22,5.61,18.87,10.06.08.04.16,0,.2,0,.04-.08,0-.15,0-.19l.04.04Z"/>
    <path class="cls-1" d="m571.84,174.33c-2.9,3.95-4.87,8.59-6.07,13.47-1.05,4.91-1.12,10.1-.12,15.17s3.25,9.83,6.45,13.97c3.21,4.14,7.58,7.39,12.14,9.63,4.64,2.17,9.47,3.52,14.23,4.76,4.79,1.16,9.51,2.28,14.3,3.1,4.83.85,9.67,1.55,14.5,2.05,4.87.35,9.74.7,14.61.58.08,0,.16-.04.16-.12s-.08-.15-.12-.15c-9.63-.89-19.22-2.36-28.69-4.53-9.39-2.24-18.98-4.14-27.76-8.24-4.33-2.05-8.35-4.91-11.33-8.71-3.05-3.71-5.14-8.2-6.34-12.85-2.4-9.4-.54-19.58,4.25-27.94.04-.08,0-.15-.04-.19-.08,0-.16,0-.19.04v-.04Z"/>
    <path class="cls-1" d="m597.05,167.95c3.87-.31,7.89,0,11.02,1.63,3.13,1.7,6.34,4.22,9.55,6.42,6.38,4.49,13.11,8.67,19.99,12.73,3.48,1.78,7.31,3.6,11.41,4.53,2.01.43,3.83.89,5.99,1.2,2.09.35,4.52.19,6.57-.35,1.01-.27,2.01-.58,2.63-.7.62-.08.66-.12,1.08.27.81.81,1.16,2.79,1.39,4.64.38,1.78.08,3.25-1.16,4.6-1.2,1.28-2.94,2.24-4.76,2.94,0,0-.12.12-.08.19,0,.08.12.12.16.08,1.93-.43,3.83-1.2,5.34-2.52,1.58-1.28,2.32-3.44,2.05-5.42-.16-1.93-.19-4.02-1.43-5.73-.62-.85-1.74-1.32-2.75-1.16-1.01.08-1.94.39-2.9.54-3.83.89-7.69-.27-11.48-1.16-3.79-.93-7.27-2.71-10.71-4.57-6.84-3.79-13.49-7.89-20.14-12.07-3.36-2.01-6.57-4.29-10.17-5.96-3.75-1.39-7.85-1.35-11.67-.46-.08,0-.12.08-.12.15s.08.12.16.12l.04.04Z"/>
    <path class="cls-1" d="m696.99,251.21c1.93-3.4,4.1-6.58,6.73-9.29,2.51-2.79,5.41-5.15,8.62-6.89,3.21-1.7,6.61-3.13,10.17-3.79,3.56-.7,7.23-.77,10.78-.31,3.56.35,7,1.35,10.13,3.06,3.09,1.7,5.68,4.22,7.93,7,2.17,2.86,3.75,6.23,4.64,9.87,1.08,3.6,1.43,7.47,1.43,11.34h.27c1.08-7.66-.16-15.9-4.49-22.48-2.16-3.25-5.06-6.04-8.47-8.05-3.4-1.97-7.19-3.17-11.1-3.64-7.77-.89-15.89.81-22.46,5.07-6.65,4.18-11.56,10.76-14.42,17.99l.27.12h-.04Z"/>
    <path class="cls-1" d="m754.75,272.84c-1.74,2.9-3.6,5.65-5.99,7.85-2.24,2.32-4.79,4.33-7.54,5.88-5.49,3.17-11.64,5.07-17.9,4.84-3.05.04-6.46-.27-9.43-.89-3.05-.62-5.76-1.93-8.27-3.64-2.51-1.74-4.45-4.22-6.23-7.04-1.93-2.67-3.4-5.61-4.75-8.74l-.27.08c.81,3.29,2.05,6.46,3.67,9.4,1.59,2.98,3.48,5.88,6.15,8.05,5.3,4.53,12.45,5.49,19.1,5.73,6.8,0,13.53-2.05,19.18-5.84,5.64-3.75,10.17-9.21,12.56-15.52l-.27-.12v-.04Z"/>
    <path class="cls-1" d="m708.2,253.77c3.13-3.25,6.53-5.88,10.13-7.78,3.67-1.78,7.42-2.67,11.25-2.13,3.83.39,7.35,2.05,10.01,4.88,2.63,2.86,4.53,6.69,5.03,11.18h.27c.5-4.41-.77-9.02-3.52-12.58-2.71-3.6-7-5.84-11.48-6.35-4.49-.58-9.05.66-12.8,3.06-3.79,2.4-6.84,5.77-9.16,9.56l.23.15h.04Z"/>
    <path class="cls-1" d="m742.03,271.22c-2.47,2.79-5.26,4.72-8.2,5.92-2.98,1.12-6.15,1.55-9.47,1.55-1.66.08-3.48,0-5.22,0s-3.36-.08-4.91-.27c-3.02-.43-5.8-1.97-7.35-5.46h-.27c.27,1.86,1.05,3.6,2.28,4.95,1.28,1.35,2.94,2.24,4.72,2.71,3.56.93,7.19.93,10.78,1.01,3.6-.04,7.31-.7,10.52-2.44,3.21-1.74,5.8-4.53,7.39-7.78l-.27-.12v-.08Z"/>
    <path class="cls-1" d="m713.84,253.57c-9.05.04-17.94-2.32-25.52-6.96-3.94-2.28-7.73-4.41-11.13-7.31-3.56-2.86-7.31-5.53-11.06-8.13-3.87-2.52-6.84-5.03-9.39-8.59-.62-.85-1.74-2.28-3.29-2.98-1.43-.66-2.86-.93-4.25-.93-2.79,0-5.57.77-7.85,2.59-2.28,1.78-3.83,4.72-3.87,7.7-.04,2.94,1.01,5.61,2.47,7.82.77,1.12,1.66,2.17,2.9,3.06,1.24.93,2.71,1.47,3.9,1.78,2.4.58,4.25,1.04,6.15,1.86,3.52,1.43,6.92,4.57,10.4,7.35,3.48,2.9,6.92,5.8,10.21,8.78,1.66,1.47,3.25,3.1,5.22,4.6,1.93,1.43,3.71,2.67,5.72,3.99,3.87,2.55,8.24,4.76,12.99,5.84,4.72,1.12,9.74.97,14.34-.39,4.6-1.32,8.82-3.75,12.37-6.81,3.36-3.02,6.92-6.69,8.04-11.38,1.28-4.6.54-9.44-1.35-13.58,0-.08-.12-.12-.19-.08-.08,0-.12.12-.08.19,1.7,4.14,2.17,8.9.77,13.19-1.28,4.37-4.68,7.66-8.16,10.49-6.88,5.73-16.43,8.63-25.21,6.23-4.37-1.12-8.39-3.25-12.14-5.77-1.86-1.24-3.71-2.59-5.53-3.95-1.78-1.35-3.36-3.02-5.02-4.53-3.33-3.06-6.77-6.04-10.21-8.98-3.48-2.82-6.8-6.07-11.06-7.93-2.09-.93-4.37-1.43-6.54-1.93-2.2-.46-4.02-1.86-5.26-3.71-1.24-1.82-2.09-3.99-2.05-6.19,0-2.21,1.08-4.33,2.82-5.69,1.7-1.39,3.94-2.09,6.15-2.09,2.24-.04,4.37.89,5.57,2.86,2.63,3.75,6.3,6.66,10.17,8.98,7.69,4.68,14.42,10.99,22.69,14.9,7.97,4.37,17.17,6.38,26.25,5.88.08,0,.15-.08.15-.15s-.08-.15-.15-.15v.12Z"/>
    <path class="cls-1" d="m777.4,274.66c-1.54,1.63-3.98,1.47-6.07,1.16-2.16-.35-4.29-.85-6.46-1.32-4.29-1.08-8.66-2.13-13.07-2.82l-6.61-.93c-2.17-.27-4.29-.7-5.61-1.39-1.28-.62-2.28-2.09-2.82-3.75-.27-.81-.35-1.63-.27-2.21.12-.66.23-.66.43-.77.54-.5,2.9-.66,4.91-.5,2.09.12,4.25.39,6.46.62,2.2.23,4.25.35,6.42.77,2.2.46,4.68.62,6.84.62,4.37.19,8.97.08,13.19.5,2.01.39,3.63,2.13,4.25,4.1.62,2.01-.08,4.33-1.47,5.96l-.12-.04Zm.2.19c1.51-1.66,2.36-4.02,1.74-6.27-.58-2.17-2.28-4.1-4.53-4.64-4.41-.7-8.82-.93-13.18-1.43-4.41-.19-8.58-1.82-13.03-2.28-2.2-.31-4.37-.66-6.57-.85-2.16-.12-4.52-.43-6.65.74-1.04.62-1.62,1.86-1.66,3.02-.08,1.16.15,2.28.54,3.37.77,2.09,2.17,4.1,4.29,5.11,2.09.97,4.37,1.04,6.57,1.24l6.61.46c4.41.39,8.74,1.04,13.11,1.9,2.16.39,4.33.85,6.53,1.12,2.13.23,4.72.35,6.34-1.43l-.12-.04Z"/>
    <path class="cls-1" d="m774.54,276.25c0,1.86.73,3.64,2.01,5.03,1.2,1.43,2.9,2.4,4.6,2.98,1.66.46,3.44.74,5.22.46,1.74-.19,3.44-.93,4.83-2.13v-.27c-3.13.5-6.27.19-9.2-.81-2.94-.85-5.57-2.79-7.23-5.38l-.23.15v-.04Z"/>
    <path class="cls-1" d="m795.73,268.43c-1.24-3.75-4.52-6.31-8.31-7.27-1.82-.39-3.87-.58-5.95.12-2.01.62-3.63,2.13-4.41,3.95l.19.23c1.32-1.01,2.9-1.7,4.53-1.9,1.62-.23,3.32.08,4.95.46,3.25.74,6.26,2.48,8.78,4.68l.19-.23.04-.04Z"/>
    <path class="cls-1" d="m808.64,267.62c2.78-.89,4.45-4.22,3.63-7.04-.66-2.9-3.17-5.15-6.11-5.77-2.86-.58-6.34.35-8.12,3.1-.89,1.32-1.39,3.06-1.01,4.8.47,1.7,1.59,3.17,1.16,3.13.43-.15-1.86.74-3.02,1.9-1.16,1.12-2.12,2.4-2.78,4.1-.69,1.66-.54,3.99.35,5.61.81,1.59,2.05,2.86,2.47,3.52.04.08,0,.15,0-.27,0-.39.23-.81.46-.97.35-.19-.35.08-1.04.12-.73.12-1.66.27-2.67.74-1,.46-1.97,1.35-2.55,2.32-1.12,2.13-1.2,3.99-.62,6.08.31,1.01.89,1.97,1.43,2.63.54.58,1.16,1.43.85.97-.2-.39-.08-1.35.31-1.7.39-.39.43-.27.23-.23-.35.15-1.16.23-2.28.77-.58.27-1.32.77-1.86,1.63-.54.85-.62,1.82-.54,2.52.2,1.43.73,2.32,1.28,3.1,1.08,1.47,2.63,2.71,4.37,3.33,1.7.62,3.44.85,5.45.46.97-.23,2.21-.66,3.09-2.05.85-1.47.62-2.79.39-3.68-.27-.89-.66-1.78-1.28-2.59-.58-.74-1.54-1.43-1.74-1.59-.12-.04.35.19.27,1.12-.08.39-.31.74-.5.89-.19.15-.27.15-.31.15,0,0,.39-.12.69-.19.7-.15,1.43-.31,2.17-.54s1.35-.43,2.09-.7c.35-.15.85-.31,1.31-.7.39-.31.73-.66,1.01-1.04,1.08-1.55,1.28-3.25,1.16-4.88-.2-1.59-.7-3.21-2.05-4.41-.66-.54-1.47-.89-2.16-1.08l-.46-.15s-.12-.04-.04,0c0,.04.19.12.23.46,0,.31-.19.5-.27.54-.16.04.43-.12.7-.15,1.43-.27,2.86-.85,4.06-1.74,2.51-1.82,3.28-5.15,2.67-7.97-.31-1.43-1.16-2.75-2.24-3.64-2.01-1.43.62-.46,1.82-1.04v.15Zm-.08-.27c-.66.19-1.31.19-2.01.15-.2,0-.35,0-.58.04-.31.08-.31.54-.16.66.23.31.5.5.77.77,1.05.89,1.78,2.13,2.05,3.44.5,2.63-.31,5.73-2.59,7.31-1.12.77-2.44,1.2-3.83,1.43-.35.08-.66.04-1.08.27-.19.04-.15.5,0,.5.12.08.2.12.27.15l.5.19c.66.23,1.24.54,1.74.97,1.86,1.9,1.93,5.34.43,7.47-.77,1.12-2.28,1.24-3.6,1.63-.66.15-1.35.27-2.05.39-.35.08-.69.08-1.08.23-.16.04-.46.19-.5.54-.04.31.16.54.27.66,1.16.89,2.01,1.9,2.28,3.25.16.66.16,1.35-.15,1.82-.35.5-.97.81-1.59.93-2.63.46-5.56-.66-7.07-2.9-.81-1.01-1.24-2.67.08-3.17.58-.27,1.28-.35,1.97-.58.35-.12.73-.23,1.05-.58.31-.31.39-.89.23-1.28-.81-1.35-1.97-2.09-2.32-3.44-.39-1.24-.35-2.71.27-3.83.66-1.16,1.97-1.66,3.32-1.86.66-.15,1.39-.15,2.09-.62.77-.5.66-1.66.19-2.21-.85-1.2-1.9-2.09-2.55-3.29-.66-1.16-.85-2.55-.39-3.87.42-1.28,1.2-2.48,2.13-3.44.46-.46,1-.89,1.62-1.24.54-.31,1.39-.66,1.59-1.51.23-.77-.16-1.59-.5-2.13-.35-.62-.7-1.2-.89-1.82-.35-1.28-.08-2.71.62-3.87,1.35-2.4,4.41-3.48,7.08-3.02,2.67.46,5.1,2.52,5.76,5.18.81,2.63-.66,5.77-3.25,6.66h-.12Z"/>
    <path class="cls-1" d="m1120.91,543.27c2.32-.16,4.79-.5,6.8-2.09.97-.77,1.74-1.9,2.09-3.14.31-1.2.54-2.24,1.01-3.25.46-1.01,1.04-1.97,1.74-2.71.66-.74,1.7-1.36,2.63-2.44.85-1.05,1.47-2.36,1.62-3.79.16-1.43-.12-2.67-.35-3.87-1.08-4.57-1.86-9.02-1.86-13.51l.12-3.48c0-1.35-.31-2.86-.73-4.06-.89-2.44-2.16-4.64-3.83-6.66-1.7-1.97-3.75-3.67-6.34-4.8-2.82-1.05-5.18-1.05-7.54-1.32-4.68-.35-9.55-.35-14.27-.35l-14.07,1.24c-2.28.19-4.56.35-6.84.39-2.2.08-4.6-.12-7.27.19-2.47.35-4.99.89-7.35,1.82l-6.57,2.55c-4.33,1.66-8.7,3.29-13.07,4.8-2.28.81-4.14,1.28-6.8,2.28-2.36,1.08-4.33,2.21-6.45,3.56-4.14,2.59-7.93,5.84-10.9,9.87-3.02,3.99-4.99,8.82-5.45,13.81-.43,5.07.89,9.87,2.05,14.32,1.2,4.49,2.86,9.32,6.19,12.92,3.25,3.6,7.62,5.96,12.18,7.04.08,0,.16,0,.19-.12,0-.08,0-.16-.12-.2-4.45-1.28-8.62-3.79-11.56-7.35-3.06-3.56-4.41-8.16-5.42-12.69-1.04-4.53-2.16-9.13-1.66-13.77.54-4.6,2.43-9.02,5.34-12.65,2.86-3.68,6.49-6.66,10.44-9.09,1.97-1.24,4.02-2.36,6.15-3.29,2.12-.81,4.45-1.39,6.65-2.17,4.45-1.51,8.81-3.09,13.18-4.72,4.41-1.58,8.66-3.6,13.3-4.06,2.28-.31,4.64-.16,6.96-.23,2.36-.08,4.68-.23,7-.43l13.92-1.35c4.64,0,9.32-.08,13.96.19,2.32.2,4.68.27,6.84,1.05,2.12.89,3.98,2.32,5.53,4.03,1.51,1.74,2.75,3.75,3.56,5.88,1.01,2.13.62,4.49.66,6.85.12,4.72,1.08,9.32,2.28,13.85.66,2.21.77,4.72-.73,6.54-.69.93-1.7,1.55-2.47,2.47-.77.89-1.35,1.97-1.78,3.06-.89,2.17-.66,4.8-2.63,6.27-1.74,1.51-4.14,2.01-6.42,2.24-.08,0-.16.08-.12.16,0,.08.08.12.16.12l.08.08Z"/>
    <path class="cls-1" d="m1096.24,489.52c5.22-5.88,9.36-12.92,11.41-20.74v.12c1.12-4.99,1.47-9.68,1.08-14.63-.43-4.92-1.82-9.71-3.67-14.2-3.79-8.94-9.32-17.34-17.13-23.56-7.73-6.19-18.29-9.83-28.53-7.58-10.21,2.32-17.94,8.71-25.51,14.24-7.5,5.69-15.43,11.45-21.61,19.19-3.05,3.87-5.72,8.12-7.54,12.77-1.78,4.64-2.78,9.56-3.13,14.4-.39,4.88-.2,9.79.81,14.62,1.01,4.8,3.02,9.56,6.34,13.31,3.21,3.71,7.31,6.73,11.95,8.28,4.64,1.58,9.74,1.43,14.23-.16.08,0,.12-.12.12-.2s-.12-.12-.19-.08c-4.49,1.39-9.43,1.32-13.84-.35-4.41-1.66-8.24-4.68-11.13-8.36-6.03-7.43-7.04-17.6-6.15-26.85.77-9.44,4.48-18.53,10.51-25.77,5.95-7.35,13.72-12.92,21.3-18.53,7.62-5.45,15.19-11.65,24.43-13.77,9.24-2.09,19.02,1.08,26.37,6.89,7.38,5.88,12.99,13.81,16.82,22.4,1.9,4.29,3.36,8.86,3.87,13.54.46,4.68.27,9.48-.58,14.08-1.7,7.66-5.49,14.78-10.44,20.82-.04.08-.04.16,0,.2.08.04.16.04.19,0l.04-.08Z"/>
    <path class="cls-1" d="m1043.04,417.9c12.1-10.33,26.1-21.98,28.18-38.85.23-1.01-.69-2.44-1.9-2.52-.73-.08-.66,0-.81,0-3.98,1.16-7.19,3.71-10.59,5.92-23.08,16.14-43.76,35.71-60.89,58.08-2.4,3.44-20.37,25.73-7.46,22.83,6.61-2.75,12.06-7.47,17.7-11.69.16-.12,0-.35-.15-.23-24.7,17.45-26.6,13.23-8.35-9.52,14.92-18.69,32.28-35.4,51-50.26,6.11-4.56,12.1-9.71,19.06-12.88.23,0,.12-.2.12.19-1.35,16.21-16.2,28.44-25.94,38.89l.04.04Z"/>
    <path class="cls-1" d="m1070.22,382.58c1.35-4.14,1.35-9.13-1.24-13.04-2.44-3.83-5.53-7-8.58-10.21l-4.68-4.64c-1.62-1.55-3.02-3.1-5.14-4.56-4.95-2.59-10.05-1.55-14.34.08-4.33,1.62-8.2,3.95-11.95,6.19-3.79,2.28-7.54,4.8-11.06,7.58-7.04,5.53-13.3,11.77-19.6,17.84-6.11,6.19-12.68,12.54-17.17,20.51-4.49,7.58-9.16,14.82-13.41,22.67-1.05,2.01-2.05,4.1-2.63,6.54-.54,2.47-.43,5.03.39,7.43.85,2.36,2.05,4.22,3.13,6.12,1.12,1.9,2.21,3.83,3.44,5.69,2.51,3.68,5.41,7.27,9.24,9.75,3.79,2.51,8.47,3.52,12.84,2.86.08,0,.16-.08.12-.16,0-.08-.08-.12-.16-.12-4.33.42-8.78-.77-12.29-3.33-3.56-2.55-6.19-6.11-8.47-9.83-1.12-1.86-2.16-3.79-3.25-5.69-1.05-1.93-2.17-3.83-2.82-5.88-.62-2.05-.69-4.29-.15-6.38.54-2.09,1.54-4.06,2.59-5.96,4.41-7.55,9.12-14.93,13.69-22.36,4.33-7.62,10.75-13.7,16.93-19.85,6.23-6.15,12.37-12.38,19.18-17.84,3.4-2.75,7-5.22,10.71-7.51,3.71-2.28,7.46-4.6,11.48-6.27,3.94-1.66,8.62-2.47,12.53-.54,3.48,2.55,6.53,5.77,9.74,8.71,3.17,3.02,6.38,6.03,8.85,9.6,2.59,3.56,2.82,8.32,1.7,12.46,0,.08,0,.16.12.2.08,0,.15,0,.19-.12l.08.08Z"/>
    <path class="cls-1" d="m1033.88,351.74c.62-2.01.81-4.26.04-6.34-.69-2.17-2.47-3.79-4.25-4.92-3.71-2.25-7.46-3.87-10.71-6.34-1.62-1.2-3.13-2.48-4.49-3.91-1.39-1.43-2.47-3.06-3.9-4.84-.73-.85-1.66-1.82-2.86-2.44-1.2-.62-2.47-.97-3.75-1.05-2.67-.19-5.14.85-7.04,2.01-3.9,2.36-7,5.26-10.05,8.17-3.05,2.94-6.03,5.88-8.93,8.94-5.88,6.04-11.37,12.42-16.89,18.69-10.83,12.57-22.39,25.26-30.04,40.71-.89,1.97-1.78,4.06-2.17,6.42-.42,2.4-.12,5.03,1.28,7.31.81,1.24,1.9,1.97,2.75,2.55l2.59,1.74c1.7,1.16,3.36,2.4,5.02,3.64,3.36,2.4,6.46,5.19,10.01,7.62,1.78,1.2,4.14,2.01,6.3,1.62,2.2-.35,4.1-1.51,5.64-2.94.08-.04.08-.16,0-.2-.04-.08-.15-.08-.19,0-1.55,1.36-3.44,2.36-5.53,2.56-2.05.23-4.06-.54-5.72-1.78-3.32-2.47-6.3-5.45-9.59-8.05-1.62-1.31-3.29-2.59-4.99-3.83-1.62-1.28-3.64-2.24-4.76-3.91-2.16-3.71-.54-8.16,1.28-11.73,3.91-7.35,8.74-14.24,13.88-20.78,5.22-6.54,10.86-12.69,16.35-19,5.49-6.3,10.86-12.69,16.62-18.77,2.86-3.06,5.8-6.04,8.78-8.94,3.02-2.9,6.03-5.81,9.51-8.05,1.74-1.12,3.71-1.94,5.76-1.86,2.05.08,3.98,1.05,5.3,2.67,2.55,3.25,5.37,6.5,8.93,8.75,3.48,2.4,7.46,3.87,11.1,5.84,1.78,1.01,3.44,2.4,4.17,4.37.81,1.9.73,4.06.23,6.08,0,.08,0,.15.12.19.08,0,.16,0,.19-.12v-.12Z"/>
    <path class="cls-1" d="m988.22,332.74c2.24-7.97,1.28-16.91-2.55-24.49-1.9-3.79-4.45-7.31-7.73-10.22-3.25-2.86-7.58-5.11-12.33-5.07-2.36-.12-4.64.54-6.8,1.28-2.09.89-4.02,1.97-5.8,3.21-3.56,2.48-6.65,5.38-9.59,8.36-5.88,5.96-11.13,12.27-16.43,18.57-2.51,3.25-5.3,6.27-7.69,9.9-2.32,3.52-4.37,7.16-6.3,10.84-3.83,7.47-7.23,14.82-9.98,22.91-.66,2.13-.97,4.72-.31,7.08.58,2.52,2.09,4.3,2.9,5.88.85,1.63,1.55,3.56,1.78,5.26.08.81.19,2.32.58,3.33.39,1.08.85,2.13,1.47,3.06,2.47,3.79,6.11,6.31,10.01,7.93,4.02,1.55,8.39,1.66,12.37.62.08,0,.12-.08.12-.16s-.08-.12-.15-.12c-3.98.85-8.24.46-11.95-1.16-3.67-1.7-7.04-4.33-9.08-7.86-1.01-1.78-1.66-3.71-1.66-5.77-.19-2.09-.89-4.06-1.78-5.92-.89-1.86-2.17-3.52-2.55-5.53-.46-1.97-.19-4.03.47-5.96,2.9-7.62,6.34-15.13,10.17-22.32,1.94-3.6,3.98-7.16,6.27-10.56,2.24-3.4,5.06-6.42,7.62-9.63,5.22-6.31,10.4-12.69,16.12-18.57,2.82-2.94,5.8-5.77,9.12-8.13,3.28-2.36,7.07-4.26,11.17-4.29,4.06-.12,7.97,1.7,11.1,4.29,3.09,2.63,5.64,5.92,7.58,9.52,4.02,7.12,5.41,15.67,3.6,23.68,0,.08,0,.16.12.16.08,0,.16,0,.16-.12Z"/>
    <path class="cls-1" d="m936.45,315.33c.77-5.15,1.05-10.41.77-15.63-.35-5.22-.85-10.49-2.94-15.63-2.28-5.11-6.61-8.98-10.98-11.88-4.45-3.06-9.51-5.34-14.93-6.38-5.37-1.08-11.1-.85-16.39.7-2.67.74-5.22,1.74-7.69,3.02-2.51,1.28-4.83,3.06-6.8,4.95-3.9,3.83-7.15,7.89-10.44,11.96l-9.74,12.23c-3.13,4.18-6.3,8.32-9.09,13.04-2.86,4.95-4.17,10.21-5.06,15.59-.39,2.71-.58,5.46-.39,8.28.2,2.71.58,5.42,1.32,8.13,1.39,5.38,4.37,10.45,8.66,14.16,2.16,1.86,4.52,3.21,6.84,4.49,2.28,1.24,4.6,2.55,7.08,3.6,4.87,2.25,10.24,3.48,15.39,4.18,5.18.74,10.94.74,15.82-1.74,4.87-2.36,8.54-6.58,10.78-11.26,0-.08,0-.16-.08-.19-.08,0-.16,0-.2.08-2.4,4.56-6.15,8.51-10.9,10.56-4.76,2.17-10.13,1.97-15.19,1.05-10.32-1.31-19.87-6.23-28.03-12.46-7.77-7.01-10.05-18.42-8.47-28.48.89-5.07,2.24-10.17,4.87-14.59,2.67-4.41,5.84-8.55,9.01-12.65l9.59-12.27c3.25-4.02,6.46-8.13,10.13-11.76,3.64-3.71,8.39-6,13.34-7.47,4.95-1.47,10.21-1.78,15.31-.89,5.1.85,9.94,2.9,14.27,5.73,4.37,2.75,8.35,6.27,10.63,10.95,2.13,4.72,2.86,9.94,3.4,15.05.47,5.15.39,10.37-.15,15.52,0,.08.04.16.12.16s.15-.04.15-.12Z"/>
    <path class="cls-1" d="m883.33,271.1c2.43-2.4,4.29-5.77,4.21-9.52,0-3.71-1.86-7.31-4.45-9.87-2.67-2.55-6.11-4.29-9.86-4.91-1.9-.31-3.98-.19-5.91.5-1.94.7-3.6,1.9-4.99,3.21-2.75,2.67-4.56,5.77-6.3,8.74l-5.1,8.86c-3.44,5.8-7.27,11.34-11.25,16.95-3.83,5.65-7.65,11.45-11.17,17.37-1.78,2.98-3.52,5.96-5.14,8.94-1.7,2.86-3.44,6.35-4.17,9.98-.81,3.64-.66,7.47.16,10.99.42,1.78,1.04,3.6,2.16,5.26,1.08,1.66,2.9,3.1,4.91,3.52,4.02.81,7.62-.81,10.55-2.67,2.98-1.97,5.38-4.57,7.31-7.43.04-.08,0-.16,0-.2-.08-.04-.16,0-.19,0-2.13,2.67-4.64,5.03-7.54,6.77-2.9,1.66-6.34,2.9-9.63,2.05-3.4-.85-4.99-4.49-5.6-7.7-.66-3.33-.66-6.81.19-10.1.77-3.33,2.44-6.3,4.17-9.25,1.7-2.98,3.44-5.92,5.22-8.82,3.6-5.84,7.42-11.49,11.33-17.1,3.86-5.61,7.73-11.3,11.13-17.26,3.52-5.84,6.18-12.34,10.71-17.37,2.28-2.52,5.68-3.91,9.05-3.41,3.32.43,6.57,1.93,9.08,4.18,2.51,2.21,4.37,5.38,4.53,8.74.23,3.41-1.28,6.73-3.48,9.25-.04.08-.04.15,0,.19.04.04.15.04.19,0l-.12.08Z"/>
    <path class="cls-1" d="m859.17,254.62c-1.82-1.74-3.83-3.17-5.88-4.68-2.12-1.35-4.33-2.55-6.57-3.68-4.56-2.21-9.47-3.6-14.42-4.64-2.51-.35-5.1-.58-7.77-.46-1.35.08-2.75.23-4.17.66-1.43.39-3.02,1.28-4.02,2.55-3.44,4.88-4.06,9.56-4.99,14.59,0,.08,0,.15.12.19.08,0,.16,0,.19-.08.85-2.28,1.7-4.6,2.67-6.81,1.01-2.21,2.01-4.53,3.63-6.27,1.66-1.74,4.29-2.09,6.65-2.13,2.43,0,4.87.27,7.27.7,9.63,1.59,18.87,5.3,27.22,10.37.08.04.15,0,.19-.04v-.19l-.12-.08Z"/>
    <path class="cls-1" d="m823.64,312.74c-2.63-.23-4.99-.7-7.15-1.24-2.16-.62-4.14-1.43-5.95-2.51-1.86-1.04-3.48-2.4-5.06-4.02-1.54-1.63-3.13-3.44-4.64-5.61,0,0-.12-.12-.2-.08-.04,0-.08.08-.04.15,1.12,4.88,4.14,9.44,8.5,12.07,4.41,2.59,9.86,3.06,14.65,1.55.08,0,.12-.12.08-.19,0-.04-.08-.08-.12-.12h-.08Z"/>
  </g>
</svg>