<?xml version="1.0" encoding="UTF-8"?>
<svg id="Layer_2" data-name="Layer 2" xmlns="http://www.w3.org/2000/svg" viewBox="0 0 181.7 250.09">
  <defs>
    <style>
      .cls-1 {
        fill: #d8b49c;
      }
    </style>
  </defs>
  <g id="STOR_TEGNING" data-name="STOR TEGNING">
    <path class="cls-1" d="m13.73,18.76c-2.72,2.92-4.9,6.3-6.83,9.78-1.91,3.5-3.58,7.14-4.92,10.89-.65,1.88-1.24,3.79-1.52,5.76-.3,1.96-.36,3.96-.22,5.94.28,3.97,1.38,7.85,2.86,11.53,3.02,7.38,7.59,14.03,12.69,20.14,2.57,3.05,5.3,5.96,8.19,8.69,2.9,2.73,6.04,5.2,9.01,7.89,5.99,5.33,11.01,11.7,15.1,18.58,2.06,3.44,3.88,7.01,5.7,10.55,1.85,3.55,3.49,7.22,4.88,10.98,1.42,3.75,2.52,7.62,3.46,11.51.49,1.94.77,4.03.52,6.07-.16,2.06-.95,4.01-1.69,5.84-.74,1.83-1.26,3.74-1.48,5.66-.11,1.91.06,3.94.16,5.92l.37,5.97c.13,1.99.31,3.97.38,6,.02,1.01,0,2.06-.21,3.09s-.54,2-1,2.95c-.46.94-1.08,1.78-1.7,2.58l-1.84,2.36c-2.36,3.2-4.83,6.36-6.77,9.78-.95,1.71-1.73,3.52-2.13,5.4-.39,1.89-.44,3.84-.07,5.74.7,3.82,2.66,7.34,4.61,10.78,2,3.46,3.91,6.95,6.55,9.84,1.3,1.46,2.76,2.77,4.31,3.99,1.54,1.22,3.17,2.34,4.87,3.3,3.39,1.91,7.21,3.23,11.04,3.07.47-.05.95-.06,1.42-.13l1.4-.29c.85-.21,1.68-.7,2.5-1.21,1.65-1.04,3.25-2.24,4.86-3.41,3.19-2.39,6.52-4.65,9.4-7.28,1.43-1.32,2.66-2.81,3.7-4.45.52-.82.99-1.66,1.4-2.54.43-.88.77-1.8,1.31-2.76.53-.98,1.47-1.82,2.44-2.31.56-.3,1.14-.41,1.66-.49.53-.08,1.04-.13,1.55-.17,2.04-.14,4.04-.14,6.05-.13,2.01.03,3.99.05,6.01.11.51.02,1.01.04,1.54.08.25.02.58.06.85.14l.76.21c1,.31,1.99.69,2.91,1.19,3.73,1.95,6.56,5.03,9.2,8.01,1.35,1.5,2.57,3.16,3.81,4.63.63.72,1.27,1.35,1.99,1.62.72.3,1.58.29,2.36.04,1.59-.57,3.2-1.92,4.71-3.11,1.51-1.23,2.89-2.6,4.17-4.08,1.29-1.47,2.51-3.07,3.91-4.57,1.39-1.51,2.95-2.87,4.6-4.08,3.32-2.39,7-4.24,10.84-5.58,1.91-.68,3.85-1.21,5.67-1.88,1.78-.65,3.61-1.58,3.54-3.03,0-.37-.1-.86-.14-1.42-.05-.56-.02-1.18.12-1.75.13-.57.34-1.11.65-1.63s.73-.97,1.14-1.32c.86-.71,1.49-1.16,1.78-1.89.31-.7.26-1.45-.04-2.34-.61-1.75-1.56-3.64-2.14-5.6s-1.1-3.9-1.34-5.99c-.22-2.07-.13-4.2.48-6.24.56-2.08,1.93-3.83,2.92-5.42.49-.81.85-1.63,1.02-2.52.16-.88.19-1.83.07-2.73-.11-.9-.44-1.81-.68-2.84-.24-1.02-.38-2.06-.45-3.08-.13-2.08,0-4.04-.08-6.01-.03-.99-.07-1.97-.15-2.95-.1-.98-.13-2.06-.13-3.04-.02-2-.02-4.08.51-6.13.26-1.02.66-2.01,1.18-2.94.51-.93,1.24-1.76,1.83-2.49,1.16-1.4,1.6-3.31,1.6-5.18-.08-1.92-.24-3.97-.3-5.96-.09-2-.02-4.04-.11-5.98-.11-1.95-.38-3.93-.64-5.9-.56-3.92-1.26-7.85-2.78-11.45-.8-1.76-1.64-3.63-3.11-4.63-.73-.51-1.6-.75-2.5-.78-.9-.01-1.83.19-2.71.51s-1.78.8-2.69,1.2c-.91.41-1.83.82-2.75,1.21-1.84.79-3.71,1.53-5.6,2.22-1.89.68-3.8,1.32-5.76,1.82-1.96.49-3.95.91-6.04.93-2.1.06-4.19-.67-5.93-1.76-1.76-1.09-3.25-2.51-4.63-3.97-2.75-2.96-5.15-6.17-7.55-9.36-4.98-6.28-9.04-13.24-12.97-20.18-3.91-6.97-7.7-13.99-11.48-21.03-1.86-3.54-3.79-7.04-5.32-10.77-1.46-3.8-1.98-7.8-2.67-11.72-.69-3.92-1.68-7.78-2.75-11.62-1.09-3.82-2.37-7.62-4.34-11.06-1-1.71-2.15-3.32-3.47-4.81-1.3-1.5-2.73-2.87-4.32-4.06-3.16-2.39-6.87-4.01-10.75-4.82-7.83-1.84-15.85-.48-23.79.04-3.98.3-7.94.84-11.8,1.83-3.85.95-7.54,2.71-10.55,5.31-1.43,1.4-3.07,2.59-4.82,3.57-1.75.99-3.68,1.57-5.46,2.46-3.59,1.75-6.77,4.25-9.48,7.17h.04Zm-.07-.07c2.71-2.94,5.9-5.46,9.49-7.22,1.79-.9,3.72-1.48,5.45-2.47,1.74-.97,3.35-2.16,4.78-3.56,3.03-2.63,6.74-4.4,10.61-5.37,3.87-1.01,7.84-1.56,11.82-1.87,3.98-.33,7.96-.69,11.94-.94,3.99-.34,8.01.08,11.92.84,3.92.81,7.68,2.43,10.88,4.84,1.6,1.2,3.06,2.58,4.37,4.09,1.33,1.49,2.5,3.13,3.51,4.85,2,3.47,3.29,7.29,4.4,11.13,1.09,3.84,2.09,7.72,2.79,11.65.69,3.92,1.23,7.92,2.67,11.64,1.53,3.68,3.47,7.18,5.33,10.71,3.79,7.02,7.6,14.04,11.53,21,3.95,6.93,8,13.84,12.98,20.09,2.41,3.18,4.81,6.38,7.53,9.29,1.37,1.44,2.83,2.82,4.52,3.87,1.68,1.04,3.63,1.72,5.62,1.66,1.99-.02,3.95-.43,5.88-.93,1.93-.5,3.82-1.13,5.7-1.82,3.76-1.35,7.38-3.02,11.03-4.66.94-.35,1.94-.57,2.95-.56,1.01.02,2.03.31,2.86.89.84.57,1.49,1.38,2.01,2.24.51.87.96,1.76,1.35,2.68,1.57,3.7,2.28,7.67,2.86,11.62.27,1.98.54,3.96.66,5.96.1,2,.02,3.99.12,5.99.06,2,.23,3.98.31,5.98,0,1.99-.46,4.08-1.75,5.66-.63.78-1.28,1.53-1.76,2.4s-.86,1.79-1.09,2.75c-.49,1.93-.49,3.94-.47,5.93-.02,1.99.28,3.98.29,5.98.09,2-.04,4,.1,5.98.07.99.2,1.98.43,2.94.22.96.57,1.91.7,2.92.13,1,.1,2.02-.07,3.01-.18,1-.6,1.94-1.12,2.8-1.06,1.7-2.3,3.29-2.82,5.23-.56,1.9-.65,3.93-.43,5.9s.75,3.91,1.32,5.81c.57,1.91,1.47,3.69,2.15,5.59.34.94.45,2.04,0,2.99-.39.98-1.27,1.6-2.02,2.22-.76.63-1.28,1.5-1.49,2.46-.11.48-.14.97-.09,1.46.04.49.15.98.15,1.5s-.15,1.03-.4,1.48c-.27.44-.63.81-1.05,1.11-.82.6-1.76.99-2.69,1.34-1.88.7-3.8,1.23-5.68,1.9-3.76,1.32-7.35,3.14-10.57,5.47-1.6,1.18-3.12,2.48-4.47,3.95-1.36,1.45-2.58,3.04-3.9,4.54-1.31,1.51-2.74,2.92-4.3,4.18-.77.64-1.57,1.24-2.39,1.82-.82.57-1.67,1.12-2.64,1.45-.97.31-2.05.33-3-.07-.96-.38-1.69-1.14-2.35-1.88-1.29-1.53-2.47-3.14-3.8-4.63-2.62-2.98-5.38-5.97-8.93-7.83-1.77-.91-3.67-1.59-5.68-1.53-1.99-.06-3.99-.09-5.99-.12-1.99-.02-3.99-.03-5.98.11-.98.09-2.01.14-2.88.57-.88.45-1.63,1.12-2.11,1.99-.49.85-.85,1.79-1.29,2.69-.43.91-.92,1.78-1.46,2.63-1.07,1.69-2.37,3.24-3.84,4.6-2.97,2.69-6.29,4.94-9.49,7.32-1.62,1.17-3.22,2.36-4.92,3.43-.85.52-1.73,1.05-2.72,1.29l-1.48.3c-.5.08-1,.09-1.5.14-4.03.16-7.97-1.23-11.43-3.19-1.74-.98-3.39-2.13-4.96-3.37-1.57-1.24-3.06-2.59-4.39-4.08-2.7-2.98-4.62-6.53-6.61-9.98-1.95-3.46-3.94-7.03-4.66-11-.37-1.97-.32-4.02.09-5.98.43-1.96,1.24-3.82,2.21-5.57,1.99-3.48,4.46-6.63,6.84-9.84,1.18-1.61,2.59-3.07,3.49-4.84.44-.89.76-1.84.96-2.81.21-.97.23-1.97.21-2.96-.06-1.99-.25-3.98-.37-5.97l-.36-5.98c-.09-1.99-.26-3.99-.14-5.99.24-1.99.78-3.94,1.53-5.79.76-1.84,1.51-3.71,1.67-5.7.25-1.98-.02-3.98-.5-5.91-.93-3.88-2.02-7.73-3.42-11.46-1.38-3.74-3-7.4-4.84-10.94-1.81-3.56-3.62-7.12-5.66-10.55-4.06-6.86-9.04-13.22-14.99-18.54-2.95-2.69-6.09-5.16-8.99-7.91s-5.63-5.67-8.2-8.73c-5.1-6.13-9.67-12.81-12.68-20.23C1.38,59.07.29,55.17,0,51.17c-.13-1.99-.07-4,.23-5.98.29-1.98.88-3.9,1.54-5.79,1.35-3.76,3.03-7.4,4.95-10.9,1.94-3.49,4.14-6.86,6.87-9.79l.06-.02Z"/>
    <path class="cls-1" d="m60.15,126.62c-1.02-4.34-2.41-8.59-4.27-12.63-.93-2.02-1.96-3.99-3.11-5.88-1.14-1.89-2.45-3.7-3.66-5.58l-7.43-11.13c-2.51-3.7-4.96-7.39-7.59-11.02l.03.05c-.94-1.15-1.81-2.55-2.13-4.15-.36-1.59-.06-3.35.74-4.75.78-1.41,1.87-2.51,2.95-3.52,1.09-1,2.15-1.97,3.28-2.93,1.13-.95,2.33-1.89,3.75-2.58,1.41-.69,3.11-1.09,4.8-.68.84.22,1.52.58,2.19.93.66.36,1.3.73,1.93,1.11l3.72,2.29c.6.37,1.2.72,1.73.88.52.16,1.06.13,1.63-.05,1.12-.35,2.16-1.25,2.49-2.29.35-1.04,0-2.34-.5-3.64-.5-1.32-1.16-2.68-1.43-4.29-.32-1.58.02-3.48,1.16-4.8,1.14-1.29,2.56-1.98,3.91-2.61,1.36-.61,2.76-1.12,4.11-1.62l4.08-1.53c2.73-1.02,5.45-2.07,8.29-2.91,1.42-.42,2.88-.76,4.4-.93,1.51-.17,3.13-.1,4.63.47.76.28,1.44.67,2.1,1.16.71.55,1.13,1.29,1.5,1.91l2.15,3.81c1.41,2.53,3,4.97,4.5,7.46,3.06,4.94,5.98,9.96,9.22,14.77,3.23,4.83,6.65,9.53,10.18,14.15l-.08.06c-3.61-4.56-7.12-9.2-10.44-13.98-3.35-4.76-6.33-9.76-9.43-14.68-1.52-2.48-3.13-4.9-4.58-7.42l-2.18-3.77c-.38-.62-.76-1.25-1.33-1.68-.58-.41-1.22-.77-1.89-1.02-1.35-.5-2.83-.56-4.27-.39-1.44.17-2.85.5-4.24.92-2.78.83-5.49,1.89-8.21,2.92l-4.08,1.55c-1.36.51-2.72,1.01-4.04,1.61-1.3.61-2.63,1.29-3.57,2.37-.93,1.09-1.22,2.63-.94,4.03.24,1.42.88,2.74,1.4,4.1.51,1.34.99,2.84.53,4.31-.47,1.44-1.74,2.48-3.14,2.93-.7.22-1.49.27-2.2.04-.72-.22-1.34-.61-1.96-.99l-3.7-2.3c-1.25-.73-2.48-1.54-3.86-1.95-1.4-.35-2.88-.03-4.17.6-1.3.63-2.46,1.52-3.57,2.44-1.11.94-2.19,1.91-3.26,2.89-1.06.99-2.09,2.03-2.79,3.3-.71,1.25-.97,2.75-.66,4.16.28,1.42,1.05,2.69,1.95,3.81h0c2.58,3.64,5.01,7.38,7.47,11.1l7.32,11.2c1.2,1.88,2.47,3.72,3.59,5.65,1.13,1.93,2.13,3.93,3.03,5.97,1.8,4.09,3.12,8.38,4.06,12.74l-.1.02h-.01Z"/>
    <path class="cls-1" d="m93.31,47.13c-.53-5.87-2.22-11.75-5.62-16.49-1.69-2.36-3.88-4.33-6.39-5.71-2.51-1.39-5.39-1.84-8.3-2.02-5.88-.24-11.82-.67-17.58.17-5.76.81-11.34,2.79-16.24,5.9-2.46,1.53-4.76,3.32-6.84,5.35-2.1,2.04-4.01,4.22-5.65,6.62-1.63,2.4-3,4.97-3.99,7.69-.52,1.35-.9,2.75-1.25,4.16-.35,1.42-.64,2.86-.85,4.3-.42,2.88-.57,5.81-.29,8.7.3,2.88,1.07,5.72,2.48,8.25,1.39,2.52,3.43,4.71,5.92,6.24,2.5,1.52,5.36,2.44,8.29,2.82v.1c-2.96-.32-5.87-1.16-8.45-2.65-2.57-1.49-4.72-3.68-6.22-6.24-1.5-2.57-2.32-5.49-2.67-8.44-.33-2.95-.21-5.94.17-8.88.41-2.94,1.03-5.86,2.05-8.65,1-2.8,2.4-5.44,4.05-7.91,1.66-2.46,3.62-4.72,5.73-6.79,2.12-2.08,4.46-3.93,6.98-5.51,5.04-3.16,10.77-5.16,16.65-5.95,5.9-.81,11.86-.39,17.76-.04,2.94.22,5.96.73,8.56,2.22,2.59,1.47,4.82,3.54,6.51,5.98,3.35,4.94,4.89,10.89,5.29,16.79h-.1Z"/>
    <path class="cls-1" d="m104,97.56c2.45-3.16,4.88-6.39,7.97-9.01,1.53-1.3,3.3-2.45,5.38-2.84.52-.03,1.05-.13,1.58-.04.53.03,1.06.14,1.57.34,1.01.4,1.85,1.08,2.61,1.76,1.5,1.41,2.85,2.84,4.25,4.32,1.36,1.5,2.72,3.17,3.38,5.27.69,2.07.56,4.42-.25,6.42-.39,1.01-.9,1.92-1.41,2.81-.52.86-1.03,1.74-1.66,2.6-1.25,1.68-2.8,3.13-4.39,4.4-1.61,1.25-3.18,2.46-4.91,3.6-.86.56-1.77,1.07-2.78,1.47-.5.2-1.13.34-1.65.36-.54.04-1.09.04-1.62-.02-2.18-.23-4.04-1.28-5.77-2.25-1.75-.98-3.53-2.02-5.03-3.43-1.5-1.37-2.7-3.25-2.85-5.33-.08-1.03.11-2.07.49-3.01s.9-1.82,1.46-2.65c1.13-1.67,2.39-3.22,3.64-4.79v.02Zm.08.06c-1.23,1.58-2.48,3.15-3.58,4.82-1.08,1.65-2.06,3.54-1.85,5.55.17,2,1.38,3.76,2.87,5.06,1.5,1.32,3.26,2.31,5.03,3.23,1.76.92,3.58,1.87,5.58,2.02.98.06,2,.02,2.91-.37.92-.38,1.77-.91,2.6-1.46,1.65-1.12,3.23-2.36,4.8-3.6,1.55-1.26,3-2.65,4.17-4.27.59-.8,1.11-1.66,1.63-2.51.52-.86,1.01-1.73,1.37-2.65.76-1.83.89-3.93.29-5.82-.58-1.91-1.8-3.55-3.1-5.05-1.33-1.49-2.67-2.99-4.09-4.39-.72-.69-1.49-1.34-2.41-1.73-.45-.2-.94-.31-1.43-.35-.49-.1-.99-.02-1.48,0-1.97.32-3.75,1.37-5.28,2.64-3.09,2.55-5.56,5.75-8.04,8.89h.01Z"/>
    <path class="cls-1" d="m86.31,122.31c1.81,1.01,3.19,2.69,4.08,4.55.91,1.86,1.35,3.96,1.19,6.04-.15,2.07-.77,4.12-1.76,5.95-.98,1.85-2.24,3.53-3.69,5.04-2.92,3.05-6.96,5-11.14,5.64-1.05.16-2.09.25-3.11.34-1.03.09-2.09.16-3.18.11-2.18-.06-4.48-.88-6.15-2.44-1.68-1.59-2.56-3.7-3.18-5.69-.62-2.03-1.05-4.02-1.5-6.05-.22-1.03-.37-2.08-.41-3.16-.05-1.07.02-2.2.37-3.28s.97-2.04,1.71-2.83c.75-.79,1.57-1.45,2.49-2.03,1.86-1.12,3.93-1.59,5.96-1.97,2.04-.37,4.09-.55,6.14-.73,2.05-.17,4.1-.31,6.15-.36,1.03-.02,2.06-.02,3.08.07,1.02.09,2.08.25,2.97.8h-.02Zm-.05.09c-.88-.54-1.92-.68-2.93-.76-1.02-.07-2.05-.06-3.07-.03-2.05.07-4.09.23-6.13.42-2.04.2-4.08.46-6.08.87-1.99.42-4.01.95-5.74,2.05-1.67,1.13-3.23,2.63-3.81,4.6-.56,1.97-.21,4.06.21,6.05.47,1.99.92,4,1.55,5.95.62,1.93,1.48,3.86,2.98,5.25,1.48,1.4,3.49,2.16,5.52,2.24,1.02.06,2.04,0,3.06-.07,1.02-.08,2.04-.16,3.06-.3,4.04-.55,7.97-2.28,10.88-5.17,1.46-1.43,2.74-3.05,3.74-4.83,1.01-1.77,1.69-3.75,1.86-5.78.18-2.03-.24-4.1-1.11-5.95-.86-1.85-2.2-3.51-3.97-4.53h-.02Z"/>
    <path class="cls-1" d="m91.25,129.61c1.56,1.78,3.13,3.54,4.82,5.19,1.65,1.7,3.27,3.42,5,4.97,1.74,1.51,3.54,2.97,5.65,3.25,2.11.3,4.36-.27,6.27-1.33,1.92-1.02,3.64-2.61,4.36-4.58.19-.51.3-.94.27-1.44-.01-.51-.1-1.05-.23-1.59-.26-1.09-.61-2.2-.99-3.29-.78-2.2-1.71-4.36-2.74-6.46-.99-2.13-2.15-4.19-3.34-6.23l.08-.06c2.71,3.88,4.98,8.07,6.73,12.47.43,1.1.84,2.22,1.11,3.38.28,1.13.45,2.41-.03,3.53-.81,2.28-2.67,4.02-4.74,5.15-2.09,1.12-4.52,1.72-6.9,1.35-2.41-.37-4.35-1.97-6.05-3.58-1.7-1.65-3.27-3.42-4.85-5.18-1.59-1.75-3.1-3.58-4.51-5.48l.08-.06h0Z"/>
    <path class="cls-1" d="m59.6,190.15c1.25,4,2.82,7.9,4.72,11.62.95,1.86,1.98,3.69,3.02,5.5,1.06,1.79,2.17,3.57,3.57,5.04,1.39,1.48,3.13,2.56,5.08,3.05,1.94.51,4,.48,5.97.04,1.95-.41,3.74-1.41,5.44-2.57,1.69-1.17,3.31-2.48,4.91-3.82,1.59-1.36,3.06-2.85,4.65-4.22.8-.69,1.61-1.37,2.52-2.01.92-.64,1.97-1.15,3.05-1.46,1.08-.32,2.14-.48,3.18-.65l3.1-.5c2.06-.34,4.13-.68,6.13-1.14,1.99-.47,3.94-1.07,5.45-2.24.79-.59,1.41-1.27,2.1-2.09.35-.41.77-.87,1.28-1.22.5-.36,1.05-.63,1.59-.83,1.06-.43,2.27-.59,3.31-.66,1.04-.07,1.94-.21,2.83-.55.92-.33,1.65-.79,2.38-1.47.73-.67,1.48-1.44,2.26-2.16.77-.72,1.61-1.45,2.48-2.08.85-.63,1.67-1.24,2.5-1.88,1.65-1.27,3.26-2.61,4.87-3.94l4.83-4.01,4.75-4.1,4.75-4.1c1.59-1.35,3.11-2.81,4.67-4.21,3.06-2.85,6.19-5.64,8.83-8.79,1.31-1.57,2.45-3.28,3.09-5.16.31-.94.5-1.89.54-2.91.05-1.03.08-2.11.21-3.17.26-2.14.81-4.23,1.66-6.21.8-2.02,2.33-3.65,2.37-5.59.05-.98-.09-1.97-.44-2.91-.34-.95-.84-1.92-1.07-3-.26-1.08-.27-2.16-.14-3.25.19-1.07.48-2.07.73-3.09.54-2.03,1.01-4.08,1.81-6.05.42-.95.95-1.99,1.97-2.47,1.01-.47,2.16-.25,3.12.14l-.04.09c-.96-.36-2.07-.56-3.02-.09-.95.46-1.45,1.46-1.85,2.41-.75,1.95-1.19,4.01-1.69,6.04-.24,1.02-.51,2.04-.67,3.07-.1,1.03-.08,2.09.19,3.1.24,1.02.74,1.95,1.11,2.93.38.98.56,2.05.53,3.1-.03,1.07-.42,2.09-.93,3-.5.92-1.02,1.83-1.42,2.8-.8,1.93-1.33,3.98-1.56,6.05-.25,2.06,0,4.22-.73,6.24-.67,2.01-1.84,3.8-3.17,5.42-2.67,3.25-5.79,6.08-8.85,8.94-1.55,1.41-3.06,2.86-4.66,4.23l-4.75,4.12c-6.27,5.56-12.81,10.85-19.35,16.07-.77.71-1.5,1.46-2.28,2.16-.77.72-1.7,1.3-2.7,1.65-1.99.84-4.22.36-6.15,1.19-2.09.6-2.96,2.81-4.73,3.99-1.7,1.3-3.77,1.91-5.81,2.39-2.05.46-4.12.79-6.19,1.13-2.06.37-4.17.55-6.18,1.1-2.04.53-3.68,1.93-5.26,3.28-1.6,1.35-3.09,2.84-4.7,4.18-1.62,1.33-3.26,2.64-5.01,3.82-1.74,1.16-3.63,2.2-5.7,2.62-2.06.43-4.22.44-6.26-.11-2.04-.54-3.9-1.71-5.31-3.27-1.43-1.55-2.52-3.37-3.55-5.19-1.02-1.84-2.01-3.68-2.94-5.56-1.84-3.77-3.35-7.7-4.53-11.73l.1-.03v-.02Z"/>
    <path class="cls-1" d="m124.01,194.26c-.47.4-.89.86-1.19,1.39s-.49,1.12-.57,1.73v-.02c-.08,1.03.1,2.03.47,2.96.41.91,1.06,1.7,1.74,2.43,1.39,1.44,3.07,2.62,4.91,3.28.91.34,1.86.56,2.82.61.47.06.95.03,1.42.04.5-.02.98-.06,1.44-.14.92-.15,1.76-.49,2.44-1.01.67-.54,1.22-1.22,1.56-2.04.68-1.64.62-3.7,0-5.41-.63-1.75-2.08-3.27-3.61-4.49-.78-.58-1.67-1.04-2.63-1.16-.49-.06-.95-.04-1.44.1-.52.12-1.03.2-1.55.26s-1.04.08-1.56.07c-.52-.02-1.01,0-1.5.12-.99.22-1.93.66-2.73,1.3v-.02Zm-.06-.08c.8-.66,1.75-1.13,2.75-1.38.5-.13,1.03-.16,1.54-.15.51,0,1.02-.03,1.53-.1s1.01-.15,1.5-.3c.49-.17,1.03-.23,1.54-.19,1.05.07,2.03.52,2.88,1.09,1.66,1.2,3.24,2.66,4.07,4.59.81,1.91.9,4.13.17,6.09-.37.97-1.02,1.85-1.87,2.47-.84.62-1.86.98-2.88,1.13-2.04.29-4.19.09-6.08-.77-1.91-.8-3.58-2.11-4.93-3.66-.67-.78-1.28-1.63-1.67-2.6-.37-.97-.53-2.03-.42-3.05h0c.1-.63.3-1.24.63-1.78.32-.54.76-1.01,1.25-1.4h-.01Z"/>
    <path class="cls-1" d="m151.22,176.52c-.94.85-1.89,1.7-2.69,2.67-.81.96-1.42,2.09-1.67,3.3-.45,2.42.35,5.11,2.09,6.66.89.77,2,1.26,3.15,1.43,1.13.17,2.44.09,3.66.08,2.44-.07,4.94-.46,6.76-1.79.93-.63,1.66-1.48,2.17-2.53.54-1.11,1.03-2.22,1.31-3.38.3-1.15.47-2.34.3-3.48-.16-1.13-.69-2.2-1.55-2.99-.86-.8-2.01-1.31-3.18-1.73-1.19-.39-2.39-.89-3.61-1.02-1.23-.12-2.5.11-3.63.64-1.14.53-2.14,1.33-3.1,2.14h0Zm-.07-.08c.95-.83,1.94-1.66,3.1-2.22,1.15-.56,2.45-.82,3.72-.72,1.28.11,2.49.54,3.71.89,1.21.38,2.43.85,3.42,1.68.99.82,1.66,2.01,1.9,3.27.25,1.27.13,2.57-.16,3.81-.28,1.25-.78,2.43-1.32,3.59-.54,1.16-1.38,2.19-2.43,2.94-2.14,1.49-4.81,1.8-7.33,1.84-1.27,0-2.55,0-3.81-.24-1.26-.25-2.45-.84-3.38-1.73-1.84-1.82-2.48-4.63-1.94-7.11.28-1.25.94-2.4,1.77-3.36.83-.97,1.8-1.8,2.76-2.63h0Z"/>
    <path class="cls-1" d="m59.44,240.93c-.25-1.18-.24-2.44.12-3.64.31-1.22,1.12-2.29,1.86-3.2,1.53-1.83,3.01-3.75,4.8-5.43.86-.84,1.72-1.67,2.64-2.47.91-.8,1.85-1.6,2.96-2.28.55-.33,1.16-.63,1.81-.83.63-.2,1.31-.33,2-.34,1.38,0,2.53.26,3.71.41,2.33.45,4.71.56,7.08.74l7.12.54c2.38.16,4.76.24,7.15.26,2.39.08,4.78.03,7.18.03v.1c-4.77.39-9.56.53-14.35.38-2.4-.07-4.78-.28-7.17-.41-2.39-.16-4.79-.24-7.15-.66-1.18-.17-2.36-.44-3.54-.44-1.18,0-2.34.39-3.36,1-2.03,1.25-3.74,2.95-5.53,4.54-1.79,1.58-3.33,3.43-4.93,5.21-.81.88-1.58,1.81-1.95,2.95-.39,1.12-.48,2.34-.33,3.52h-.1l-.02.02Z"/>
    <path class="cls-1" d="m125.36,225.37c3.21-.68,6.32-1.86,9.19-3.34,1.39-.75,2.67-1.73,3.47-3.03.42-.67.85-1.41,1.33-2.1l1.38-2.05c1.8-2.75,3.61-5.47,5.25-8.3.83-1.41,1.57-2.8,2.08-4.29.25-.73.5-1.55.71-2.3s.35-1.53.24-2c-.03-.24-.17-.38-.33-.56-.21-.16-.46-.31-.78-.41-.62-.21-1.37-.27-2.11-.23-1.46.09-3.01.59-3.99,1.51-.24.22-.43.49-.57.74-.05.12-.08.18-.09.33l-.04.58c-.06.91-.24,1.73-.41,2.56-.37,1.66-.96,3.36-2.12,4.78-.58.7-1.32,1.32-2.18,1.69-.89.36-1.53.5-2.09.98-.57.49-1.14,1.11-1.71,1.66-.29.29-.54.59-.83.9-.14.16-.35.36-.58.49-.22.13-.46.23-.71.28-1.02.17-1.78-.09-2.6-.15-.81-.1-1.63-.2-2.42-.19-.79,0-1.57.19-2.19.69-.63.49-1.09,1.18-1.45,1.91l-.09-.04c.33-.75.77-1.48,1.41-2.03.63-.56,1.48-.81,2.31-.84.83-.05,1.65.02,2.47.09.82.03,1.65.24,2.44.06.82-.17,1.22-.99,1.81-1.56.58-.59,1.12-1.21,1.73-1.77.63-.57,1.47-.8,2.21-1.12.74-.34,1.37-.88,1.87-1.52,1.01-1.29,1.54-2.89,1.88-4.48.16-.8.33-1.61.37-2.43.03-.4,0-.84.2-1.24.2-.37.45-.72.75-1.01,1.23-1.15,2.92-1.68,4.56-1.81.83-.05,1.67,0,2.48.25.4.12.78.33,1.12.59.31.3.58.66.66,1.09.17.86-.06,1.69-.27,2.48-.23.8-.47,1.58-.75,2.36-.56,1.56-1.35,3.02-2.2,4.43-1.69,2.83-3.5,5.58-5.39,8.28-.95,1.35-1.92,2.67-2.8,4.07-.91,1.4-2.31,2.41-3.78,3.14-3,1.37-6.16,2.41-9.41,2.96l-.02-.1h-.01Z"/>
    <path class="cls-1" d="m71.74,149.05c.79,2.28,1.91,4.46,3.39,6.34,1.46,1.89,3.37,3.41,5.52,4.31,2.14.96,4.52,1.09,6.84.73,2.33-.36,4.63-1.06,6.89-1.87,4.51-1.64,8.88-3.62,12.95-6.16,4.08-2.5,7.88-5.47,11.51-8.63,3.65-3.12,7.22-6.44,10.71-9.75,3.42-3.35,6.83-6.86,8.56-11.2.85-2.17,1.2-4.52,1.14-6.88-.04-2.36-.44-4.73-1.19-6.98-1.44-4.54-4.34-8.61-8.13-11.62l.06-.08c3.88,2.91,6.96,6.94,8.57,11.53.82,2.29,1.27,4.71,1.35,7.13.1,2.43-.22,4.89-1.07,7.17-.83,2.3-2.19,4.35-3.71,6.24-1.52,1.9-3.22,3.63-4.95,5.34-3.5,3.36-7.03,6.68-10.69,9.86-3.67,3.17-7.53,6.14-11.68,8.65-4.14,2.54-8.58,4.57-13.17,6.12-2.3.77-4.64,1.45-7.05,1.78-2.4.34-4.93.16-7.15-.9-2.22-1.01-4.13-2.65-5.56-4.61-1.45-1.96-2.51-4.18-3.23-6.49l.1-.03h0Z"/>
    <path class="cls-1" d="m185.98,180.57c.52-1.27.94-2.56.93-3.86.06-1.3-.23-2.53-.9-3.59-.68-1.05-1.52-2.12-2.37-3.21-.84-1.09-1.67-2.22-2.43-3.39-1.4-2.41-2.74-4.86-3.57-7.56-.41-1.36-.67-2.73-.84-4.12-.11-1.39-.16-2.78,0-4.16h.1c.08,2.72.56,5.44,1.47,8.01.94,2.56,2.26,4.97,3.69,7.29.72,1.16,1.5,2.28,2.31,3.38.8,1.1,1.67,2.17,2.33,3.39.67,1.21.9,2.64.73,4.01-.15,1.37-.68,2.68-1.37,3.86l-.09-.05h0Z"/>
    <path class="cls-1" d="m149.35,199.55c1.54-.18,3.07-.31,4.59-.56,1.52-.19,3.03-.43,4.52-.73,3-.59,5.98-1.21,8.83-2.21,2.9-.86,5.66-2.12,8.36-3.51,1.35-.69,2.67-1.46,3.96-2.28,1.32-.78,2.57-1.66,3.86-2.53l.07.08c-4.64,4.06-10.06,7.28-15.94,9.19-2.94.95-5.98,1.58-9.03,2.03s-6.14.66-9.23.62v-.1h0Z"/>
    <path class="cls-1" d="m147.38,179.36c-.66,1.38-1.18,2.75-1.6,4.12-.18.7-.39,1.37-.49,2.08-.14.69-.23,1.39-.26,2.09-.11,1.4-.02,2.81.2,4.23.1.71.27,1.42.48,2.12.16.73.43,1.41.66,2.15l-.08.05c-.8-1.27-1.42-2.67-1.8-4.13-.39-1.46-.53-2.98-.44-4.49.09-1.51.47-2.99,1.02-4.39.56-1.4,1.32-2.72,2.26-3.9l.08.06h-.03Z"/>
    <path class="cls-1" d="m177.34,192.11c.72,2.34,1.34,4.71,2,7.08.28,1.18.5,2.51.32,3.8-.13,1.24-.41,2.6-1.26,3.76-.43.57-.99,1.06-1.62,1.39-.63.33-1.31.52-1.98.62-.67.1-1.34.11-1.99.08-.63-.02-1.38-.17-1.92-.29-.28-.05-.34-.04-.38,0-.09.07-.14.08-.2.24-.14.31-.23,1.07-.53,1.75-.3.69-.77,1.31-1.39,1.77-.61.46-1.23.71-1.78.96-.61.26-1.26.47-1.93.6-.66.13-1.34.17-1.86.24-.52.08-.79.19-1.1.53-.3.32-.51.76-.65,1.25-.06.24-.11.52-.14.78-.03.25-.03.49,0,.74.04.48.28,1.14.22,1.96-.05.77-.37,1.54-.86,2.1-.49.56-.92.89-1.24,1.31-1.4,1.65-1.2,4.33-2.14,6.71-.93,2.37-2.53,4.38-4.43,5.92l-.07-.07c1.76-1.68,3.24-3.7,4-6.02.39-1.15.56-2.36.75-3.57.19-1.2.51-2.44,1.26-3.43.36-.51.83-.91,1.21-1.38.38-.46.61-1.04.65-1.63.04-.59-.17-1.18-.24-1.79-.08-.62,0-1.25.14-1.85.15-.6.41-1.19.84-1.66.41-.49,1.04-.76,1.65-.84.61-.09,1.22-.13,1.81-.25s1.17-.31,1.72-.56c.56-.25,1.12-.48,1.6-.84.48-.35.85-.84,1.1-1.38.26-.54.31-1.15.55-1.74.12-.3.37-.55.66-.69.31-.15.66-.11.95-.04,1.18.31,2.4.4,3.6.25,1.19-.15,2.37-.67,3.11-1.63.75-.95,1.06-2.17,1.22-3.36.21-1.2.04-2.42-.19-3.62l-1.58-7.15.1-.02.02-.02Z"/>
    <path class="cls-1" d="m59.3,139.07c1.74.06,3.48.14,5.18-.03.84-.07,1.68-.18,2.45-.42.77-.23,1.47-.6,1.84-1.13.38-.52.45-1.16.36-1.94s-.33-1.62-.42-2.6c-.12-.95.12-2.22.9-3.06.76-.88,1.85-1.25,2.75-1.44.93-.17,1.81-.24,2.69-.31.86-.06,1.75-.16,2.7-.12.95.03,1.97.24,2.86.73.43.23.89.55,1.23.96.35.41.58.9.76,1.23.19.33.29.46.56.56.25.09.6.09.96,0,.73-.15,1.49-.56,2.21-.98,1.48-.84,2.82-1.96,4.2-3.03l.07.07c-1.25,1.21-2.53,2.4-3.97,3.39-.72.48-1.48.95-2.34,1.18-.42.11-.88.16-1.32.04-.45-.1-.81-.46-1.02-.84-.7-1.65-2.51-2.42-4.21-2.42-.86-.02-1.73.08-2.59.16-.86.09-1.73.17-2.57.34s-1.68.46-2.24,1.1c-.58.62-.78,1.51-.7,2.36.06.86.28,1.7.37,2.58.04.44.04.88-.04,1.32-.11.43-.29.85-.58,1.2-.58.69-1.44,1.06-2.28,1.27-.85.21-1.73.29-2.6.31-1.75.03-3.48-.14-5.2-.4v-.1h-.01Z"/>
    <path class="cls-1" d="m105.03,115.69c1.19-1.51,2.43-2.97,3.54-4.51,1.14-1.51,2.25-3.07,3.07-4.71.41-.82.76-1.66.94-2.47.06-.4.12-.8.05-1.14-.07-.35-.17-.61-.42-.92-.5-.62-1.36-1.32-1.9-2.35-.56-1.03-.68-2.26-.47-3.37.25-1.1.75-2.1,1.51-2.93.72-.78,1.64-1.53,2.92-1.73.63-.08,1.32.06,1.87.35.57.28.96.69,1.33,1.08.71.8,1.18,1.65,1.7,2.42.5.75,1.07,1.48,1.71,1.64.63.23,1.42-.24,2.06-.84,1.35-1.22,2.31-2.93,3.31-4.55l.09.04c-.83,1.72-1.7,3.46-3.02,4.88-.34.34-.71.66-1.14.89-.43.23-.94.35-1.43.22-.49-.1-.92-.38-1.26-.72-.36-.33-.65-.72-.94-1.1-.57-.78-1.08-1.59-1.71-2.3-.62-.69-1.49-1.25-2.43-1.11-.93.14-1.71.76-2.33,1.46-.63.7-1.05,1.58-1.24,2.5-.19.92-.1,1.9.34,2.73.42.85,1.16,1.47,1.77,2.23.64.78.71,1.87.49,2.8-.21.95-.63,1.83-1.1,2.67-1.92,3.34-4.58,6.15-7.22,8.92l-.07-.07h-.02Z"/>
  </g>
</svg>