<svg width="263" height="436" viewBox="0 0 263 436" fill="none" xmlns="http://www.w3.org/2000/svg">
<g opacity="0.7" clip-path="url(#clip0_482_10013)">
<path d="M27.8904 -36.6253C16.9714 -24.5046 9.56941 -9.52235 3.96678 5.68474C-8.07683 37.7341 12.4934 70.2331 32.3889 94.2905C42.7558 106.984 55.2288 117.469 67.62 128.098C79.8885 138.951 90.1736 151.971 98.5776 166.013C110.948 187.209 121.99 209.427 127.429 233.484C128.431 237.45 129.024 241.722 128.513 245.891C127.715 254.169 122.644 261.16 122.072 269.397C121.847 273.301 122.215 277.45 122.419 281.497C122.828 288.651 123.646 298.85 124.014 305.963C124.444 312.279 122.174 318.779 118.105 323.582L114.363 328.406C105.325 341.038 92.8318 354.548 96.1034 371.207C97.5348 379.015 101.563 386.189 105.571 393.22C109.681 400.272 113.586 407.405 119.005 413.312C130.292 425.106 146.343 436.164 163.315 434.12C170.246 433.159 175.542 427.906 181.206 424.064C187.729 419.179 194.518 414.539 200.386 409.143C219.116 391.503 204.659 381.529 237.376 382.796C243.101 383 248.847 382.571 254.551 383.43C269.703 387.272 279.354 400.865 288.719 412.025C294.486 419.73 301.479 413.742 307.245 409.04C313.665 403.951 318.225 397.41 323.746 391.319C332.252 382.081 343.56 375.683 355.276 371.513C360.347 369.244 373.945 367.364 374.088 361.437C371.409 346.74 384.373 349.786 381.224 340.282C378.198 332.903 374.967 324.829 374.067 316.612C373.597 312.381 373.781 308.048 375.028 303.858C376.603 297.522 381.817 293.659 383.044 287.609C384.332 281.661 380.958 275.938 380.856 269.928C380.57 265.677 380.856 261.671 380.672 257.644C380.406 249.305 379.138 241.17 381.101 232.851C382.042 228.742 384.537 224.757 387.236 221.732C389.608 218.85 390.487 214.966 390.487 211.124C389.383 191.154 390.221 170.122 382.553 151.297C377.646 138.992 371.205 137.827 360.02 143.795C350.675 148.026 341.147 151.951 331.209 154.587C323.276 156.795 313.931 157.919 306.734 152.952C296.326 146.044 289.333 135.374 281.767 125.747C271.564 112.931 263.221 98.7055 255.165 84.5613C243.428 63.0179 230.853 41.9855 220.67 19.6246C217.664 11.8575 216.58 3.68166 215.17 -4.33068C213.738 -12.343 211.714 -20.2327 209.485 -28.0611C203.555 -52.139 188.158 -73.5801 162.599 -78.547C146.588 -82.267 130.189 -79.4668 113.954 -78.363C97.9846 -76.9936 80.7678 -74.5817 68.2743 -63.6669C62.5286 -57.6577 54.7176 -54.51 47.2747 -51.3009C39.9545 -47.724 33.4521 -42.5937 27.9313 -36.6049L27.8904 -36.6253ZM27.7473 -36.7684C33.2681 -42.7776 39.7909 -47.9488 47.1316 -51.5667C54.5949 -54.8166 62.2627 -57.9029 68.029 -63.9326C80.5633 -74.9087 97.8415 -77.3819 113.872 -78.8127C122.01 -79.5076 130.128 -80.2639 138.287 -80.7749C164.173 -82.594 187.668 -74.2342 201.102 -50.9944C208.994 -36.6457 212.573 -20.3758 215.885 -4.47375C217.317 3.53857 218.441 11.694 221.406 19.2975C231.589 41.5154 244.246 62.6091 256.003 84.0503C264.121 98.1945 272.423 112.298 282.626 125.073C290.151 134.577 297.082 145.144 307.327 151.91C318.164 158.9 331.434 153.279 342.496 149.621C350.185 146.841 357.566 143.407 365.03 140.055C366.952 139.339 368.996 138.869 371.062 138.89C386.908 139.074 389.812 174.7 391.08 186.637C391.223 194.833 391.448 202.927 392 211.103C392.02 215.171 391.08 219.442 388.442 222.692C385.763 225.758 383.555 229.233 382.615 233.239C380.733 241.211 382.042 249.489 382.308 257.583C382.512 261.671 382.246 265.759 382.533 269.806C382.635 273.935 384.148 277.757 384.864 281.783C385.416 285.871 384.7 290.164 382.451 293.659C373.883 304.696 374.395 315.57 378.566 328.283C379.731 332.187 381.592 335.826 382.983 339.689C383.678 341.61 383.903 343.858 383.023 345.8C382.226 347.803 380.427 349.071 378.893 350.338C376.542 352.259 375.356 355.366 375.662 358.35C376.276 361.437 376.03 364.809 373.025 366.69C367.872 370.123 361.594 371.166 355.91 373.353C344.459 377.461 333.52 383.695 325.198 392.668C318.511 400.354 312.214 408.55 303.605 414.253C298.064 418.545 291.909 419.322 287.268 413.251C277.289 401.539 266.493 385.351 249.583 384.738C241.445 384.595 233.245 384.247 225.127 384.758C214.168 384.636 214.229 393.731 209.342 400.885C202.778 411.432 191.778 417.932 182.126 425.29C178.814 427.681 175.542 430.134 172.087 432.321C161.433 439.209 147.345 435.183 137.08 429.398C129.985 425.331 123.442 420.241 117.941 414.191C112.4 408.121 108.454 400.865 104.385 393.833C100.397 386.761 96.3079 379.485 94.8152 371.37C91.4823 354.344 104.18 340.404 113.423 327.629C118.657 321.354 123.708 314.568 122.89 305.923C122.379 298.953 121.867 288.59 121.356 281.497C121.172 277.43 120.804 273.342 121.049 269.254C121.622 260.976 126.734 253.904 127.552 245.748C128.043 241.701 127.49 237.613 126.509 233.668C121.152 209.693 110.171 187.495 97.9233 166.381C89.5807 152.38 79.3978 139.401 67.1906 128.547C54.8403 117.898 42.3059 107.311 31.9799 94.5972C12.0027 70.4579 -8.52667 37.7136 3.66007 5.58254C9.32404 -9.66542 16.7669 -24.6272 27.7473 -36.7684Z" fill="#D8B49C"/>
<path d="M123.217 183.673C119.25 165.788 111.235 149.293 100.541 134.495C91.6869 121.168 78.7232 101.833 69.808 89.3848C62.2015 80.5548 64.4712 71.1322 72.9365 63.9783C77.5168 59.8904 81.6881 55.5367 87.3111 52.6752C91.5029 50.3042 97.4531 50.4268 101.604 53.1657C104.262 54.5556 110.519 58.48 113.157 60.0948C114.404 60.851 115.611 61.5664 116.694 61.8935C120.007 62.8541 124.137 60.1765 125.098 57.0901C125.814 54.9644 125.098 52.3073 124.055 49.6501C119.005 38.8376 119.189 30.7843 131.437 25.7153C136.303 23.5078 143.194 21.2186 148.163 19.236C160.554 15.148 181.881 3.68139 190.939 18.541L195.356 26.3081C204.516 41.556 213.718 56.8449 223.492 71.7045C229.892 81.5768 237.744 91.3265 244.205 100.708C236.803 91.4083 229.606 81.9243 222.797 72.195C212.696 57.4989 203.412 42.251 194.068 27.0848C192.391 24.5503 189.263 17.8052 186.87 15.9656C175.89 8.28031 160.043 17.3351 148.817 20.9938L140.495 24.1823C126.468 29.3536 118.023 32.7465 125.916 48.9756C126.959 51.7145 127.961 54.7805 127.02 57.7851C125.569 62.057 120.538 65.1229 116.101 63.8761C114.629 63.4264 113.341 62.6293 112.094 61.8526L104.508 57.1515C101.952 55.6594 99.4161 54.0038 96.6148 53.1862C93.7521 52.4912 90.7259 53.1453 88.0881 54.433C82.7922 57.1106 78.5391 61.4642 74.1429 65.3682C66.3524 71.9906 64.1032 80.1256 71.1167 88.4037C80.1954 101.403 92.6684 120.494 101.461 133.943C111.726 148.782 120.273 166.176 123.176 183.734L123.217 183.673Z" fill="#D8B49C"/>
<path d="M190.694 21.0551C188.874 -2.47093 175.563 -28.4293 149.042 -28.3679C124.71 -29.9622 100.97 -29.5943 79.909 -15.8385C64.9618 -6.33402 52.4683 7.72845 46.2932 24.4276C38.8094 45.6848 36.9487 75.6289 58.7049 89.0782C63.8167 92.185 69.6852 94.045 75.6763 94.8217V95.0261C63.5714 93.9224 51.7118 87.6678 45.6389 76.8961C39.4637 66.2675 38.9116 53.4314 40.4656 41.5151C43.042 17.1307 58.2959 -4.59665 78.8252 -17.5554C99.9885 -31.3112 124.832 -31.9449 149.165 -29.9418C161.454 -29.6965 173.17 -23.5237 180.02 -13.2426C186.686 -3.30895 190.551 9.52713 190.694 21.0551Z" fill="#D8B49C"/>
<path d="M212.777 124.091C221.345 113.483 236.824 90.0592 251.791 104.02C263.569 115.2 274.774 125.829 264.08 142.466C261.115 147.985 256.678 153.013 251.75 156.795C245.064 161.496 238.275 168.915 229.36 167.914C224.903 167.444 221.099 165.298 217.542 163.335C213.943 161.353 210.324 159.207 207.236 156.345C194.906 145.001 204.7 134.127 212.777 124.091ZM212.941 124.214C208.422 130.611 201.47 137.03 201.879 145.43C202.799 153.974 211.141 158.736 218.073 162.334C221.672 164.214 225.393 166.136 229.483 166.442C237.887 167.096 244.205 159.779 250.544 155.303C255.39 151.501 259.357 146.779 262.383 141.424C272.75 126.033 261.626 115.588 250.994 104.817C236.885 90.979 221.283 114.117 212.92 124.193L212.941 124.214Z" fill="#D8B49C"/>
<path d="M176.687 174.741C184.069 179.013 188.056 187.986 187.504 196.345C186.952 204.95 182.249 212.718 176.401 218.829C168.979 226.78 157.998 230.582 147.284 231.113C140.7 231.89 133.318 231.277 128.186 226.371C121.643 219.851 120.681 210.755 118.555 202.395C116.244 192.83 118.064 184.531 127 179.299C134.606 174.986 143.296 174.618 151.721 173.739C157.998 173.249 164.317 172.697 170.614 173.105C172.7 173.289 174.868 173.596 176.687 174.741ZM176.585 174.925C172.884 172.881 168.406 173.33 164.317 173.351C160.125 173.494 155.954 173.821 151.782 174.23C143.583 175.231 134.831 175.926 127.634 180.259C119.291 185.492 117.962 192.952 120.293 202.048C122.379 209.917 123.503 218.972 129.597 224.92C135.935 231.052 145.403 229.621 153.398 228.681C161.658 227.557 169.674 223.98 175.624 218.052C181.472 212.227 186.339 204.726 187.034 196.325C187.668 188.108 183.824 179.197 176.606 174.925H176.585Z" fill="#D8B49C"/>
<path d="M186.829 189.641C193.168 196.856 199.977 203.826 206.929 210.367C210.487 213.453 214.188 216.437 218.503 216.989C226.906 218.032 237.048 212.861 240.218 204.869C241.772 200.535 239.482 196.161 238.255 191.951C235.229 182.916 230.096 174.066 225.925 165.911C231.487 173.841 236.149 182.385 239.727 191.378C241.281 195.814 243.694 200.76 241.976 205.502C238.459 214.659 227.745 220.117 218.196 218.849C208.381 216.826 202.472 207.689 195.888 200.985C192.636 197.408 189.528 193.688 186.645 189.805L186.809 189.682L186.829 189.641Z" fill="#D8B49C"/>
<path d="M122.358 313.526C126.141 325.83 131.703 337.44 138.246 348.478C140.413 352.136 142.683 355.774 145.566 358.759C151.23 364.993 160.145 366.955 168.181 365.054C180.429 361.702 189.446 351.4 198.811 343.306C202.103 340.424 205.804 337.358 210.18 336.193C213.861 335.192 219.239 334.456 223.021 333.822C230.975 332.269 240.095 331.656 246.679 326.873C249.317 325.054 250.891 322.09 253.57 320.087C259.827 315.447 268.701 318.717 274.222 312.872C281.665 305.166 290.866 299.3 298.943 292.248C307.776 284.992 319.575 274.711 328.204 267.25C337.63 258.707 347.526 250.183 355.746 240.618C358.425 237.388 360.736 233.893 362.044 230.071C363.476 226.085 363.046 221.834 363.557 217.623C364.069 213.249 365.193 208.977 366.931 204.91C368.567 200.76 371.675 197.429 371.757 193.484C372.145 189.13 369.712 185.574 368.628 181.404C367.463 177.071 368.69 172.615 369.814 168.445C372.023 161.516 373.209 146.779 383.882 151.296L383.8 151.48C379.016 149.539 375.519 151.48 373.863 156.222C371.716 162.252 370.346 168.588 369.058 174.843C368.403 179.197 369.978 183.264 371.736 187.168C373.352 191.195 373.229 195.916 370.939 199.657C367.688 205.196 365.561 211.348 364.886 217.766C364.396 221.977 364.886 226.392 363.435 230.52C362.085 234.629 359.672 238.287 356.973 241.619C348.692 251.491 338.898 259.933 329.41 268.599C313.44 282.703 296.878 296.806 280.213 309.969C277.064 312.831 274.222 316.387 270.051 317.777C265.982 319.494 261.422 318.533 257.475 320.23C253.202 321.456 251.423 325.994 247.804 328.406C236.987 335.641 222.837 334.64 210.651 337.91C206.479 338.994 203.146 341.876 199.895 344.635C193.495 350.338 187.238 356.245 180.081 361.027C169.858 368.795 153.704 369.735 144.748 359.535C141.804 356.367 139.575 352.668 137.469 348.948C131.314 337.869 125.159 325.606 122.317 313.567L122.358 313.526Z" fill="#D8B49C"/>
<path d="M254.081 321.661C253.12 322.478 252.261 323.419 251.648 324.502C251.034 325.585 250.646 326.791 250.482 328.038V327.997C250.319 330.102 250.687 332.146 251.464 334.047C252.302 335.907 253.631 337.522 255.022 339.014C257.884 341.957 261.32 344.349 265.082 345.698C266.943 346.393 268.885 346.822 270.848 346.924C271.809 347.047 272.791 346.985 273.752 346.985C274.774 346.945 275.756 346.863 276.696 346.679C278.577 346.352 280.295 345.677 281.685 344.594C283.035 343.49 284.18 342.1 284.855 340.424C286.245 337.072 286.122 332.862 284.814 329.366C283.526 325.79 280.54 322.683 277.412 320.189C275.817 319.004 273.997 318.063 272.034 317.839C271.032 317.716 270.092 317.757 269.09 318.063C268.026 318.309 266.984 318.472 265.92 318.595C264.857 318.717 263.794 318.758 262.73 318.738C261.667 318.697 260.665 318.738 259.663 318.983C257.639 319.433 255.717 320.353 254.081 321.64V321.661ZM253.958 321.497C255.594 320.148 257.537 319.167 259.582 318.677C260.604 318.39 261.688 318.35 262.73 318.35C263.773 318.35 264.816 318.288 265.859 318.145C266.902 318.002 267.924 317.839 268.926 317.532C269.928 317.184 271.012 317.062 272.075 317.144C274.222 317.287 276.226 318.186 277.984 319.372C281.379 321.824 284.609 324.808 286.327 328.733C287.983 332.637 288.188 337.174 286.695 341.181C285.938 343.163 284.609 344.962 282.892 346.229C281.174 347.517 279.088 348.253 277.003 348.559C272.832 349.152 268.435 348.764 264.571 347.026C260.665 345.391 257.251 342.734 254.47 339.566C253.1 337.972 251.852 336.234 251.034 334.252C250.278 332.289 249.93 330.123 250.155 328.017C250.36 326.73 250.769 325.483 251.423 324.379C252.077 323.275 252.977 322.315 253.979 321.518L253.958 321.497Z" fill="#D8B49C"/>
<path d="M122.235 417.298C121.009 412.372 122.849 406.935 126.264 403.317C132.459 395.652 139.166 388.09 147.468 382.469C151.884 379.341 157.978 379.955 162.844 380.895C167.609 381.815 172.475 382.019 177.321 382.387C191.45 383.654 207.052 384.288 221.161 384.002C207.093 385.882 191.634 385.167 177.158 384.226C172.271 383.92 167.363 383.756 162.538 382.898C157.794 382.019 152.702 381.201 148.429 384.063C140.352 389.5 133.461 396.674 127.082 404.032C125.425 405.831 123.851 407.732 123.115 410.083C122.317 412.372 122.133 414.865 122.46 417.277H122.256L122.235 417.298Z" fill="#D8B49C"/>
<path d="M256.964 385.228C263.528 383.818 269.887 381.385 275.756 378.381C280.499 376.153 282.994 372.126 285.55 367.854C290.171 360.925 294.874 353.853 299.066 346.679C301.704 342.387 303.503 337.992 304.75 333.209C305.221 331.083 305.895 329.346 304.566 327.977C300.17 325.176 292.052 326.893 289.353 331.288C288.556 337.256 287.922 343.225 283.935 348.171C282.769 349.602 281.236 350.869 279.498 351.625C277.678 352.361 276.39 352.647 275.224 353.628C273.466 355.223 271.666 357.062 270.03 358.881C269.437 359.597 268.395 360.271 267.413 360.455C260.44 360.925 253.427 356.694 249.685 365.095L249.501 365.013C250.176 363.46 251.075 361.968 252.384 360.864C256.576 357.41 262.383 360.108 267.147 359.413C268.824 359.065 269.642 357.369 270.828 356.204C272.014 354.998 273.097 353.71 274.365 352.586C277.023 350.501 280.724 350.215 282.687 347.169C285.714 343.163 286.777 337.951 287.268 333.046C287.145 331.329 287.901 329.612 289.21 328.447C293.054 324.543 305.016 322.213 307.224 328.672C307.572 330.429 307.102 332.126 306.672 333.741C305.384 338.646 303.36 343.347 300.661 347.64C297.205 353.424 293.525 359.065 289.66 364.584C285.632 369.919 282.749 376.602 276.246 379.341C270.235 381.937 263.201 384.819 256.985 385.228H256.964Z" fill="#D8B49C"/>
<path d="M147.018 229.478C150.167 238.574 156.178 247.465 165.277 251.205C174.356 255.191 184.416 251.9 193.352 248.814C211.98 242.335 228.624 231.583 243.285 218.481C250.748 212.084 258.028 205.298 265.143 198.512C275.674 188.456 285.795 176.744 284.916 161.516C284.671 146.8 277.453 132.676 265.777 123.519L265.9 123.355C277.923 132.185 285.836 146.473 286.245 161.455C287.513 177.03 277.064 189.723 266.452 199.82C259.316 206.708 252.118 213.515 244.634 220.014C226.088 236.223 204.005 249.672 179.468 253.985C169.469 255.804 159.245 251.001 153.459 242.784C150.494 238.798 148.326 234.261 146.834 229.519L147.038 229.458L147.018 229.478Z" fill="#D8B49C"/>
<path d="M121.54 209.12C126.775 209.284 132.112 209.549 137.121 208.18C138.696 207.71 140.127 206.954 140.884 205.87C142.683 203.131 140.945 199.902 140.74 196.591C139.738 186.391 152.109 186.657 159.205 186.473C162.19 186.555 165.482 187.556 167.568 189.927C168.794 191.154 168.856 192.952 170.267 193.566C170.778 193.75 171.494 193.75 172.23 193.586C177.117 192.196 181.227 188.456 185.296 185.369L185.439 185.512C182.903 187.986 180.286 190.418 177.342 192.462C175.174 193.872 172.598 195.589 169.858 194.976C168.938 194.772 168.201 194.036 167.772 193.259C166.32 189.907 162.64 188.313 159.164 188.333C155.647 188.394 152.068 188.783 148.613 189.375C146.895 189.723 145.178 190.336 144.032 191.644C141.456 194.444 143.031 198.389 143.378 201.741C144.462 208.303 137.305 210.203 132.152 210.142C128.574 210.203 125.037 209.856 121.499 209.345L121.52 209.141L121.54 209.12Z" fill="#D8B49C"/>
<path d="M214.965 161.128C219.709 155.057 224.944 149.069 228.46 142.242C229.585 139.85 230.771 137.377 230.464 134.843C229.83 132.083 227.172 131.163 225.721 128.179C222.388 121.782 226.702 113.238 233.797 111.746C238.725 111.092 241.649 116.202 243.817 119.595C244.859 121.128 246.004 122.62 247.313 122.947C248.601 123.417 250.217 122.436 251.525 121.209C254.286 118.695 256.249 115.22 258.273 111.889L258.457 111.971C256.249 116.12 252.752 124.909 247.027 124.234C241.363 122.681 240.606 113.177 234.043 113.585C230.28 114.342 227.499 118.041 226.743 121.679C225.7 125.808 228.399 129.038 231.078 131.817C233.695 135.21 231.65 139.728 229.851 142.998C225.884 149.579 220.425 156.263 214.965 161.107V161.128Z" fill="#D8B49C"/>
</g>
<defs>
<clipPath id="clip0_482_10013">
<rect width="392" height="517" fill="white" transform="translate(0 -81)"/>
</clipPath>
</defs>
</svg>
