<?xml version="1.0" encoding="UTF-8"?>
<svg id="Layer_2" data-name="Layer 2" xmlns="http://www.w3.org/2000/svg" viewBox="0 0 595.28 143.09">
  <defs>
    <style>
      .cls-1 {
        fill: none;
        stroke: #3f352c;
        stroke-miterlimit: 10;
      }
    </style>
  </defs>
  <path class="cls-1" d="m76.2,39.85c5.34.85,21.42.92,32.75-1.69,12.69-2.92,15.44-6.52,16.66-8.35,2.93-4.4,3.78-10.92,1.42-12.56-1.19-.83-4.52-1.74-12.25,5.45-21.04,19.54-34.75,33.97-42.58,45.57-.43.64-1.49,3.29-4.17,4.92-.25.15-5.38,3.16-9.5.35-1.42-.97-3.46-3.13-3.12-5.41.36-2.42,3.58-3.79,10.01-6.43,14.54-5.96,17.06-6.6,16.81-5.94-.36.93-2.68,2.58-7.2,8.72-3.77,5.13-4.89,8.42-4.66,11.59.11,1.61.11,2.48.73,2.95,3.52,2.64,31.82-15.08,31.15-16.22-.3-.51-6.19,4.21-9.96,9.5-1.74,2.44-4.33,5.9-3.13,7.09,4.78,4.74,27.36-9.94,36.62-16.01,1.52-1,3.88-2.63,3.62-4.27-.25-1.62-2.97-2.86-5.2-2.66-3.63.33-6.05,4.46-6.73,7.59-.18.84-.91,4.21.95,7.04,2.53,3.84,7.62,3.77,7.82,4.38.38,1.17-6.37,3.63-11.48,4.1-.55.05,1.92,1.1,5.75,1.01,6.34-.14,25.02-6.31,31.51-11.52,4.15-3.33,5.11-6.26,4.42-7.01-1.23-1.32-8.78,2.88-13.47,8.96-1.73,2.24-5.48,7.1-3.64,9.96,1.47,2.28,5.99,1.83,8.45,1.55,5.18-.59,15.77-3.04,29.47-15.53"/>
  <path class="cls-1" d="m158.13,23.8c-2.69-.4-3.46.21-3.73.62-1.25,1.95,3.8,7.14,4.8,8.14"/>
  <path class="cls-1" d="m214.18,68.1c4.4-1.57,9.9-4.35,14.7-9.36,2.72-2.84,5.95-6.31,6.25-11.37.06-.97.33-5.73-2.4-7.53-3.2-2.11-9.77.78-11.59,1.98-1.27.84-10.51,5.74-16.47,19.17-1.39,3.13-2.01,9.77.46,11.82,4.3,3.56,15.82-3.9,19.61-6.53,1.99-1.38-6.31,11.86-12.27,19.69-22.44,29.46-29.84,51.41-35.33,49.64-2.33-.75-2.78-5.26-2.96-7.09-1.9-18.93,25.03-35.33,31.08-39.01,6-3.65,15.2-8.32,27.65-11.28"/>
  <path class="cls-1" d="m263.25,64.37c1.19-2.53.95-3.97.47-4.76-2.93-4.9-10.56-3.55-15.9.06-4.47,3.02-10.14,8.86-9.99,15.56.04,1.9.46,4.07,2.45,5.22,6.09,3.51,25.66-16.01,25.47-16.23-.11-.13-6.71,5.58-10.77,13.18-1.18,2.21-.14,3.14.11,3.42,2.36,2.64,13.18-3.19,18.87-6.96,6.54-4.33,11.65-9.92,11.64-9.92-.01-.01-11.8,12.65-10.83,14.41,1.07,1.94,7.48-1.91,13.24-5.95,4.56-3.2,9.06-7.6,9.02-7.65-.04-.05-5.17,3.64-8.43,9.01-1.04,1.71-3.18,5.23-2.12,6.41,1.38,1.56,8.26-.91,12.29-4.81,4.71-4.56,8.24-8.63,9.36-10.12.59-.78-9.51,10.42-12.23,14.79-.32.51-.5,1.57.13,2.32.78.92,2.73.38,3.02.29"/>
  <path class="cls-1" d="m307.22,77.47c24.78-15.04,30.43-19.25,30.09-19.87-.48-.87-13.88,3.68-17.85,13.51-.57,1.4-1.45,3.68-.41,5.11,2.3,3.17,12.73.41,20.37-4.11,5.73-3.39,10.88-8.35,10.7-8.57-.18-.23-6.8,3.58-9.19,10.15-.46,1.25-.82,2.28-.33,2.85,1.67,1.92,11.67-3.34,19.26-9.28,4.45-3.48,8.25-7.34,8.33-7.26.13.14-11.5,10-10.02,12.39.72,1.16,4.37.31,8.63-1.16"/>
  <path class="cls-1" d="m380.26,63.46c.52.32,3.73,1.83,6.25,1.13.28-.08,3.5-.97,3.5-2.98,0-1.37-1.42-3.19-2.78-2.7-7.57,2.72-15.56,11.82-13.09,15.47,2.57,3.79,19.07-1.69,31-9.3,14.13-9.02,25.3-23.25,23.88-24.84-2.01-2.24-27.97,21.7-32.1,34.07-.35,1.05-1.11,3.42-.01,4.61,2.13,2.3,9.67-1.46,13.13-3.33"/>
  <path class="cls-1" d="m438.35,57.53c1.33-1.63,3.05-3.44,5.25-5.21,4.99-4.01,8.55-4.39,11.94-6.3,9.17-5.17,12.13-18.44,10.86-19.18-.73-.43-3.11,3.2-12.94,15.52-21.51,26.98-33.25,38.62-33.26,38.61,0,0,4.84-5.39,8.53-13.47,2.49-5.46,1.84-6.41,1.54-6.69-1.04-.98-4.34.02-5.59,2.16-1.27,2.18-.37,5.44,1.24,7.25,4.56,5.16,18.03,2.38,26.78-3.71,5.97-4.15,10.23-10.16,9.79-10.63-.39-.41-5.23,2.69-8.36,7.75-.94,1.53-4.12,6.66-2.55,8.44,1.8,2.04,9.56-.69,14.02-5.85,1.25-1.45,4.65-5.38,3.16-8.53-.96-2.02-3.75-3.38-6.06-2.73-2.25.63-4.19,3.18-3.67,4.68,1.39,4.03,18.07,1.08,20.25.78,7-.97,33.71-13.15,36.4-17.62,1.99-3.3,2.35-8.01,1.24-7.95-4.55.26-24.47,19.2-40.37,35.95-12.43,13.09-18.73,19.73-18.27,20.07.62.46,8.46-10.09,22.84-24.83.52-.53,1.49-1.76,1.06-1.61-2.86.98-5.4,4.42-6.22,7.92-.36,1.53-.06,3.55.91,4.7,4.17,4.96,28.13-8.84,29.3-9.52,16.41-9.55,30.57-22.54,29.66-23.77-.83-1.12-14.7,6.71-26.06,18.4-4.08,4.2-13.43,13.82-11.22,17.41.78,1.26,4.27,3.88,27.25-4.76"/>
  <path class="cls-1" d="m510.38,52.85c2.39-.87,5.21-1.67,8.42-2.19,7.6-1.23,14.08-.33,18.44.69"/>
</svg>